<?xml version="1.0" encoding="utf-8"?>
<!-- Generator: Adobe Illustrator 21.0.0, SVG Export Plug-In . SVG Version: 6.00 Build 0)  -->
<svg version="1.1" id="Layer_1" xmlns="http://www.w3.org/2000/svg" xmlns:xlink="http://www.w3.org/1999/xlink" x="0px" y="0px"
	 viewBox="103 295 130 163" xml:space="preserve">
<style type="text/css">
	.defense-0{fill:#94C941;}
	.defense-1{fill:none;stroke:#000000;stroke-width:1.2052;stroke-miterlimit:10;}
	.defense-2{fill:none;stroke:#000000;stroke-miterlimit:10;}
	.defense-3{fill:none;stroke:#000000;stroke-width:0.5;stroke-miterlimit:10;}
	.defense-4{fill:none;stroke:#000000;stroke-width:0.75;}
	.defense-5{fill:none;stroke:#000000;stroke-width:0.5;}
</style>
<g id="defense">
	<g id="injury">
		<path id="head" class="defense-0" d="M186.8,314.8c0,0,1.8-1.7,1.8-6.2c0-4.7-2.2-8-6.2-9.9c-0.8-0.4-5-2.8-11.5-1
			c-4.8,1.3-7.7,5.2-8.2,7.8c-0.6,2.9,0,5.5,0,6.7s0,8.1,0,9c0,1.5,0.4,3.3,1.1,4.7c0.6,1.2,1.7,3.8,5.2,4.4
			c4.1,0.8,5.9,0.6,8.1,0.2c2.5-0.5,5.1-2,6.7-3.9c2-2.4,2.2-6.6,2.2-8.2S186.4,315.5,186.8,314.8z"/>
		<path id="foot" class="defense-0" d="M197.4,423.7c1.8,0.7,3.7,0.5,5.6,0.2c1.3-0.2,2.7-0.4,4-0.8c0.7-0.2,1.3-0.5,1.9-0.8
			c0.2-0.1,1.5-1,1.6-1c0.1,0.1,0.1,0.2,0.1,0.3c0,0.7,0.2,1.3,0.3,1.9c0.1,0.8,0.1,1.5,0.2,2.3c0.1,1.3,0.4,2.5,0.5,3.8
			s0.2,2.6,0.4,3.9c0.2,1.1,0.3,2.3,0.5,3.4c0.2,1.3,0,2.7,0.5,3.9c0.6,1.3,1.3,2.6,2.1,3.9c0.2,0.3,0.4,0.7,0.5,1
			c0.5,0.9,1,1.8,1.8,2.5c0.5,0.5,1.1,0.8,1.6,1.2c1.8,1.2,3.6,2.4,5.5,3.3c0.5,0.2,0.9,0.4,1.3,0.8c0.5,0.6,1,1.6,1,2.5
			c0,0.3-0.1,0.7-0.3,1c-0.5,0.8-1.7,0.8-2.6,0.9c-5,0.2-10,0-15-0.2c-0.6,0-1.2-0.1-1.7-0.3c-0.9-0.4-1.2-1.8-1.3-2.7
			c-0.1-0.7-0.2-1.4-0.3-2.1c-0.1-0.5-0.1-1-0.1-1.5c0-0.4,0-0.9,0-1.3c0-0.5,0.1-0.9,0.1-1.4c0-0.6-0.1-1.2-0.1-1.7
			c-0.1-1.1-0.1-2.2,0-3.3c0-0.4,0.1-0.8,0-1.2c-0.2-0.9-0.7-1.7-1-2.5c-0.4-1-0.9-2-1.3-3c-0.3-0.6-0.6-1.2-0.9-1.8
			c-0.3-0.9-0.6-1.7-1-2.5c-0.3-0.8-0.7-1.6-1-2.4c-0.3-0.7-0.8-1.4-1-2.1C198.7,426.3,198.2,424.8,197.4,423.7 M110.1,439.9
			c-0.3,0.6-0.9,1.1-1.4,1.6c-1.5,1.4-3.2,2.8-4,4.8c-0.3,0.7-0.4,1.5-0.4,2.3c-0.2,2.5-0.2,5,0,7.5c0,0.4,0.1,0.8,0.3,1.1
			c0.6,1,2.8,0.9,3.8,0.9c1.5,0.1,3,0.1,4.4,0c1-0.1,2.5-0.1,3.5-0.3c2.4-0.6,0.4-4.5,0-5.9c-0.2-0.5-0.3-1.1-0.2-1.6
			c0.1-0.4,0.4-0.7,0.6-1.1c0.1-0.3,0.2-0.6,0.3-0.8c0.3-1.4,0.5-2.8,0.5-4.2c0-1.3,0.2-2.5,0.4-3.8c0.2-1.1,1.5-3.5,1.6-3.8
			c0.2-0.4,5.4-7.9,6-8.4c0.6-0.7,1.2-1.4,1.7-2.1c0.4-0.5,0.6-1.1,0.9-1.6c0.4-0.5,1.5-2.9,1.7-3.5c0.1-0.4,1-2,0.6-2.2
			c-0.7-0.4-1.4-0.5-2.2-0.7c-3.6-0.8-7.1-2.2-10.6-3.6c-0.2-0.1-1-0.4-1.2-0.3c-0.5,0.3-0.4,1.2-0.5,1.7c-0.2,0.8-0.5,1.6-0.7,2.4
			s-1.3,4.1-1.6,5c-0.4,1.2-0.5,2.6-0.6,3.8c-0.3,2.1-2.1,10.2-2.6,12.1C110.3,439.6,110.2,439.8,110.1,439.9z"/>
		<path id="shoulder" class="defense-0" d="M200.9,334.3c-0.2,0-1.9,0.4-2.5,0.6c-1.3,0.4-3.2,0.7-4.5,1c-2.6,0.7-4.7,1.3-7.3,1.8
			c-1.9,0.4-4.6,0.6-6.5,0.6c-2.1,0-3.4,0-5.5,0c-3.3-0.1-6.7-0.3-10-0.8c-1.2-0.3-2.6-0.5-3.7-0.7c-1.2-0.2-2.1-0.4-3.6-0.6
			c-4-0.5-9.9-1.6-10.9-1.5c-1.1,0.1-1.5,0-2.2-0.9c-0.5-0.7-0.9-1.5-1-2.4c-0.1-0.8-0.2-4.1,0.8-7.3c1.6-5,4.8-7.4,8.5-8.9
			c3.1-1.2,6.9-2.1,10.2-2c0,1.2,0.2,2.3,0.1,3.4c-0.1,1.1-0.1,5.3,0.2,6.2c0.2,0.7,0.3,1.6,0.6,2.3c0.1,0.2,0.9,1.8,1.2,2.3
			c0.9,1.5,3.5,2.9,5.1,2.9c6.4,0.4,7.1-0.2,8.4-0.5c2.5-0.6,4.6-2.2,6.1-4.2c1.3-1.8,1.7-4.9,1.6-7.1c0-1.3-0.2-2.8,0.8-3.8
			c1-0.9,2.1-0.6,3.3-0.3c2.8,0.5,3.9,0.9,5.5,1.5c0.8,0.3,1.7,0.6,2.3,1.3c0.8,0.8,2.6,3.7,3.2,4.8c0.4,0.7,0.6,1.5,0.8,2.3
			c0.3,1,0.2,1.7,0.2,2.7c-0.1,1.1-0.3,5.5-0.5,6c-0.1,0.3-0.2,0.5-0.3,0.8C201.2,334.1,201,334.2,200.9,334.3z"/>
		<path id="hamstring" class="defense-0" d="M158.1,367.8c1.7,0.5,3.5,0.6,5.2,0.6c0.8,0,3.7-0.2,4.3-0.3c1.5-0.2,5.5-1.2,6.3-1.6
			c0.3-0.2,2.1-2,2.3-2.4c0.8-1.3,1.5-2.6,2.2-3.9c0.2-0.5,1.5-1.7,1.8-1.5c0.2,0.1,2.1,1.8,2.6,2.2c0.5,0.4,2.4,2.2,2.7,2.8
			c0.8,1.6,1.6,3.1,2.5,4.7c0.3,0.6,4.1,6.3,4.4,6.7c0.3,0.4,0.5,0.9,0.5,1.4c0,0.6-0.2,1.3,0.1,1.8c0.1,0.3,0.4,0.5,0.6,0.7
			c0.6,0.6,6.3,10.5,6.6,11.3c0.1,0.2,0.3,0.5,0.3,0.7s-0.4,0.6-0.5,0.8c-0.9,1-2.2,1.4-3.2,2.3c-0.3,0.2-0.6,0.5-0.6,0.9
			c-0.1,0.6,0.5,1,1,1.1c1.2,0.3,2.4,0.1,3.5-0.4c0.3-0.1,0.5-0.3,0.8-0.5s0.4-0.3,0.7,0c0.4,0.4,1,1.9,1,2.2c0,0.3-0.3,0.4-0.5,0.6
			c-0.5,0.4-3.4,2-4.5,2.4c-2,0.8-4.1,1.5-6.3,2.1c-0.6,0.2-1.3,0.4-1.9,0.3c-1-0.1-1.8-0.9-2.7-1.3c-0.5-0.3-4.5-3.5-5.5-4.3
			c-1.9-1.5-8.7-8.2-9.5-9c-2.1-2.3-4.2-4.6-6.3-6.8c-0.8-0.8-1.6-1.7-2.7-2.1c-0.9-0.4-4.2-0.7-5-0.5c-0.6,0.2-1.2,0.6-1.8,1
			c-0.1,0-0.1,0.1-0.2,0.1c-0.1,0-0.1,0-0.1,0c-0.8-0.3-3.8-2-4.5-2.4c-1.6-1-3.1-2.1-4.5-3.3c-0.3-0.3-0.6-0.5-0.8-0.8
			c-0.8-0.9-1.2-1.9-1.5-3.1c-0.8-2.9-1.9-5.8-3.4-8.4c-0.2-0.3-0.3-0.6-0.3-0.9c0-0.6,0.4-1,0.8-1.4c1.8-1.7,3.8-3.2,5.3-5.1
			c0.5-0.7,0.4,0.7,0.4,0.8c0.1,0.6,1.4,3.4,1.6,3.8c1.1,1.9,1.6,2.7,2.7,4C154.1,365.2,155.4,367,158.1,367.8z M134.7,371
			c-0.5-0.6-1-1.2-1.4-1.9c-0.1-0.2-0.3-0.4-0.5-0.5c-0.5-0.1-1,0.4-1.1,0.9c-0.7,2.2-1,6.2-1.1,9.4c-0.1,2-0.7,7.4-1.3,10.9
			c-0.1,0.8-0.1,1.6-0.4,2.4c0.9,0,1.9,0.2,2.7,0.6s1.5,0.7,2.3,1c1.6,0.8,3,1.9,4.4,3c0.4,0.3,0.7,0.7,1,1.1
			c0.4,0.6,0.6,1.3,0.5,1.9c0.6-0.1,2.7-2.8,2.9-3.2c1-1.7,1.7-2.4,2.9-4.1c0.4-0.6,1.9-1.8,1.9-2s-0.6-0.7-0.7-0.9
			c-0.3-0.6-4.8-7.1-5-7.4c-1.3-1.2-1.5-3.1-2.3-4.7c-0.3-0.5-1.2-2.3-1.4-2.7c-0.2-0.4-0.5-0.8-0.7-1.1
			C136.5,373,135.5,372,134.7,371z"/>
		<path id="knee" class="defense-0" d="M193.7,401.8c3-1,6-2.1,8.6-3.9c0.2-0.1,0.4-0.3,0.7-0.2c0.2,0.1,0.3,0.2,0.4,0.4
			c0.4,0.7,0.9,1.4,1,2.2c0.1,0.6-0.1,1.1-0.1,1.7c-0.1,1-0.2,2-0.1,2.9c0,0.4,0.1,0.8,0.2,1.2c0.2,0.4,0.5,0.7,0.8,0.8
			c0.4,0.1,0.8,0,1.2,0c0.2,0.1,0.5,1,0.6,1.3c0.2,0.5,0.5,1.1,0.7,1.6c0,0.1,0.1,0.2,0,0.3c-0.1,0.1-0.2,0.1-0.3,0.1
			c-2.5,0.4-5,1-7.5,1.6c-1.2,0.3-2.4,0.7-3.6,1.2c-0.7,0.3-1.4,0.7-2.1,1.2c0-2.4,0-4.6-0.8-7c-0.1-0.4-0.3-0.8-0.5-1.2
			c-0.4-0.7-1-1.2-1.6-1.6c-0.3-0.2-1.2-0.7-1.4-1.1c-0.1-0.4,0.3-0.4,0.6-0.5C191.4,402.5,192.5,402.2,193.7,401.8z M139.4,400.1
			c0.1-0.1,0.2-0.3,0.2-0.4c0.1-0.2,0-0.4,0-0.6c-0.4-1.7-2-2.8-3.4-3.7c-2.2-1.3-4.4-2.6-7-3c-0.1,0-0.2,0-0.3,0s-0.2,0.2-0.3,0.3
			c-0.6,0.7-1.1,1.5-1.5,2.4c-0.2,0.3-0.3,0.7-0.4,1c-0.6,1.6-1.6,3.1-2.8,4.4c-1,1.1-2.3,2-3.2,3.1c-0.3,0.4-0.6,1-0.3,1.4
			c0.1,0.2,0.4,0.3,0.6,0.4c2.1,0.7,4.2,1.3,6.3,1.9c2.1,0.5,4.4,1,5.9,2.6c-0.1-0.1,0.9-2.1,1-2.3c0.7-1.3,1.4-2.8,2.2-4
			C137.3,402.3,138.5,401.3,139.4,400.1z"/>
		<path id="hand" class="defense-0" d="M201.7,374c1.5-2.6,4.2-4.3,8.1-3.2c0.2,0.1,0.6,0.2,0.6,0.4c1.1,2.7,1,5.8,1.7,8.6
			c0.8,3,1,5.2,0.7,8c-0.3,3-0.5,6.8-0.4,9.8c0.1,2.5,0.2,4.7-0.1,7.2c0,0.3-0.3,1-0.5,1.1c-0.3,0.2-0.7,0.8-0.6,1.1
			c0.3,0.8-0.4,1.8-1.2,1.6c0-0.3-0.6-0.4-0.6-0.7c0-0.3-0.5-0.2-0.7,0c-0.1,0.1-0.1,0.2-0.1,0.2c-0.2,0.3-1.1,0.2-1.4-0.1
			s0-0.7-0.4-0.9c-0.3-0.2-0.7-0.3-1.1-0.3c-2.1-0.1-1.7-2-1.7-3.3c0.1-2.7,0.7-5.3,0.9-8c0.1-0.9,0.4-1.9-0.4-2.3
			c-0.6-0.3-1.1,0.3-1.7,0.6c-1.6,0.8-3,2.2-4.8,2c-0.7-0.1-1.6-0.2-1.6-1c0-0.5,0.4-0.8,0.8-1.1c2.8-2.1,4.7-5,5.8-8.3
			c0.8-2.1,0.7-4.8-0.1-6.9c-0.2-0.6-0.5-1.1-0.6-1.7C202.2,376,201.9,374.8,201.7,374z M146.4,373.4c-0.6-0.5-1.1-1.1-1.4-1.8
			c-0.2-0.4-0.3-0.8-0.5-1.2c-0.1-0.3,0.1-0.5-0.1-0.7c-0.3-0.5-2.1-0.4-2.6-0.4c-0.9,0.1-1.7,0.4-2.4,1c-0.5,0.4-0.9,1-1.3,1.6
			c-0.4,0.7-0.8,1.4-1.1,2.1c0.9,0.6,1.4,1.7,1.8,2.7c0.4,1,0.6,2.1,1.1,3.1c0.4,0.9,2.3,3.4,2.6,3.9c0.7,1.2,1.6,2.4,2.4,3.6
			c0.7,1.1,1.5,2.2,2.2,3.2c0.3,0.5,0.8,0.8,1.2,1.3c0.8,1,1.7,1.9,2.5,2.9c0.4,0.4,0.7,0.8,1.1,1.2c0.3,0.3,0.5,0.6,0.9,0.8
			c0.4,0.2,0.9,0.1,1.1-0.2c0.2-0.3,0.3-0.7,0.7-0.7c0.3,0,0.4,0.2,0.6,0.4c0.4,0.3,1.1,0.3,1.4-0.1c0.4-0.4,0.5-1,0.2-1.4
			c-0.3-0.5-0.9-1-0.7-1.5c0.4,0.1,0.7,0.4,1,0.7c0.3,0.3,0.6,0.6,1,0.8c0.4,0.2,0.9,0.2,1.2-0.1c0.3-0.3,0.2-0.9,0-1.3
			s-0.4-0.8-0.4-1.3c0.6,0.5,1.6,0.2,1.8-0.5c0.2-0.6-0.1-1.2-0.4-1.7c-0.5-0.8-1-1.5-1.6-2.3c-0.5-0.6-0.9-1.1-1.4-1.6
			c-0.3-0.3-0.6-0.5-0.8-0.8c-0.5-0.5-1.3-1.2-1.6-1.8c0.2-0.1,0.8,0,0.9,0c1.4,0.5,2.6,1.4,3.9,1.9c0.5,0.2,1.2,0.3,1.6-0.1
			c0.1-0.1,0.2-0.3,0.2-0.5c0.1-0.5,0-1-0.2-1.4c-0.3-0.5-0.7-0.8-1.2-1.1c-0.7-0.5-1.6-0.7-2.3-1.2c-0.7-0.4-1.4-1-2.2-1.4
			c-1.7-1-3.4-1.9-5.1-2.8c-0.6-0.3-1.2-0.6-1.7-1c-0.6-0.4-1.1-1-1.6-1.5C147.1,374,146.8,373.7,146.4,373.4z"/>
	</g>
	<g id="outline">
		<g>
			<path d="M186.5,314.7L186.5,314.7c1.3-1.6,1.7-3.7,1.7-5.7s-0.3-4-1.3-5.7s-2.5-3-4.3-4s-3.7-1.7-5.7-1.9
				c-4-0.3-8.2,0.6-11.2,3.4c-0.7,0.7-1.4,1.5-1.9,2.3c-0.5,0.9-0.9,1.8-1.1,2.8c-0.2,1-0.2,2-0.2,3s0.2,2,0.3,3.1v6.2
				c0,1,0,2.1,0,3.1s0.2,2,0.5,3c0.7,1.8,1.6,3.8,3.3,4.8c0.8,0.5,1.8,0.8,2.8,0.9c1,0.2,2,0.3,3,0.4s2,0.1,3-0.1
				c1-0.1,2-0.3,2.9-0.6c1.9-0.7,3.6-1.8,4.9-3.3c1.2-1.5,1.7-3.5,2-5.5c0.1-1,0.1-2,0.2-3.1C185.6,316.6,186,315.6,186.5,314.7z
				 M187.1,314.8l-0.1,0.1c-0.5,0.8-0.8,1.8-0.9,2.7c0,1,0,2.1-0.1,3.1c-0.2,2.1-0.7,4.2-2.1,6c-1.4,1.7-3.2,2.9-5.2,3.6
				s-4.2,0.9-6.3,0.7c-1-0.1-2.1-0.2-3.1-0.4c-1-0.2-2.1-0.5-3-1.1s-1.7-1.4-2.2-2.4c-0.3-0.5-0.5-0.9-0.7-1.4s-0.4-1-0.6-1.5
				c-0.3-1-0.5-2.1-0.5-3.1V318v-6.2c-0.1-1-0.2-2-0.3-3.1c-0.1-1,0-2.1,0.2-3.1c0.2-1.1,0.6-2.1,1.2-3c0.6-0.9,1.2-1.7,2-2.5
				c1.5-1.5,3.4-2.6,5.4-3.2s4.2-0.8,6.3-0.6c2.1,0.2,4.2,0.9,6,1.9c1.9,1,3.6,2.5,4.6,4.4c1.1,1.9,1.4,4.1,1.3,6.2
				c0,1.1-0.2,2.1-0.5,3.1C188.3,313.1,187.8,314.1,187.1,314.8z"/>
		</g>
		<g>
			<path d="M162.5,313.6c-3.8,0.1-7.8,0.9-11.2,2.7c-1.7,0.9-3.4,1.8-4.6,3.3c-0.6,0.7-1,1.6-1.4,2.5s-0.7,1.7-1,2.7
				c-0.5,1.9-0.8,3.8-0.8,5.7c0,0.5,0,1,0.1,1.4c0,0.4,0.2,0.8,0.4,1.2c0.5,0.7,1.3,1.3,2,2.1l4.2,4.1l1.9,2.2
				c0.2,0.2,0.3,0.3,0.5,0.4s0.3,0.1,0.5-0.1c0.1-0.1,0.2-0.1,0.3,0c0.1,0,0.1,0.1,0.2,0.2c0.1,0.1,0.1,0.2,0.2,0.4
				c0.1,0.2,0.1,0.5,0.1,0.7c-0.1-0.2-0.2-0.5-0.3-0.7s-0.3-0.4-0.4-0.3c0,0-0.2,0.2-0.4,0.2s-0.3,0-0.5,0c-0.3-0.1-0.5-0.3-0.7-0.4
				l-2.3-1.9l-4.2-4.1c-0.7-0.7-1.4-1.3-2.1-2.2c-0.3-0.5-0.5-1.1-0.6-1.6s-0.1-1-0.1-1.5c0.1-2,0.3-4,0.8-6c0.2-1,0.6-2,1.1-2.9
				c0.4-0.9,0.9-1.8,1.6-2.6c1.3-1.7,3.1-2.7,4.9-3.6c3.6-1.8,7.6-2.7,11.7-2.8L162.5,313.6z"/>
		</g>
		<g>
			<path d="M187.2,314.1c2.3,0,4.5,0.4,6.6,1c1.1,0.3,2.2,0.7,3.2,1.2c0.5,0.3,1,0.6,1.4,1.2l1,1.4c0.6,0.9,1.3,1.8,1.8,2.8
				s1.1,2,1.2,3.3c0,2.3,0.1,4.5-0.2,6.7c-0.1,0.6-0.2,1.1-0.3,1.7s-0.4,1.2-0.8,1.6c-0.7,0.9-1.6,1.7-2.5,2.4
				c-0.9,0.7-1.8,1.4-2.6,2.1c-0.4,0.3-0.8,0.7-1.2,1.1l-1.1,1.2l-2.2,2.5l-1.1,1.3c-0.4,0.4-0.8,0.8-1.2,1.2
				c-1.6,1.5-2.7,3.3-3.5,5.4c-0.9,2.2-2.6,3.9-4.3,5.3c-0.8,0.7-1.6,1.5-2.2,2.4c-0.3,0.4-0.6,0.9-0.9,1.3
				c-0.1,0.2-0.2,0.5-0.3,0.7c-0.1,0.3-0.2,0.6-0.4,0.8c-0.5,1-1.2,2-2,2.8s-1.7,1.6-2.8,2.1c-2.3,0.7-4.4,0.9-6.7,1.1
				c-2.2,0.2-4.5,0.2-6.8-0.1c-1.1-0.2-2.3-0.5-3.3-1.2c-0.9-0.7-1.8-1.4-2.6-2.2c-1.6-1.6-3-3.4-4.2-5.3c-0.6-0.9-1.2-1.9-1.6-3
				c-0.2-0.5-0.4-1.1-0.5-1.6c0-0.3-0.1-0.6-0.1-0.9V354v-0.2v-0.1c0,0,0,0,0-0.1c0,0,0,0,0-0.1c0,0,0.2-0.2,0.3,0l-0.3,0.2
				c0.1,0.1,0.3,0,0.3,0l0,0l0,0v0.1v0.2v0.4c0,0.3,0,0.5,0.1,0.8c0.1,0.5,0.3,1,0.5,1.5c0.5,1,1,1.9,1.6,2.9
				c1.2,1.8,2.6,3.5,4.2,5.1c0.8,0.8,1.6,1.5,2.5,2.1s1.9,0.9,3,1c2.1,0.3,4.4,0.2,6.6,0c1.1-0.1,2.2-0.2,3.3-0.4
				c1.1-0.2,2.2-0.4,3.2-0.7c0.9-0.4,1.7-1.1,2.5-1.9c0.7-0.8,1.4-1.7,1.8-2.6c0.1-0.2,0.2-0.5,0.3-0.7c0.1-0.3,0.2-0.6,0.4-0.8
				c0.3-0.5,0.6-1,0.9-1.5c0.7-0.9,1.5-1.7,2.3-2.5c1.7-1.4,3.2-3,4-5c0.8-2.1,2-4.2,3.7-5.7c0.4-0.4,0.8-0.7,1.2-1.1l1.1-1.2
				l2.2-2.5l1.1-1.2c0.4-0.4,0.8-0.8,1.3-1.2c0.9-0.7,1.8-1.3,2.6-2s1.7-1.4,2.3-2.2c0.6-0.8,0.8-1.9,1-2.9c0.3-2.1,0.3-4.4,0.3-6.6
				c-0.1-1-0.6-2-1.1-3s-1.1-1.9-1.8-2.8l-0.9-1.4c-0.3-0.4-0.7-0.7-1.2-1c-0.9-0.6-2-0.9-3-1.3c-2.1-0.6-4.3-1-6.5-1.1v-0.4H187.2z
				"/>
		</g>
		<g>
			<path d="M147.4,391l-3.5,4.6c-1.2,1.5-2.5,3-3.8,4.3c-1.3,1.4-2.6,2.8-3.7,4.4c-1.1,1.6-2,3.3-2.6,5c-0.2,0.4-0.3,0.9-0.4,1.4
				c-0.1,0.5-0.1,1-0.3,1.4l-0.9,2.8c-0.6,1.8-1.2,3.7-1.9,5.4c-0.3,0.9-0.6,1.8-1,2.7c-0.4,0.9-0.9,1.7-1.4,2.6
				c-1,1.7-2.2,3.2-3.3,4.7c-0.6,0.8-1.2,1.5-1.7,2.3s-1.1,1.6-1.6,2.4s-1,1.6-1.4,2.5s-0.8,1.7-1.2,2.6c-0.2,0.4-0.4,0.9-0.5,1.3
				c0,0.1-0.1,0.2-0.1,0.3l0,0v0.2v0.7l-0.2,2.9l-0.1,1.4v0.3c0,0.1,0,0.3,0,0.4c0,0.3-0.1,0.5-0.1,0.8c-0.1,0.5-0.3,1-0.5,1.5
				c-0.1,0.1-0.2,0.3-0.3,0.4c0,0-0.1,0.1-0.1,0.2c-0.1,0.1-0.1,0.3-0.1,0.5c0,0.4,0.1,0.8,0.3,1.2c0.2,0.5,0.3,0.9,0.4,1.4
				c0.3,0.9,0.5,1.9,0.6,2.9c0,0.3-0.1,0.6-0.2,0.9c-0.2,0.3-0.4,0.4-0.7,0.6c-0.5,0.2-1,0.3-1.5,0.4c-1,0.1-1.9,0.1-2.9,0.2
				c-1.9,0.1-3.9,0.1-5.8-0.1c-0.5-0.1-1-0.1-1.5-0.3c-0.2-0.1-0.5-0.2-0.8-0.4c-0.1-0.1-0.1-0.2-0.2-0.3l-0.1-0.2
				c0-0.1-0.1-0.2-0.1-0.4c-0.3-0.9-0.4-2-0.3-3c0.3-1.9,0.2-3.8,0.2-5.7c0-0.5,0.1-1,0.3-1.5c0.2-0.5,0.4-0.9,0.6-1.4
				c0.5-0.9,1.1-1.6,1.8-2.4c0.7-0.8,1.5-1.3,2.1-2c0.3-0.3,0.6-0.7,0.7-1l0.4-1.4c0.3-0.9,0.4-1.8,0.6-2.8l0.6-2.8
				c0.8-3.8,1.6-7.5,2.5-11.3c1-3.7,2.2-7.4,3.4-11c0.6-1.8,1.2-3.7,2.2-5.4c1-1.7,2.2-3.2,3.5-4.7c1.3-1.3,2.4-2.9,3.4-4.5
				s2-3.2,2.3-5.1c0.4-1.8,0.6-3.7,0.8-5.6s0.3-3.8,0.4-5.7c0.1-1.9,0.3-3.9,0.6-5.8c0.1-1,0.3-1.9,0.5-2.9c0.1-0.5,0.2-1,0.4-1.4
				c0.2-0.5,0.3-1,0.8-1.5l0.8,0.8c-0.2,0.2-0.4,0.6-0.5,1s-0.3,0.9-0.4,1.3c-0.2,0.9-0.4,1.8-0.5,2.8c-0.3,1.9-0.5,3.8-0.6,5.7
				c0,1.9-0.2,3.9-0.4,5.8s-0.5,3.8-0.9,5.7c-0.2,1-0.6,1.9-1,2.8s-1,1.7-1.5,2.5c-1.1,1.6-2.2,3.2-3.6,4.6
				c-1.3,1.4-2.5,2.9-3.4,4.5c-1,1.6-1.5,3.4-2.2,5.2c-1.2,3.6-2.5,7.3-3.4,10.9c-0.9,3.7-1.7,7.5-2.5,11.2l-0.6,2.8
				c-0.2,0.9-0.3,1.9-0.6,2.8l-0.4,1.4c-0.2,0.5-0.6,0.9-0.9,1.3c-0.7,0.7-1.5,1.3-2.1,2s-1.2,1.4-1.7,2.2c-0.5,0.8-0.8,1.6-0.8,2.5
				c0,1.9,0.1,3.9-0.2,5.8c-0.1,0.9,0,1.8,0.3,2.7c0,0.1,0.1,0.2,0.1,0.3c0,0.1,0.1,0.2,0.1,0.2c0.1,0.1,0.3,0.2,0.5,0.2
				c0.4,0.1,0.9,0.2,1.4,0.3c1.9,0.2,3.8,0.2,5.7,0.2c1,0,1.9-0.1,2.8-0.2s1.9-0.4,1.8-1.2c-0.1-0.9-0.4-1.8-0.7-2.7
				c-0.2-0.4-0.3-0.9-0.5-1.3c-0.2-0.5-0.4-1-0.4-1.5c0-0.3,0-0.6,0.2-0.9c0.1-0.2,0.2-0.3,0.3-0.4c0-0.1,0.1-0.1,0.1-0.2
				c0.2-0.3,0.3-0.8,0.4-1.2c0-0.2,0.1-0.4,0.1-0.7c0-0.1,0-0.2,0-0.3v-0.4l0.1-1.4l0.2-2.9v-0.7v-0.2c0-0.1,0-0.2,0-0.3
				c0-0.1,0.1-0.3,0.1-0.4c0.2-0.5,0.4-0.9,0.6-1.4c1.5-3.6,3.7-6.9,6.3-9.7c1.2-1.5,2.4-3,3.4-4.6c1.1-1.6,1.7-3.3,2.3-5.2
				c0.6-1.8,1.2-3.6,1.7-5.5l0.8-2.8c0.1-0.5,0.4-0.9,0.6-1.3c0.2-0.4,0.3-0.9,0.5-1.4c0.7-1.8,1.5-3.6,2.6-5.2s2.4-3.1,3.7-4.5
				s2.6-2.8,3.7-4.3l3.4-4.7L147.4,391z"/>
		</g>
		<g>
			<path d="M206.7,406.6c1.3,3.5,2.8,6.9,3.5,10.7c0.7,3.7,1.1,7.4,1.5,11.1c0,3.7,1.1,7.3,1.2,11.1c0,0.4,0.1,0.9,0.2,1.3
				c0.1,0.2,0.1,0.3,0.4,0.5c0.2,0.2,0.3,0.4,0.4,0.7c0.2,0.4,0.4,0.9,0.6,1.2c0.2,0.3,0.5,0.7,0.8,1.1c0.5,0.8,1.1,1.5,1.6,2.3
				c0.5,0.7,1.1,1.3,1.9,1.8c1.6,1,3.1,2,4.7,3c0.8,0.5,1.7,0.9,2.4,1.6c0.4,0.3,0.7,0.7,1,1.2s0.4,1,0.4,1.5c0,0.3,0,0.5,0,0.7
				s0,0.5-0.1,0.8c-0.1,0.4-0.5,0.6-0.8,0.7s-0.5,0.1-0.8,0.2c-1,0.1-1.9,0.1-2.8,0.2h-5.6c-1.9,0-3.7,0-5.6-0.1
				c-0.9,0-1.9-0.1-2.8-0.2c-0.5-0.1-0.9-0.1-1.4-0.2c-0.1,0-0.2-0.1-0.4-0.1c-0.1,0-0.1-0.1-0.2-0.2c-0.1-0.1-0.1-0.1-0.1-0.2
				c-0.2-0.2-0.3-0.4-0.4-0.7c-0.4-0.9-0.6-1.8-0.7-2.8c-0.1-0.9-0.2-1.9-0.3-2.8c0-1.9-0.1-3.7-0.2-5.6c-0.1-0.9,0-1.9-0.1-2.8
				s-0.3-1.8-0.7-2.5c-0.9-1.7-1.6-3.4-2.3-5.1l-2.3-5.1l-1.1-2.6c-0.4-0.9-0.8-1.6-1.2-2.5c-1.7-3.3-3.2-6.9-3.5-10.8
				c-0.2-1.9-0.3-3.7-0.5-5.6c-0.1-0.9-0.3-1.8-0.7-2.5c-0.5-0.7-1.2-1.3-1.9-1.8c-2.9-2.3-6-4.3-9-6.6c-1.5-1.1-3-2.3-4.3-3.6
				c-1.4-1.3-2.7-2.6-4-4c-2.6-2.7-5.1-5.4-7.7-8.1c-0.3-0.3-0.6-0.7-1-1c-0.3-0.3-0.7-0.6-1-0.8c-0.7-0.5-1.5-0.9-2.3-1.1
				c-1.6-0.4-3.4,0.3-4.8,1.3l-0.7-1c0.8-0.5,1.7-1,2.7-1.2c1-0.3,2-0.4,3-0.1s1.8,0.8,2.6,1.3c0.4,0.3,0.8,0.6,1.1,0.9l1,1
				c2.5,2.7,5,5.5,7.6,8.2c1.3,1.3,2.6,2.7,3.9,4c1.3,1.3,2.8,2.4,4.3,3.6c2.9,2.3,6,4.3,9,6.6c0.7,0.6,1.5,1.1,2.1,2
				s0.8,1.9,0.9,2.8c0.3,1.9,0.4,3.7,0.7,5.6c0.2,1.8,0.7,3.6,1.3,5.3c0.6,1.7,1.4,3.4,2.2,5c0.4,0.8,0.9,1.7,1.2,2.6l1.1,2.6
				l2.1,5.2c0.7,1.7,1.4,3.5,2.2,5.1c0.4,0.9,0.7,1.9,0.7,2.8c0.1,1,0,1.9,0.1,2.8l0.1,5.6c0.1,1.8,0.3,3.7,0.9,5.4
				c0.1,0.2,0.2,0.4,0.3,0.5l0.1,0.1c0,0,0,0,0.1,0s0.2,0.1,0.3,0.1c0.4,0.1,0.9,0.2,1.3,0.2c0.9,0.1,1.8,0.1,2.8,0.2
				c1.9,0.1,3.7,0.1,5.6,0.1c1.9,0,3.7,0,5.6-0.1c0.9,0,1.9-0.1,2.7-0.2c0.4-0.1,0.8-0.2,0.8-0.3c0-0.1,0-0.3,0-0.6
				c0-0.2,0-0.5,0-0.7c0-0.8-0.4-1.5-1.1-2.1c-0.6-0.6-1.5-1-2.3-1.5c-1.6-1-3.2-1.9-4.8-3c-0.8-0.5-1.6-1.2-2.2-2.1
				c-0.5-0.8-1-1.6-1.5-2.4c-0.2-0.4-0.5-0.8-0.7-1.2c-0.2-0.5-0.3-0.9-0.5-1.3c-0.1-0.2-0.2-0.4-0.3-0.6c-0.1-0.1-0.1-0.1-0.2-0.3
				c-0.1-0.1-0.2-0.2-0.2-0.4c-0.2-0.5-0.2-1-0.3-1.5c-0.1-3.7-1.2-7.3-1.3-11.1c-0.3-3.7-0.8-7.4-1.5-11c-0.3-1.8-0.9-3.6-1.5-5.3
				c-0.6-1.7-1.4-3.4-2.1-5.2H206.7z"/>
		</g>
		<path class="defense-1" d="M201.9,395.1c1.2,2.5,2.5,5.4,2.5,6.2"/>
		<g>
			<path d="M179.8,358.3c1.5,0.7,2.9,1.8,4.1,2.9c0.6,0.6,1.2,1.2,1.7,1.8c0.1,0.1,0.4,0.4,0.5,0.6s0.2,0.4,0.3,0.6l0.5,1.1
				c0.3,0.7,0.7,1.5,1,2.2c0.4,0.7,0.7,1.4,1.3,2c1.1,1.3,1.9,2.7,2.7,4.2c0.4,0.7,0.8,1.4,1.1,2.3c0,0.5,0,0.8,0.1,1.2
				c0.1,0.4,0.2,0.7,0.4,1c0.1,0.2,0.2,0.3,0.3,0.4s0.3,0.3,0.4,0.5c0.3,0.4,0.5,0.7,0.7,1c0.5,0.7,0.9,1.4,1.3,2.1
				c0.8,1.4,1.6,2.9,2.4,4.3c0.4,0.7,0.7,1.5,1.1,2.2c0.2,0.4,0.3,0.8,0.5,1.1c0.1,0.2,0.2,0.4,0.2,0.6l0.1,0.3
				c0,0.1,0.1,0.3,0.1,0.4h-0.7c0-0.1,0-0.1-0.1-0.2l-0.1-0.3c-0.1-0.2-0.2-0.4-0.3-0.5l-0.6-1.1l-1.2-2.1l-2.3-4.3
				c-0.4-0.7-0.8-1.4-1.2-2.2c-0.2-0.4-0.4-0.7-0.6-1c-0.1-0.1-0.2-0.3-0.4-0.5c-0.1-0.2-0.3-0.4-0.4-0.6c-0.4-0.8-0.6-1.8-0.6-2.5
				c-0.2-0.7-0.6-1.4-1-2.1c-0.8-1.4-1.7-2.8-2.8-3.9c-1.2-1.3-1.9-2.8-2.7-4.2c-0.4-0.7-0.7-1.5-1.1-2c-0.6-0.6-1.1-1.2-1.6-1.8
				c-1.1-1.2-2.3-2.2-3.6-3.1L179.8,358.3z"/>
		</g>
		<g>
			<path d="M143.7,334c-2.7,3.8-5.4,7.6-7.9,11.4c-1.2,1.9-2.4,4-3.6,6c-0.6,1-1.2,2-1.7,3s-0.8,2.1-1.1,3.2
				c-0.5,2.2-0.3,4.5,0.7,6.4c0.3,0.5,0.5,0.9,1,1.3c0.4,0.5,0.7,1,1.1,1.4l2,2.9c0.7,0.9,1.3,1.9,2.1,2.7c0.2,0.2,0.4,0.4,0.6,0.6
				c0.2,0.2,0.4,0.4,0.6,0.7c0.4,0.4,0.8,0.9,1.1,1.4c0.4,0.4,0.7,1,1,1.6c0.2,0.6,0.3,1.2,0.5,1.7c0.3,1,0.9,2.1,1.4,3
				c0.3,0.5,0.6,1,0.9,1.4c0.4,0.5,0.7,1,1,1.4c0.7,1,1.3,1.9,1.9,2.9c0.6,1,1.2,2,1.9,2.9c0.6,0.9,1.5,1.8,2.2,2.6
				c0.8,0.9,1.5,1.7,2.3,2.6c0.4,0.4,0.8,0.9,1.2,1.1s1,0.1,1.2-0.2c0.2-0.3-0.2-0.7-0.6-1.2l-0.1-0.2l0,0c0.1,0-0.3-0.1,0.2-0.4
				c0.4,0.1,0.1,0.1,0.2,0.1l0,0l0.1,0.1l0.3,0.3c0.2,0.2,0.4,0.4,0.6,0.6c0.4,0.4,0.8,0.8,1.3,0.8c0.3,0.1,0.7-0.6,0.7-0.9
				c0-0.5-0.3-0.9-0.7-1.4c-0.3-0.4-0.7-0.9-1.1-1.3l-2.3-2.7l-0.6-0.7L152,389v-0.1l0,0c0.2-0.2-0.4,0.3,0.4-0.4
				c0.2,0.1,0.1,0.1,0.2,0.2l0.3,0.3l1.2,1.2l2.5,2.4c0.8,0.7,1.7,1.8,2.6,1.7c0.3-0.1,0.3-0.8,0.1-1.2c-0.2-0.5-0.5-0.9-0.9-1.4
				c-0.7-0.8-1.7-1.6-2.5-2.4s-1.6-1.7-2.4-2.6l0,0l0.5-0.4c1.1,1.3,2.3,2.6,3.6,3.7c0.6,0.6,1.3,1.1,2,1.5s1.2-0.3,1-1.1
				c-0.2-0.8-0.6-1.5-1.1-2.2c-0.5-0.6-1.1-1.3-1.7-1.9c-0.6-0.6-1.2-1.2-1.8-1.9c-0.3-0.3-0.6-0.6-0.9-1c-0.1-0.1-0.1-0.2-0.2-0.4
				c0-0.1-0.1-0.3,0.1-0.5c0.2-0.1,0.3-0.1,0.4-0.1c0.3,0,0.5,0.1,0.7,0.2c0.9,0.3,1.6,0.8,2.4,1.2c0.7,0.4,1.5,0.8,2.3,0.9
				c0.4,0,0.7-0.1,0.8-0.3c0.2-0.2,0.2-0.6,0.1-0.9c-0.3-0.7-0.9-1.2-1.7-1.5l-4.6-2.4c-1.5-0.8-3.1-1.7-4.5-2.7s-2.9-2-4.2-3.1
				c-0.7-0.6-1.3-1.1-1.9-1.9c-0.1-0.1-0.1-0.2-0.2-0.4c-0.1-0.2-0.1-0.2-0.1-0.3l-0.2-0.6l-0.3-1.3c-0.5-1.7-0.9-3.3-1.6-4.9
				c-0.3-0.7-0.8-1.4-1.3-2.2c-0.2-0.4-0.5-0.8-0.7-1.2c-0.1-0.1-0.1-0.2-0.1-0.4c0,0,0-0.1,0-0.2s0-0.1,0-0.2s0-0.2,0.1-0.3
				c0.1-0.3,0.3-0.5,0.4-0.7c1.2-1.4,2.6-2.4,3.9-3.6c1.2-1.1,2.5-2.4,3.7-3.6c1.1-1.3,2.2-2.7,3.1-4.1c0.5-0.7,0.9-1.5,1.3-2.2
				c0.4-0.7,0.8-1.5,0.9-2.3h0.3c0,0.9-0.4,1.8-0.8,2.5c-0.4,0.8-0.8,1.5-1.3,2.3c-0.9,1.5-1.9,3-3,4.3c-1.2,1.3-2.3,2.6-3.6,3.8
				c-0.6,0.6-1.3,1.2-1.9,1.8c-0.6,0.6-1.3,1.1-1.8,1.8c-0.1,0.1-0.2,0.3-0.3,0.4l0,0l0,0c0,0,0-0.1,0,0s0.1,0.2,0.1,0.2
				c0.2,0.4,0.4,0.7,0.6,1.1c0.4,0.8,0.9,1.4,1.3,2.3c0.7,1.6,1.2,3.3,1.6,5l0.3,1.3c0.1,0.4,0.2,0.9,0.3,1.1
				c0.4,0.6,1.1,1.2,1.7,1.8c1.3,1.1,2.7,2.1,4.1,3.1c1.4,1,2.9,1.8,4.4,2.7l4.6,2.5c0.8,0.4,1.7,0.9,2,1.9c0.2,0.5,0.2,1.1-0.2,1.6
				c-0.3,0.5-1,0.7-1.5,0.6c-1-0.1-1.8-0.6-2.5-1c-0.8-0.4-1.5-0.9-2.3-1.2c-0.2-0.1-0.4-0.1-0.5-0.1s0,0,0.1-0.1s0.1-0.2,0.1-0.2
				s0.1,0.1,0.1,0.2c0.2,0.3,0.5,0.6,0.8,1c0.6,0.6,1.2,1.3,1.8,1.9c1.2,1.2,2.6,2.5,3,4.4c0.1,0.5,0.1,1-0.3,1.5
				c-0.2,0.2-0.4,0.4-0.8,0.4c-0.3,0-0.6-0.1-0.8-0.2c-0.9-0.4-1.5-1-2.2-1.6c-1.3-1.2-2.5-2.5-3.6-3.8l0.5-0.4l0,0
				c0.7,0.9,1.5,1.7,2.3,2.5s1.7,1.5,2.5,2.4c0.4,0.5,0.8,0.9,1,1.5c0.1,0.3,0.2,0.6,0.2,0.9s-0.1,0.8-0.6,1c-0.4,0.1-0.7,0-1-0.1
				c-0.2-0.1-0.3-0.1-0.4-0.2c-0.2-0.1-0.3-0.2-0.4-0.3c-0.4-0.4-0.9-0.8-1.3-1.2l-2.5-2.4l-1.2-1.2l-0.3-0.3c0,0-0.2-0.1-0.1-0.1
				c0.8-0.7,0.2-0.2,0.4-0.4l0,0l0,0l0.1,0.1l0.5,0.7l2.3,2.6c0.4,0.4,0.8,0.9,1.1,1.3c0.4,0.5,0.8,1,0.8,1.7c0,0.4-0.2,0.7-0.3,1
				c-0.1,0.1-0.2,0.3-0.4,0.4s-0.4,0.2-0.6,0.2c-0.3,0-0.7-0.2-1-0.4c-0.3-0.2-0.5-0.4-0.7-0.6s-0.4-0.4-0.6-0.6l-0.3-0.3l-0.1-0.1
				l0,0c0.1,0-0.2-0.1,0.2,0.1c0.5-0.4,0.1-0.4,0.2-0.4l0,0l0.1,0.2c0.2,0.2,0.3,0.4,0.5,0.7c0.2,0.3,0.3,0.7,0.1,1.1
				s-0.6,0.5-0.9,0.6c-0.3,0.1-0.7,0-1-0.1c-0.6-0.3-1-0.8-1.4-1.2c-0.8-0.8-1.6-1.7-2.3-2.6c-0.8-0.9-1.6-1.7-2.3-2.7
				c-0.7-0.9-1.3-1.9-2-2.9c-0.6-1-1.3-1.9-2-2.9c-0.3-0.5-0.7-0.9-1-1.4c-0.4-0.5-0.7-1-1-1.5c-0.6-1-1.2-2-1.6-3.2
				c-0.2-0.6-0.3-1.2-0.5-1.6c-0.2-0.5-0.5-0.9-0.8-1.4s-0.7-0.9-1.1-1.3c-0.2-0.2-0.4-0.4-0.6-0.6c-0.2-0.2-0.4-0.4-0.6-0.7
				c-0.8-0.9-1.5-1.9-2.1-2.8l-2-2.9c-0.3-0.5-0.7-1-1-1.3c-0.4-0.4-0.8-1-1.1-1.5c-1.2-2.2-1.3-4.8-0.8-7.1
				c0.2-1.2,0.6-2.3,1.1-3.4s1.1-2.1,1.7-3.1c1.2-2,2.3-4,3.6-6c2.6-3.9,5.3-7.6,8-11.4L143.7,334z"/>
		</g>
		<path class="defense-2" d="M200,335.6c1.4,1.4,4.5,6.5,5.3,8.6c1.1,2.6,2.9,7.9,3.3,9.3s1.2,5.8,1.2,8.5c0,1.4,0.9,10,1.1,11.5
			c0.3,1.9,1.6,7,1.8,9c0.2,1.5,0.5,3.6-0.3,8.6c-0.2,1.4,0.1,7,0.1,8.2s0.3,7.1-1.1,6.5c-0.5-0.2-0.2,0.6-0.2,1.3
			c-0.2,2-2.1,1.8-2.1,0.3c0-1,0.1,1.1-1.2,1c-0.9,0-1.3-0.8-1.3-1.7c0-0.3-2.2,1-2.5-1c-0.1-0.4,0-1.9,0.1-3.1
			c0.3-3.7,1.1-8.8,0.3-9.1c-1.5-0.4-2.9,1.8-5.2,2.5c-1.7,0.6-5-0.6-1.9-2.4c3-1.8,3.5-3.2,4.3-4.7s2-5.2,2-6.3
			c0-1.2-0.7-4.2-1.7-7.3c0,0-1.8-5.2-2.2-9.1s-0.1-4.7-0.6-6.2s-6.7-7.4-8.2-8.9s-3-4-2.5-4.4"/>
	</g>
	<g id="details">
		<g>
			<path class="defense-3" d="M166.7,320.1c-0.2-2.9-0.1-6.9-0.1-7.3"/>
			<path class="defense-3" d="M170.9,325.3c-1.1-0.3-2.3-0.7-3.1-1.6"/>
			<path class="defense-3" d="M175.2,325.3c-1.2,0.3-2.3,0.3-3.3,0.2"/>
			<path class="defense-3" d="M177.9,324.1c-0.5,0.4-1.1,0.7-1.7,0.9"/>
			<path class="defense-3" d="M179.7,322.1c-0.2,0.3-0.4,0.6-0.6,0.9"/>
			<path class="defense-3" d="M182.4,313.9c0,0-0.5,4.1-1.9,7"/>
		</g>
		<g>
			<g>
				<path d="M184.9,317.7c0.3-0.3,0.8-0.3,1,0.1c0.1,0.2,0.2,0.4,0.1,0.6c0,0.2-0.1,0.4-0.2,0.5c-0.4,0.6-0.7,1.2-1.2,1.7
					s-1.1,0.9-1.8,1.1s-1.4,0.3-2,0.4c-0.1,0-0.2-0.1-0.2-0.2v-0.1l0,0c0-0.1,0.2-0.2,0.3-0.1c0.1,0,0.1,0.1,0.1,0.2v1l0,0l0,0
					l-0.2-0.2c0.6-0.1,1.1-0.2,1.7-0.4c0.3-0.1,0.5-0.2,0.7-0.4c0.2-0.1,0.5-0.3,0.7-0.5l0.1,0.1l0,0l0,0c0,0-0.1,0-0.1-0.1
					c0-0.2,0-0.4,0-0.6h0.1c0,0.2,0,0.4,0,0.6l-0.1-0.1l0,0c0,0,0.1,0,0.1,0.1l0,0l0,0c-0.2,0.3-0.4,0.5-0.6,0.7
					c-0.2,0.2-0.5,0.3-0.8,0.4c-0.6,0.2-1.2,0.3-1.8,0.4c-0.1,0-0.2-0.1-0.2-0.2l0,0l0,0v-1l0.4,0.1l0,0l-0.2-0.3
					c1.3-0.1,2.7-0.4,3.6-1.4c0.4-0.5,0.8-1.1,1.1-1.6c0.1-0.3,0.4-0.6,0.2-0.8c-0.1-0.3-0.5-0.4-0.7-0.1L184.9,317.7z"/>
			</g>
			<g>
				<path d="M185.1,319.9c0,0.7,0.1,1.3,0.1,2v0.1l0,0c-0.2,0.3-0.5,0.7-0.8,0.9c-0.3,0.3-0.7,0.5-1.1,0.6c-0.8,0.3-1.6,0.4-2.3,0.5
					l0.1-0.1L181,324v-0.1c-0.1,1.3-0.1,2.5-0.1,3.8l-0.2-0.1c1.3-0.8,2.5-1.9,3.3-3.3c0.8-1.3,1.4-2.8,1.7-4.4h0.3
					c-0.1,0.8-0.3,1.6-0.5,2.4c-0.3,0.8-0.6,1.5-1.1,2.2c-0.4,0.7-1,1.3-1.6,1.8s-1.3,1-1.9,1.4c-0.1,0-0.1,0-0.2,0c0,0,0,0,0-0.1
					l0,0c0-1.3,0-2.5,0-3.8v-0.1l0,0l0.1-0.1c0-0.1,0.1-0.1,0.1-0.1l0,0c0.8-0.1,1.5-0.3,2.2-0.6c0.3-0.1,0.7-0.3,0.9-0.6
					c0.3-0.2,0.5-0.5,0.8-0.8v0.1c0-0.7,0-1.3,0.1-2h0.2V319.9z"/>
			</g>
			<g>
				<path d="M176.2,322.2c0.1,0.3,0.1,0.6,0.1,0.9l-0.2-0.2c0.6,0,1.2-0.1,1.8,0c0.6,0,1.2,0,1.8,0l-0.1,0.1v-1l0.1,0.1
					c-0.6,0-1.2,0.1-1.8,0.1H177c-0.2,0-0.3,0-0.5,0h-0.2H176.2L176.2,322.2L176.2,322.2z M176.1,322h0.1h0.1h0.1h0.2h0.5h0.9
					c0.6,0,1.2,0,1.8,0l0,0c0.1,0,0.1,0.1,0.1,0.1v1c0,0.1,0,0.1-0.1,0.1c-0.6,0-1.2,0-1.8,0.1s-1.2,0.1-1.8,0l0,0
					c-0.1,0-0.2-0.1-0.2-0.2C176,322.7,176,322.3,176.1,322L176.1,322z"/>
			</g>
			<g>
				<path d="M176.2,329.3l0.8-0.2c0.3-0.1,0.6-0.1,0.9-0.2c0.6-0.2,1.1-0.5,1.7-0.7l-0.1,0.2c0.1-1.4,0.2-2.8,0.2-4.3v0.1v-0.1
					l0.1,0.1c-1.2,0-2.4,0.1-3.6,0.1l0.2-0.2c0,0.9,0,1.8,0,2.7c0,0.9-0.1,1.8-0.1,2.7L176.2,329.3L176.2,329.3L176.2,329.3z
					 M176.5,329.5l-0.3,0.1l0,0c-0.1,0-0.2,0-0.2-0.1l0,0l0,0c0-0.9,0-1.8,0-2.7c0-0.9,0-1.8,0.1-2.7l0,0c0-0.1,0.1-0.2,0.2-0.2
					c1.2,0.1,2.4,0,3.5,0c0,0,0.1,0,0.1,0.1v0.1v0.1c0,1.4,0,2.9,0,4.3c0,0.1-0.1,0.2-0.1,0.2c-0.6,0.2-1.2,0.4-1.8,0.6
					c-0.3,0.1-0.6,0.1-0.9,0.2H176.5z"/>
			</g>
			<g>
				<path d="M172,324.2c0,0.5,0.1,0.9,0.1,1.3v1.3c0,0.9,0,1.8,0,2.7l-0.2-0.2c1,0.1,2.1,0.2,3.1,0.1l-0.1,0.1c0.2-1.8,0-3.6,0-5.5
					l0.2,0.2l-1.6-0.1L172,324.2L172,324.2z M171.8,324c0.5,0,1.1-0.1,1.7-0.1h1.7c0.1,0,0.2,0.1,0.2,0.2l0,0c0,0.9,0,1.8-0.1,2.7
					c-0.1,0.9-0.1,1.8-0.2,2.8c0,0.1-0.1,0.1-0.1,0.1c-1.1,0.1-2.1,0.1-3.2,0c-0.1,0-0.2-0.1-0.2-0.2l0,0c-0.1-0.9-0.1-1.8-0.1-2.8
					c0-0.5,0-0.9,0.1-1.4C171.7,324.9,171.8,324.4,171.8,324L171.8,324z"/>
			</g>
			<g>
				<path d="M172.1,323c0.6-0.1,1.1-0.1,1.6-0.1s1,0,1.5,0.1l-0.1,0.1c0-0.3,0-0.7,0-1l0,0l0,0l0.1,0.1c-0.5,0-1,0-1.6,0.1
					c-0.5,0.1-1,0.1-1.6,0l0.2-0.2C172.2,322.4,172.1,322.7,172.1,323L172.1,323z M171.9,323.1c0-0.3,0-0.7,0-1.1
					c0-0.1,0.1-0.1,0.2-0.2l0,0c0.5,0,1,0,1.6,0c0.5,0,1,0,1.6,0c0.1,0,0.1,0,0.1,0.1l0,0l0,0c0,0.3,0,0.7,0,1c0,0.1,0,0.1-0.1,0.1
					l0,0l0,0c-0.5,0-1.1,0.1-1.7,0C173,323.2,172.4,323.2,171.9,323.1L171.9,323.1z"/>
			</g>
			<g>
				<path d="M168,321.7c0,0.3,0,0.6,0,0.9l-0.2-0.2l0,0l0,0l0,0c0.5,0.1,1,0.2,1.5,0.4c0.5,0.1,1,0.2,1.6,0.2l-0.1,0.1
					c0-0.3,0.1-0.7,0.1-1l0.1,0.1c-0.5,0-1.1,0-1.6-0.1s-1.1-0.2-1.6-0.4l0.2-0.1V321.7L168,321.7z M167.8,321.7L167.8,321.7v-0.1
					c0-0.1,0.1-0.1,0.1-0.1l0,0l0,0c0.5,0.1,1,0.2,1.6,0.2c0.5,0.1,1,0.2,1.6,0.2l0,0c0.1,0,0.1,0.1,0.1,0.1l0,0
					c0,0.3-0.1,0.7-0.1,1c0,0.1-0.1,0.1-0.1,0.1l0,0c-0.5,0-1.1,0-1.6-0.1c-0.5,0-1.1-0.2-1.6-0.3l0,0l0,0l0,0
					c-0.1,0-0.2-0.1-0.1-0.2C167.7,322.2,167.7,321.9,167.8,321.7z"/>
			</g>
			<g>
				<path d="M167.8,323.5c0,0.1,0,0.2,0,0.2v0.2v0.3v0.6v1.3c0,0.9,0,1.7,0,2.6l-0.1-0.2l0.7,0.3l0.8,0.2l1.6,0.3l0,0h0.1l-0.1,0.1
					c-0.1-0.9-0.1-1.8-0.1-2.7c0-0.9,0-1.8,0-2.7l0.2,0.2c-0.5,0-1.1-0.1-1.6-0.2c-0.3,0-0.5-0.1-0.8-0.2l-0.4-0.1L167.8,323.5
					L167.8,323.5L167.8,323.5L167.8,323.5L167.8,323.5L167.8,323.5L167.8,323.5C167.7,323.7,167.9,323.1,167.8,323.5L167.8,323.5
					C167.8,323.4,167.8,323.4,167.8,323.5L167.8,323.5z M167.6,323.6C167.6,323.6,167.6,323.7,167.6,323.6L167.6,323.6
					c0,0.3,0.2-0.3,0.2-0.2l0,0l0,0l0,0l0,0l0,0h0.1h0.2l0.4,0.1l0.8,0.1c0.5,0.1,1.1,0.1,1.6,0.1c0.1,0,0.2,0.1,0.2,0.2l0,0
					c-0.1,1.8-0.3,3.6-0.1,5.3c0,0.1,0,0.1-0.1,0.1l0,0h-0.1l0,0l-1.6-0.3l-0.8-0.1l-0.8-0.2c-0.1,0-0.1-0.1-0.1-0.1l0,0
					c-0.1-0.9-0.1-1.7-0.1-2.6c0-0.4,0-0.9,0.1-1.3l0.1-0.6v-0.3L167.6,323.6C167.6,323.7,167.6,323.7,167.6,323.6L167.6,323.6z"/>
			</g>
			<g>
				<path d="M165.1,319L165.1,319c0.6,0.4,1.3,0.9,2.1,1.1c0.8,0.3,1.5,0.5,2.3,0.6c1.6,0.2,3.2,0.1,4.9,0.1c1.6,0,3.3,0.1,4.9,0
					c0.8,0,1.6-0.1,2.4-0.2c0.8-0.2,1.5-0.5,2-1.1l0.1,0.3l0,0c-0.1,0-0.2-0.1-0.2-0.2l0,0v-5.9l0.2,0.1c-1.6,0.1-3.2,0.2-4.8,0.2
					l-4.8-0.2c-1.6-0.1-3.2-0.1-4.8-0.2c-1.6-0.2-3.2-0.7-4.6-1.3h0.1l0,0l0.2-0.2v3.4v1.7v0.9v0.4v0.2
					C165.1,318.9,165.2,319,165.1,319L165.1,319z M164.9,319.1c0-0.1,0-0.2,0-0.3v-0.2v-0.4v-0.9v-1.7v-3.4c0-0.1,0.1-0.2,0.2-0.2
					l0,0h0.1c1.5,0.6,3,1,4.6,1.2s3.2,0.2,4.7,0.3l4.8,0.3c1.6,0,3.2-0.1,4.8-0.2l0,0c0.1,0,0.2,0.1,0.2,0.1l0,0v5.9l-0.2-0.2l0,0
					c0.1,0,0.2,0.1,0.2,0.2v0.1c-0.5,0.7-1.4,1.1-2.2,1.3c-0.8,0.2-1.7,0.3-2.5,0.3c-1.7,0.1-3.3,0.1-4.9,0.1c-1.6,0-3.3,0-5-0.2
					C167.8,320.8,166.2,320.3,164.9,319.1L164.9,319.1z"/>
			</g>
			<g>
				<path d="M165.1,320.2v0.9V321c0.3,0.2,0.6,0.4,0.9,0.6c0.3,0.2,0.6,0.3,0.9,0.5l-0.2,0.4l0,0c-0.1,0-0.1-0.1-0.1-0.2l0.1-0.9
					c0-0.1,0.1-0.2,0.2-0.2c0.1,0,0.1,0,0.1,0.1l0,0c0.1,0.1,0,0.2-0.1,0.3c-0.1,0-0.1,0-0.2,0c-1.3-0.5-2.5-1.2-3.4-2.3
					c-0.2-0.3-0.4-0.5-0.6-0.9c-0.1-0.2-0.2-0.3-0.2-0.5c-0.1-0.1-0.2-0.4-0.1-0.6c0.1-0.2,0.2-0.4,0.5-0.5c0.2-0.1,0.5,0,0.6,0.2
					c0.2,0.2,0.2,0.4,0.2,0.5c0.1,0.2,0.1,0.3,0.2,0.5h-0.1c-0.1-0.2-0.2-0.3-0.3-0.4c-0.1-0.2-0.2-0.3-0.3-0.4
					c-0.2-0.1-0.5,0-0.5,0.2c0,0.1,0,0.2,0.1,0.4c0.1,0.1,0.1,0.3,0.2,0.4c0.2,0.3,0.4,0.5,0.6,0.8c0.9,1,2,1.7,3.3,2.2l-0.2,0.3
					l0,0l0.4-0.1l-0.1,0.9l-0.1-0.2l0,0c0.1,0,0.1,0.2,0.1,0.3c0,0.1-0.2,0.1-0.3,0.1c-0.3-0.1-0.7-0.3-1-0.5s-0.6-0.4-0.9-0.7v-0.1
					v-0.1v-0.8L165.1,320.2L165.1,320.2z"/>
			</g>
			<g>
				<path d="M163.9,318.7l-0.1-3.4c0-1.1-0.1-2.3-0.1-3.4c0-0.1,0-0.1,0.1-0.2l0,0l0.1,0.4l-0.9-0.4c-0.1,0-0.1-0.1-0.2-0.1
					c-0.1-0.1-0.2-0.1-0.2-0.2c-0.1-0.1-0.2-0.3-0.3-0.5c0-0.1,0-0.2,0-0.4c0-0.1,0.2-0.3,0.3-0.3c0.2-0.1,0.4-0.1,0.6,0
					c0.4,0.1,0.6,0.3,0.9,0.4l-0.3,0.3l0,0v-0.1v-1l0.2,0.2h-0.1l0,0l-0.8-0.4c-0.3-0.1-0.6-0.3-0.8-0.7c-0.1-0.2-0.1-0.4,0-0.7
					c0.3-0.3,0.5-0.2,0.6-0.3c0.3,0,0.7,0.2,1,0.3c1.1,0.5,2.2,0.9,3.4,1.3c1.1,0.4,2.3,0.6,3.5,0.7l3.6,0.3
					c2.4,0.2,4.8,0.3,7.2,0.2c1.2,0,2.4-0.1,3.6-0.3l0.9-0.1c0.5-0.1,0.9,0.4,0.8,0.8c0,0.2-0.2,0.4-0.4,0.6
					c-0.2,0.1-0.4,0.1-0.5,0.1l-0.9,0.1v-0.5l0,0c0.1,0,0.2,0.1,0.2,0.2v1c0,0.1,0,0.1,0,0.1l0,0l-0.2-0.4l1.1-0.2
					c0.1,0,0.4-0.1,0.7,0c0.2,0.1,0.4,0.4,0.4,0.7c0,0.3-0.2,0.5-0.4,0.7c-0.3,0.1-0.4,0.1-0.6,0.1l-1.1,0.1l0.2-0.2
					c-0.1,1.8-0.1,3.6-0.2,5.3h-0.1c0-1.8-0.1-3.6-0.2-5.3c0-0.1,0.1-0.2,0.2-0.2l0,0l1.1-0.2c0.2,0,0.4-0.1,0.5-0.1
					s0.1-0.1,0.1-0.2s0-0.2-0.1-0.2c-0.1-0.1-0.2,0-0.4,0l-1.1,0.2c-0.1,0-0.3-0.1-0.3-0.2s0-0.1,0-0.2l0,0l0,0v0.1v-1l0.2,0.2l0,0
					c-0.1,0-0.2-0.2-0.2-0.3c0-0.1,0.1-0.2,0.2-0.2l0,0l0.9-0.1c0.2,0,0.3,0,0.3-0.1c0.1,0,0.1-0.1,0.1-0.2c0-0.2-0.1-0.3-0.3-0.3
					l-0.9,0.1c-1.2,0.2-2.4,0.3-3.6,0.3c-2.4,0.1-4.9-0.1-7.3-0.2l-3.6-0.3c-1.2-0.1-2.4-0.3-3.6-0.7c-1.2-0.4-2.3-0.8-3.4-1.3
					c-0.3-0.1-0.5-0.2-0.8-0.2c-0.1,0-0.3,0.1-0.2,0v0.2c0.2,0.3,0.9,0.5,1.4,0.8l0,0h0.1c0.1,0,0.2,0.1,0.2,0.2v1v-0.1l0,0
					c0,0.1,0,0.3-0.2,0.3c-0.1,0-0.1,0-0.2,0c-0.3-0.1-0.6-0.3-0.8-0.3c-0.1,0-0.3,0-0.3,0s0,0,0,0.1s0.1,0.2,0.2,0.3l0.1,0.1
					l0.2,0.1l0.9,0.4c0.1,0.1,0.2,0.2,0.1,0.3c0,0,0,0.1-0.1,0.1l0,0l0.1-0.2c0,1.1-0.1,2.3-0.1,3.4l-0.1,3.4h-0.3V318.7z"/>
			</g>
			<g>
				<path d="M162.8,318.8c0.1,0.8,0.3,1.7,0.5,2.5c0.2,0.9,0.3,1.7,0.6,2.5s0.7,1.6,1.1,2.3c0.2,0.4,0.5,0.7,0.7,1
					c0.3,0.3,0.6,0.6,0.9,0.8l0,0l0,0v0.1l-0.2,0.1c-0.1-0.8,0-1.7,0-2.5s0-1.7,0.1-2.5l0.1,0.2l0,0l0.1,0.1c-1-0.4-2-1-2.8-1.8
					v-0.3c0-0.3,0-0.6,0-0.9v-0.9h0.3v1c0,0.4,0,0.7,0,1.1v-0.3c0.8,0.7,1.7,1.3,2.7,1.7l0,0c0,0,0.1,0,0.1,0.1l0,0l0,0
					c0,0,0.1,0.1,0,0.2c-0.2,1.6-0.3,3.3-0.2,4.9c0,0.1-0.1,0.1-0.1,0.1h-0.1v-0.1l0,0c-0.3-0.3-0.7-0.5-1-0.9
					c-0.3-0.3-0.6-0.7-0.8-1.1c-0.5-0.7-0.9-1.5-1.2-2.3s-0.5-1.7-0.6-2.6C162.8,320.5,162.7,319.6,162.8,318.8L162.8,318.8z"/>
			</g>
			<g>
				<path d="M183.8,312.6c0-0.3,0-0.6,0-0.9l0.1,0.1c-1.6,0.1-3.2,0.2-4.8,0.2c-1.6-0.1-3.2-0.1-4.8-0.2s-3.2-0.1-4.8-0.3
					c-1.6-0.2-3.1-0.7-4.6-1.3l0.2-0.1v1c0,0.1-0.1,0.1-0.1,0.1l0,0V311c1.5,0.6,3,1.1,4.6,1.3c1.6,0.1,3.2,0.2,4.8,0.3
					c1.6,0.1,3.2,0.2,4.8,0.2c0.8,0,1.6,0,2.4,0l1.2-0.1h0.6h0.3L183.8,312.6C183.8,312.6,183.9,312.6,183.8,312.6z M184,312.8
					c-0.1,0.1-0.2,0-0.2,0.1h-0.1h-0.3l-0.6,0.1l-1.2,0.1c-0.8,0-1.6,0.1-2.4,0.1c-1.6,0-3.2,0-4.8-0.2c-1.6-0.1-3.2-0.2-4.8-0.4
					c-1.6-0.3-3.1-0.8-4.6-1.3c-0.1,0-0.1-0.1-0.1-0.2l0.1-0.1l0,0l-0.1,0.1v-1c0-0.1,0.1-0.1,0.1-0.1l0,0c1.5,0.5,3,1,4.6,1.2
					c1.6,0.1,3.2,0.1,4.8,0.2s3.2,0.1,4.8,0.2s3.2-0.1,4.8-0.1l0,0c0.1,0,0.1,0.1,0.1,0.1l0,0C184,312,184,312.4,184,312.8
					L184,312.8z"/>
			</g>
		</g>
		<g>
			<path d="M168.1,329.7c0.4,1.5,0.1,3-0.7,4.2c-0.4,0.6-1,1.1-1.4,1.5l-1.4,1.5c-0.9,1-1.9,2-2.9,2.9c-0.5,0.5-1,1-1.5,1.4
				c-0.6,0.4-1.2,0.8-1.9,1c0.5-0.5,0.9-1,1.3-1.5c0.5-0.5,1-0.9,1.5-1.4c1-0.9,1.9-1.9,2.8-2.9l1.4-1.5c0.5-0.5,1-1,1.3-1.5
				c0.7-1,0.9-2.4,0.6-3.5L168.1,329.7z"/>
		</g>
		<g>
			<path d="M153.8,395.3l-2.4-2.7l-1.2-1.4l-0.6-0.7c-0.1-0.3-0.3-0.6-0.4-0.8c0.3,0.2,0.5,0.3,0.8,0.5l0.6,0.7l1.2,1.4l2.4,2.7
				L153.8,395.3z"/>
		</g>
		<g>
			<path d="M172.4,314.7c0,0.7,0,1.3,0,2c0,0.4,0,0.7-0.1,1s-0.2,0.7-0.5,1l0,0c-0.2,0.3-0.3,0.7-0.2,0.9c0.1,0.2,0.5,0.2,0.9,0.3
				c0.4,0,0.8,0,1.2,0s0.8,0,1.2,0c-0.8,0.2-1.6,0.4-2.4,0.4c-0.2,0-0.4,0-0.6,0c-0.2,0-0.5-0.1-0.6-0.4c-0.2-0.6,0-1,0.2-1.4l0,0
				l0,0c0.2-0.2,0.3-0.5,0.4-0.8c0.1-0.3,0.2-0.6,0.2-0.9C172.1,316,172.3,315.3,172.4,314.7z"/>
		</g>
		<line class="defense-2" x1="175.9" y1="316.8" x2="179.7" y2="316.8"/>
		<line class="defense-2" x1="170.9" y1="316.4" x2="167.5" y2="316.4"/>
		<g>
			<path d="M181.8,328.7C181.8,328.6,181.9,328.7,181.8,328.7l0.1,0.2l0.1,0.3l0.3,0.7c0.2,0.5,0.4,0.9,0.6,1.4
				c0.4,0.9,0.9,1.8,1.4,2.6c0.6,0.8,1.2,1.6,1.8,2.4l0.9,1.2c0.2,0.5,0.4,0.9,0.7,1.4c-0.5-0.3-0.8-0.6-1.3-0.9l-0.9-1.2
				c-0.6-0.8-1.2-1.6-1.8-2.5s-1-1.8-1.5-2.7c-0.2-0.5-0.4-0.9-0.6-1.4l-0.3-0.7l-0.1-0.4l-0.1-0.2c0-0.1,0-0.1-0.1-0.3h0.8V328.7z"
				/>
		</g>
		<g>
			<path d="M170.1,330.4c0.5,0.4,1.1,0.9,1.6,1.4l1.4,1.5l1.4,1.5l0.7,0.8l0.2,0.2c0,0.1,0,0,0,0l0,0c0.1,0,0.2-0.1,0.3-0.2
				c1-0.9,1.8-2.1,2.6-3.1c0.4-0.5,0.8-1.1,1.2-1.7c0.4-0.5,0.9-1.1,1.2-1.7c-0.1,0.7-0.5,1.3-0.8,1.9c-0.4,0.6-0.8,1.2-1.2,1.7
				c-0.9,1.1-1.6,2.2-2.7,3.2c-0.2,0.1-0.3,0.2-0.6,0.3c-0.1,0-0.2,0-0.2,0c-0.1,0-0.2-0.1-0.2-0.1l-0.2-0.2l-0.7-0.8l-1.4-1.5
				l-1.4-1.5C170.9,331.5,170.5,331,170.1,330.4z"/>
		</g>
		<g>
			<path d="M167.9,330.7c0.7,0.6,1.3,1.2,1.9,1.9c0.6,0.6,1.2,1.3,1.8,2l3.5,3.9c-0.1,0,0.2-0.1,0.4-0.2s0.3-0.3,0.5-0.4
				c0.3-0.3,0.6-0.6,0.9-0.9c0.6-0.7,1.2-1.3,1.7-2c0.6-0.7,1.1-1.4,1.7-2.1c0.6-0.7,1.3-1.3,1.7-2c-0.3,0.9-0.8,1.6-1.3,2.4
				l-1.7,2.1c-0.6,0.7-1.1,1.4-1.7,2.1c-0.3,0.3-0.6,0.7-1,1c-0.2,0.2-0.3,0.3-0.5,0.4c-0.1,0.1-0.2,0.1-0.3,0.2
				c-0.1,0-0.3,0.1-0.5,0c-0.1-0.1-0.1-0.1-0.2-0.2l-0.1-0.1l-0.2-0.3l-0.4-0.5l-0.9-1l-1.8-2c-0.6-0.7-1.2-1.3-1.8-2
				C169,332.2,168.4,331.5,167.9,330.7z"/>
		</g>
		<g>
			<path d="M167.5,333.3c0.7,0.7,1.4,1.4,2.2,2.1l2,2.2l2,2.2l1,1.1l0.5,0.5l0.1,0.1l0,0l0,0c0.1,0,0.2-0.1,0.3-0.1
				c0.8-0.5,1.4-1.3,2.1-2.1c0.6-0.7,1.3-1.5,1.9-2.3c0.6-0.8,1.2-1.6,1.8-2.4s1.3-1.5,1.8-2.4c-0.8,1.9-2,3.5-3.2,5.1
				c-0.6,0.8-1.2,1.6-1.9,2.4s-1.3,1.5-2.2,2.1c-0.1,0.1-0.2,0.1-0.4,0.2c-0.1,0-0.2,0-0.3,0s-0.1-0.1-0.2-0.1l-0.1-0.1l-0.5-0.6
				l-1-1.1l-2-2.2l-2-2.2C168.7,334.9,168,334.1,167.5,333.3z"/>
		</g>
		<path class="defense-3" d="M176.4,341c0,0.4,0,0.9,0,1.3s-0.1,1.2-0.3,1.5c-0.5,0.7-1,0.6-1.6,1.3c-0.3-0.6-0.9-0.6-1.5-1.1
			c-0.1-0.1-0.3-0.5-0.3-0.7c0-0.4,0.1-1.9,0.1-2.2c0-0.6,0.5-0.3,0.5-0.3c0.4,0.1,0.7,0.1,0.9,0"/>
		<path class="defense-3" d="M183.3,332.5c2.3-0.5,10.4-2.3,12.1-2.5c2.2-0.3,3.9-0.3,4.8-0.4c1.1-0.2,1.8-1.2,1.8-1.7"/>
		<path class="defense-3" d="M186.8,337.6c0,0,4.5-1.2,6.1-1.6c3-0.8,4.1-0.9,5.6-1.2c1.6-0.4,2.8-0.6,2.8-1"/>
		<path class="defense-3" d="M167.8,331.6c-3.3-0.3-6.5-1.3-11.4-1.5c-2.5-0.1-6.4,0.1-8-0.2c-0.7-0.2-2.7-1.2-3.7-0.2s-1.5,1.9-1.5,2.6"
			/>
		<path class="defense-3" d="M163.8,337.3c0,0-7.1-1.2-11-1.6c-3.5-0.3-5.3-1.2-7.4-0.9"/>
		<path class="defense-3" d="M148.8,317.1c0.8,0.4,2,4.5,2.2,7c0.1,1.4,0,3.6,0,3.9s-1.8,0.4-2.3-0.2s-2.3-2.5-5.2-1.5"/>
		<path class="defense-3" d="M202,326.2c-0.8,0.8-2.4,1.9-2.4,1c0-1,0-7.6,0-7.6"/>
		<path class="defense-3" d="M179.8,325.6c-0.5,0.9-3.1,3.5-3.7,3.7"/>
		<path class="defense-3" d="M167.6,326.6c0.7,1.4,0.9,2.1,1.5,2.5"/>
		<g>
			<path class="defense-4" d="M166.8,347.8l-0.7,3l-1.3,6.1l-0.4,0.5v1.2l-1.2,5.4l-3.8-1.7l1-2.6l1.2-6.5c-0.7,0.5-1.3,0.8-1.9,1.1
				c-0.6,0.2-1.3,0.5-2.2,0.6l0.6-3.6c1.3-0.3,2.4-0.8,3.2-1.4s1.6-1.5,2.2-2.5L166.8,347.8z"/>
			<path class="defense-4" d="M175.8,364.2h-9c0.3-1.2,0.8-2.8,1.6-3.8s2.2-2.2,4.2-3.6c1.3-0.9,2.1-1.6,2.6-2.1c0.4-0.5,0.7-1,0.8-1.5
				s0.1-1-0.2-1.4c-0.2-0.4-0.6-0.6-1.1-0.7c-0.5,0-0.9,0.1-1.3,0.5c-0.4,0.4-0.7,1-1,2l-3.6-0.7c0.4-1.3,0.8-2.3,1.3-3
				s1.2-1.3,2-1.7c0.8-0.4,1.9-0.5,3.2-0.5c0.8,0,1.9,0,2.7,0.2c0.5,0.1,0.8,0.4,1,0.6c0.7,0.5,1.2,1.1,1.4,2c0.3,0.9,0.3,1.8,0,2.8
				c-0.2,0.7-1,1.2-1.5,1.6c-0.4,0.3-0.3,1-0.6,1.3c-0.7,0.9-1.8,1.8-3.3,2.7c-0.9,0.5-1.4,0.9-1.7,1.1s-1.2,0.5-1.7,0.5l5.7,0.7
				L175.8,364.2z"/>
		</g>
		<g>
			<path class="defense-5" d="M160.8,318.6h-1.6l-3.2,0.1h-0.9l-2.3,0.5l-0.1-2h1.4l3.4-0.1c-0.3-0.2-0.6-0.5-0.8-0.7s-0.2-0.3-0.4-0.6
				l1.9-0.1c0.3,0.5,0.5,0.7,0.9,1s0.9,0.5,1.5,0.7L160.8,318.6z"/>
			<path class="defense-5" d="M153.3,324.6l-0.2-4.4c0.6,0.1,1.2,0.1,1.8,0.4s0.6,0.3,1.5,1c0.5,0.5,1,0.8,1.3,0.9s0.6,0.2,0.8,0.2
				c0.3,0,0.5,0,0.7-0.2c0.2-0.1,0.3-0.3,0.3-0.5s-0.1-0.4-0.4-0.5c-0.2-0.1-0.6-0.2-1.1-0.3l0.1-1.6c0.7,0.1,1.3,0.2,1.7,0.4
				c0.4,0.2,0.8,0.4,1,0.7c0.3,0.3,0.4,0.8,0.5,1.3c0.1,0.8,0,1.5-0.1,1.6c-0.2,0.3-0.5,0.6-0.9,0.7c-0.4,0.2-0.9,0.2-1.4,0.2
				c-1.1-0.1-1.5-0.6-1.7-0.7c-0.5-0.2-1.1-0.7-1.7-1.2c-0.3-0.3-0.4-0.3-0.4-0.5l0.1,2.5H153.3z"/>
		</g>
		<g>
			<path class="defense-5" d="M188.1,321.2h1.6h3.2h0.9l2.3-0.5l0.1,2h-1.4l-3.4,0.1c0.3,0.2,0.6,0.5,0.8,0.7s0.2,0.3,0.4,0.6l-1.9,0.1
				c-0.3-0.5-0.5-0.7-0.9-1s-0.9-0.5-1.5-0.7L188.1,321.2z"/>
			<path class="defense-5" d="M195.6,316.1l0.2,3.6c-0.6,0-1.2-0.1-1.8-0.3c-0.6-0.2-0.6-0.2-1.5-0.9c-0.5-0.4-1-0.7-1.3-0.8
				c-0.3-0.1-0.6-0.2-0.8-0.2c-0.3,0-0.5,0-0.7,0.1s-0.3,0.2-0.3,0.4c0,0.2,0.1,0.3,0.4,0.4c0.2,0.1,0.6,0.2,1.1,0.2l-0.1,1.3
				c-0.7-0.1-1.3-0.2-1.7-0.3c-0.4-0.1-0.8-0.3-1-0.6c-0.3-0.3-0.4-0.6-0.5-1.1c-0.1-0.6,0-1.2,0.1-1.3c0.2-0.3,0.5-0.5,0.9-0.6
				s0.9-0.2,1.4-0.2c1.1,0.1,1.5,0.5,1.7,0.6c0.5,0.2,1.1,0.5,1.7,1c0.3,0.3,0.4,0.2,0.4,0.4l-0.1-2L195.6,316.1z"/>
		</g>
		<g>
			<path d="M206.7,352.7c-0.5,0.8-1.1,1.5-1.6,2.2c-0.6,0.7-1.1,1.4-1.8,2c-0.6,0.7-1.2,1.3-2,1.9c-0.4,0.3-0.7,0.6-1.2,0.8
				c-0.4,0.2-1,0.5-1.7,0.2l0.5-0.9c0.1,0.1,0.5,0,0.9-0.1c0.4-0.2,0.7-0.4,1.1-0.6c0.7-0.5,1.4-1.1,2-1.7s1.3-1.2,1.9-1.9
				c0.6-0.7,1.2-1.3,1.7-2L206.7,352.7z"/>
		</g>
		<g>
			<path d="M201.5,373.9c0.3-0.3,0.5-0.7,0.8-1.1c0.3-0.3,0.6-0.7,1-1c0.7-0.6,1.5-1.1,2.4-1.4s1.8-0.3,2.8-0.2
				c0.5,0,0.9,0.1,1.4,0.3c0.4,0.2,0.8,0.6,1,1h-0.1c-0.2-0.4-0.7-0.5-1.1-0.6c-0.4-0.1-0.8-0.2-1.2-0.3c-0.9-0.1-1.8,0-2.6,0.2
				c-0.8,0.3-1.6,0.7-2.2,1.3c-0.3,0.3-0.6,0.6-0.9,0.9c-0.4,0.3-0.7,0.6-1,0.9L201.5,373.9z"/>
		</g>
		<g>
			<path d="M208.1,396.4c0,1.8-0.1,3.6-0.3,5.4c-0.1,0.9-0.2,1.8-0.3,2.7c-0.1,0.4-0.1,0.9-0.2,1.3c-0.1,0.2-0.1,0.4-0.2,0.7
				l-0.1,0.3c-0.1,0.1-0.2,0.3-0.2,0.4l-0.5-0.5c0-0.1,0.1-0.1,0.1-0.2l0.1-0.3c0.1-0.2,0.1-0.4,0.2-0.6c0.1-0.4,0.2-0.8,0.3-1.3
				c0.2-0.9,0.3-1.7,0.4-2.6C207.6,399.9,207.8,398.2,208.1,396.4L208.1,396.4z"/>
		</g>
		<g>
			<path d="M211.8,398.4c0.1,1.3,0.1,2.6,0.1,3.9c0,0.6,0,1.3-0.1,2s-0.1,1.3-0.4,2l-0.6-0.4c0.2-0.4,0.3-1.1,0.4-1.7
				c0.1-0.6,0.2-1.3,0.2-1.9c0.1-1.3,0.2-2.6,0.2-3.9H211.8z"/>
		</g>
		<g>
			<path d="M209.9,401.8c-0.1,1.1-0.1,2.2-0.3,3.3c-0.1,0.6-0.1,1.1-0.2,1.7c-0.1,0.3-0.1,0.6-0.2,0.8c-0.1,0.3-0.2,0.6-0.4,0.9
				l-0.5-0.5c0.1-0.1,0.2-0.3,0.3-0.6c0.1-0.2,0.2-0.5,0.2-0.8c0.1-0.5,0.3-1.1,0.4-1.6c0.2-1.1,0.4-2.2,0.5-3.3L209.9,401.8z"/>
		</g>
		<g>
			<path d="M203.7,382.9c0.5-0.7,1.2-1.3,2-1.6c0.4-0.1,0.8-0.2,1.3-0.3c0.4-0.1,0.8-0.2,1.3-0.2c0.9-0.1,1.8,0.1,2.6,0.4
				c0.8,0.4,1.6,0.8,2.1,1.5l0,0c-0.7-0.5-1.5-0.8-2.2-1.1c-0.7-0.3-1.5-0.5-2.4-0.6c-0.4,0-0.8,0-1.2,0.1s-0.8,0.3-1.1,0.5
				C205.1,382.1,204.4,382.5,203.7,382.9L203.7,382.9z"/>
		</g>
		<g>
			<path d="M203.4,384.3c0.3-0.3,0.6-0.4,1-0.4c0.2,0,0.4,0,0.6,0.1c0.2,0.1,0.3,0.3,0.3,0.5c0,0.7,0,1.4,0,2.1s-0.1,1.3,0.1,2
				c0.1,0.7,0.5,1.2,0.9,1.8c0.8,1.1,1.5,2.3,2.5,3c0.5,0.3,1.2,0.4,1.8,0.5c0.3,0,0.7,0,1,0s0.7-0.1,0.8-0.4h0.1
				c0,0.2-0.2,0.3-0.3,0.4c-0.2,0.1-0.3,0.2-0.5,0.2c-0.3,0.1-0.7,0.1-1,0.1c-0.7,0-1.4,0-2.1-0.4c-0.6-0.4-1.1-1-1.5-1.5
				c-0.4-0.6-0.7-1.2-1-1.8c-0.2-0.3-0.3-0.6-0.5-0.9s-0.3-0.6-0.4-1c-0.2-0.7-0.3-1.3-0.3-2c-0.1-0.7,0-1.4,0-2
				C204.9,384.1,203.9,384.1,203.4,384.3L203.4,384.3z"/>
		</g>
		<g>
			<path d="M151.6,348.3c0.7,2,1.7,3.9,2.9,5.5c0.6,0.8,1.4,1.6,2.2,2.2s1.8,1.1,2.9,1.2v0.1c-1.1-0.1-2.1-0.5-3-1.1
				s-1.7-1.4-2.3-2.2c-1.3-1.7-2.4-3.6-3.1-5.6L151.6,348.3z"/>
		</g>
		<g>
			<path d="M149.3,351.5c0.4,1.7,1.2,3.3,2.3,4.7c1,1.4,2.3,2.7,3.7,3.7s2.9,1.9,4.6,2.5c1.7,0.6,3.4,1,5.1,1.1v0.1
				c-1.8-0.1-3.5-0.5-5.2-1.1s-3.3-1.4-4.7-2.5c-1.4-1-2.7-2.3-3.8-3.7c-1.1-1.4-2-3-2.4-4.8L149.3,351.5z"/>
		</g>
		<g>
			<path d="M144.3,343.1c0.6,0.5,1.3,1,2,1.4s1.4,0.8,2.1,1.1c0.7,0.3,1.5,0.6,2.2,0.7s1.6,0.1,1.9-0.5l0.4,0.3
				c-0.3,0.4-0.7,0.7-1.2,0.7c-0.4,0.1-0.9,0-1.3-0.1c-0.8-0.2-1.6-0.5-2.3-0.9s-1.4-0.8-2.1-1.2
				C145.5,344.2,144.8,343.7,144.3,343.1L144.3,343.1z"/>
		</g>
		<g>
			<path d="M133.2,354.6c1.5,0.5,3,1.1,4.4,1.9c0.7,0.4,1.4,0.8,2,1.4c0.6,0.5,1.3,1.2,1.5,2.1l-1,0.2c-0.1-0.6-0.6-1.2-1.1-1.8
				c-0.5-0.5-1.2-1-1.8-1.4c-1.3-0.9-2.7-1.6-4.2-2.2L133.2,354.6z"/>
		</g>
		<path class="defense-3" d="M144.2,369.4c-1.8-0.1-3.9-0.5-5.5,1.7s-1.4,3.3-1.4,3.3"/>
		<g>
			<path d="M150.4,376.4c-0.5,0.4-1,0.8-1.1,1.3c-0.1,0.3,0,0.3,0.3,0.6c0.1,0.1,0.1,0.1,0.2,0.3c0,0.1,0.1,0.3-0.1,0.4
				c-0.3,0.2-0.4,0.1-0.6,0.1c-0.7-0.1-1.2-0.4-1.8-0.5c-0.3-0.1-0.6-0.1-0.8,0.1s-0.2,0.5-0.3,0.8c-0.3,1.2-0.6,2.4-0.8,3.6
				c-0.1,1.2-0.6,2.4-0.8,3.6h-0.1c-0.2-1.3,0.2-2.5,0.3-3.7c0.3-1.2,0.6-2.4,1.1-3.6c0.1-0.3,0.2-0.6,0.4-0.9
				c0.3-0.3,0.7-0.2,0.9-0.2c0.6,0.1,1.2,0.3,1.8,0.3c0.1,0,0.3,0,0.3,0c0,0.1,0,0-0.1-0.1s-0.2-0.2-0.3-0.4c-0.1-0.2-0.1-0.4,0-0.6
				C149.3,377,149.8,376.7,150.4,376.4L150.4,376.4z"/>
		</g>
		<g>
			<path d="M146.7,373.6c-0.9,0.3-1.5,0.9-2.3,1.5c-0.4,0.3-0.7,0.5-1.1,0.9c-0.3,0.3-0.6,0.7-0.8,1.1c-0.9,1.6-1.5,3.3-1.1,5.1l0,0
				c-0.5-0.8-0.6-1.9-0.4-2.8c0.2-0.9,0.7-1.8,1.3-2.5l0.9-1.1c0.3-0.4,0.6-0.7,0.9-1.1c0.3-0.3,0.7-0.6,1.1-0.8
				C145.7,373.7,146.2,373.5,146.7,373.6L146.7,373.6z"/>
		</g>
		<g>
			<path d="M192.5,376.1c-2,0.2-3.7,1.3-5.7,2c-1,0.4-2.2,0.4-3.3,0.1c-1-0.4-1.9-1-2.7-1.8c-1.5-1.5-2.5-3.3-3.6-5.1
				c-0.5-0.9-0.9-1.9-1.3-2.8c-0.2-0.5-0.4-0.9-0.7-1.3s-0.6-0.6-1-0.9l0.3-0.5c0.5,0.2,1,0.5,1.4,0.9s0.6,0.9,0.9,1.4l1.3,2.8
				c0.4,0.9,0.8,1.9,1.3,2.7c0.5,0.9,1.1,1.7,1.8,2.4c0.7,0.7,1.6,1.3,2.5,1.5c0.9,0.3,1.9,0.1,2.7-0.3c0.9-0.4,1.8-0.8,2.8-1.2
				c1-0.4,2.1-0.6,3.2-0.5v0.6H192.5z"/>
		</g>
		<g>
			<path d="M187.4,367.3c-1.2,0.2-2.4,0.5-3.5,0.9s-2.3,0.9-3.2,1.7l-0.1-0.1c0.4-0.4,1-0.8,1.5-1.1c0.5-0.3,1.1-0.5,1.7-0.8
				c1.1-0.5,2.3-0.8,3.5-1.1L187.4,367.3z"/>
		</g>
		<g>
			<path d="M189.9,371c-1.2,0.2-2.4,0.5-3.5,0.9s-2.3,0.9-3.2,1.7l-0.1-0.1c0.4-0.4,1-0.8,1.5-1.1c0.5-0.3,1.1-0.5,1.7-0.8
				c1.1-0.5,2.3-0.8,3.5-1.1L189.9,371z"/>
		</g>
		<g>
			<path d="M184.5,363.6c-1.2,0.2-2.4,0.5-3.5,0.9s-2.3,0.9-3.2,1.7l-0.1-0.1c0.4-0.4,1-0.8,1.5-1.1c0.5-0.3,1.1-0.5,1.7-0.8
				c1.1-0.5,2.3-0.8,3.5-1.1L184.5,363.6z"/>
		</g>
		<g>
			<path d="M189.3,402.7c1.2-0.4,2.4-0.8,3.6-1.1c0.6-0.1,1.2-0.2,1.8-0.4c0.6-0.2,1.2-0.4,1.7-0.7c1.1-0.6,2.3-1.1,3.4-1.6
				c0.6-0.3,1.1-0.5,1.7-0.8c0.3-0.2,0.5-0.3,0.8-0.5c0.2-0.2,0.5-0.4,0.4-0.7h0.1c0.2,0.3,0,0.7-0.2,1s-0.5,0.5-0.7,0.7
				c-0.5,0.4-1.1,0.7-1.6,1c-1.2,0.6-2.3,1-3.6,1.3c-0.6,0.2-1.2,0.3-1.8,0.6c-0.6,0.2-1.2,0.5-1.7,0.8c-0.6,0.2-1.2,0.4-1.8,0.5
				C190.6,402.8,189.9,402.9,189.3,402.7L189.3,402.7z"/>
		</g>
		<g>
			<path d="M139.4,399.9c0.1-0.6-0.2-1.1-0.4-1.5c-0.1-0.2-0.3-0.4-0.5-0.6s-0.4-0.4-0.6-0.6c-0.4-0.4-0.8-0.9-1.2-1.2
				c-0.4-0.4-1-0.6-1.5-0.9c-1.1-0.5-2.1-1-3.1-1.4c-1-0.5-2.1-0.9-3.2-1.2v-0.1c1.2-0.2,2.4,0.1,3.5,0.6s2.1,1,3.1,1.8
				c0.5,0.4,0.9,0.7,1.4,1.1c0.5,0.3,1,0.6,1.5,1c0.2,0.2,0.4,0.4,0.6,0.6c0.2,0.2,0.4,0.5,0.5,0.8
				C139.8,398.7,139.8,399.4,139.4,399.9L139.4,399.9z"/>
		</g>
		<path class="defense-3" d="M196.6,384c-2.1,1.3-2.8,1.7-4.8,2.8c-1.6,0.8-2.9,1.4-0.9,3.9s3.5,4.3,5.1,4.3"/>
		<path class="defense-3" d="M135.9,392c2.1,1.5,2.9,3.2,4.2,2.7s3.4-3.7,3.8-4.2c0.9-1.2,0.4-3.9-2.3-5.9c-2-1.4-4.3-3.2-5.9-1.6
			s-4.4,5.7-3.3,6.6C133.5,390.6,134.2,390.8,135.9,392z"/>
		<g>
			<path d="M151.2,361.6c-0.2,1-0.5,2-1,2.9s-1,1.8-1.4,2.7c-0.2,0.5-0.4,0.9-0.6,1.4l-0.5,1.4c-0.2,0.5-0.4,0.9-0.7,1.4
				c-0.1,0.2-0.3,0.4-0.4,0.6c-0.1,0.1-0.2,0.2-0.3,0.3c-0.1,0.1-0.1,0.1-0.2,0.2l-0.1,0.1c0,0-0.1,0.1-0.2,0.1l-0.2-0.6l0,0V372
				l0.1-0.1l0.2-0.3l0.3-0.7c0.2-0.4,0.4-0.9,0.7-1.3s0.5-0.9,0.8-1.3c0.2-0.4,0.5-0.9,0.7-1.4c0.4-0.9,0.7-1.9,1-2.8
				c0.4-0.9,0.8-1.8,1.3-2.7L151.2,361.6z"/>
		</g>
		<g>
			<path d="M141.4,361.9c1.1,0.3,2.2,0.7,3.3,1.2c0.5,0.2,1,0.5,1.5,0.8s1,0.7,1.2,1.2h-0.1c-0.3-0.5-0.8-0.8-1.3-1.1
				c-0.5-0.3-1-0.6-1.5-0.8c-1.1-0.4-2.2-0.8-3.3-1L141.4,361.9z"/>
		</g>
		<g>
			<path d="M143.5,366.2c0.5,0.3,1,0.5,1.5,0.9c0.5,0.3,0.9,0.7,1.2,1.3h-0.1c-0.3-0.5-0.8-0.8-1.3-1.1c-0.5-0.3-1-0.5-1.6-0.7
				L143.5,366.2z"/>
		</g>
		<g>
			<path d="M142.3,358.8c1.1,0.3,2.2,0.7,3.3,1.2c0.5,0.2,1,0.5,1.5,0.8s1,0.7,1.2,1.2h-0.1c-0.3-0.5-0.8-0.8-1.3-1.1
				c-0.5-0.3-1-0.6-1.5-0.8c-1.1-0.4-2.2-0.8-3.3-1L142.3,358.8z"/>
		</g>
		<g>
			<path d="M137.9,375.4c-0.7,0.1-1.3,0-1.9-0.2c-0.6-0.3-1.2-0.5-1.8-0.7c-0.3-0.1-0.6-0.2-0.9-0.3c-0.3-0.1-0.6-0.1-1-0.2
				c-0.3-0.1-0.6-0.2-0.9-0.4c-0.1-0.1-0.3-0.2-0.4-0.4c-0.1-0.2-0.3-0.4-0.2-0.7h0.6c0.1,0,0.3,0.2,0.5,0.3
				c0.2,0.1,0.5,0.2,0.8,0.4c0.3,0.2,0.5,0.3,0.8,0.5c0.3,0.1,0.6,0.2,0.9,0.3c0.6,0.2,1.2,0.2,1.8,0.3c0.6,0.1,1.2,0.3,1.8,0.6
				L137.9,375.4z"/>
		</g>
		<g>
			<path d="M110.9,436.9c0.5,0.5,1,0.9,1.4,1.5s0.9,1.1,1.4,1.4c0.3,0.2,0.6,0.3,0.9,0.5c0.3,0.1,0.7,0.2,1,0.2
				c0.6,0.1,1.3,0.2,1.9,0.3l0.1,0.6c-0.7,0.3-1.5,0.2-2.3,0c-0.4-0.1-0.7-0.3-1-0.5s-0.6-0.4-0.9-0.5c-0.6-0.4-1.2-0.8-1.8-1.2
				c-0.5-0.5-1-1.1-1.2-1.9L110.9,436.9z"/>
		</g>
		<g>
			<path d="M205,440.9c0.7,0,1.3,0,2,0s1.4,0,2.1-0.2c0.3-0.1,0.7-0.2,1-0.4c0.3-0.2,0.6-0.4,0.8-0.6s0.5-0.4,0.7-0.7
				c0.2-0.2,0.5-0.5,0.6-0.6h0.6c0,0.6-0.3,0.9-0.5,1.2c-0.2,0.3-0.5,0.6-0.9,0.8c-0.4,0.2-0.8,0.3-1.1,0.4l-1,0.3
				c-0.3,0.1-0.7,0.2-1.1,0.4c-0.4,0.1-0.7,0.3-1.1,0.3c-0.8,0.1-1.6,0-2.3-0.4L205,440.9z"/>
		</g>
		<path class="defense-3" d="M109.6,440.4c0.7,0,7.5,1.8,7.7,3.8"/>
		<g>
			<path d="M107,448.3c-0.6,0.4-1.1,0.8-1.5,1.3c-0.1,0.1-0.1,0.2-0.1,0.2l-0.1-0.1c0,0,0,0,0.1,0c0.3-0.1,0.7-0.1,1-0.2
				c0.6-0.2,1.3-0.4,1.9-0.7c0.6-0.3,1.2-0.6,1.7-1c0.2-0.2,0.4-0.4,0.5-0.7c0.1-0.1,0.1-0.3,0.1-0.4s0-0.2,0.1-0.4
				c0.1-0.3,0.4-0.3,0.5-0.3c0.8,0.1,1.4,0.5,2,0.9s1.1,0.9,1.6,1.3l1.5,1.4c0.5,0.5,1.1,0.9,1.4,1.6c0.1,0.2,0.1,0.4,0.1,0.6
				s-0.1,0.5-0.3,0.6c-0.4,0.2-0.8,0.2-1.2,0.1c-0.7-0.2-1.3-0.7-1.8-1.2s-1-1-1.5-1.5s-1-1-1.4-1.6c-0.2-0.3-0.3-0.6-0.5-0.9
				s-0.4-0.5-0.5-0.6c-0.4-0.1-1.1,0.4-1.7,0.7L107,448.3L107,448.3z M106.8,448l1.8-1c0.3-0.2,0.6-0.3,0.9-0.5
				c0.3-0.1,0.7-0.4,1.2-0.3c0.3,0,0.5,0.2,0.6,0.4c0.1,0.1,0.2,0.3,0.3,0.5c0.2,0.3,0.4,0.6,0.5,0.9c0.3,0.6,0.8,1,1.2,1.6
				c0.4,0.5,0.9,1,1.4,1.5s1,1,1.5,1.2c0.3,0.1,0.6,0.1,0.8,0c0.1-0.1,0.1-0.1,0.1-0.2s0-0.3-0.1-0.4c-0.2-0.6-0.8-1-1.3-1.5
				l-1.5-1.4c-0.5-0.5-1-0.9-1.6-1.3s-1.2-0.6-1.8-0.7c-0.1,0,0,0,0.1-0.1c0-0.1,0,0,0,0.1c0,0.2,0,0.4-0.1,0.6
				c-0.1,0.4-0.4,0.7-0.7,1c-1.1,1-2.4,1.5-3.8,1.9c-0.3,0.1-0.7,0.2-1,0.2c-0.1,0-0.2,0-0.4,0c-0.2,0-0.4-0.2-0.4-0.5
				c0-0.4,0.2-0.5,0.3-0.7C105.5,448.7,106.2,448.3,106.8,448L106.8,448z"/>
		</g>
		<g>
			<path d="M104.3,454.5c1.2-0.5,2.4-0.9,3.6-1.2c1.3-0.3,2.5-0.5,3.8-0.7c0.6-0.1,1.4,0,1.9,0.4c0.6,0.4,1,0.8,1.5,1.2
				c0.5,0.4,0.9,0.9,1.4,1.4c0.2,0.2,0.4,0.5,0.6,0.8c0.1,0.2,0.1,0.3,0.2,0.5c0,0.1,0,0.2,0,0.3c0,0.1-0.1,0.3-0.3,0.3l-0.1-0.3
				c0,0,0-0.1,0-0.2s-0.1-0.3-0.2-0.4c-0.2-0.3-0.4-0.5-0.6-0.7c-0.4-0.5-0.9-0.9-1.3-1.3c-0.5-0.4-0.9-0.9-1.4-1.3
				s-1.1-0.5-1.7-0.4c-1.2,0.2-2.5,0.5-3.7,0.9l-3.7,1L104.3,454.5z"/>
		</g>
		<g>
			<path d="M223.7,452.7c-1.2,0-2.4,0-3.7,0h-1.8c-0.6,0-1.3-0.1-1.9-0.3c-1.2-0.5-2.2-1.2-3.2-1.9c-1-0.7-1.8-1.7-2.9-2.1
				c-0.5-0.2-1.1-0.3-1.7-0.3c-0.3,0-0.6,0-0.9,0.1c-0.3,0-0.5,0.2-0.3,0.4c0.7,0.9,1.6,1.8,2.4,2.7c0.8,0.9,1.5,1.9,2.2,2.9
				c0.3,0.5,0.8,1.1,0.6,1.9c-0.3,0.7-1.1,0.9-1.1,1.4l-0.1-0.2c0.1,0,0.2,0.2,0.2,0.2c0,0.1,0,0.1,0,0.2v0.1l0,0v0.3
				c-0.1,0-0.2-0.2-0.2-0.2c0-0.1,0-0.1,0-0.2v-0.1c0,0,0,0,0.1,0l-0.1-0.2c0-0.4,0.3-0.7,0.5-0.9c0.2-0.2,0.4-0.4,0.5-0.6
				c0.1-0.5-0.2-1-0.5-1.5c-0.7-1-1.5-1.9-2.2-2.9c-0.8-1-1.5-1.8-2.4-2.8c-0.1-0.2-0.1-0.4,0-0.6s0.3-0.2,0.5-0.2
				c0.3,0,0.6-0.1,0.9-0.1c0.6,0,1.3,0.1,1.8,0.3c1.2,0.5,2,1.5,3,2.1c1,0.7,2.1,1.3,3.1,1.8c0.5,0.2,1.1,0.2,1.7,0.3l1.8,0.1
				c1.2,0,2.4,0.1,3.7,0.2L223.7,452.7z"/>
		</g>
		<g>
			<path d="M214,447.4c-1,0.3-1.9,0.8-2.6,1.5c-0.2,0.2-0.2,0.3-0.2,0.3s0.3,0.1,0.6,0.1c0.5,0,1,0,1.6-0.1c0.5-0.1,1-0.3,1.5-0.6
				c0.4-0.2,0.9-0.6,1.2-0.9c0.1-0.1,0.1-0.2,0.1-0.2l0,0c0-0.1-0.3-0.1-0.6-0.1C215.1,447.3,214.6,447.4,214,447.4L214,447.4z
				 M213.9,447c0.5-0.1,1.1-0.2,1.7-0.3c0.3,0,0.6,0,1,0.2c0.2,0.1,0.3,0.4,0.3,0.7c-0.1,0.3-0.2,0.4-0.3,0.5
				c-0.5,0.4-1,0.6-1.5,0.9c-0.5,0.2-1,0.4-1.6,0.5c-0.5,0.1-1.1,0.2-1.7,0.2h-0.4c-0.1,0-0.1,0-0.3,0c-0.1,0-0.2,0-0.3-0.1
				c-0.2-0.2-0.2-0.5-0.2-0.7c0.1-0.2,0.2-0.4,0.3-0.5C211.7,447.5,212.8,447.1,213.9,447L213.9,447z"/>
		</g>
		<g>
			<path d="M215.5,449.9c0-0.2,0.1-0.3,0.1-0.4l0.3-0.2c0.2-0.1,0.4-0.3,0.6-0.4c0.4-0.2,0.9-0.5,1.3-0.6l0.2,0.5
				c-0.4,0.2-0.8,0.4-1.2,0.6c-0.2,0.1-0.4,0.2-0.6,0.4l-0.3,0.2C215.8,449.9,215.6,449.9,215.5,449.9z"/>
		</g>
		<g>
			<path d="M217.2,450.8c0-0.1,0.1-0.3,0.1-0.4l0.3-0.2l0.5-0.3c0.4-0.2,0.7-0.4,1.1-0.6l0.2,0.4c-0.4,0.2-0.7,0.4-1.1,0.6l-0.5,0.3
				l-0.3,0.2C217.4,450.8,217.3,450.8,217.2,450.8z"/>
		</g>
		<g>
			<path d="M218.8,451.5c0-0.1,0.1-0.2,0.1-0.4l0.2-0.2l0.5-0.3l0.9-0.6l0.3,0.4l-0.9,0.6l-0.5,0.3l-0.2,0.2
				C219.1,451.6,219,451.6,218.8,451.5z"/>
		</g>
		<g>
			<path d="M205.2,443.6c0.7,0.1,1.4,0.2,2.1,0.2c0.7,0,1.4-0.2,2-0.5s1.2-0.7,1.8-1.1s1.2-0.8,1.5-1.3l0.3,0.1
				c-0.1,0.4-0.4,0.7-0.7,0.9c-0.3,0.2-0.6,0.5-0.9,0.6l-1.9,1c-0.6,0.3-1.3,0.6-2.1,0.7s-1.5-0.1-2.2-0.4L205.2,443.6z"/>
		</g>
		<g>
			<path class="defense-3" d="M166.7,320.1c-0.2-2.9-0.1-6.9-0.1-7.3"/>
			<path class="defense-3" d="M170.9,325.3c-1.1-0.3-2.3-0.7-3.1-1.6"/>
			<path class="defense-3" d="M175.2,325.3c-1.2,0.3-2.3,0.3-3.3,0.2"/>
			<path class="defense-3" d="M177.9,324.1c-0.5,0.4-1.1,0.7-1.7,0.9"/>
			<path class="defense-3" d="M179.7,322.1c-0.2,0.3-0.4,0.6-0.6,0.9"/>
			<path class="defense-3" d="M182.4,313.9c0,0-0.5,4.1-1.9,7"/>
		</g>
		<g>
			<g>
				<path d="M184.9,317.7c0.3-0.3,0.8-0.3,1,0.1c0.1,0.2,0.2,0.4,0.1,0.6c0,0.2-0.1,0.4-0.2,0.5c-0.4,0.6-0.7,1.2-1.2,1.7
					s-1.1,0.9-1.8,1.1s-1.4,0.3-2,0.4c-0.1,0-0.2-0.1-0.2-0.2v-0.1l0,0c0-0.1,0.2-0.2,0.3-0.1c0.1,0,0.1,0.1,0.1,0.2v1l0,0l0,0
					l-0.2-0.2c0.6-0.1,1.1-0.2,1.7-0.4c0.3-0.1,0.5-0.2,0.7-0.4c0.2-0.1,0.5-0.3,0.7-0.5l0.1,0.1l0,0l0,0c0,0-0.1,0-0.1-0.1
					c0-0.2,0-0.4,0-0.6h0.1c0,0.2,0,0.4,0,0.6l-0.1-0.1l0,0c0,0,0.1,0,0.1,0.1l0,0l0,0c-0.2,0.3-0.4,0.5-0.6,0.7
					c-0.2,0.2-0.5,0.3-0.8,0.4c-0.6,0.2-1.2,0.3-1.8,0.4c-0.1,0-0.2-0.1-0.2-0.2l0,0l0,0v-1l0.4,0.1l0,0l-0.2-0.3
					c1.3-0.1,2.7-0.4,3.6-1.4c0.4-0.5,0.8-1.1,1.1-1.6c0.1-0.3,0.4-0.6,0.2-0.8c-0.1-0.3-0.5-0.4-0.7-0.1L184.9,317.7z"/>
			</g>
			<g>
				<path d="M185.1,319.9c0,0.7,0.1,1.3,0.1,2v0.1l0,0c-0.2,0.3-0.5,0.7-0.8,0.9c-0.3,0.3-0.7,0.5-1.1,0.6c-0.8,0.3-1.6,0.4-2.3,0.5
					l0.1-0.1L181,324v-0.1c-0.1,1.3-0.1,2.5-0.1,3.8l-0.2-0.1c1.3-0.8,2.5-1.9,3.3-3.3c0.8-1.3,1.4-2.8,1.7-4.4h0.3
					c-0.1,0.8-0.3,1.6-0.5,2.4c-0.3,0.8-0.6,1.5-1.1,2.2c-0.4,0.7-1,1.3-1.6,1.8s-1.3,1-1.9,1.4c-0.1,0-0.1,0-0.2,0c0,0,0,0,0-0.1
					l0,0c0-1.3,0-2.5,0-3.8v-0.1l0,0l0.1-0.1c0-0.1,0.1-0.1,0.1-0.1l0,0c0.8-0.1,1.5-0.3,2.2-0.6c0.3-0.1,0.7-0.3,0.9-0.6
					c0.3-0.2,0.5-0.5,0.8-0.8v0.1c0-0.7,0-1.3,0.1-2h0.2V319.9z"/>
			</g>
			<g>
				<path d="M176.2,322.2c0.1,0.3,0.1,0.6,0.1,0.9l-0.2-0.2c0.6,0,1.2-0.1,1.8,0c0.6,0,1.2,0,1.8,0l-0.1,0.1v-1l0.1,0.1
					c-0.6,0-1.2,0.1-1.8,0.1H177c-0.2,0-0.3,0-0.5,0h-0.2H176.2L176.2,322.2L176.2,322.2z M176.1,322h0.1h0.1h0.1h0.2h0.5h0.9
					c0.6,0,1.2,0,1.8,0l0,0c0.1,0,0.1,0.1,0.1,0.1v1c0,0.1,0,0.1-0.1,0.1c-0.6,0-1.2,0-1.8,0.1s-1.2,0.1-1.8,0l0,0
					c-0.1,0-0.2-0.1-0.2-0.2C176,322.7,176,322.3,176.1,322L176.1,322z"/>
			</g>
			<g>
				<path d="M176.2,329.3l0.8-0.2c0.3-0.1,0.6-0.1,0.9-0.2c0.6-0.2,1.1-0.5,1.7-0.7l-0.1,0.2c0.1-1.4,0.2-2.8,0.2-4.3v0.1v-0.1
					l0.1,0.1c-1.2,0-2.4,0.1-3.6,0.1l0.2-0.2c0,0.9,0,1.8,0,2.7c0,0.9-0.1,1.8-0.1,2.7L176.2,329.3L176.2,329.3L176.2,329.3z
					 M176.5,329.5l-0.3,0.1l0,0c-0.1,0-0.2,0-0.2-0.1l0,0l0,0c0-0.9,0-1.8,0-2.7c0-0.9,0-1.8,0.1-2.7l0,0c0-0.1,0.1-0.2,0.2-0.2
					c1.2,0.1,2.4,0,3.5,0c0,0,0.1,0,0.1,0.1v0.1v0.1c0,1.4,0,2.9,0,4.3c0,0.1-0.1,0.2-0.1,0.2c-0.6,0.2-1.2,0.4-1.8,0.6
					c-0.3,0.1-0.6,0.1-0.9,0.2H176.5z"/>
			</g>
			<g>
				<path d="M172,324.2c0,0.5,0.1,0.9,0.1,1.3v1.3c0,0.9,0,1.8,0,2.7l-0.2-0.2c1,0.1,2.1,0.2,3.1,0.1l-0.1,0.1c0.2-1.8,0-3.6,0-5.5
					l0.2,0.2l-1.6-0.1L172,324.2L172,324.2z M171.8,324c0.5,0,1.1-0.1,1.7-0.1h1.7c0.1,0,0.2,0.1,0.2,0.2l0,0c0,0.9,0,1.8-0.1,2.7
					c-0.1,0.9-0.1,1.8-0.2,2.8c0,0.1-0.1,0.1-0.1,0.1c-1.1,0.1-2.1,0.1-3.2,0c-0.1,0-0.2-0.1-0.2-0.2l0,0c-0.1-0.9-0.1-1.8-0.1-2.8
					c0-0.5,0-0.9,0.1-1.4C171.7,324.9,171.8,324.4,171.8,324L171.8,324z"/>
			</g>
			<g>
				<path d="M172.1,323c0.6-0.1,1.1-0.1,1.6-0.1s1,0,1.5,0.1l-0.1,0.1c0-0.3,0-0.7,0-1l0,0l0,0l0.1,0.1c-0.5,0-1,0-1.6,0.1
					c-0.5,0.1-1,0.1-1.6,0l0.2-0.2C172.2,322.4,172.1,322.7,172.1,323L172.1,323z M171.9,323.1c0-0.3,0-0.7,0-1.1
					c0-0.1,0.1-0.1,0.2-0.2l0,0c0.5,0,1,0,1.6,0c0.5,0,1,0,1.6,0c0.1,0,0.1,0,0.1,0.1l0,0l0,0c0,0.3,0,0.7,0,1c0,0.1,0,0.1-0.1,0.1
					l0,0l0,0c-0.5,0-1.1,0.1-1.7,0C173,323.2,172.4,323.2,171.9,323.1L171.9,323.1z"/>
			</g>
			<g>
				<path d="M168,321.7c0,0.3,0,0.6,0,0.9l-0.2-0.2l0,0l0,0l0,0c0.5,0.1,1,0.2,1.5,0.4c0.5,0.1,1,0.2,1.6,0.2l-0.1,0.1
					c0-0.3,0.1-0.7,0.1-1l0.1,0.1c-0.5,0-1.1,0-1.6-0.1s-1.1-0.2-1.6-0.4l0.2-0.1V321.7L168,321.7z M167.8,321.7L167.8,321.7v-0.1
					c0-0.1,0.1-0.1,0.1-0.1l0,0l0,0c0.5,0.1,1,0.2,1.6,0.2c0.5,0.1,1,0.2,1.6,0.2l0,0c0.1,0,0.1,0.1,0.1,0.1l0,0
					c0,0.3-0.1,0.7-0.1,1c0,0.1-0.1,0.1-0.1,0.1l0,0c-0.5,0-1.1,0-1.6-0.1c-0.5,0-1.1-0.2-1.6-0.3l0,0l0,0l0,0
					c-0.1,0-0.2-0.1-0.1-0.2C167.7,322.2,167.7,321.9,167.8,321.7z"/>
			</g>
			<g>
				<path d="M167.8,323.5c0,0.1,0,0.2,0,0.2v0.2v0.3v0.6v1.3c0,0.9,0,1.7,0,2.6l-0.1-0.2l0.7,0.3l0.8,0.2l1.6,0.3l0,0h0.1l-0.1,0.1
					c-0.1-0.9-0.1-1.8-0.1-2.7c0-0.9,0-1.8,0-2.7l0.2,0.2c-0.5,0-1.1-0.1-1.6-0.2c-0.3,0-0.5-0.1-0.8-0.2l-0.4-0.1L167.8,323.5
					L167.8,323.5L167.8,323.5L167.8,323.5L167.8,323.5L167.8,323.5L167.8,323.5C167.7,323.7,167.9,323.1,167.8,323.5L167.8,323.5
					C167.8,323.4,167.8,323.4,167.8,323.5L167.8,323.5z M167.6,323.6C167.6,323.6,167.6,323.7,167.6,323.6L167.6,323.6
					c0,0.3,0.2-0.3,0.2-0.2l0,0l0,0l0,0l0,0l0,0h0.1h0.2l0.4,0.1l0.8,0.1c0.5,0.1,1.1,0.1,1.6,0.1c0.1,0,0.2,0.1,0.2,0.2l0,0
					c-0.1,1.8-0.3,3.6-0.1,5.3c0,0.1,0,0.1-0.1,0.1l0,0h-0.1l0,0l-1.6-0.3l-0.8-0.1l-0.8-0.2c-0.1,0-0.1-0.1-0.1-0.1l0,0
					c-0.1-0.9-0.1-1.7-0.1-2.6c0-0.4,0-0.9,0.1-1.3l0.1-0.6v-0.3L167.6,323.6C167.6,323.7,167.6,323.7,167.6,323.6L167.6,323.6z"/>
			</g>
			<g>
				<path d="M165.1,319L165.1,319c0.6,0.4,1.3,0.9,2.1,1.1c0.8,0.3,1.5,0.5,2.3,0.6c1.6,0.2,3.2,0.1,4.9,0.1c1.6,0,3.3,0.1,4.9,0
					c0.8,0,1.6-0.1,2.4-0.2c0.8-0.2,1.5-0.5,2-1.1l0.1,0.3l0,0c-0.1,0-0.2-0.1-0.2-0.2l0,0v-5.9l0.2,0.1c-1.6,0.1-3.2,0.2-4.8,0.2
					l-4.8-0.2c-1.6-0.1-3.2-0.1-4.8-0.2c-1.6-0.2-3.2-0.7-4.6-1.3h0.1l0,0l0.2-0.2v3.4v1.7v0.9v0.4v0.2
					C165.1,318.9,165.2,319,165.1,319L165.1,319z M164.9,319.1c0-0.1,0-0.2,0-0.3v-0.2v-0.4v-0.9v-1.7v-3.4c0-0.1,0.1-0.2,0.2-0.2
					l0,0h0.1c1.5,0.6,3,1,4.6,1.2s3.2,0.2,4.7,0.3l4.8,0.3c1.6,0,3.2-0.1,4.8-0.2l0,0c0.1,0,0.2,0.1,0.2,0.1l0,0v5.9l-0.2-0.2l0,0
					c0.1,0,0.2,0.1,0.2,0.2v0.1c-0.5,0.7-1.4,1.1-2.2,1.3c-0.8,0.2-1.7,0.3-2.5,0.3c-1.7,0.1-3.3,0.1-4.9,0.1c-1.6,0-3.3,0-5-0.2
					C167.8,320.8,166.2,320.3,164.9,319.1L164.9,319.1z"/>
			</g>
			<g>
				<path d="M165.1,320.2v0.9V321c0.3,0.2,0.6,0.4,0.9,0.6c0.3,0.2,0.6,0.3,0.9,0.5l-0.2,0.4l0,0c-0.1,0-0.1-0.1-0.1-0.2l0.1-0.9
					c0-0.1,0.1-0.2,0.2-0.2c0.1,0,0.1,0,0.1,0.1l0,0c0.1,0.1,0,0.2-0.1,0.3c-0.1,0-0.1,0-0.2,0c-1.3-0.5-2.5-1.2-3.4-2.3
					c-0.2-0.3-0.4-0.5-0.6-0.9c-0.1-0.2-0.2-0.3-0.2-0.5c-0.1-0.1-0.2-0.4-0.1-0.6c0.1-0.2,0.2-0.4,0.5-0.5c0.2-0.1,0.5,0,0.6,0.2
					c0.2,0.2,0.2,0.4,0.2,0.5c0.1,0.2,0.1,0.3,0.2,0.5h-0.1c-0.1-0.2-0.2-0.3-0.3-0.4c-0.1-0.2-0.2-0.3-0.3-0.4
					c-0.2-0.1-0.5,0-0.5,0.2c0,0.1,0,0.2,0.1,0.4c0.1,0.1,0.1,0.3,0.2,0.4c0.2,0.3,0.4,0.5,0.6,0.8c0.9,1,2,1.7,3.3,2.2l-0.2,0.3
					l0,0l0.4-0.1l-0.1,0.9l-0.1-0.2l0,0c0.1,0,0.1,0.2,0.1,0.3c0,0.1-0.2,0.1-0.3,0.1c-0.3-0.1-0.7-0.3-1-0.5s-0.6-0.4-0.9-0.7v-0.1
					v-0.1v-0.8L165.1,320.2L165.1,320.2z"/>
			</g>
			<g>
				<path d="M163.9,318.7l-0.1-3.4c0-1.1-0.1-2.3-0.1-3.4c0-0.1,0-0.1,0.1-0.2l0,0l0.1,0.4l-0.9-0.4c-0.1,0-0.1-0.1-0.2-0.1
					c-0.1-0.1-0.2-0.1-0.2-0.2c-0.1-0.1-0.2-0.3-0.3-0.5c0-0.1,0-0.2,0-0.4c0-0.1,0.2-0.3,0.3-0.3c0.2-0.1,0.4-0.1,0.6,0
					c0.4,0.1,0.6,0.3,0.9,0.4l-0.3,0.3l0,0v-0.1v-1l0.2,0.2h-0.1l0,0l-0.8-0.4c-0.3-0.1-0.6-0.3-0.8-0.7c-0.1-0.2-0.1-0.4,0-0.7
					c0.3-0.3,0.5-0.2,0.6-0.3c0.3,0,0.7,0.2,1,0.3c1.1,0.5,2.2,0.9,3.4,1.3c1.1,0.4,2.3,0.6,3.5,0.7l3.6,0.3
					c2.4,0.2,4.8,0.3,7.2,0.2c1.2,0,2.4-0.1,3.6-0.3l0.9-0.1c0.5-0.1,0.9,0.4,0.8,0.8c0,0.2-0.2,0.4-0.4,0.6
					c-0.2,0.1-0.4,0.1-0.5,0.1l-0.9,0.1v-0.5l0,0c0.1,0,0.2,0.1,0.2,0.2v1c0,0.1,0,0.1,0,0.1l0,0l-0.2-0.4l1.1-0.2
					c0.1,0,0.4-0.1,0.7,0c0.2,0.1,0.4,0.4,0.4,0.7c0,0.3-0.2,0.5-0.4,0.7c-0.3,0.1-0.4,0.1-0.6,0.1l-1.1,0.1l0.2-0.2
					c-0.1,1.8-0.1,3.6-0.2,5.3h-0.1c0-1.8-0.1-3.6-0.2-5.3c0-0.1,0.1-0.2,0.2-0.2l0,0l1.1-0.2c0.2,0,0.4-0.1,0.5-0.1
					s0.1-0.1,0.1-0.2s0-0.2-0.1-0.2c-0.1-0.1-0.2,0-0.4,0l-1.1,0.2c-0.1,0-0.3-0.1-0.3-0.2s0-0.1,0-0.2l0,0l0,0v0.1v-1l0.2,0.2l0,0
					c-0.1,0-0.2-0.2-0.2-0.3c0-0.1,0.1-0.2,0.2-0.2l0,0l0.9-0.1c0.2,0,0.3,0,0.3-0.1c0.1,0,0.1-0.1,0.1-0.2c0-0.2-0.1-0.3-0.3-0.3
					l-0.9,0.1c-1.2,0.2-2.4,0.3-3.6,0.3c-2.4,0.1-4.9-0.1-7.3-0.2l-3.6-0.3c-1.2-0.1-2.4-0.3-3.6-0.7c-1.2-0.4-2.3-0.8-3.4-1.3
					c-0.3-0.1-0.5-0.2-0.8-0.2c-0.1,0-0.3,0.1-0.2,0v0.2c0.2,0.3,0.9,0.5,1.4,0.8l0,0h0.1c0.1,0,0.2,0.1,0.2,0.2v1v-0.1l0,0
					c0,0.1,0,0.3-0.2,0.3c-0.1,0-0.1,0-0.2,0c-0.3-0.1-0.6-0.3-0.8-0.3c-0.1,0-0.3,0-0.3,0s0,0,0,0.1s0.1,0.2,0.2,0.3l0.1,0.1
					l0.2,0.1l0.9,0.4c0.1,0.1,0.2,0.2,0.1,0.3c0,0,0,0.1-0.1,0.1l0,0l0.1-0.2c0,1.1-0.1,2.3-0.1,3.4l-0.1,3.4h-0.3V318.7z"/>
			</g>
			<g>
				<path d="M162.8,318.8c0.1,0.8,0.3,1.7,0.5,2.5c0.2,0.9,0.3,1.7,0.6,2.5s0.7,1.6,1.1,2.3c0.2,0.4,0.5,0.7,0.7,1
					c0.3,0.3,0.6,0.6,0.9,0.8l0,0l0,0v0.1l-0.2,0.1c-0.1-0.8,0-1.7,0-2.5s0-1.7,0.1-2.5l0.1,0.2l0,0l0.1,0.1c-1-0.4-2-1-2.8-1.8
					v-0.3c0-0.3,0-0.6,0-0.9v-0.9h0.3v1c0,0.4,0,0.7,0,1.1v-0.3c0.8,0.7,1.7,1.3,2.7,1.7l0,0c0,0,0.1,0,0.1,0.1l0,0l0,0
					c0,0,0.1,0.1,0,0.2c-0.2,1.6-0.3,3.3-0.2,4.9c0,0.1-0.1,0.1-0.1,0.1h-0.1v-0.1l0,0c-0.3-0.3-0.7-0.5-1-0.9
					c-0.3-0.3-0.6-0.7-0.8-1.1c-0.5-0.7-0.9-1.5-1.2-2.3s-0.5-1.7-0.6-2.6C162.8,320.5,162.7,319.6,162.8,318.8L162.8,318.8z"/>
			</g>
			<g>
				<path d="M183.8,312.6c0-0.3,0-0.6,0-0.9l0.1,0.1c-1.6,0.1-3.2,0.2-4.8,0.2c-1.6-0.1-3.2-0.1-4.8-0.2s-3.2-0.1-4.8-0.3
					c-1.6-0.2-3.1-0.7-4.6-1.3l0.2-0.1v1c0,0.1-0.1,0.1-0.1,0.1l0,0V311c1.5,0.6,3,1.1,4.6,1.3c1.6,0.1,3.2,0.2,4.8,0.3
					c1.6,0.1,3.2,0.2,4.8,0.2c0.8,0,1.6,0,2.4,0l1.2-0.1h0.6h0.3L183.8,312.6C183.8,312.6,183.9,312.6,183.8,312.6z M184,312.8
					c-0.1,0.1-0.2,0-0.2,0.1h-0.1h-0.3l-0.6,0.1l-1.2,0.1c-0.8,0-1.6,0.1-2.4,0.1c-1.6,0-3.2,0-4.8-0.2c-1.6-0.1-3.2-0.2-4.8-0.4
					c-1.6-0.3-3.1-0.8-4.6-1.3c-0.1,0-0.1-0.1-0.1-0.2l0.1-0.1l0,0l-0.1,0.1v-1c0-0.1,0.1-0.1,0.1-0.1l0,0c1.5,0.5,3,1,4.6,1.2
					c1.6,0.1,3.2,0.1,4.8,0.2s3.2,0.1,4.8,0.2s3.2-0.1,4.8-0.1l0,0c0.1,0,0.1,0.1,0.1,0.1l0,0C184,312,184,312.4,184,312.8
					L184,312.8z"/>
			</g>
		</g>
		<g>
			<path d="M168.1,329.7c0.4,1.5,0.1,3-0.7,4.2c-0.4,0.6-1,1.1-1.4,1.5l-1.4,1.5c-0.9,1-1.9,2-2.9,2.9c-0.5,0.5-1,1-1.5,1.4
				c-0.6,0.4-1.2,0.8-1.9,1c0.5-0.5,0.9-1,1.3-1.5c0.5-0.5,1-0.9,1.5-1.4c1-0.9,1.9-1.9,2.8-2.9l1.4-1.5c0.5-0.5,1-1,1.3-1.5
				c0.7-1,0.9-2.4,0.6-3.5L168.1,329.7z"/>
		</g>
		<g>
			<path d="M153.8,395.3l-2.4-2.7l-1.2-1.4l-0.6-0.7c-0.1-0.3-0.3-0.6-0.4-0.8c0.3,0.2,0.5,0.3,0.8,0.5l0.6,0.7l1.2,1.4l2.4,2.7
				L153.8,395.3z"/>
		</g>
		<g>
			<path d="M172.4,314.7c0,0.7,0,1.3,0,2c0,0.4,0,0.7-0.1,1s-0.2,0.7-0.5,1l0,0c-0.2,0.3-0.3,0.7-0.2,0.9c0.1,0.2,0.5,0.2,0.9,0.3
				c0.4,0,0.8,0,1.2,0s0.8,0,1.2,0c-0.8,0.2-1.6,0.4-2.4,0.4c-0.2,0-0.4,0-0.6,0c-0.2,0-0.5-0.1-0.6-0.4c-0.2-0.6,0-1,0.2-1.4l0,0
				l0,0c0.2-0.2,0.3-0.5,0.4-0.8c0.1-0.3,0.2-0.6,0.2-0.9C172.1,316,172.3,315.3,172.4,314.7z"/>
		</g>
		<line class="defense-2" x1="175.9" y1="316.8" x2="179.7" y2="316.8"/>
		<line class="defense-2" x1="170.9" y1="316.4" x2="167.5" y2="316.4"/>
		<g>
			<path d="M181.8,328.7C181.8,328.6,181.9,328.7,181.8,328.7l0.1,0.2l0.1,0.3l0.3,0.7c0.2,0.5,0.4,0.9,0.6,1.4
				c0.4,0.9,0.9,1.8,1.4,2.6c0.6,0.8,1.2,1.6,1.8,2.4l0.9,1.2c0.2,0.5,0.4,0.9,0.7,1.4c-0.5-0.3-0.8-0.6-1.3-0.9l-0.9-1.2
				c-0.6-0.8-1.2-1.6-1.8-2.5s-1-1.8-1.5-2.7c-0.2-0.5-0.4-0.9-0.6-1.4l-0.3-0.7l-0.1-0.4l-0.1-0.2c0-0.1,0-0.1-0.1-0.3h0.8V328.7z"
				/>
		</g>
		<g>
			<path d="M170.1,330.4c0.5,0.4,1.1,0.9,1.6,1.4l1.4,1.5l1.4,1.5l0.7,0.8l0.2,0.2c0,0.1,0,0,0,0l0,0c0.1,0,0.2-0.1,0.3-0.2
				c1-0.9,1.8-2.1,2.6-3.1c0.4-0.5,0.8-1.1,1.2-1.7c0.4-0.5,0.9-1.1,1.2-1.7c-0.1,0.7-0.5,1.3-0.8,1.9c-0.4,0.6-0.8,1.2-1.2,1.7
				c-0.9,1.1-1.6,2.2-2.7,3.2c-0.2,0.1-0.3,0.2-0.6,0.3c-0.1,0-0.2,0-0.2,0c-0.1,0-0.2-0.1-0.2-0.1l-0.2-0.2l-0.7-0.8l-1.4-1.5
				l-1.4-1.5C170.9,331.5,170.5,331,170.1,330.4z"/>
		</g>
		<g>
			<path d="M167.9,330.7c0.7,0.6,1.3,1.2,1.9,1.9c0.6,0.6,1.2,1.3,1.8,2l3.5,3.9c-0.1,0,0.2-0.1,0.4-0.2s0.3-0.3,0.5-0.4
				c0.3-0.3,0.6-0.6,0.9-0.9c0.6-0.7,1.2-1.3,1.7-2c0.6-0.7,1.1-1.4,1.7-2.1c0.6-0.7,1.3-1.3,1.7-2c-0.3,0.9-0.8,1.6-1.3,2.4
				l-1.7,2.1c-0.6,0.7-1.1,1.4-1.7,2.1c-0.3,0.3-0.6,0.7-1,1c-0.2,0.2-0.3,0.3-0.5,0.4c-0.1,0.1-0.2,0.1-0.3,0.2
				c-0.1,0-0.3,0.1-0.5,0c-0.1-0.1-0.1-0.1-0.2-0.2l-0.1-0.1l-0.2-0.3l-0.4-0.5l-0.9-1l-1.8-2c-0.6-0.7-1.2-1.3-1.8-2
				C169,332.2,168.4,331.5,167.9,330.7z"/>
		</g>
		<g>
			<path d="M167.5,333.3c0.7,0.7,1.4,1.4,2.2,2.1l2,2.2l2,2.2l1,1.1l0.5,0.5l0.1,0.1l0,0l0,0c0.1,0,0.2-0.1,0.3-0.1
				c0.8-0.5,1.4-1.3,2.1-2.1c0.6-0.7,1.3-1.5,1.9-2.3c0.6-0.8,1.2-1.6,1.8-2.4s1.3-1.5,1.8-2.4c-0.8,1.9-2,3.5-3.2,5.1
				c-0.6,0.8-1.2,1.6-1.9,2.4s-1.3,1.5-2.2,2.1c-0.1,0.1-0.2,0.1-0.4,0.2c-0.1,0-0.2,0-0.3,0s-0.1-0.1-0.2-0.1l-0.1-0.1l-0.5-0.6
				l-1-1.1l-2-2.2l-2-2.2C168.7,334.9,168,334.1,167.5,333.3z"/>
		</g>
		<path class="defense-3" d="M176.4,341c0,0.4,0,0.9,0,1.3s-0.1,1.2-0.3,1.5c-0.5,0.7-1,0.6-1.6,1.3c-0.3-0.6-0.9-0.6-1.5-1.1
			c-0.1-0.1-0.3-0.5-0.3-0.7c0-0.4,0.1-1.9,0.1-2.2c0-0.6,0.5-0.3,0.5-0.3c0.4,0.1,0.7,0.1,0.9,0"/>
		<path class="defense-3" d="M183.3,332.5c2.3-0.5,10.4-2.3,12.1-2.5c2.2-0.3,3.9-0.3,4.8-0.4c1.1-0.2,1.8-1.2,1.8-1.7"/>
		<path class="defense-3" d="M186.8,337.6c0,0,4.5-1.2,6.1-1.6c3-0.8,4.1-0.9,5.6-1.2c1.6-0.4,2.8-0.6,2.8-1"/>
		<path class="defense-3" d="M167.8,331.6c-3.3-0.3-6.5-1.3-11.4-1.5c-2.5-0.1-6.4,0.1-8-0.2c-0.7-0.2-2.7-1.2-3.7-0.2s-1.5,1.9-1.5,2.6"
			/>
		<path class="defense-3" d="M163.8,337.3c0,0-7.1-1.2-11-1.6c-3.5-0.3-5.3-1.2-7.4-0.9"/>
		<path class="defense-3" d="M148.8,317.1c0.8,0.4,2,4.5,2.2,7c0.1,1.4,0,3.6,0,3.9s-1.8,0.4-2.3-0.2s-2.3-2.5-5.2-1.5"/>
		<path class="defense-3" d="M202,326.2c-0.8,0.8-2.4,1.9-2.4,1c0-1,0-7.6,0-7.6"/>
		<path class="defense-3" d="M179.8,325.6c-0.5,0.9-3.1,3.5-3.7,3.7"/>
		<path class="defense-3" d="M167.6,326.6c0.7,1.4,0.9,2.1,1.5,2.5"/>
		<g>
			<path class="defense-4" d="M166.8,347.8l-0.7,3l-1.3,6.1l-0.4,0.5v1.2l-1.2,5.4l-3.8-1.7l1-2.6l1.2-6.5c-0.7,0.5-1.3,0.8-1.9,1.1
				c-0.6,0.2-1.3,0.5-2.2,0.6l0.6-3.6c1.3-0.3,2.4-0.8,3.2-1.4s1.6-1.5,2.2-2.5L166.8,347.8z"/>
			<path class="defense-4" d="M175.8,364.2h-9c0.3-1.2,0.8-2.8,1.6-3.8s2.2-2.2,4.2-3.6c1.3-0.9,2.1-1.6,2.6-2.1c0.4-0.5,0.7-1,0.8-1.5
				s0.1-1-0.2-1.4c-0.2-0.4-0.6-0.6-1.1-0.7c-0.5,0-0.9,0.1-1.3,0.5c-0.4,0.4-0.7,1-1,2l-3.6-0.7c0.4-1.3,0.8-2.3,1.3-3
				s1.2-1.3,2-1.7c0.8-0.4,1.9-0.5,3.2-0.5c0.8,0,1.9,0,2.7,0.2c0.5,0.1,0.8,0.4,1,0.6c0.7,0.5,1.2,1.1,1.4,2c0.3,0.9,0.3,1.8,0,2.8
				c-0.2,0.7-1,1.2-1.5,1.6c-0.4,0.3-0.3,1-0.6,1.3c-0.7,0.9-1.8,1.8-3.3,2.7c-0.9,0.5-1.4,0.9-1.7,1.1s-1.2,0.5-1.7,0.5l5.7,0.7
				L175.8,364.2z"/>
		</g>
		<g>
			<path class="defense-5" d="M160.8,318.6h-1.6l-3.2,0.1h-0.9l-2.3,0.5l-0.1-2h1.4l3.4-0.1c-0.3-0.2-0.6-0.5-0.8-0.7s-0.2-0.3-0.4-0.6
				l1.9-0.1c0.3,0.5,0.5,0.7,0.9,1s0.9,0.5,1.5,0.7L160.8,318.6z"/>
			<path class="defense-5" d="M153.3,324.6l-0.2-4.4c0.6,0.1,1.2,0.1,1.8,0.4s0.6,0.3,1.5,1c0.5,0.5,1,0.8,1.3,0.9s0.6,0.2,0.8,0.2
				c0.3,0,0.5,0,0.7-0.2c0.2-0.1,0.3-0.3,0.3-0.5s-0.1-0.4-0.4-0.5c-0.2-0.1-0.6-0.2-1.1-0.3l0.1-1.6c0.7,0.1,1.3,0.2,1.7,0.4
				c0.4,0.2,0.8,0.4,1,0.7c0.3,0.3,0.4,0.8,0.5,1.3c0.1,0.8,0,1.5-0.1,1.6c-0.2,0.3-0.5,0.6-0.9,0.7c-0.4,0.2-0.9,0.2-1.4,0.2
				c-1.1-0.1-1.5-0.6-1.7-0.7c-0.5-0.2-1.1-0.7-1.7-1.2c-0.3-0.3-0.4-0.3-0.4-0.5l0.1,2.5H153.3z"/>
		</g>
		<g>
			<path class="defense-5" d="M188.1,321.2h1.6h3.2h0.9l2.3-0.5l0.1,2h-1.4l-3.4,0.1c0.3,0.2,0.6,0.5,0.8,0.7s0.2,0.3,0.4,0.6l-1.9,0.1
				c-0.3-0.5-0.5-0.7-0.9-1s-0.9-0.5-1.5-0.7L188.1,321.2z"/>
			<path class="defense-5" d="M195.6,316.1l0.2,3.6c-0.6,0-1.2-0.1-1.8-0.3c-0.6-0.2-0.6-0.2-1.5-0.9c-0.5-0.4-1-0.7-1.3-0.8
				c-0.3-0.1-0.6-0.2-0.8-0.2c-0.3,0-0.5,0-0.7,0.1s-0.3,0.2-0.3,0.4c0,0.2,0.1,0.3,0.4,0.4c0.2,0.1,0.6,0.2,1.1,0.2l-0.1,1.3
				c-0.7-0.1-1.3-0.2-1.7-0.3c-0.4-0.1-0.8-0.3-1-0.6c-0.3-0.3-0.4-0.6-0.5-1.1c-0.1-0.6,0-1.2,0.1-1.3c0.2-0.3,0.5-0.5,0.9-0.6
				s0.9-0.2,1.4-0.2c1.1,0.1,1.5,0.5,1.7,0.6c0.5,0.2,1.1,0.5,1.7,1c0.3,0.3,0.4,0.2,0.4,0.4l-0.1-2L195.6,316.1z"/>
		</g>
		<g>
			<path d="M206.7,352.7c-0.5,0.8-1.1,1.5-1.6,2.2c-0.6,0.7-1.1,1.4-1.8,2c-0.6,0.7-1.2,1.3-2,1.9c-0.4,0.3-0.7,0.6-1.2,0.8
				c-0.4,0.2-1,0.5-1.7,0.2l0.5-0.9c0.1,0.1,0.5,0,0.9-0.1c0.4-0.2,0.7-0.4,1.1-0.6c0.7-0.5,1.4-1.1,2-1.7s1.3-1.2,1.9-1.9
				c0.6-0.7,1.2-1.3,1.7-2L206.7,352.7z"/>
		</g>
		<g>
			<path d="M201.5,373.9c0.3-0.3,0.5-0.7,0.8-1.1c0.3-0.3,0.6-0.7,1-1c0.7-0.6,1.5-1.1,2.4-1.4s1.8-0.3,2.8-0.2
				c0.5,0,0.9,0.1,1.4,0.3c0.4,0.2,0.8,0.6,1,1h-0.1c-0.2-0.4-0.7-0.5-1.1-0.6c-0.4-0.1-0.8-0.2-1.2-0.3c-0.9-0.1-1.8,0-2.6,0.2
				c-0.8,0.3-1.6,0.7-2.2,1.3c-0.3,0.3-0.6,0.6-0.9,0.9c-0.4,0.3-0.7,0.6-1,0.9L201.5,373.9z"/>
		</g>
		<g>
			<path d="M208.1,396.4c0,1.8-0.1,3.6-0.3,5.4c-0.1,0.9-0.2,1.8-0.3,2.7c-0.1,0.4-0.1,0.9-0.2,1.3c-0.1,0.2-0.1,0.4-0.2,0.7
				l-0.1,0.3c-0.1,0.1-0.2,0.3-0.2,0.4l-0.5-0.5c0-0.1,0.1-0.1,0.1-0.2l0.1-0.3c0.1-0.2,0.1-0.4,0.2-0.6c0.1-0.4,0.2-0.8,0.3-1.3
				c0.2-0.9,0.3-1.7,0.4-2.6C207.6,399.9,207.8,398.2,208.1,396.4L208.1,396.4z"/>
		</g>
		<g>
			<path d="M211.8,398.4c0.1,1.3,0.1,2.6,0.1,3.9c0,0.6,0,1.3-0.1,2s-0.1,1.3-0.4,2l-0.6-0.4c0.2-0.4,0.3-1.1,0.4-1.7
				c0.1-0.6,0.2-1.3,0.2-1.9c0.1-1.3,0.2-2.6,0.2-3.9H211.8z"/>
		</g>
		<g>
			<path d="M209.9,401.8c-0.1,1.1-0.1,2.2-0.3,3.3c-0.1,0.6-0.1,1.1-0.2,1.7c-0.1,0.3-0.1,0.6-0.2,0.8c-0.1,0.3-0.2,0.6-0.4,0.9
				l-0.5-0.5c0.1-0.1,0.2-0.3,0.3-0.6c0.1-0.2,0.2-0.5,0.2-0.8c0.1-0.5,0.3-1.1,0.4-1.6c0.2-1.1,0.4-2.2,0.5-3.3L209.9,401.8z"/>
		</g>
		<g>
			<path d="M203.7,382.9c0.5-0.7,1.2-1.3,2-1.6c0.4-0.1,0.8-0.2,1.3-0.3c0.4-0.1,0.8-0.2,1.3-0.2c0.9-0.1,1.8,0.1,2.6,0.4
				c0.8,0.4,1.6,0.8,2.1,1.5l0,0c-0.7-0.5-1.5-0.8-2.2-1.1c-0.7-0.3-1.5-0.5-2.4-0.6c-0.4,0-0.8,0-1.2,0.1s-0.8,0.3-1.1,0.5
				C205.1,382.1,204.4,382.5,203.7,382.9L203.7,382.9z"/>
		</g>
		<g>
			<path d="M203.4,384.3c0.3-0.3,0.6-0.4,1-0.4c0.2,0,0.4,0,0.6,0.1c0.2,0.1,0.3,0.3,0.3,0.5c0,0.7,0,1.4,0,2.1s-0.1,1.3,0.1,2
				c0.1,0.7,0.5,1.2,0.9,1.8c0.8,1.1,1.5,2.3,2.5,3c0.5,0.3,1.2,0.4,1.8,0.5c0.3,0,0.7,0,1,0s0.7-0.1,0.8-0.4h0.1
				c0,0.2-0.2,0.3-0.3,0.4c-0.2,0.1-0.3,0.2-0.5,0.2c-0.3,0.1-0.7,0.1-1,0.1c-0.7,0-1.4,0-2.1-0.4c-0.6-0.4-1.1-1-1.5-1.5
				c-0.4-0.6-0.7-1.2-1-1.8c-0.2-0.3-0.3-0.6-0.5-0.9s-0.3-0.6-0.4-1c-0.2-0.7-0.3-1.3-0.3-2c-0.1-0.7,0-1.4,0-2
				C204.9,384.1,203.9,384.1,203.4,384.3L203.4,384.3z"/>
		</g>
		<g>
			<path d="M151.6,348.3c0.7,2,1.7,3.9,2.9,5.5c0.6,0.8,1.4,1.6,2.2,2.2s1.8,1.1,2.9,1.2v0.1c-1.1-0.1-2.1-0.5-3-1.1
				s-1.7-1.4-2.3-2.2c-1.3-1.7-2.4-3.6-3.1-5.6L151.6,348.3z"/>
		</g>
		<g>
			<path d="M149.3,351.5c0.4,1.7,1.2,3.3,2.3,4.7c1,1.4,2.3,2.7,3.7,3.7s2.9,1.9,4.6,2.5c1.7,0.6,3.4,1,5.1,1.1v0.1
				c-1.8-0.1-3.5-0.5-5.2-1.1s-3.3-1.4-4.7-2.5c-1.4-1-2.7-2.3-3.8-3.7c-1.1-1.4-2-3-2.4-4.8L149.3,351.5z"/>
		</g>
		<g>
			<path d="M144.3,343.1c0.6,0.5,1.3,1,2,1.4s1.4,0.8,2.1,1.1c0.7,0.3,1.5,0.6,2.2,0.7s1.6,0.1,1.9-0.5l0.4,0.3
				c-0.3,0.4-0.7,0.7-1.2,0.7c-0.4,0.1-0.9,0-1.3-0.1c-0.8-0.2-1.6-0.5-2.3-0.9s-1.4-0.8-2.1-1.2
				C145.5,344.2,144.8,343.7,144.3,343.1L144.3,343.1z"/>
		</g>
		<g>
			<path d="M133.2,354.6c1.5,0.5,3,1.1,4.4,1.9c0.7,0.4,1.4,0.8,2,1.4c0.6,0.5,1.3,1.2,1.5,2.1l-1,0.2c-0.1-0.6-0.6-1.2-1.1-1.8
				c-0.5-0.5-1.2-1-1.8-1.4c-1.3-0.9-2.7-1.6-4.2-2.2L133.2,354.6z"/>
		</g>
		<path class="defense-3" d="M144.2,369.4c-1.8-0.1-3.9-0.5-5.5,1.7s-1.4,3.3-1.4,3.3"/>
		<g>
			<path d="M150.4,376.4c-0.5,0.4-1,0.8-1.1,1.3c-0.1,0.3,0,0.3,0.3,0.6c0.1,0.1,0.1,0.1,0.2,0.3c0,0.1,0.1,0.3-0.1,0.4
				c-0.3,0.2-0.4,0.1-0.6,0.1c-0.7-0.1-1.2-0.4-1.8-0.5c-0.3-0.1-0.6-0.1-0.8,0.1s-0.2,0.5-0.3,0.8c-0.3,1.2-0.6,2.4-0.8,3.6
				c-0.1,1.2-0.6,2.4-0.8,3.6h-0.1c-0.2-1.3,0.2-2.5,0.3-3.7c0.3-1.2,0.6-2.4,1.1-3.6c0.1-0.3,0.2-0.6,0.4-0.9
				c0.3-0.3,0.7-0.2,0.9-0.2c0.6,0.1,1.2,0.3,1.8,0.3c0.1,0,0.3,0,0.3,0c0,0.1,0,0-0.1-0.1s-0.2-0.2-0.3-0.4c-0.1-0.2-0.1-0.4,0-0.6
				C149.3,377,149.8,376.7,150.4,376.4L150.4,376.4z"/>
		</g>
		<g>
			<path d="M146.7,373.6c-0.9,0.3-1.5,0.9-2.3,1.5c-0.4,0.3-0.7,0.5-1.1,0.9c-0.3,0.3-0.6,0.7-0.8,1.1c-0.9,1.6-1.5,3.3-1.1,5.1l0,0
				c-0.5-0.8-0.6-1.9-0.4-2.8c0.2-0.9,0.7-1.8,1.3-2.5l0.9-1.1c0.3-0.4,0.6-0.7,0.9-1.1c0.3-0.3,0.7-0.6,1.1-0.8
				C145.7,373.7,146.2,373.5,146.7,373.6L146.7,373.6z"/>
		</g>
		<g>
			<path d="M192.5,376.1c-2,0.2-3.7,1.3-5.7,2c-1,0.4-2.2,0.4-3.3,0.1c-1-0.4-1.9-1-2.7-1.8c-1.5-1.5-2.5-3.3-3.6-5.1
				c-0.5-0.9-0.9-1.9-1.3-2.8c-0.2-0.5-0.4-0.9-0.7-1.3s-0.6-0.6-1-0.9l0.3-0.5c0.5,0.2,1,0.5,1.4,0.9s0.6,0.9,0.9,1.4l1.3,2.8
				c0.4,0.9,0.8,1.9,1.3,2.7c0.5,0.9,1.1,1.7,1.8,2.4c0.7,0.7,1.6,1.3,2.5,1.5c0.9,0.3,1.9,0.1,2.7-0.3c0.9-0.4,1.8-0.8,2.8-1.2
				c1-0.4,2.1-0.6,3.2-0.5v0.6H192.5z"/>
		</g>
		<g>
			<path d="M187.4,367.3c-1.2,0.2-2.4,0.5-3.5,0.9s-2.3,0.9-3.2,1.7l-0.1-0.1c0.4-0.4,1-0.8,1.5-1.1c0.5-0.3,1.1-0.5,1.7-0.8
				c1.1-0.5,2.3-0.8,3.5-1.1L187.4,367.3z"/>
		</g>
		<g>
			<path d="M189.9,371c-1.2,0.2-2.4,0.5-3.5,0.9s-2.3,0.9-3.2,1.7l-0.1-0.1c0.4-0.4,1-0.8,1.5-1.1c0.5-0.3,1.1-0.5,1.7-0.8
				c1.1-0.5,2.3-0.8,3.5-1.1L189.9,371z"/>
		</g>
		<g>
			<path d="M184.5,363.6c-1.2,0.2-2.4,0.5-3.5,0.9s-2.3,0.9-3.2,1.7l-0.1-0.1c0.4-0.4,1-0.8,1.5-1.1c0.5-0.3,1.1-0.5,1.7-0.8
				c1.1-0.5,2.3-0.8,3.5-1.1L184.5,363.6z"/>
		</g>
		<g>
			<path d="M189.3,402.7c1.2-0.4,2.4-0.8,3.6-1.1c0.6-0.1,1.2-0.2,1.8-0.4c0.6-0.2,1.2-0.4,1.7-0.7c1.1-0.6,2.3-1.1,3.4-1.6
				c0.6-0.3,1.1-0.5,1.7-0.8c0.3-0.2,0.5-0.3,0.8-0.5c0.2-0.2,0.5-0.4,0.4-0.7h0.1c0.2,0.3,0,0.7-0.2,1s-0.5,0.5-0.7,0.7
				c-0.5,0.4-1.1,0.7-1.6,1c-1.2,0.6-2.3,1-3.6,1.3c-0.6,0.2-1.2,0.3-1.8,0.6c-0.6,0.2-1.2,0.5-1.7,0.8c-0.6,0.2-1.2,0.4-1.8,0.5
				C190.6,402.8,189.9,402.9,189.3,402.7L189.3,402.7z"/>
		</g>
		<g>
			<path d="M139.4,399.9c0.1-0.6-0.2-1.1-0.4-1.5c-0.1-0.2-0.3-0.4-0.5-0.6s-0.4-0.4-0.6-0.6c-0.4-0.4-0.8-0.9-1.2-1.2
				c-0.4-0.4-1-0.6-1.5-0.9c-1.1-0.5-2.1-1-3.1-1.4c-1-0.5-2.1-0.9-3.2-1.2v-0.1c1.2-0.2,2.4,0.1,3.5,0.6s2.1,1,3.1,1.8
				c0.5,0.4,0.9,0.7,1.4,1.1c0.5,0.3,1,0.6,1.5,1c0.2,0.2,0.4,0.4,0.6,0.6c0.2,0.2,0.4,0.5,0.5,0.8
				C139.8,398.7,139.8,399.4,139.4,399.9L139.4,399.9z"/>
		</g>
		<path class="defense-3" d="M196.6,384c-2.1,1.3-2.8,1.7-4.8,2.8c-1.6,0.8-2.9,1.4-0.9,3.9s3.5,4.3,5.1,4.3"/>
		<path class="defense-3" d="M135.9,392c2.1,1.5,2.9,3.2,4.2,2.7s3.4-3.7,3.8-4.2c0.9-1.2,0.4-3.9-2.3-5.9c-2-1.4-4.3-3.2-5.9-1.6
			s-4.4,5.7-3.3,6.6C133.5,390.6,134.2,390.8,135.9,392z"/>
		<g>
			<path d="M151.2,361.6c-0.2,1-0.5,2-1,2.9s-1,1.8-1.4,2.7c-0.2,0.5-0.4,0.9-0.6,1.4l-0.5,1.4c-0.2,0.5-0.4,0.9-0.7,1.4
				c-0.1,0.2-0.3,0.4-0.4,0.6c-0.1,0.1-0.2,0.2-0.3,0.3c-0.1,0.1-0.1,0.1-0.2,0.2l-0.1,0.1c0,0-0.1,0.1-0.2,0.1l-0.2-0.6l0,0V372
				l0.1-0.1l0.2-0.3l0.3-0.7c0.2-0.4,0.4-0.9,0.7-1.3s0.5-0.9,0.8-1.3c0.2-0.4,0.5-0.9,0.7-1.4c0.4-0.9,0.7-1.9,1-2.8
				c0.4-0.9,0.8-1.8,1.3-2.7L151.2,361.6z"/>
		</g>
		<g>
			<path d="M141.4,361.9c1.1,0.3,2.2,0.7,3.3,1.2c0.5,0.2,1,0.5,1.5,0.8s1,0.7,1.2,1.2h-0.1c-0.3-0.5-0.8-0.8-1.3-1.1
				c-0.5-0.3-1-0.6-1.5-0.8c-1.1-0.4-2.2-0.8-3.3-1L141.4,361.9z"/>
		</g>
		<g>
			<path d="M143.5,366.2c0.5,0.3,1,0.5,1.5,0.9c0.5,0.3,0.9,0.7,1.2,1.3h-0.1c-0.3-0.5-0.8-0.8-1.3-1.1c-0.5-0.3-1-0.5-1.6-0.7
				L143.5,366.2z"/>
		</g>
		<g>
			<path d="M142.3,358.8c1.1,0.3,2.2,0.7,3.3,1.2c0.5,0.2,1,0.5,1.5,0.8s1,0.7,1.2,1.2h-0.1c-0.3-0.5-0.8-0.8-1.3-1.1
				c-0.5-0.3-1-0.6-1.5-0.8c-1.1-0.4-2.2-0.8-3.3-1L142.3,358.8z"/>
		</g>
		<g>
			<path d="M137.9,375.4c-0.7,0.1-1.3,0-1.9-0.2c-0.6-0.3-1.2-0.5-1.8-0.7c-0.3-0.1-0.6-0.2-0.9-0.3c-0.3-0.1-0.6-0.1-1-0.2
				c-0.3-0.1-0.6-0.2-0.9-0.4c-0.1-0.1-0.3-0.2-0.4-0.4c-0.1-0.2-0.3-0.4-0.2-0.7h0.6c0.1,0,0.3,0.2,0.5,0.3
				c0.2,0.1,0.5,0.2,0.8,0.4c0.3,0.2,0.5,0.3,0.8,0.5c0.3,0.1,0.6,0.2,0.9,0.3c0.6,0.2,1.2,0.2,1.8,0.3c0.6,0.1,1.2,0.3,1.8,0.6
				L137.9,375.4z"/>
		</g>
		<g>
			<path d="M110.9,436.9c0.5,0.5,1,0.9,1.4,1.5s0.9,1.1,1.4,1.4c0.3,0.2,0.6,0.3,0.9,0.5c0.3,0.1,0.7,0.2,1,0.2
				c0.6,0.1,1.3,0.2,1.9,0.3l0.1,0.6c-0.7,0.3-1.5,0.2-2.3,0c-0.4-0.1-0.7-0.3-1-0.5s-0.6-0.4-0.9-0.5c-0.6-0.4-1.2-0.8-1.8-1.2
				c-0.5-0.5-1-1.1-1.2-1.9L110.9,436.9z"/>
		</g>
		<g>
			<path d="M205,440.9c0.7,0,1.3,0,2,0s1.4,0,2.1-0.2c0.3-0.1,0.7-0.2,1-0.4c0.3-0.2,0.6-0.4,0.8-0.6s0.5-0.4,0.7-0.7
				c0.2-0.2,0.5-0.5,0.6-0.6h0.6c0,0.6-0.3,0.9-0.5,1.2c-0.2,0.3-0.5,0.6-0.9,0.8c-0.4,0.2-0.8,0.3-1.1,0.4l-1,0.3
				c-0.3,0.1-0.7,0.2-1.1,0.4c-0.4,0.1-0.7,0.3-1.1,0.3c-0.8,0.1-1.6,0-2.3-0.4L205,440.9z"/>
		</g>
		<path class="defense-3" d="M109.6,440.4c0.7,0,7.5,1.8,7.7,3.8"/>
		<g>
			<path d="M107,448.3c-0.6,0.4-1.1,0.8-1.5,1.3c-0.1,0.1-0.1,0.2-0.1,0.2l-0.1-0.1c0,0,0,0,0.1,0c0.3-0.1,0.7-0.1,1-0.2
				c0.6-0.2,1.3-0.4,1.9-0.7c0.6-0.3,1.2-0.6,1.7-1c0.2-0.2,0.4-0.4,0.5-0.7c0.1-0.1,0.1-0.3,0.1-0.4s0-0.2,0.1-0.4
				c0.1-0.3,0.4-0.3,0.5-0.3c0.8,0.1,1.4,0.5,2,0.9s1.1,0.9,1.6,1.3l1.5,1.4c0.5,0.5,1.1,0.9,1.4,1.6c0.1,0.2,0.1,0.4,0.1,0.6
				s-0.1,0.5-0.3,0.6c-0.4,0.2-0.8,0.2-1.2,0.1c-0.7-0.2-1.3-0.7-1.8-1.2s-1-1-1.5-1.5s-1-1-1.4-1.6c-0.2-0.3-0.3-0.6-0.5-0.9
				s-0.4-0.5-0.5-0.6c-0.4-0.1-1.1,0.4-1.7,0.7L107,448.3L107,448.3z M106.8,448l1.8-1c0.3-0.2,0.6-0.3,0.9-0.5
				c0.3-0.1,0.7-0.4,1.2-0.3c0.3,0,0.5,0.2,0.6,0.4c0.1,0.1,0.2,0.3,0.3,0.5c0.2,0.3,0.4,0.6,0.5,0.9c0.3,0.6,0.8,1,1.2,1.6
				c0.4,0.5,0.9,1,1.4,1.5s1,1,1.5,1.2c0.3,0.1,0.6,0.1,0.8,0c0.1-0.1,0.1-0.1,0.1-0.2s0-0.3-0.1-0.4c-0.2-0.6-0.8-1-1.3-1.5
				l-1.5-1.4c-0.5-0.5-1-0.9-1.6-1.3s-1.2-0.6-1.8-0.7c-0.1,0,0,0,0.1-0.1c0-0.1,0,0,0,0.1c0,0.2,0,0.4-0.1,0.6
				c-0.1,0.4-0.4,0.7-0.7,1c-1.1,1-2.4,1.5-3.8,1.9c-0.3,0.1-0.7,0.2-1,0.2c-0.1,0-0.2,0-0.4,0c-0.2,0-0.4-0.2-0.4-0.5
				c0-0.4,0.2-0.5,0.3-0.7C105.5,448.7,106.2,448.3,106.8,448L106.8,448z"/>
		</g>
		<g>
			<path d="M104.3,454.5c1.2-0.5,2.4-0.9,3.6-1.2c1.3-0.3,2.5-0.5,3.8-0.7c0.6-0.1,1.4,0,1.9,0.4c0.6,0.4,1,0.8,1.5,1.2
				c0.5,0.4,0.9,0.9,1.4,1.4c0.2,0.2,0.4,0.5,0.6,0.8c0.1,0.2,0.1,0.3,0.2,0.5c0,0.1,0,0.2,0,0.3c0,0.1-0.1,0.3-0.3,0.3l-0.1-0.3
				c0,0,0-0.1,0-0.2s-0.1-0.3-0.2-0.4c-0.2-0.3-0.4-0.5-0.6-0.7c-0.4-0.5-0.9-0.9-1.3-1.3c-0.5-0.4-0.9-0.9-1.4-1.3
				s-1.1-0.5-1.7-0.4c-1.2,0.2-2.5,0.5-3.7,0.9l-3.7,1L104.3,454.5z"/>
		</g>
		<g>
			<path d="M223.7,452.7c-1.2,0-2.4,0-3.7,0h-1.8c-0.6,0-1.3-0.1-1.9-0.3c-1.2-0.5-2.2-1.2-3.2-1.9c-1-0.7-1.8-1.7-2.9-2.1
				c-0.5-0.2-1.1-0.3-1.7-0.3c-0.3,0-0.6,0-0.9,0.1c-0.3,0-0.5,0.2-0.3,0.4c0.7,0.9,1.6,1.8,2.4,2.7c0.8,0.9,1.5,1.9,2.2,2.9
				c0.3,0.5,0.8,1.1,0.6,1.9c-0.3,0.7-1.1,0.9-1.1,1.4l-0.1-0.2c0.1,0,0.2,0.2,0.2,0.2c0,0.1,0,0.1,0,0.2v0.1l0,0v0.3
				c-0.1,0-0.2-0.2-0.2-0.2c0-0.1,0-0.1,0-0.2v-0.1c0,0,0,0,0.1,0l-0.1-0.2c0-0.4,0.3-0.7,0.5-0.9c0.2-0.2,0.4-0.4,0.5-0.6
				c0.1-0.5-0.2-1-0.5-1.5c-0.7-1-1.5-1.9-2.2-2.9c-0.8-1-1.5-1.8-2.4-2.8c-0.1-0.2-0.1-0.4,0-0.6s0.3-0.2,0.5-0.2
				c0.3,0,0.6-0.1,0.9-0.1c0.6,0,1.3,0.1,1.8,0.3c1.2,0.5,2,1.5,3,2.1c1,0.7,2.1,1.3,3.1,1.8c0.5,0.2,1.1,0.2,1.7,0.3l1.8,0.1
				c1.2,0,2.4,0.1,3.7,0.2L223.7,452.7z"/>
		</g>
		<g>
			<path d="M214,447.4c-1,0.3-1.9,0.8-2.6,1.5c-0.2,0.2-0.2,0.3-0.2,0.3s0.3,0.1,0.6,0.1c0.5,0,1,0,1.6-0.1c0.5-0.1,1-0.3,1.5-0.6
				c0.4-0.2,0.9-0.6,1.2-0.9c0.1-0.1,0.1-0.2,0.1-0.2l0,0c0-0.1-0.3-0.1-0.6-0.1C215.1,447.3,214.6,447.4,214,447.4L214,447.4z
				 M213.9,447c0.5-0.1,1.1-0.2,1.7-0.3c0.3,0,0.6,0,1,0.2c0.2,0.1,0.3,0.4,0.3,0.7c-0.1,0.3-0.2,0.4-0.3,0.5
				c-0.5,0.4-1,0.6-1.5,0.9c-0.5,0.2-1,0.4-1.6,0.5c-0.5,0.1-1.1,0.2-1.7,0.2h-0.4c-0.1,0-0.1,0-0.3,0c-0.1,0-0.2,0-0.3-0.1
				c-0.2-0.2-0.2-0.5-0.2-0.7c0.1-0.2,0.2-0.4,0.3-0.5C211.7,447.5,212.8,447.1,213.9,447L213.9,447z"/>
		</g>
		<g>
			<path d="M215.5,449.9c0-0.2,0.1-0.3,0.1-0.4l0.3-0.2c0.2-0.1,0.4-0.3,0.6-0.4c0.4-0.2,0.9-0.5,1.3-0.6l0.2,0.5
				c-0.4,0.2-0.8,0.4-1.2,0.6c-0.2,0.1-0.4,0.2-0.6,0.4l-0.3,0.2C215.8,449.9,215.6,449.9,215.5,449.9z"/>
		</g>
		<g>
			<path d="M217.2,450.8c0-0.1,0.1-0.3,0.1-0.4l0.3-0.2l0.5-0.3c0.4-0.2,0.7-0.4,1.1-0.6l0.2,0.4c-0.4,0.2-0.7,0.4-1.1,0.6l-0.5,0.3
				l-0.3,0.2C217.4,450.8,217.3,450.8,217.2,450.8z"/>
		</g>
		<g>
			<path d="M218.8,451.5c0-0.1,0.1-0.2,0.1-0.4l0.2-0.2l0.5-0.3l0.9-0.6l0.3,0.4l-0.9,0.6l-0.5,0.3l-0.2,0.2
				C219.1,451.6,219,451.6,218.8,451.5z"/>
		</g>
		<g>
			<path d="M205.2,443.6c0.7,0.1,1.4,0.2,2.1,0.2c0.7,0,1.4-0.2,2-0.5s1.2-0.7,1.8-1.1s1.2-0.8,1.5-1.3l0.3,0.1
				c-0.1,0.4-0.4,0.7-0.7,0.9c-0.3,0.2-0.6,0.5-0.9,0.6l-1.9,1c-0.6,0.3-1.3,0.6-2.1,0.7s-1.5-0.1-2.2-0.4L205.2,443.6z"/>
		</g>
	</g>
</g>
</svg>
