<?xml version="1.0" encoding="utf-8"?>
<!-- Generator: Adobe Illustrator 21.0.0, SVG Export Plug-In . SVG Version: 6.00 Build 0)  -->
<svg version="1.1" id="Layer_1" xmlns="http://www.w3.org/2000/svg" xmlns:xlink="http://www.w3.org/1999/xlink" x="0px" y="0px"
	 viewBox="334 285 130 181" xml:space="preserve">
<style type="text/css">
	.offense-0{fill:#94C941;}
	.offense-1{stroke:#231F20;stroke-width:0.25;}
	.offense-2{stroke:#000000;stroke-width:0.25;stroke-miterlimit:10;}
	.offense-3{fill:none;stroke:#000000;stroke-width:0.5;stroke-miterlimit:10;}
	.offense-4{fill:none;stroke:#000000;stroke-miterlimit:10;}
	.offense-5{stroke:#000000;stroke-width:0.25;}
	.offense-6{fill:none;stroke:#000000;stroke-width:0.75;stroke-miterlimit:10;}
	.offense-7{fill:none;stroke:#000000;stroke-width:0.5;}
	.offense-8{fill:none;stroke:#000000;stroke-width:0.75;}
	.offense-9{fill:none;stroke:#000000;stroke-width:0.35;}
</style>
<g id="offense">
	<g id="injury">
		<path id="head" class="offense-0" d="M404.9,305.4c0,0,0.8-2.5,0.6-7.3c-0.2-4.9-2.4-8.2-6.4-10.1c-0.8-0.4-5.7-2.8-11.9-0.6
			c-4.5,1.6-6.3,5.8-7.3,8.3c-0.9,2.4-0.9,6.1-0.9,7.3c0,2.3,2.1,8.5,2.1,9.5c0.1,1.6,0.5,3.4,1.2,4.9c0.6,1.3,1.8,3.9,5.2,4.4
			c4,0.6,5.7,0.4,7.7-0.1c2.4-0.6,4.8-2.3,6.2-4.4c1.8-2.6,2-6.7,2.4-8.4C404.2,307.3,404.6,306.5,404.9,305.4z"/>
		<path id="shoulder" class="offense-0" d="M417.1,315.5c-0.8-1.6-3.2-3.3-4.8-3.9c-1.8-0.7-4-1-5.9-1.2c-0.5-0.1-2.2-0.4-2.7,0
			c-0.3,0.3-0.4,1.5-0.5,2c-0.2,0.8-0.4,1.7-0.6,2.5c-0.1,0.6-0.4,1.1-0.8,1.6c-0.9,1.4-1.9,2.9-3.2,3.9c-1.6,1.2-3.5,1.5-5.4,1.7
			c-2.1,0.3-4.3,0.2-6.4-0.2c-1.7-0.3-2.7-2-3.7-3.3c-0.5-0.7-1.1-1.4-1.5-2.2c-0.4-0.8-0.5-1.9-0.6-2.8c0-0.3,0.3-1.8-0.3-1.8
			c-1.5,0-8.6,0.7-12.7,3.5c-6.7,4.4-10,7.4-8.9,11.5c0.8,3.1,2.6,3.1,4.7,4.1s3.7,2.3,5.3,1.9c1.1-0.3,2.3,0,3.2,0.8
			c0.3,0.3,1.4,2.8,0.7,3c6.1-1.8,12.4-2.9,18.7-3.7c3-0.4,5.9-0.7,8.8-1.6c3-0.9,5.8-2.5,8.8-3.5c2.8-0.9,6-1.1,9-1.6
			c0.4-0.1,0.8-0.1,1-0.4c0.1-0.2,0.2-0.5,0.2-0.7C419.6,322.3,418.4,318.3,417.1,315.5z"/>
		<path id="hamstring" class="offense-0" d="M369.3,386.7c-0.3-0.1-0.7-0.2-1-0.1c-0.5,0.3-0.7,1-1.3,1.1c0.3,1.3,0,2.7-0.2,4
			c-0.2,1.5-0.3,2.9-0.3,4.4c0,1,0.2,2,0.4,2.9c0.2,0.9,0.7,1.7,0.9,2.6c0,0.1,0,0.2,0.1,0.3c0.1,0.2,0.4,0.3,0.6,0.4
			c0.2,0.2,0.4,0.5,0.7,0.8c1.5,1.2,3.1,2.4,4.7,3.4c3.7,2.4,8.4,2.9,12.7,2.8c0.7,0,1-0.9,1.1-1.5c0.1-0.4,0-0.7,0.1-1.1
			c0.1-0.5,0.3-0.9,0.3-1.4c0.1-2.4,0-4.3,0.3-5.3c0.3,0.1,0.6,0.2,0.8,0.3c3,1,5.9,2.3,8.9,3.3c1.6,0.5,3.1,1.1,4.8,1.5
			c2.2,0.5,4.6,0.3,6.9,0.6c1.3,0.2,2.8-0.6,3.9-1.3c0.9-0.5,1.7-1.2,2.6-1.7c1-0.5,2-1.2,2.9-1.8c1.2-0.8,2.4-1.7,3.6-2.6
			c0.6-0.4,1.2-0.9,1.8-1.4c0.5-0.4,1.1-0.7,1.5-1.2s0.8-1,1.3-1.3c-0.8-0.8-1.6-1.5-2.6-2.1c-0.7-0.4-1-1-1.7-1.5
			c-1-0.8-2.2-1.6-3.4-2.2c-0.7-0.3-1.1,0.3-2.7-0.9s-3.4-2-3.7-2.9c-0.3-0.9-0.4-1.2-2.3-2.3c-2.4-1.5-4.9-3-7.3-4.4
			c-1.1-0.7-2.2-1.3-3.3-2c-1.7-1.1-4.9-0.4-6.9-0.4c-1,0-2,0-2.9,0.3c-0.9,0.2-1.7,0.6-2.6,0.9c-1.7,0.5-3.5,0.6-5.3,0.6
			c-4.1,0.1-8.3,0.2-12.2-1c0.8,1.3,1.7,2.5,2.8,3.5c0.5,0.5,1.1,1,1.4,1.7s0.3,1.5-0.2,2.1c-0.2,0.2-0.4,0.3-0.5,0.6
			c0,0.3,0.2,0.5,0.2,0.8c0.1,0.4-0.4,0.8-0.8,0.8s-0.8-0.1-1.2-0.2c-0.1,0-0.3-0.1-0.4,0c-0.4,0.2-0.2,0.9-0.4,1.3
			c-0.2,0.5-1,0.4-1.5,0.2C369.7,386.9,369.5,386.8,369.3,386.7z"/>
		<path id="knee" class="offense-0" d="M383.3,414.6c-2.6,1.1-6.1,2-6.9,2.7c-0.7,0.6-1.4,1.1-2.1,1.6c-0.3,0.2-0.9,0.7-1.3,0.7
			c-0.4-0.1-0.7-0.7-1-0.9c-3.6-2.5-7.3-5-11.5-6.3c-0.3-0.1-0.6-0.2-0.8-0.5c-0.2-0.5,1-1.3,1.3-1.6c2-1.8,4.1-2.8,4.8-3.3
			s1.5-1.1,2.1-1.8c0.4-0.5,0.2-1.4,0.1-1.9c-0.1-0.3-0.1-0.6-0.1-1c0.4-0.1,0.8,0.3,1.1,0.6c2,2,4.4,3.8,7,4.9
			c1.6,0.7,3.4,1.2,5.2,1.4c1.9,0.2,3.7,0,5.6,0.2c0.1,0,0.2,0,0.3,0.1c0.2,0.2-0.4,0.9-0.5,1.1
			C385.7,412.7,384.2,414.2,383.3,414.6z M427.2,413.4c0.1,0,0.2,0,0.2-0.1c0.8-0.4,0.1-2,0.3-2.7c0.3-1.3,0.8-5.7,1.8-6.8
			c1.4-1.4,0.6-4.1,0.2-5.1c-0.3-0.8-0.9-1.4-1.2-2.3c-0.2-0.6-0.3-1.6-1-1.7c-0.9-0.1-1.9,1.5-2.5,2c-1.1,0.9-2.2,1.7-3.3,2.5
			c-2.2,1.5-4.5,3-6.7,4.4c-1.4,0.9-2.9,1.8-4.5,2.3c0.9,0.3,2.9,0.4,2.9,1.7c0,1.5-0.3,2.9-0.3,4.3c0,0.4,0.3,3.7-0.1,3.9
			c4.2-1.9,8.8-2.7,13.4-2.4C426.6,413.4,426.9,413.4,427.2,413.4z"/>
		<path id="foot" class="offense-0" d="M362.1,432.2c-1.5,1.7-7.3,9.5-8,10.5c-0.8,1.3-1,1.4-0.9,3.9c0.1,2.3,1.3,5.4,1.8,7.4
			s2.3,4.4,3.8,6.1c1.4,1.7,1.2,3,0.1,3.8c-1.6,1.2-2.8,0.9-5.4-0.5c-2.7-1.6-6.3-4.9-7.3-5.9s-2.4-2.1-3.1-2.7
			c-1.3-1.2-3.4-1.7-5.1-2.3c-1.8-0.5-2.4-3.1-2.7-3.7c-0.5-1.1-0.3-2.5,0.6-3.4c1.2-1.3,3.6-2.4,4.8-3c1.2-0.6,2.6-1.6,2.9-1.9
			c1-0.8,1-1,1.7-1.8s1.3-2.2,1.6-3.1c0.7-2.2,2.3-4.3,3.5-6.2c0.7-1.3,1.5-2.6,2.2-3.8c0.4-0.7,0.8-1.4,1.2-2.1
			c0.1-0.1,0.2-0.3,0.4-0.2c0.3,0.5,0.7,1,1.1,1.5c2,2.5,5.1,3.6,7.9,5c0.3,0.2,0.5,0.4,0.5,0.6C363.6,431,362.5,431.8,362.1,432.2z
			 M420.9,435.2c0.4,1.6,1.3,4.5,1.6,5.4s2,3.8,2.1,4.6c0.1,0.8,0.4,4.8,0.5,6s-0.2,4.8,1.2,5.5c1.1,0.5,2.6,0.6,4.9,0.4
			s6.3-0.7,8.2-0.4s1.2,0.5,3.5,0.8c1.7,0.2,3.6,0.3,6.1-0.5c1.6-0.5,6.2-3.6,6.9-4.9c0.6-1.2,0.6-4.1-0.6-4.4
			c-0.6-0.1-3.7-0.7-6.1-1.1s-7-0.9-9.1-1.6s-3.5-1.4-5.1-3.2c-2-2.3-2.7-3.7-4.6-8.5c-0.4-1.1-0.7-2.2-0.7-3.4c0-1-0.4-2-0.3-3
			c-0.5,0.1-0.8,0.5-1.3,0.8s-1.1,0.5-1.6,0.6c-2.1,0.7-4.4,1.2-6.6,1.5c-0.5,0.1-1.4-0.1-1.5,0.5c0,0.3,0.6,1,0.7,1.3
			C420,432.8,420.7,433.9,420.9,435.2z"/>
		<path id="hand" class="offense-0" d="M355.1,367.1c0.7-1.2,1.8-2.2,3-2.9c0.8-0.5,2.6-1.5,3.4-0.6c0.5,0.5,1.1,1.9,1.3,2.6
			c0.2,0.6,1.5,0.6,2.2,1s4.2,1.5,5.2,2.1s2.8,2.1,4.9,2.7c2.2,0.5,1.4,1.3,0.3,2.1c-1.1,0.8-2.9,0.1-6.2-0.9s3.7,6.8,4.9,8.1
			c1.2,1.3,0.4,2.4-0.2,2.6c-0.3,0.1,0.4,0.6,0,1.3c-0.3,0.6-1.2,0.8-1.9,0.4c-0.7-0.4-0.4-0.1-0.3,0.2s-0.3,1.2-0.9,1.4
			c-0.8,0.2-1.1-0.2-1.6-0.5s-0.9-0.8-0.9-0.5s0,1.2-1.2,1.4c-1.1,0.2-3.2-1.6-4.3-2.5c-1.6-1.5-1.9-3.5-2.7-4.7s-2.3-3.7-2.2-5
			c0.1-1.3-1.2-2.6-1.5-3.7C356,369.9,354.2,368.8,355.1,367.1z M414.8,363.8c-0.9,0-3.4,0.4-4.9,1.1c-1,0.5-4.6,3-4.6,3
			c-1.8,1-0.8,1.7,0.1,1.5c0.7-0.2,2.9-0.9,5.5-1.8c0.3-0.1,1.2-0.4,0.6,0.2s-1.3,1-2,1.4s-1.4,0.9-2.1,1.2
			c-0.7,0.3-1.3,0.6-1.9,1.1c-0.1,0.1-0.2,0.1-0.2,0.2s-0.1,0.2-0.1,0.3c0,0.4,0.3,0.8,0.6,1c0.5,0.2,1.4-0.3,2-0.4
			c0,0.3-0.1,0.3-0.6,0.6c-0.2,0.1-0.6,0.4-0.7,0.6c-0.2,0.2-0.3,0.4-0.3,0.6c0,0.5,0.2,0.7,0.5,0.8c0.4,0.2,1,0.2,1.4,0.1
			c0.5-0.1,1.8-0.5,2.3-0.5c0,0.2-1.6,0.7-2,0.9c-0.4,0.2-0.4,0.3-0.6,0.5c-0.3,0.3-0.4,1.3,0.9,1.4c1.2,0.1,3.3-0.6,2.2,0.1
			c-2.2,1.4,3.4,0.2,3.4,0.2c6-2,6.4-5.9,7.1-6.5c1.1-1.1,2.2-2.1,3.3-3.2c0.6-0.6,1.3-1,1.3-1.9s-0.4-1.8-1-2.5
			c-0.8-0.8-1.9-1.3-3-1.7c-0.8-0.3-1.7-0.6-2.5-0.7c-0.3,0-0.6,0-0.8,0c-0.4,0.2-0.8,0.8-1.2,1.1
			C416.5,363.4,415.7,363.8,414.8,363.8z"/>
	</g>
	<g id="outline_2_">
		<g>
			<path class="offense-1" d="M404.6,305.3c0.5-2,0.5-4,0.5-6.1s-0.4-4.1-1.3-5.9s-2.3-3.3-4.1-4.3c-1.8-1-3.7-1.7-5.8-1.9
				c-2-0.2-4.1-0.1-6.1,0.5c-2,0.5-3.7,1.7-5,3.3c-1.3,1.6-2.2,3.5-2.9,5.4c-0.6,2-0.7,4.1-0.7,6.2c-0.1,1,0.1,2,0.3,3.1
				c0.2,1,0.5,2,0.8,3l0.8,3c0.1,0.3,0.1,0.5,0.2,0.8l0.1,0.8c0.1,0.5,0.1,1,0.3,1.5c0.2,1,0.6,2,1.1,2.9s1,1.8,1.7,2.4
				c0.7,0.7,1.6,1.1,2.6,1.3c1,0.2,2.1,0.3,3.1,0.4c2,0.2,4.1-0.1,6-0.8c1.9-0.8,3.5-2,4.7-3.7C403.4,313.9,402.8,309.2,404.6,305.3
				L404.6,305.3z M405,306.1c-0.3,0.8-0.5,1.6-0.7,2.4c-0.2,1-0.3,2-0.5,3.1c-0.3,2.1-0.8,4.2-2.1,6.1c-1.3,1.8-3,3.2-5.1,4
				c-2,0.8-4.3,1.1-6.4,0.9c-1.1-0.1-2.1-0.2-3.2-0.4c-1.1-0.2-2.1-0.8-2.9-1.5c-0.8-0.8-1.4-1.7-1.8-2.7c-0.5-0.9-0.9-2-1.1-3
				c-0.2-4.2-2.4-8-2.4-12.4c0-2.1,0.1-4.2,0.7-6.3c0.7-2,1.6-4,2.9-5.7s3.2-3,5.3-3.6c2-0.7,4.2-0.9,6.4-0.7
				c2.1,0.2,4.3,0.9,6.1,1.9c1.9,1.1,3.5,2.7,4.5,4.7s1.2,4.2,1.2,6.3c0,2.1-0.2,4.2-0.7,6.3L405,306.1z"/>
		</g>
		<g>
			<path class="offense-1" d="M381,312.5c-0.3-0.2-0.5-0.2-0.8-0.2l-0.8,0.1c-0.6,0.1-1.1,0.1-1.7,0.2c-1.1,0.2-2.2,0.4-3.3,0.7
				c-2.2,0.5-4.3,1.3-6.1,2.5c-1.9,1.2-3.7,2.5-5.4,3.9c-1.6,1.4-3.3,3.2-3.4,5.3c-0.1,1,0.2,2.1,0.7,3.1s1.4,1.5,2.4,1.9
				s2.1,0.9,3.1,1.5c1,0.5,2,1.1,3,1.2c0.3,0,0.5,0,0.8-0.1s0.6-0.1,0.9-0.1c0.6,0,1.2,0.2,1.7,0.4c0.3,0.1,0.5,0.3,0.8,0.5
				c0.2,0.3,0.3,0.6,0.4,0.9c0.2,0.6,0.2,1.2,0.2,1.8c0,0.6-0.2,1.2-0.5,1.7s-0.7,0.9-1.2,1.3c-0.4,0.4-0.9,0.7-1.4,1
				s-1,0.6-1.4,0.9l-0.2-0.2c0.4-0.4,0.9-0.7,1.4-1c0.4-0.3,0.9-0.7,1.3-1c0.4-0.4,0.8-0.8,1-1.2c0.2-0.5,0.4-1,0.4-1.5
				s-0.1-1.1-0.2-1.6c-0.1-0.2-0.2-0.5-0.3-0.7c-0.2-0.2-0.4-0.3-0.6-0.4c-0.5-0.2-1-0.4-1.5-0.4c-0.3,0-0.5,0-0.8,0.1
				s-0.6,0.1-0.9,0.1c-1.2-0.1-2.3-0.7-3.2-1.2c-1-0.6-2-1-3-1.4c-0.5-0.2-1.1-0.5-1.6-0.8s-0.9-0.8-1.2-1.4
				c-0.5-1.1-0.8-2.2-0.8-3.4c0.1-1.2,0.6-2.3,1.3-3.3c0.7-0.9,1.5-1.8,2.4-2.5c1.7-1.5,3.6-2.8,5.5-4c1.9-1.3,4.1-2.1,6.3-2.6
				c1.1-0.3,2.2-0.5,3.3-0.7c0.6-0.1,1.1-0.2,1.7-0.2l0.9-0.1c0.3,0,0.6,0,0.9-0.3L381,312.5L381,312.5z"/>
		</g>
		<g>
			<path class="offense-2" d="M360.5,329c-2.7,1.6-5.4,3.4-7.8,5.4c-1.2,1-2.4,2.1-3.2,3.4c-0.9,1.3-1.7,2.7-2.4,4.1
				c-0.7,1.4-1.2,2.9-1.5,4.4c-0.1,0.8-0.2,1.5-0.1,2.3c0.1,0.7,0.3,1.5,0.4,2.3c0.7,3.1,1.6,6.2,3.3,8.8c1.7,2.7,3.5,5.3,5.5,7.9
				c0.5,0.7,0.9,1.3,1.4,2c0.2,0.4,0.4,0.7,0.6,1.1s0.3,0.9,0.4,1.1c0.3,0.7,0.8,1.3,1.1,2.1c0.2,0.4,0.3,0.8,0.3,1.3
				c0,0.4,0.1,0.7,0.2,1.1c0.5,1.5,1.3,2.8,2.2,4.2c0.4,0.8,0.6,1.5,1,2.2c0.3,0.7,0.7,1.4,1.2,1.9s1.2,1,1.8,1.5
				c0.6,0.5,1.3,0.9,2,1.1c0.2,0,0.3,0.1,0.4,0c0.2,0,0.3-0.1,0.4-0.2c0.3-0.1,0.4-0.4,0.4-0.7v-0.1v-0.1c0,0,0,0,0-0.1
				c0,0,0-0.2,0.2-0.4c0.2-0.1,0.4,0,0.4,0c0.1,0,0.1,0,0.1,0s0.1,0,0.1,0.1l0.1,0.1c0.2,0.1,0.3,0.2,0.5,0.3
				c0.4,0.2,0.7,0.5,0.9,0.6c0.2,0.1,0.6,0,0.8-0.2c0.2-0.2,0.4-0.5,0.4-0.7c0,0,0-0.1-0.1-0.2l-0.1-0.2c0,0,0-0.1,0-0.2
				s0.1-0.3,0.3-0.3c0.1,0,0.1,0,0.2,0c0.2,0.1,0.3,0.1,0.4,0.2l0.3,0.1c0.3,0.1,0.6,0.1,0.9,0s0.5-0.3,0.5-0.6c0-0.1,0-0.2-0.1-0.4
				c0-0.1-0.1-0.1-0.1-0.4c0-0.1,0-0.2,0.1-0.3c0.1-0.1,0.1-0.1,0.2-0.1h0.1c0.2-0.1,0.5-0.4,0.5-0.7c0.1-0.3,0-0.6-0.2-0.9
				c-0.1-0.1-0.2-0.3-0.3-0.4l-0.4-0.4l-0.8-0.9c-0.5-0.6-1.1-1.2-1.6-1.8c-1-1.3-2.1-2.5-2.8-4c-0.1-0.2-0.2-0.4-0.2-0.6
				c0-0.1,0-0.3,0-0.5s0.2-0.4,0.4-0.4c0.3-0.1,0.6,0,0.8,0l0.6,0.2l2.3,0.7c0.8,0.2,1.5,0.4,2.3,0.4c0.4,0,0.7-0.1,1-0.3
				c0.3-0.2,0.6-0.5,0.8-0.7c0.1-0.1,0.1-0.2,0-0.2c0-0.1-0.2-0.2-0.3-0.2c-0.3-0.2-0.7-0.2-1.1-0.4c-0.8-0.2-1.6-0.6-2.3-1
				c-0.7-0.4-1.4-0.9-2-1.3s-1.4-0.7-2.1-1l-2.2-0.8c-0.4-0.1-0.8-0.3-1.1-0.5c-0.4-0.2-0.7-0.3-1.1-0.4s-0.8-0.1-1.2-0.5
				c-0.1-0.1-0.2-0.2-0.3-0.4c0-0.1-0.1-0.1-0.1-0.2l-0.3-0.5l-1.1-2.1c-0.8-1.4-1.7-2.9-2.3-4.4s-0.9-3.1-1.3-4.7
				c-0.3-1.6-0.6-3.2-0.9-4.7c0-0.2-0.1-0.4-0.2-0.5c0,0-0.2-0.6-0.2-0.9s0.3-0.2,0.4-0.3c0.4-0.3,0.8-0.4,1.1-0.6
				c0.7-0.3,1.5-0.6,2.1-1c2.7-1.6,5.4-3.5,7.8-5.4l0.2,0.4c-0.2,0.5-0.5,0.7-0.8,0.9c-0.3,0.3-0.6,0.5-1,0.7c-0.6,0.5-1.3,1-2,1.4
				c-1.3,0.9-2.6,1.8-4,2.7c-0.7,0.4-1.5,0.7-2.2,1c-0.4,0.2-0.8,0.3-1,0.5c-0.1,0-0.1,0.1-0.1,0.1c0-0.1,0-0.1,0.1,0.1
				s0.2,0.4,0.2,0.6c0.4,1.6,0.6,3.2,1,4.7c0.3,1.6,0.7,3.1,1.3,4.6c0.6,1.5,1.3,2.9,2.1,4.3l1.2,2.1c0.1,0.2,0.2,0.4,0.3,0.5
				c0,0.1,0.1,0.2,0.1,0.3c0,0,0,0.1,0.1,0.1c0.2,0.2,0.6,0.3,1,0.3c0.2,0,0.4,0.1,0.6,0.2s0.4,0.2,0.6,0.3c0.3,0.2,0.7,0.3,1.1,0.4
				l2.3,0.8c0.7,0.3,1.5,0.6,2.2,1s1.3,0.9,2,1.3s1.4,0.7,2.1,0.9c0.4,0.1,0.8,0.2,1.2,0.4c0.2,0.1,0.4,0.2,0.6,0.5s0.1,0.7-0.1,0.9
				c-0.3,0.4-0.6,0.7-1,0.9c-0.3,0.3-0.8,0.5-1.3,0.5c-0.9,0-1.7-0.2-2.5-0.4l-2.3-0.7c-0.4-0.1-0.8-0.3-1-0.2l0,0v0.1
				c0,0.1,0.1,0.3,0.2,0.5c0.7,1.4,1.7,2.6,2.7,3.8c0.5,0.6,1,1.2,1.6,1.8l0.8,0.9l0.4,0.4c0.2,0.2,0.3,0.3,0.4,0.5
				c0.2,0.4,0.4,0.9,0.3,1.4s-0.4,0.9-0.9,1.2c-0.1,0-0.1,0.1-0.2,0.1c0,0,0,0,0.1-0.1c0,0,0.1-0.1,0.1-0.2s0,0.1,0.1,0.1
				c0.1,0.2,0.2,0.5,0.1,0.8c-0.1,0.6-0.5,1-0.9,1.2c-0.5,0.2-1,0.2-1.5,0l-0.5-0.2c0,0,0,0,0.1,0c0.1-0.1,0.2-0.2,0.2-0.3
				c0-0.1,0-0.1,0-0.1v0.1c0,0.1,0.1,0.2,0.1,0.4c0,0.6-0.3,1-0.7,1.3c-0.2,0.2-0.5,0.3-0.7,0.3c-0.2,0.1-0.5,0.1-0.8,0
				s-0.5-0.2-0.7-0.3c-0.2-0.1-0.3-0.2-0.5-0.3c-0.2-0.1-0.4-0.2-0.5-0.4l-0.1-0.1l0,0l0,0c0,0,0.1,0.1,0.3,0
				c0.2-0.2,0.2-0.3,0.2-0.3l0,0v0.1c0,0.1,0,0.1,0,0.2c0,0.5-0.3,1.1-0.8,1.3c-0.2,0.1-0.5,0.2-0.7,0.2c-0.3,0-0.5,0-0.8,0
				c-0.9-0.3-1.6-0.7-2.2-1.2c-0.7-0.5-1.3-1-1.9-1.6c-1.3-1.2-1.7-3-2.4-4.3c-0.8-1.3-1.7-2.7-2.2-4.3c-0.1-0.4-0.2-0.9-0.2-1.3
				c0-0.3-0.1-0.7-0.2-1c-0.3-0.7-0.8-1.3-1.1-2.1c-0.2-0.5-0.3-0.7-0.4-1.1c-0.2-0.3-0.4-0.7-0.6-1c-0.4-0.7-0.9-1.3-1.3-2
				c-2-2.5-3.8-5.2-5.5-7.9c-1.7-2.8-2.8-5.9-3.5-9.1c-0.2-0.8-0.3-1.6-0.4-2.4s0-1.7,0.1-2.5c0.3-1.6,0.9-3.2,1.6-4.7
				s1.6-2.9,2.5-4.2c1-1.4,2.2-2.5,3.4-3.6c2.5-2.1,5.2-3.9,8-5.5L360.5,329z"/>
		</g>
		<g>
			<path d="M370.2,376.2c2.3,0.6,4.6,1,6.9,1.1c1.2,0,2.3,0.1,3.5,0c1.1,0,2.3-0.2,3.5-0.3c1.1-0.2,2.3-0.4,3.3-0.8
				c0.5-0.2,1.1-0.4,1.6-0.6c0.6-0.2,1.2-0.3,1.8-0.4c2.4-0.3,4.8-0.1,7.1,0.1c0.6,0,1.2,0.1,1.7,0.1c0.4,0,0.9-0.2,1.2-0.5
				c0.2-0.2,0.3-0.4,0.4-0.6s0.2-0.4,0.2-0.7c0.1-0.5,0.1-1.1,0-1.6s-0.2-0.9-0.6-1.4c-0.2-0.3-0.3-0.5-0.5-0.9
				c-0.1-0.2-0.1-0.4-0.1-0.6s0.1-0.4,0.1-0.5c0.4-1.2,0.8-2.2,1-3.3c0.1-1.1,0.1-2.3,0.3-3.5c0.1-0.6,0.1-1.2,0.3-1.9
				c0.2-0.6,0.5-1.1,0.9-1.6c0.2-0.3,0.3-0.5,0.4-0.7c0.1-0.1,0.1-0.3,0.1-0.1c0.1,0.1,0,0-0.1-0.1c-0.2-0.2-0.5-0.5-0.5-1
				c-0.1-0.5,0.3-1,0.5-1.2s0.3-0.3,0.3-0.5c0-0.1,0-0.2,0-0.5c0-0.1,0.1-0.3,0.2-0.4c0-0.1,0.1-0.1,0.1-0.2l0,0
				c0.2-0.3,0.2-0.7,0-1c0,0-0.2-0.2-0.2-0.3c-0.1-0.1-0.1-0.2-0.1-0.3c0-0.2,0-0.4,0-0.6c0-0.3,0.1-0.7,0.1-1
				c0.1-0.6,0.3-1.2,0.6-1.8c0.2-0.4,0.4-0.5,0.5-0.8l0.5-0.7l1-1.4c0.7-1,1.3-1.9,1.9-2.9l0.9-1.5c0.3-0.5,0.6-1,0.8-1.4
				c0.1-0.5,0.4-1.2,0.7-1.7c0.3-0.5,0.6-1,0.9-1.5c0.1-0.2,0.2-0.6,0.3-0.8c0.1-0.3,0.3-0.6,0.4-0.8c0.3-0.5,0.7-1,1.1-1.5
				c0.8-0.9,1.6-1.7,2.3-2.6c0.7-0.9,1.4-1.8,1.9-2.8s0.9-2.1,1-3.2c0-0.3,0-0.5,0-0.8l-0.2-0.9l-0.3-1.7c-0.2-1.2-0.4-2.3-0.7-3.4
				c-0.1-0.6-0.3-1.1-0.4-1.7c-0.2-0.6-0.3-1-0.7-1.4c-0.7-0.9-1.6-1.6-2.5-2.2c-0.5-0.3-1-0.6-1.5-0.8c-0.5-0.2-1-0.4-1.6-0.5
				c-1.1-0.3-2.3-0.5-3.4-0.7s-2.3-0.3-3.4-0.2l-0.1-0.7c1.3-0.1,2.4,0,3.6,0.1c1.2,0.2,2.3,0.4,3.5,0.6c0.6,0.1,1.2,0.3,1.7,0.5
				c0.6,0.2,1.1,0.5,1.6,0.8c1,0.6,2,1.4,2.8,2.4c0.4,0.5,0.7,1.1,0.9,1.7c0.2,0.6,0.3,1.2,0.5,1.7c0.3,1.2,0.5,2.3,0.7,3.5l0.3,1.7
				l0.2,0.9c0.1,0.3,0.1,0.7,0,1c-0.1,1.3-0.5,2.4-1.1,3.5c-0.5,1.1-1.3,2.1-2,3s-1.5,1.8-2.3,2.7c-0.4,0.4-0.7,0.9-1,1.3
				c-0.1,0.2-0.3,0.5-0.4,0.7c-0.1,0.3-0.2,0.5-0.3,0.8c-0.3,0.6-0.6,1.1-0.9,1.6s-0.4,0.9-0.6,1.5c-0.3,0.7-0.6,1.1-0.9,1.7
				l-0.9,1.5c-0.6,1-1.3,2-1.9,2.9l-1,1.5l-1,1.4c-0.2,0.4-0.4,1-0.5,1.5c-0.1,0.3-0.1,0.5-0.1,0.8c0,0.1,0,0.2,0,0.3v0.1
				c0,0-0.1-0.1,0.1,0.1c0.6,0.6,0.6,1.6,0,2.3l-0.1,0.1l0,0c0,0,0,0.2,0,0.4c0,0.5-0.3,0.8-0.5,1.1c-0.2,0.2-0.2,0.3-0.2,0.4
				s0.1,0.3,0.3,0.5c0.1,0.1,0.2,0.2,0.3,0.6c0,0.3,0,0.4-0.1,0.5c0,0.1-0.1,0.2-0.1,0.2c-0.2,0.3-0.3,0.5-0.5,0.8
				c-0.3,0.5-0.6,1-0.8,1.5c-0.2,0.4-0.2,1-0.3,1.6c-0.1,1.2-0.2,2.3-0.3,3.5c-0.2,1.3-0.7,2.4-1,3.4c-0.5,0.7,1,1.6,1.1,3
				c0.1,0.6,0.1,1.3,0,1.9c-0.1,0.3-0.1,0.6-0.3,1c-0.2,0.3-0.4,0.6-0.6,0.8c-0.5,0.5-1.2,0.8-1.9,0.8c-0.6,0-1.2-0.1-1.8-0.1
				c-2.3-0.1-4.7-0.3-6.9-0.1c-0.6,0.1-1.1,0.2-1.6,0.4c-0.5,0.2-1.1,0.4-1.6,0.6c-1.2,0.4-2.3,0.6-3.5,0.8
				c-2.3,0.3-4.8,0.5-7.1,0.2c-2.4-0.3-4.7-0.8-6.9-1.6L370.2,376.2z"/>
		</g>
		<g>
			<path d="M366.9,342.7c0.1,2.2,0.1,3.7,0.2,5.9c0,0.5,0.1,1.1,0.1,1.6v1.6v3.3c0,1.1-0.1,2.2-0.1,3.3c0,1.1-0.1,2.2,0.1,3
				c0.4,1.1,0.7,2.1,0.8,3.3c0.1,0.6,0.1,1.1,0.1,1.7s-0.2,1.2-0.4,1.7L367,368c0.1-0.6,0.2-1,0.1-1.6c0-0.5-0.1-1-0.2-1.5
				c-0.2-1-0.4-2.1-0.8-3.1c-0.2-0.6-0.2-1.2-0.2-1.8c0-0.6,0-1.1,0.1-1.7c0.1-1.1,0.1-2.2,0.1-3.2v-3.3v-1.6c0-0.5,0.1-1.1,0.1-1.6
				c0.1-2.2,0-3.7,0-5.9l0.8-0.5L366.9,342.7z"/>
		</g>
		<g>
			<path class="offense-1" d="M368.6,386.6c2.1,4.7,7.1,6.8,11.5,9.2c2.3,1.2,4.5,2.3,6.9,3.2c1.2,0.5,2.3,0.9,3.5,1.3l3.6,1.3
				c2.4,0.9,4.7,1.8,7.2,2.3c2.4,0.6,5,0.9,7.5,1.3l1.9,0.3c0.3,0.1,0.6,0.1,1,0.2c0.3,0.1,0.6,0.2,0.9,0.3c0.2,0,0.3,0.1,0.5,0.2
				s0.5,0.4,0.5,0.6c0.1,0.5,0.1,0.8,0.1,1.1l-0.1,1.9c-0.1,2.5-0.2,5.1,0,7.6c0.1,0.6,0.2,1.2,0.3,1.8c0.2,0.6,0.4,1.2,0.7,1.7
				c0.5,1.1,1.1,2.2,1.8,3.3l1,1.7c0.2,0.3,0.3,0.6,0.5,0.9c0.1,0.1,0.2,0.3,0.2,0.5c0,0.1,0.1,0.3,0.2,0.4c0.5,1.2,1,2.3,1.5,3.5
				s1,2.3,1.4,3.6c0.3,1.3,0.6,2.5,1,3.7c0.2,0.6,0.4,1.2,0.6,1.8c0.2,0.6,0.5,1.1,0.8,1.7s0.6,1.1,0.8,1.7c0.1,0.3,0.3,0.6,0.4,0.9
				c0.1,0.4,0.1,0.7,0.1,1l0.3,3.8c0,0.6,0.1,1.3,0.1,1.9s0,1.3,0,1.9s0.1,1.2,0.2,1.8c0.2,0.6,0.4,1.1,0.9,1.3
				c1.1,0.4,2.4,0.4,3.6,0.3c2.5-0.2,5.1-0.5,7.6-0.5c0.6,0,1.3,0,2,0.1c0.3,0.1,0.6,0.1,1,0.2c0.3,0.1,0.6,0.2,0.9,0.3
				c1.2,0.3,2.5,0.4,3.7,0.4s2.5-0.3,3.7-0.6c1.1-0.4,2.2-1.1,3.3-1.8c1-0.7,2.1-1.5,2.9-2.3c0.2-0.2,0.4-0.4,0.5-0.7
				c0.1-0.3,0.2-0.5,0.3-0.8c0.1-0.6,0.1-1.2,0.1-1.8c-0.1-0.6-0.3-1.2-0.7-1.3l-1.9-0.4c-1.2-0.2-2.5-0.5-3.8-0.7
				c-2.5-0.4-5-0.6-7.6-1.1c-1.3-0.2-2.5-0.6-3.7-1.1s-2.3-1.3-3.2-2.3c-0.9-1-1.7-2-2.4-3.1c-0.7-1.1-1.2-2.3-1.7-3.5
				s-1-2.3-1.4-3.6c-0.3-1.3-0.5-2.6-0.6-3.8c-0.1-1.3-0.1-2.6-0.2-3.8c-0.1-1.2-0.3-2.5-0.5-3.7c-0.4-2.5-0.8-5-1.2-7.6
				c-0.1-0.6-0.2-1.3-0.2-1.9c0-0.2,0-0.3,0-0.5s0.1-0.5,0.1-0.6c0.1-0.3,0.1-0.6,0.2-0.9c0.2-1.2,0.4-2.5,0.8-3.8
				c0.2-0.6,0.4-1.3,0.8-1.9c0.3-0.4,0.4-0.5,0.5-0.7s0.2-0.5,0.3-0.8c0.2-1.1-0.1-2.4-0.5-3.5c-0.8-2.4-2.5-4.2-4.5-5.8
				c-1-0.8-2-1.6-3-2.4c-0.5-0.4-1-0.8-1.5-1.1c-0.3-0.2-0.5-0.4-0.7-0.4c-0.2-0.1-0.5,0-0.9-0.1c-0.8-0.1-1.4-0.5-1.9-0.9
				s-1-0.7-1.6-1.1c-0.5-0.4-1.1-0.7-1.6-1.2c-0.2-0.2-0.5-0.5-0.6-0.9c-0.1-0.3-0.2-0.6-0.4-0.8c-0.3-0.4-0.9-0.7-1.4-1.1l-1.6-1
				l-3.2-2l-6.5-4l0.3-0.5l6.6,3.9l3.3,2l1.6,1c0.5,0.4,1.1,0.7,1.6,1.3c0.2,0.3,0.4,0.7,0.5,1c0.1,0.2,0.2,0.4,0.5,0.6
				c0.4,0.4,1,0.7,1.5,1.1c0.5,0.3,1.1,0.7,1.6,1.1s1,0.7,1.5,0.7c0.2,0,0.6,0,1,0.1s0.7,0.3,0.9,0.5c0.5,0.4,1.1,0.7,1.6,1.1
				c1,0.8,2,1.6,3,2.4s2,1.6,2.8,2.7c0.8,1,1.5,2.2,1.9,3.4c0.5,1.2,0.8,2.6,0.6,4c-0.1,0.4-0.2,0.7-0.4,1c-0.2,0.3-0.5,0.7-0.6,0.8
				c-0.3,0.4-0.5,1-0.6,1.6c-0.3,1.2-0.5,2.4-0.7,3.7c-0.1,0.3-0.1,0.6-0.2,1c0,0.2,0,0.2-0.1,0.4c0,0.1,0,0.3,0,0.4
				c0,0.6,0.1,1.2,0.2,1.9c0.3,2.5,0.7,5,1.1,7.5c0.2,1.3,0.4,2.5,0.5,3.8s0.1,2.5,0.2,3.8s0.3,2.5,0.6,3.7c0.3,1.2,0.8,2.4,1.3,3.5
				c0.5,1.2,1,2.3,1.6,3.4s1.4,2.1,2.2,3c1.6,1.9,4.1,2.8,6.5,3.2c2.5,0.5,5,0.8,7.5,1.2c1.3,0.2,2.5,0.4,3.8,0.7l1.9,0.4
				c0.4,0.1,0.8,0.4,0.9,0.7c0.2,0.3,0.2,0.7,0.3,1c0.1,0.7,0.1,1.3-0.1,2c-0.1,0.3-0.2,0.7-0.3,1c-0.2,0.3-0.4,0.6-0.6,0.8
				c-0.9,0.9-2,1.7-3,2.4c-1.1,0.7-2.1,1.4-3.4,1.9c-1.2,0.4-2.5,0.6-3.8,0.7c-1.3,0-2.6-0.1-3.9-0.4c-0.3-0.1-0.6-0.2-0.9-0.3
				c-0.3-0.1-0.6-0.1-0.9-0.2c-0.6-0.1-1.2-0.1-1.9-0.1c-2.5,0-5,0.4-7.6,0.6c-1.3,0.1-2.6,0.1-3.9-0.4c-0.3-0.1-0.7-0.4-0.9-0.7
				c-0.2-0.3-0.3-0.6-0.4-1c-0.2-0.7-0.2-1.3-0.2-2c0-0.6,0-1.3,0-1.9s-0.1-1.3-0.1-1.9l-0.3-3.8c0-0.3,0-0.7-0.1-0.9
				c-0.1-0.3-0.2-0.6-0.3-0.8c-0.3-0.6-0.6-1.1-0.8-1.7c-0.3-0.6-0.6-1.1-0.9-1.7c-0.2-0.6-0.4-1.2-0.6-1.8c-0.4-1.2-0.8-2.5-1-3.7
				c-0.4-1.1-0.9-2.3-1.4-3.5s-1.1-2.3-1.6-3.5c-0.1-0.2-0.1-0.3-0.2-0.5c-0.1-0.1-0.1-0.2-0.2-0.4c-0.1-0.3-0.3-0.5-0.5-0.8l-1-1.6
				c-0.6-1.1-1.3-2.2-1.8-3.4c-0.3-0.6-0.5-1.2-0.7-1.8c-0.2-0.7-0.3-1.3-0.4-2c-0.3-2.6-0.2-5.2-0.1-7.7l0.1-1.9c0-0.3,0-0.6,0-0.8
				c0-0.1,0,0-0.1-0.1c-0.1,0-0.2-0.1-0.3-0.1c-0.3-0.1-0.6-0.2-0.9-0.3c-0.2-0.1-0.6-0.1-0.9-0.2l-1.9-0.3c-2.5-0.4-5-0.7-7.6-1.3
				c-2.5-0.6-5-1.5-7.3-2.4l-3.6-1.4c-1.2-0.4-2.4-0.9-3.6-1.4c-2.4-1-4.6-2.1-6.9-3.3c-2.3-1.2-4.5-2.4-6.7-3.8s-3.9-3.5-4.9-5.9
				L368.6,386.6z"/>
		</g>
		<g>
			<path class="offense-1" d="M367.9,387.5c-0.2,1.9-0.5,4.4-0.6,6.3c-0.1,1.9-0.2,3.9,0.1,5.7c0.2,0.9,0.5,1.8,0.7,2.8
				c0.1,0.5,0.2,1,0.3,1.5c0,0.5,0.1,1.1-0.3,1.6c-0.6,0.8-1.4,1.4-2.2,2c-0.8,0.5-1.6,1-2.4,1.6c-3.1,2.1-5.3,5.3-6.4,8.9
				c-0.7,1.9-1.6,3.6-2.5,5.3c-0.9,1.7-1.9,3.4-2.8,5l-2.9,5c-0.5,0.8-1,1.7-1.4,2.5c-0.1,0.2-0.2,0.4-0.2,0.6
				c-0.1,0.2-0.2,0.5-0.3,0.7c-0.2,0.5-0.4,0.9-0.7,1.3c-0.2,0.4-0.6,0.9-0.9,1.2c-0.3,0.3-0.6,0.8-1,1.2c-0.8,0.7-1.6,1.2-2.4,1.7
				c-0.9,0.5-1.8,0.9-2.6,1.3c-0.8,0.4-1.7,0.9-2.4,1.5c-0.7,0.6-1.2,1.2-1.3,2c-0.1,0.4,0,0.8,0.1,1.2l0.5,1.3
				c0.3,0.8,0.8,1.7,1.4,2.1c0.2,0.1,0.3,0.2,0.5,0.3c0.2,0.1,0.4,0.1,0.7,0.2c0.5,0.1,0.9,0.3,1.4,0.4c0.9,0.3,1.9,0.7,2.7,1.3
				c0.2,0.1,0.4,0.3,0.6,0.5l0.5,0.5l1.1,0.9c0.7,0.6,1.5,1.3,2.1,2c0.7,0.7,1.4,1.3,2.1,1.9c1.5,1.2,2.9,2.4,4.6,3.3
				c0.8,0.5,1.7,0.9,2.5,1.1s1.6-0.1,2.3-0.6c0.6-0.5,0.8-1.2,0.4-2c-0.2-0.4-0.4-0.7-0.7-1.1l-0.9-1.1c-1.2-1.5-2.4-3.1-2.9-5.2
				c-0.5-1.8-1.1-3.6-1.5-5.6c-0.2-1-0.3-2-0.3-3c0-0.5,0-1,0.2-1.6s0.5-1,0.7-1.4c2.2-3.2,4.5-6.2,6.9-9.3l7.5-8.8
				c1.3-1.5,2.5-2.9,3.9-4.3c0.7-0.7,1.5-1.3,2.3-1.9l1.2-0.8c0.2-0.1,0.4-0.3,0.5-0.4l0.3-0.2c0.1-0.1,0.3-0.2,0.4-0.3
				c3.6-1.9,8-2,9.6-5.9c0.4-0.8,0.6-1.3,1-2.2c0.3-0.9,0.4-1.9,0.5-2.8c0.1-0.9,0.1-1.9,0.1-2.9s-0.1-1.9,0.2-3l0.8,0.3
				c-0.3,0.8-0.3,1.8-0.3,2.8s0,1.9-0.1,2.9c-0.3,2-1,3.8-1.8,5.6c-0.4,0.9-1,1.7-1.7,2.5c-0.3,0.4-0.7,0.7-1.2,1
				c-0.5,0.2-0.9,0.4-1.4,0.6c-0.9,0.4-1.8,0.7-2.7,1c-0.9,0.3-1.8,0.6-2.6,1c-1.4,1.2-3.2,2.2-4.4,3.5c-1.3,1.4-2.6,2.8-3.8,4.3
				l-7.5,8.8c-2.3,3-4.7,6.1-6.8,9.2c-0.3,0.4-0.5,0.8-0.6,1.1c-0.1,0.4-0.1,0.8-0.1,1.3c0,1,0.1,1.8,0.3,2.8c0.4,1.8,1,3.6,1.5,5.5
				c0.5,1.7,1.6,3.3,2.7,4.8l0.9,1.1c0.3,0.4,0.6,0.8,0.9,1.3c0.2,0.5,0.4,1.1,0.3,1.7s-0.5,1.1-0.9,1.5c-0.4,0.3-0.9,0.6-1.4,0.8
				c-0.5,0.2-1.1,0.2-1.7,0.1c-1.1-0.2-1.9-0.7-2.8-1.2c-1.7-1-3.2-2.2-4.7-3.4c-0.7-0.6-1.5-1.3-2.2-1.9c-0.7-0.7-1.4-1.3-2.1-1.9
				l-1.1-0.9l-0.6-0.5c-0.2-0.2-0.3-0.3-0.5-0.4c-0.7-0.5-1.6-0.9-2.5-1.2c-0.4-0.2-0.9-0.3-1.4-0.4c-0.2-0.1-0.4-0.1-0.7-0.2
				c-0.3-0.1-0.5-0.2-0.8-0.4c-0.9-0.7-1.4-1.7-1.8-2.6l-0.5-1.4c-0.2-0.5-0.2-1.1-0.1-1.6s0.3-1.1,0.6-1.5c0.3-0.5,0.7-0.8,1.1-1.1
				c0.8-0.6,1.7-1.1,2.5-1.6c0.9-0.5,1.7-0.8,2.5-1.3s1.6-1,2.3-1.6c0.3-0.3,0.6-0.6,0.9-1s0.6-0.7,0.8-1.1c0.2-0.4,0.4-0.8,0.6-1.2
				c0.1-0.2,0.2-0.4,0.3-0.6c0.1-0.2,0.1-0.4,0.3-0.7c0.5-0.9,0.9-1.7,1.4-2.6l2.9-5c1-1.7,1.9-3.3,2.8-5s1.6-3.4,2.3-5.1
				c0.6-1.8,1.5-3.7,2.6-5.3c0.6-0.8,1.2-1.6,1.9-2.3c0.7-0.7,1.5-1.3,2.4-1.8c0.8-0.5,1.5-0.9,2.3-1.5c0.9-0.6,1.8-1.2,2.3-1.9
				c0.2-0.2,0.2-0.5,0.2-0.9c0-0.5-0.1-0.9-0.2-1.4c-0.2-0.9-0.5-2.5-0.7-3.5s-0.4-2.2-0.4-3.1c0-1,0-1.6,0.1-2.7
				c0.1-1.9,0.3-3.8,0.4-5.8L367.9,387.5z"/>
		</g>
		<g>
			<path class="offense-1" d="M414.5,378.2c-0.1,0-1.1,0.2-1.3,0.3c-0.4,0.1-0.7,0.1-1.1,0.2c-0.6,0.1-1.2,0.2-1.8,0.1
				c-0.1,0-0.2,0-0.3-0.1c-0.1-0.1-0.2-0.2-0.1-0.3c0-0.1,0.1-0.2,0.1-0.4c0-0.3-0.6-0.1-0.8-0.1c-0.4,0-0.8,0-1.1-0.1
				c-0.3-0.1-0.6-0.2-0.8-0.5c-0.2-0.3-0.2-0.7-0.1-1c0-0.1,0.1-0.2,0.1-0.2c0-0.1,0.1-0.1,0.1-0.1c0.1-0.1,0.3-0.2,0.4-0.3
				c0.3-0.1,0.5-0.2,0.8-0.3l0.8-0.3l0.4-0.1l0.2-0.1c0,0,0.1-0.1,0.1,0l0.2,0.2c-0.5,0-1.2,0.2-1.7,0.4c-0.3,0.1-0.6,0.2-0.9,0.2
				c-0.2,0-0.4,0-0.6,0c-0.2,0-0.4,0-0.7-0.2c-0.3-0.1-0.4-0.4-0.6-0.7c-0.2-0.7,0.4-1.3,0.9-1.6c0,0,0,0,0,0c0,0,0-0.1-0.1-0.1
				c-0.1,0-0.3,0-0.4,0.1c-0.2,0-0.5,0-0.7,0c-0.3,0-0.4-0.1-0.6-0.3c-0.2-0.2-0.3-0.5-0.3-0.8c0-0.1,0-0.2,0-0.3
				c0-0.1,0.1-0.2,0.2-0.2c0.4-0.4,0.8-0.7,1.3-0.9c0.8-0.4,1.6-0.7,2.3-1.2c0.7-0.5,1.5-0.9,2.1-1.4c0.2-0.1,0.3-0.3,0.5-0.4
				l0.1-0.1c0,0,0-0.1,0,0.2c0.2,0.3,0.2,0.1,0.2,0.2h-0.1c-0.4,0.1-0.8,0.2-1.2,0.4l-2.5,0.8l-1.2,0.4c-0.2,0.1-0.5,0.2-0.7,0.2
				c-0.1,0-0.1,0.1-0.2,0.1c-0.1,0.1-0.3,0.1-0.4,0.1c-0.3,0-0.6,0-0.9-0.2c-0.1-0.1-0.3-0.2-0.4-0.5c-0.1-0.2,0-0.4,0-0.6
				c0.3-0.6,0.7-0.8,1.1-1.1c1.3-0.9,2.6-1.9,4-2.7c1.5-0.9,3.1-1.2,4.7-1.4l0.6-0.1h0.6c0.3,0,0.8,0.2,1.2,0
				c0.6-0.3,1.3-0.8,1.8-1.3s0.8-1.2,0.9-1.9c0.2-0.9,0.5-1.6,0.6-2.3c0.2-0.7-0.1-1.3-0.4-2c-0.2-0.3-0.4-0.6-0.7-0.9
				c-0.3-0.3-0.5-0.6-0.8-0.9c-1-1.3-2-2.5-2.9-3.8c-0.5-0.7-0.9-1.3-1.4-2c-0.2-0.3-0.4-0.7-0.6-1.1c-0.2-0.3-0.4-0.6-0.6-0.9
				c-0.5-0.6-1.1-1.1-1.6-1.7c-0.3-0.3-0.6-0.6-0.8-1c-0.2-0.4-0.4-0.9-0.3-1.4l0.3-0.5c-0.1,0.6,0.7,1.9,1.3,2.4
				c0.6,0.6,1.2,1.1,1.7,1.7c0.3,0.3,0.5,0.7,0.7,1.1c0.2,0.3,0.4,0.7,0.6,1c0.4,0.7,0.9,1.3,1.3,2c0.9,1.3,1.9,2.6,2.9,3.8
				c0.2,0.3,0.5,0.6,0.8,0.9s0.6,0.6,0.8,1c0.2,0.4,0.4,0.8,0.5,1.2c0.1,0.4,0.1,1,0,1.4c-0.2,0.8-0.5,1.1-0.6,1.8
				c-0.1,0.8-0.5,1.7-1.1,2.4c-0.8,0.8-1.7,1.7-2.9,1.7c-0.6,0-1.2,0-1.8,0.1c-1.5,0.2-3.2,0.8-4.5,1.6s-2.6,1.7-3.9,2.6
				c-0.2,0.1-0.4,0.3-0.6,0.4c-0.1,0.1-0.1,0.1-0.2,0.2c-0.1,0.1,0,0.2,0,0.3c0.1,0.1,0.3,0.2,0.5,0.1c0.2,0,0.4-0.1,0.6-0.2
				c0,0,0.6-0.2,0.6-0.2l1.2-0.4c0,0,2.5-0.8,2.5-0.8c0.3-0.1,0.6-0.2,1-0.3c0.2-0.1,0.7-0.3,0.8,0c0.1,0.4-0.3,0.9-0.6,1.1
				c-0.7,0.5-1.5,1-2.2,1.4c-0.7,0.5-1.6,0.8-2.3,1.2c-0.4,0.2-0.6,0.3-1.1,0.6c-0.2,0.2-0.2,0.6,0,0.8c0.6,0.3,1.3-0.1,2-0.1
				c0.1,0,0.5,0,0.5,0.2c0,0.1-0.1,0.3-0.2,0.3c-0.2,0.3-0.6,0.4-0.9,0.6c-0.2,0.2-0.4,0.4-0.4,0.6c-0.1,0.2,0,0.4,0.1,0.7
				c0.1,0.2,0.3,0.3,0.6,0.3c0.4,0,0.8-0.1,1.2-0.1c0.7-0.1,1.3-0.2,2-0.3c0,0,0.1,0,0.1,0c0.1,0,0.1,0.2,0.1,0.2
				c-0.1,0.1-0.2,0.1-0.3,0.1c-0.3,0.1-0.6,0.2-0.9,0.3c-0.3,0.1-0.7,0.3-1,0.4c-0.2,0.1-0.5,0.3-0.6,0.5c-0.2,0.5,0.2,0.9,0.7,0.9
				c0.4,0,0.8,0,1.2,0c0.4,0,0.8-0.1,1.2-0.2c0.1,0,0.1,0,0.2,0c0.1,0,0.2,0.1,0.1,0.2c0,0,0,0.1-0.1,0.1c-0.1,0.1-0.1,0.1-0.2,0.2
				c-0.2,0.1-0.4,0.2-0.5,0.4c0,0,0,0.1,0,0.1c0,0.1,0,0.1,0.1,0.1c0,0,0.1,0,0.2,0c0.3,0,0.8,0,1.1,0c0.8-0.1,1.9-0.3,2.7-0.5
				c0.8-0.2,1.2-0.4,1.8-0.7c0.7-0.4,0.8-0.4,1.4-0.9c0.7-0.5,1.3-1,1.8-1.7c0.2-0.3,0.4-0.6,0.6-0.9c0.3-0.4,0.4-0.8,0.6-1.3
				c0-0.1,0.1-0.2,0.1-0.3c0.3-0.6,0.9-1,1.3-1.5c0.4-0.4,0.9-0.8,1.3-1.3c0.4-0.4,1.7-1.7,2.1-2c0.9-0.9,0.6-0.6,1.8-2.1
				c0.7-0.9,1.6-2.6,2.2-3.8c1.1-2.1,2.1-4.3,2.2-6.6c0.1-1.9-0.7-3.7-1.7-5.2c-0.3-0.5-0.7-1.2-0.9-1.7c-0.6-1.1-1.2-2.2-1.9-3.3
				c-0.7-1.1-1.3-2.2-2.1-3.1c-0.8-0.9-1.8-1.8-2.5-3.1c-0.1-0.3-0.3-0.7-0.3-1.1c0-0.3-0.1-0.6-0.1-0.9c-0.1-0.6-0.3-1.2-0.4-1.8
				c-0.3-1.2-0.7-2.4-1.1-3.6c-0.2-0.6-0.5-1.2-0.7-1.7c-0.3-0.5-1.1-1.6-1.5-1.9l0.3-1.2c0.7,0.4,1,1,1.3,1.6s0.6,1.2,0.8,1.8
				c0.5,1.2,0.9,2.4,1.3,3.7c0.2,0.6,0.3,1.2,0.5,1.9c0.1,0.3,0.1,2,0.2,2.2c0.5,1,1.5,1.9,2.4,2.8c0.9,1,1.5,2.1,2.2,3.2
				s1.3,2.2,1.9,3.4c0.3,0.6,0.5,1.1,0.9,1.7c0.3,0.5,0.7,1.1,1,1.7s0.5,1.4,0.7,2c0.1,0.6,0.2,1.1,0.2,1.9c0,1.4-0.3,2.8-0.7,4
				c-0.5,1.5-0.5,1.5-1.5,3.4c-2.1,4.2-3.6,5.7-4.6,6.6l-2.5,2.5c0,0-0.9,0.8-0.9,0.8c-0.3,0.3-0.6,0.6-0.8,1
				c-0.3,0.3-0.4,0.8-0.7,1.3c-0.8,1.4-1.6,2-2.7,2.8C416.7,377.4,415.6,377.8,414.5,378.2z"/>
		</g>
		<path class="offense-3" d="M435.4,442.1"/>
	</g>
	<g id="details">
		<g>
			<path class="offense-3" d="M385,311.3c-0.3-3-0.6-6.5-0.6-7"/>
			<path class="offense-3" d="M389.2,316.6c-1.1-0.2-2.2-0.6-3-1.5"/>
			<path class="offense-3" d="M393.3,316.4c-1.1,0.4-2.2,0.4-3.2,0.3"/>
			<path class="offense-3" d="M395.8,315c-0.5,0.4-1,0.8-1.6,1"/>
			<path class="offense-3" d="M397.5,312.9c-0.2,0.4-0.3,0.6-0.5,0.9"/>
			<path class="offense-3" d="M399.7,304.2c0,0-0.3,4.3-1.5,7.4"/>
		</g>
		<g>
			<g>
				<path d="M402.2,308c0.1-0.1,0.3-0.3,0.5-0.2c0.2,0,0.4,0.1,0.5,0.3c0.3,0.4,0.1,0.8,0,1.1c-0.3,0.6-0.6,1.2-1,1.8
					c-0.4,0.6-1,1-1.7,1.3c-0.6,0.3-1.3,0.4-2,0.6c-0.1,0-0.2-0.1-0.2-0.2v-0.1l0,0c0-0.1,0.1-0.2,0.3-0.1c0.1,0,0.1,0.1,0.1,0.2
					l0.1,1l0,0v0.1l-0.2-0.2c0.6-0.1,1.1-0.2,1.6-0.5c0.3-0.1,0.5-0.3,0.7-0.4s0.4-0.3,0.6-0.5l0.1,0.1l0,0l0,0c0,0-0.1,0-0.1-0.1
					c0-0.2,0-0.4,0-0.7h0.1c0,0.2,0,0.4,0.1,0.7l-0.1-0.1l0,0c0,0,0.1,0,0.1,0.1l0,0l0,0c-0.1,0.3-0.3,0.5-0.5,0.7s-0.5,0.3-0.8,0.5
					c-0.5,0.2-1.1,0.4-1.7,0.5c-0.1,0-0.2,0-0.2-0.2v-0.1l0,0l-0.1-1h0.4l0,0l-0.2-0.3c1.3-0.2,2.7-0.6,3.4-1.7
					c0.4-0.5,0.7-1.1,1-1.7c0.1-0.3,0.3-0.6,0.2-0.8c-0.1-0.3-0.5-0.4-0.7-0.1L402.2,308z"/>
			</g>
			<g>
				<path d="M402.5,310.3c0.1,0.7,0.1,1.4,0.2,2.1v0.1l0,0c-0.2,0.3-0.4,0.7-0.7,1c-0.3,0.3-0.6,0.5-1,0.7c-0.7,0.4-1.5,0.5-2.3,0.7
					l0.1-0.1l-0.1,0.1v-0.1c0,1.3,0,2.7,0,4l-0.2-0.1c1.3-0.9,2.4-2.2,3-3.7c0.7-1.4,1.1-3,1.4-4.6h0.3c0,0.8-0.2,1.6-0.4,2.4
					c-0.2,0.8-0.5,1.6-0.9,2.3c-0.8,1.5-2,2.7-3.3,3.7c-0.1,0-0.1,0-0.2,0v-0.1l0,0c0-1.3-0.1-2.6-0.1-4v-0.1l0,0v-0.1
					c0-0.1,0.1-0.1,0.1-0.1l0,0c0.7-0.2,1.5-0.4,2.1-0.7c0.3-0.2,0.6-0.4,0.9-0.6c0.3-0.3,0.4-0.5,0.7-0.9v0.1c0-0.7,0-1.4,0-2.1
					L402.5,310.3z"/>
			</g>
			<g>
				<path d="M394.2,313.1c0.1,0.4,0.1,0.7,0.2,1l-0.2-0.2c0.6-0.1,1.1-0.1,1.7-0.1s1.1,0,1.7-0.1l-0.1,0.1c0-0.4,0-0.7-0.1-1.1
					l0.1,0.1c-0.6,0.1-1.1,0.2-1.7,0.2h-0.9c-0.1,0-0.3,0-0.4,0h-0.2L394.2,313.1L394.2,313.1C394.1,313.1,394.2,313.1,394.2,313.1z
					 M394,312.9h0.1h0.1h0.1h0.2h0.4l0.9-0.1c0.6,0,1.1,0,1.7-0.1l0,0c0.1,0,0.1,0,0.1,0.1l0,0c0,0.4,0,0.7,0,1.1
					c0,0.1,0,0.1-0.1,0.1c-0.6,0-1.1,0.1-1.7,0.2s-1.2,0.1-1.7,0.1l0,0c-0.1,0-0.2-0.1-0.2-0.2l0,0C394,313.7,394,313.3,394,312.9
					L394,312.9z"/>
			</g>
			<g>
				<path d="M394.4,320.5l0.8-0.3c0.3-0.1,0.6-0.2,0.8-0.3c0.5-0.2,1.1-0.5,1.6-0.8l-0.1,0.2c0-1.5,0.1-3,0-4.5v0.1v-0.1l0.1,0.1
					l-1.7,0.1l-1.7,0.1l0.2-0.2c0,0.9,0.1,1.9,0.1,2.8S394.5,319.6,394.4,320.5L394.4,320.5L394.4,320.5L394.4,320.5z M394.3,320.9
					c-0.1,0-0.1-0.1-0.1-0.1l0,0l0,0c-0.1-0.9-0.1-1.9-0.1-2.8c-0.1-0.9,0-1.9,0-2.8l0,0c0-0.1,0.1-0.2,0.2-0.2
					c1.1,0,2.3-0.1,3.4-0.2c0,0,0.1,0,0.1,0.1v0.1v0.1c0,1.5,0.1,3,0.2,4.5c0,0.1,0,0.2-0.1,0.2l0,0c-0.5,0.3-1.1,0.6-1.7,0.8
					C395.6,320.6,395,320.7,394.3,320.9L394.3,320.9z"/>
			</g>
			<g>
				<path d="M390.2,315.4c0,0.5,0.1,0.9,0.1,1.3l0.1,1.4c0,0.5,0.1,0.9,0.1,1.4s0,0.9,0,1.4l-0.2-0.2c1,0.1,2,0.1,3,0l-0.1,0.1
					c0-1,0-1.9-0.1-2.9c0-1-0.1-1.9-0.1-2.9l0.2,0.2h-1.5L390.2,315.4L390.2,315.4z M390,315.2l1.6-0.2l1.6-0.1
					c0.1,0,0.2,0.1,0.2,0.2l0,0c0,1,0,1.9,0,2.9s0,1.9,0,2.9c0,0.1,0,0.1-0.1,0.1l0,0c-1,0.2-2,0.2-3.1,0.2c-0.1,0-0.2-0.1-0.2-0.2
					c-0.1-0.9-0.2-1.9-0.2-2.9c0-0.5,0-0.9,0-1.5C389.9,316.2,390,315.7,390,315.2L390,315.2z"/>
			</g>
			<g>
				<path d="M390.2,314.1c0.5-0.1,1-0.1,1.5-0.2c0.5,0,0.9,0,1.5,0l-0.1,0.1c0-0.4,0-0.7,0-1.1l0.1,0.1c-0.5,0-1,0.1-1.5,0.1
					c-0.5,0.1-1,0.1-1.5,0.1l0.2-0.2C390.3,313.5,390.3,313.8,390.2,314.1L390.2,314.1z M390,314.3c0-0.3-0.1-0.7-0.1-1.1
					c0-0.1,0.1-0.2,0.1-0.2l0,0c0.5-0.1,1-0.1,1.5-0.1s1,0,1.5,0c0.1,0,0.1,0,0.1,0.1c0,0.4,0.1,0.7,0.1,1.1c0,0.1,0,0.1-0.1,0.1
					l0,0l0,0c-0.5,0-1.1,0.1-1.6,0.1C391.1,314.4,390.5,314.3,390,314.3L390,314.3z"/>
			</g>
			<g>
				<path d="M386.3,313c0,0.3,0,0.6,0,0.9l-0.2-0.2l0,0l0,0l0,0c0.5,0.1,1,0.2,1.5,0.3c0.5,0.1,1,0.1,1.5,0.2l-0.1,0.1
					c0-0.4,0-0.7,0-1.1l0.1,0.1c-0.5,0-1,0-1.5,0c-0.5-0.1-1-0.2-1.5-0.3l0.2-0.1V313L386.3,313z M386,313L386,313v-0.1
					c0-0.1,0-0.1,0.1-0.1l0,0l0,0c0.5,0.1,1,0.2,1.5,0.2s1,0.1,1.5,0.1l0,0c0.1,0,0.1,0.1,0.1,0.1l0,0c0,0.4,0,0.7,0,1.1
					c0,0.1,0,0.1-0.1,0.1l0,0c-0.5,0-1,0-1.6,0c-0.5,0-1-0.1-1.5-0.3l0,0l0,0l0,0c-0.1,0-0.2-0.1-0.2-0.2
					C386,313.6,386,313.3,386,313z"/>
			</g>
			<g>
				<path d="M386.2,314.9c0,0.1,0,0.2,0,0.3v0.2v0.3v0.7v1.3c0,0.9,0.1,1.8,0.1,2.7l-0.1-0.2l0.7,0.2l0.8,0.1l1.5,0.2l0,0h0.1
					l-0.1,0.2c0-0.9-0.1-1.9-0.2-2.8l-0.1-1.4c0-0.5,0-0.9,0-1.4l0.2,0.2c-0.5,0-1.1,0-1.6-0.1c-0.3,0-0.5-0.1-0.8-0.1l-0.4-0.1
					l-0.2-0.1H386l0,0l0,0l0,0l0,0l0,0C386,315.1,386.2,314.5,386.2,314.9L386.2,314.9C386.2,314.8,386.2,314.8,386.2,314.9
					L386.2,314.9z M386,315C386,315,386,315.1,386,315L386,315c0,0.3,0.2-0.3,0.2-0.2l0,0l0,0l0,0l0,0l0,0h0.1h0.2l0.4,0.1l0.8,0.1
					c0.5,0,1,0.1,1.5,0.1c0.1,0,0.2,0.1,0.2,0.2l0,0c0,0.5,0,0.9,0,1.4v1.4c0,0.9,0.1,1.9,0.1,2.8l0,0c0,0.1-0.1,0.1-0.1,0.1h-0.1
					l0,0l-1.6-0.2l-0.8-0.1l-0.8-0.2c-0.1,0-0.1-0.1-0.1-0.1l0,0c-0.2-0.9-0.2-1.8-0.2-2.7c0-0.5,0-0.9,0-1.4c0-0.2,0-0.5,0-0.7
					v-0.3L386,315C385.9,315.1,385.9,315.1,386,315L386,315z"/>
			</g>
			<g>
				<path d="M383.4,310.3c1.1,0.9,2.7,1.4,4.3,1.6c1.5,0.2,3.1,0,4.7-0.1s3.2-0.1,4.7-0.2c0.8-0.1,1.6-0.2,2.3-0.4
					c0.7-0.2,1.4-0.6,1.8-1.2l0.2,0.3l0,0c-0.1,0-0.2-0.1-0.2-0.2l0,0L401,304l0.2,0.1c-1.5,0.3-3.1,0.4-4.6,0.4
					c-1.5,0.1-3.1,0.1-4.6,0.1h-4.6c-1.5,0-3.1,0.1-4.6-0.4h0.1l0,0l0.2-0.2l0.2,3.2l0.1,1.6C383.4,309.2,383.4,309.8,383.4,310.3
					L383.4,310.3z M383.1,310.4c-0.1-0.6-0.1-1.1-0.2-1.7l-0.1-1.6l-0.3-3.2c0-0.1,0.1-0.2,0.2-0.2l0,0h0.1l0,0
					c1.4,0.5,3,0.3,4.5,0.4l4.6,0.1c3.1,0.1,6.1,0.1,9.1-0.4c0.1,0,0.2,0,0.2,0.1l0,0l0.3,6.1l-0.2-0.2l0,0c0.1,0,0.2,0.1,0.2,0.2
					v0.1c-0.4,0.7-1.2,1.2-2,1.4c-0.8,0.2-1.6,0.4-2.4,0.4c-1.6,0.2-3.2,0.2-4.8,0.3c-1.6,0-3.2,0.2-4.8,0
					C386,312.1,384.4,311.6,383.1,310.4L383.1,310.4z"/>
			</g>
			<g>
				<path d="M383.4,311.6c0,0.3,0.1,0.6,0.1,0.9v-0.1c0.3,0.2,0.6,0.3,0.9,0.5s0.6,0.3,0.9,0.5l-0.2,0.4l0,0c-0.1,0-0.1-0.1-0.1-0.2
					v-1c0-0.1,0.1-0.2,0.2-0.2s0.1,0,0.2,0.1l0,0c0.1,0.1,0,0.2-0.1,0.3c-0.1,0-0.1,0-0.2,0c-1.3-0.4-2.5-1.2-3.4-2.3
					c-0.2-0.3-0.4-0.6-0.6-0.9c-0.1-0.2-0.2-0.3-0.2-0.5c-0.1-0.1-0.2-0.4-0.1-0.6c0-0.2,0.2-0.4,0.4-0.5c0.2-0.1,0.5,0,0.6,0.2
					c0.1,0.1,0.1,0.2,0.1,0.3c0,0.1,0.1,0.2,0.1,0.2c0.1,0.2,0.1,0.3,0.2,0.5h-0.1c-0.1-0.1-0.2-0.3-0.3-0.4
					c-0.1-0.2-0.2-0.3-0.3-0.4c-0.1-0.1-0.2-0.1-0.3,0c-0.1,0-0.2,0.1-0.2,0.2c0,0.2,0.2,0.5,0.3,0.8c0.2,0.3,0.4,0.5,0.6,0.8
					c0.8,1,2,1.7,3.2,2.2l-0.2,0.3l0,0l0.4-0.1v1l-0.1-0.2l0,0c0.1,0,0.1,0.2,0.1,0.3c0,0.1-0.2,0.1-0.3,0.1c-0.3-0.1-0.7-0.3-1-0.5
					s-0.6-0.4-0.8-0.7v-0.1v-0.1c0-0.3,0-0.6,0-0.8L383.4,311.6z"/>
			</g>
			<g>
				<path d="M382.2,310c0-1.1-0.2-2.2-0.3-3.3c-0.1-1.1-0.3-2.2-0.4-3.2c0-0.1,0-0.1,0.1-0.2l0,0l0.1,0.4l-0.9-0.4
					c-0.1,0-0.4-0.2-0.5-0.3c-0.1-0.1-0.2-0.3-0.3-0.5c0-0.1,0-0.2,0-0.3c0-0.1,0.1-0.3,0.2-0.4c0.2-0.1,0.4-0.1,0.6-0.1
					c0.4,0.1,0.6,0.2,0.9,0.3l-0.3,0.3l0,0c0,0,0,0,0-0.1v-1.1l0.2,0.2h-0.1l0,0l-0.8-0.3c-0.3-0.1-0.6-0.3-0.8-0.6
					c-0.1-0.2-0.1-0.4-0.1-0.6c0-0.1,0.2-0.3,0.3-0.3c0.1-0.1,0.2-0.1,0.3-0.1c0.2,0,0.3,0,0.5,0.1c0.1,0,0.2,0,0.3,0.1
					c0,0,0.1,0,0.2,0c1.1,0.3,2.3,0.5,3.4,0.7c2.3,0.4,4.6,0.4,6.9,0.5s4.6,0.1,6.9-0.1c1.2-0.1,2.3-0.3,3.4-0.5
					c0.3-0.1,0.5-0.1,0.9-0.2c0.5,0,0.8,0.5,0.8,0.9c0,0.2-0.1,0.4-0.3,0.5c-0.1,0.1-0.2,0.1-0.3,0.1h-0.2l-0.9,0.2v-0.5l0,0
					c0.1,0,0.2,0.1,0.2,0.2v1.1v0.1l0,0l-0.3-0.4l1-0.2c0.1,0,0.5-0.1,0.7,0s0.4,0.4,0.4,0.6c0,0.3-0.1,0.5-0.3,0.7
					c-0.3,0.2-0.4,0.1-0.6,0.2c-0.3,0.1-0.7,0.2-1,0.2l0.2-0.2c0,1.9,0,3.7,0.1,5.6h-0.1c-0.1-1.9-0.2-3.7-0.4-5.6
					c0-0.1,0.1-0.2,0.2-0.2l0,0c0.3-0.1,0.7-0.2,1-0.3c0.2,0,0.4-0.1,0.4-0.1c0.1,0,0.1-0.1,0.1-0.2s-0.1-0.2-0.1-0.2
					c-0.1,0-0.1,0-0.3,0l-1,0.2c-0.1,0-0.3-0.1-0.3-0.2s0-0.1,0-0.2l0,0l0,0v0.1v-1.1l0.2,0.2l0,0c-0.1,0-0.2-0.1-0.2-0.3
					c0-0.1,0.1-0.2,0.2-0.2l0,0l0.8-0.2c0.1,0,0.3-0.1,0.3-0.1c0.1,0,0.1-0.1,0.1-0.2c0-0.2-0.1-0.3-0.2-0.3l-0.8,0.2
					c-1.1,0.3-2.3,0.4-3.5,0.5c-2.3,0.2-4.7,0.2-7,0.1s-4.7,0-7-0.5c-1.2-0.2-2.3-0.4-3.4-0.7c-0.1,0-0.1,0-0.2-0.1
					c0,0-0.1,0-0.2-0.1c-0.1,0-0.3,0-0.4,0s-0.1,0-0.1,0l0,0c0,0.1,0,0.2,0,0.3c0.2,0.3,0.9,0.5,1.4,0.7l0,0h0.1
					c0.1,0,0.2,0.1,0.2,0.2v1.1v-0.1l0,0c0,0.1,0,0.3-0.2,0.3c-0.1,0-0.1,0-0.2,0l0,0c-0.3-0.1-0.6-0.3-0.8-0.3c-0.1,0-0.2,0-0.3,0
					c0,0,0,0,0,0.1s0.1,0.2,0.2,0.3c0.1,0.1,0.1,0.1,0.3,0.2l0.8,0.4c0.1,0.1,0.2,0.2,0.1,0.3v0.1l0,0l0.1-0.2
					c0.1,1.1,0.1,2.2,0.1,3.3c0.1,1.1,0.1,2.2,0.2,3.3L382.2,310z"/>
			</g>
			<g>
				<path d="M380.7,310.2c0.2,0.9,0.6,1.6,1,2.5c0.2,0.4,0.3,0.9,0.4,1.3s0.2,0.9,0.4,1.3c0.3,0.8,0.7,1.6,1.1,2.4s1,1.5,1.7,2l0,0
					v0.1l-0.2,0.1c-0.1-0.9-0.1-1.7-0.1-2.6s0-1.7,0-2.6l0.1,0.2l0,0l0.1,0.1c-1-0.4-2-1-2.8-1.7V313c0-0.3-0.1-0.6-0.1-0.9v-1h0.3
					l0.1,1.1c0,0.4,0,0.8,0,1.1V313c0.8,0.7,1.7,1.2,2.6,1.6l0,0c0,0,0.1,0,0.1,0.1l0,0l0,0c0,0,0.1,0.1,0,0.1
					c-0.1,1.7-0.2,3.5,0,5.2c0,0.1,0,0.1-0.1,0.1h-0.1V320l0,0c-0.8-0.5-1.4-1.2-1.9-2s-0.9-1.6-1.3-2.4c-0.2-0.4-0.3-0.9-0.4-1.3
					c-0.1-0.5-0.2-0.9-0.3-1.3c-0.3-0.8-0.7-1.7-0.8-2.6L380.7,310.2z"/>
			</g>
			<g>
				<path d="M401,302.7c0-0.3-0.1-0.7-0.1-1l0.2,0.1c-1.5,0.3-3.1,0.3-4.6,0.4s-3.1,0.1-4.6,0l-4.6-0.1c-1.5,0-3.1,0.1-4.6-0.4
					l0.2-0.1v1.1c0,0.1,0,0.1-0.1,0.1l0,0v-0.2c1.4,0.5,3,0.5,4.5,0.5l4.6,0.1c1.5,0,3.1,0,4.6,0c0.8,0,1.5-0.1,2.3-0.1l1.1-0.1
					l0.6-0.1h0.3L401,302.7L401,302.7z M401.2,302.9c-0.1,0.1-0.2,0-0.2,0.1h-0.1h-0.3l-0.6,0.1l-1.1,0.1c-0.8,0.1-1.5,0.1-2.3,0.2
					c-1.5,0.1-3.1,0.1-4.6,0.1l-4.6-0.1c-1.5-0.1-3.1,0-4.6-0.5c-0.1,0-0.1-0.1-0.1-0.1l0.1-0.1l0,0l-0.1,0.1v-1.1
					c0-0.1,0-0.1,0.1-0.1l0,0c1.4,0.5,3,0.4,4.5,0.4h4.6c3.1,0,6.1,0,9.1-0.4l0,0c0.1,0,0.1,0,0.1,0.1l0,0
					C401.2,302.1,401.2,302.5,401.2,302.9L401.2,302.9z"/>
			</g>
		</g>
		<g>
			<path d="M390.2,305.4c0,0.7,0,1.4,0.1,2.1c0,0.4,0,0.7-0.1,1.1s-0.1,0.7-0.4,1.1l0,0c-0.1,0.3-0.3,0.7-0.2,0.9
				c0,0.1,0.1,0.2,0.3,0.2c0.1,0,0.3,0,0.5,0.1c0.4,0,0.8,0,1.1,0c0.4,0,0.8-0.1,1.2-0.1c-0.8,0.2-1.5,0.4-2.3,0.5
				c-0.2,0-0.4,0-0.6,0s-0.5-0.2-0.6-0.5c-0.2-0.5,0-0.9,0.2-1.3l0,0l0,0c0.2-0.2,0.3-0.6,0.4-0.9s0.2-0.7,0.2-1
				C390,306.8,390.1,306.1,390.2,305.4z"/>
		</g>
		<line class="offense-4" x1="393.6" y1="307.4" x2="397.2" y2="307.3"/>
		<line class="offense-4" x1="388.8" y1="307.3" x2="385.5" y2="307.4"/>
		<path class="offense-3" d="M397.7,316.5c-0.4,1-2.8,3.8-3.3,4.1"/>
		<path class="offense-3" d="M386.1,318.1c0.7,1.4,0.9,2.1,1.6,2.5"/>
		<g>
			<path class="offense-3" d="M385,311.3c-0.3-3-0.6-6.5-0.6-7"/>
			<path class="offense-3" d="M389.2,316.6c-1.1-0.2-2.2-0.6-3-1.5"/>
			<path class="offense-3" d="M393.3,316.4c-1.1,0.4-2.2,0.4-3.2,0.3"/>
			<path class="offense-3" d="M395.8,315c-0.5,0.4-1,0.8-1.6,1"/>
			<path class="offense-3" d="M397.5,312.9c-0.2,0.4-0.3,0.6-0.5,0.9"/>
			<path class="offense-3" d="M399.7,304.2c0,0-0.3,4.3-1.5,7.4"/>
		</g>
		<g>
			<g>
				<path d="M402.2,308c0.1-0.1,0.3-0.3,0.5-0.2c0.2,0,0.4,0.1,0.5,0.3c0.3,0.4,0.1,0.8,0,1.1c-0.3,0.6-0.6,1.2-1,1.8
					c-0.4,0.6-1,1-1.7,1.3c-0.6,0.3-1.3,0.4-2,0.6c-0.1,0-0.2-0.1-0.2-0.2v-0.1l0,0c0-0.1,0.1-0.2,0.3-0.1c0.1,0,0.1,0.1,0.1,0.2
					l0.1,1l0,0v0.1l-0.2-0.2c0.6-0.1,1.1-0.2,1.6-0.5c0.3-0.1,0.5-0.3,0.7-0.4s0.4-0.3,0.6-0.5l0.1,0.1l0,0l0,0c0,0-0.1,0-0.1-0.1
					c0-0.2,0-0.4,0-0.7h0.1c0,0.2,0,0.4,0.1,0.7l-0.1-0.1l0,0c0,0,0.1,0,0.1,0.1l0,0l0,0c-0.1,0.3-0.3,0.5-0.5,0.7s-0.5,0.3-0.8,0.5
					c-0.5,0.2-1.1,0.4-1.7,0.5c-0.1,0-0.2,0-0.2-0.2v-0.1l0,0l-0.1-1h0.4l0,0l-0.2-0.3c1.3-0.2,2.7-0.6,3.4-1.7
					c0.4-0.5,0.7-1.1,1-1.7c0.1-0.3,0.3-0.6,0.2-0.8c-0.1-0.3-0.5-0.4-0.7-0.1L402.2,308z"/>
			</g>
			<g>
				<path d="M402.5,310.3c0.1,0.7,0.1,1.4,0.2,2.1v0.1l0,0c-0.2,0.3-0.4,0.7-0.7,1c-0.3,0.3-0.6,0.5-1,0.7c-0.7,0.4-1.5,0.5-2.3,0.7
					l0.1-0.1l-0.1,0.1v-0.1c0,1.3,0,2.7,0,4l-0.2-0.1c1.3-0.9,2.4-2.2,3-3.7c0.7-1.4,1.1-3,1.4-4.6h0.3c0,0.8-0.2,1.6-0.4,2.4
					c-0.2,0.8-0.5,1.6-0.9,2.3c-0.8,1.5-2,2.7-3.3,3.7c-0.1,0-0.1,0-0.2,0v-0.1l0,0c0-1.3-0.1-2.6-0.1-4v-0.1l0,0v-0.1
					c0-0.1,0.1-0.1,0.1-0.1l0,0c0.7-0.2,1.5-0.4,2.1-0.7c0.3-0.2,0.6-0.4,0.9-0.6c0.3-0.3,0.4-0.5,0.7-0.9v0.1c0-0.7,0-1.4,0-2.1
					L402.5,310.3z"/>
			</g>
			<g>
				<path d="M394.2,313.1c0.1,0.4,0.1,0.7,0.2,1l-0.2-0.2c0.6-0.1,1.1-0.1,1.7-0.1s1.1,0,1.7-0.1l-0.1,0.1c0-0.4,0-0.7-0.1-1.1
					l0.1,0.1c-0.6,0.1-1.1,0.2-1.7,0.2h-0.9c-0.1,0-0.3,0-0.4,0h-0.2L394.2,313.1L394.2,313.1C394.1,313.1,394.2,313.1,394.2,313.1z
					 M394,312.9h0.1h0.1h0.1h0.2h0.4l0.9-0.1c0.6,0,1.1,0,1.7-0.1l0,0c0.1,0,0.1,0,0.1,0.1l0,0c0,0.4,0,0.7,0,1.1
					c0,0.1,0,0.1-0.1,0.1c-0.6,0-1.1,0.1-1.7,0.2s-1.2,0.1-1.7,0.1l0,0c-0.1,0-0.2-0.1-0.2-0.2l0,0C394,313.7,394,313.3,394,312.9
					L394,312.9z"/>
			</g>
			<g>
				<path d="M394.4,320.5l0.8-0.3c0.3-0.1,0.6-0.2,0.8-0.3c0.5-0.2,1.1-0.5,1.6-0.8l-0.1,0.2c0-1.5,0.1-3,0-4.5v0.1v-0.1l0.1,0.1
					l-1.7,0.1l-1.7,0.1l0.2-0.2c0,0.9,0.1,1.9,0.1,2.8S394.5,319.6,394.4,320.5L394.4,320.5L394.4,320.5L394.4,320.5z M394.3,320.9
					c-0.1,0-0.1-0.1-0.1-0.1l0,0l0,0c-0.1-0.9-0.1-1.9-0.1-2.8c-0.1-0.9,0-1.9,0-2.8l0,0c0-0.1,0.1-0.2,0.2-0.2
					c1.1,0,2.3-0.1,3.4-0.2c0,0,0.1,0,0.1,0.1v0.1v0.1c0,1.5,0.1,3,0.2,4.5c0,0.1,0,0.2-0.1,0.2l0,0c-0.5,0.3-1.1,0.6-1.7,0.8
					C395.6,320.6,395,320.7,394.3,320.9L394.3,320.9z"/>
			</g>
			<g>
				<path d="M390.2,315.4c0,0.5,0.1,0.9,0.1,1.3l0.1,1.4c0,0.5,0.1,0.9,0.1,1.4s0,0.9,0,1.4l-0.2-0.2c1,0.1,2,0.1,3,0l-0.1,0.1
					c0-1,0-1.9-0.1-2.9c0-1-0.1-1.9-0.1-2.9l0.2,0.2h-1.5L390.2,315.4L390.2,315.4z M390,315.2l1.6-0.2l1.6-0.1
					c0.1,0,0.2,0.1,0.2,0.2l0,0c0,1,0,1.9,0,2.9s0,1.9,0,2.9c0,0.1,0,0.1-0.1,0.1l0,0c-1,0.2-2,0.2-3.1,0.2c-0.1,0-0.2-0.1-0.2-0.2
					c-0.1-0.9-0.2-1.9-0.2-2.9c0-0.5,0-0.9,0-1.5C389.9,316.2,390,315.7,390,315.2L390,315.2z"/>
			</g>
			<g>
				<path d="M390.2,314.1c0.5-0.1,1-0.1,1.5-0.2c0.5,0,0.9,0,1.5,0l-0.1,0.1c0-0.4,0-0.7,0-1.1l0.1,0.1c-0.5,0-1,0.1-1.5,0.1
					c-0.5,0.1-1,0.1-1.5,0.1l0.2-0.2C390.3,313.5,390.3,313.8,390.2,314.1L390.2,314.1z M390,314.3c0-0.3-0.1-0.7-0.1-1.1
					c0-0.1,0.1-0.2,0.1-0.2l0,0c0.5-0.1,1-0.1,1.5-0.1s1,0,1.5,0c0.1,0,0.1,0,0.1,0.1c0,0.4,0.1,0.7,0.1,1.1c0,0.1,0,0.1-0.1,0.1
					l0,0l0,0c-0.5,0-1.1,0.1-1.6,0.1C391.1,314.4,390.5,314.3,390,314.3L390,314.3z"/>
			</g>
			<g>
				<path d="M386.3,313c0,0.3,0,0.6,0,0.9l-0.2-0.2l0,0l0,0l0,0c0.5,0.1,1,0.2,1.5,0.3c0.5,0.1,1,0.1,1.5,0.2l-0.1,0.1
					c0-0.4,0-0.7,0-1.1l0.1,0.1c-0.5,0-1,0-1.5,0c-0.5-0.1-1-0.2-1.5-0.3l0.2-0.1V313L386.3,313z M386,313L386,313v-0.1
					c0-0.1,0-0.1,0.1-0.1l0,0l0,0c0.5,0.1,1,0.2,1.5,0.2s1,0.1,1.5,0.1l0,0c0.1,0,0.1,0.1,0.1,0.1l0,0c0,0.4,0,0.7,0,1.1
					c0,0.1,0,0.1-0.1,0.1l0,0c-0.5,0-1,0-1.6,0c-0.5,0-1-0.1-1.5-0.3l0,0l0,0l0,0c-0.1,0-0.2-0.1-0.2-0.2
					C386,313.6,386,313.3,386,313z"/>
			</g>
			<g>
				<path d="M386.2,314.9c0,0.1,0,0.2,0,0.3v0.2v0.3v0.7v1.3c0,0.9,0.1,1.8,0.1,2.7l-0.1-0.2l0.7,0.2l0.8,0.1l1.5,0.2l0,0h0.1
					l-0.1,0.2c0-0.9-0.1-1.9-0.2-2.8l-0.1-1.4c0-0.5,0-0.9,0-1.4l0.2,0.2c-0.5,0-1.1,0-1.6-0.1c-0.3,0-0.5-0.1-0.8-0.1l-0.4-0.1
					l-0.2-0.1H386l0,0l0,0l0,0l0,0l0,0C386,315.1,386.2,314.5,386.2,314.9L386.2,314.9C386.2,314.8,386.2,314.8,386.2,314.9
					L386.2,314.9z M386,315C386,315,386,315.1,386,315L386,315c0,0.3,0.2-0.3,0.2-0.2l0,0l0,0l0,0l0,0l0,0h0.1h0.2l0.4,0.1l0.8,0.1
					c0.5,0,1,0.1,1.5,0.1c0.1,0,0.2,0.1,0.2,0.2l0,0c0,0.5,0,0.9,0,1.4v1.4c0,0.9,0.1,1.9,0.1,2.8l0,0c0,0.1-0.1,0.1-0.1,0.1h-0.1
					l0,0l-1.6-0.2l-0.8-0.1l-0.8-0.2c-0.1,0-0.1-0.1-0.1-0.1l0,0c-0.2-0.9-0.2-1.8-0.2-2.7c0-0.5,0-0.9,0-1.4c0-0.2,0-0.5,0-0.7
					v-0.3L386,315C385.9,315.1,385.9,315.1,386,315L386,315z"/>
			</g>
			<g>
				<path d="M383.4,310.3c1.1,0.9,2.7,1.4,4.3,1.6c1.5,0.2,3.1,0,4.7-0.1s3.2-0.1,4.7-0.2c0.8-0.1,1.6-0.2,2.3-0.4
					c0.7-0.2,1.4-0.6,1.8-1.2l0.2,0.3l0,0c-0.1,0-0.2-0.1-0.2-0.2l0,0L401,304l0.2,0.1c-1.5,0.3-3.1,0.4-4.6,0.4
					c-1.5,0.1-3.1,0.1-4.6,0.1h-4.6c-1.5,0-3.1,0.1-4.6-0.4h0.1l0,0l0.2-0.2l0.2,3.2l0.1,1.6C383.4,309.2,383.4,309.8,383.4,310.3
					L383.4,310.3z M383.1,310.4c-0.1-0.6-0.1-1.1-0.2-1.7l-0.1-1.6l-0.3-3.2c0-0.1,0.1-0.2,0.2-0.2l0,0h0.1l0,0
					c1.4,0.5,3,0.3,4.5,0.4l4.6,0.1c3.1,0.1,6.1,0.1,9.1-0.4c0.1,0,0.2,0,0.2,0.1l0,0l0.3,6.1l-0.2-0.2l0,0c0.1,0,0.2,0.1,0.2,0.2
					v0.1c-0.4,0.7-1.2,1.2-2,1.4c-0.8,0.2-1.6,0.4-2.4,0.4c-1.6,0.2-3.2,0.2-4.8,0.3c-1.6,0-3.2,0.2-4.8,0
					C386,312.1,384.4,311.6,383.1,310.4L383.1,310.4z"/>
			</g>
			<g>
				<path d="M383.4,311.6c0,0.3,0.1,0.6,0.1,0.9v-0.1c0.3,0.2,0.6,0.3,0.9,0.5s0.6,0.3,0.9,0.5l-0.2,0.4l0,0c-0.1,0-0.1-0.1-0.1-0.2
					v-1c0-0.1,0.1-0.2,0.2-0.2s0.1,0,0.2,0.1l0,0c0.1,0.1,0,0.2-0.1,0.3c-0.1,0-0.1,0-0.2,0c-1.3-0.4-2.5-1.2-3.4-2.3
					c-0.2-0.3-0.4-0.6-0.6-0.9c-0.1-0.2-0.2-0.3-0.2-0.5c-0.1-0.1-0.2-0.4-0.1-0.6c0-0.2,0.2-0.4,0.4-0.5c0.2-0.1,0.5,0,0.6,0.2
					c0.1,0.1,0.1,0.2,0.1,0.3c0,0.1,0.1,0.2,0.1,0.2c0.1,0.2,0.1,0.3,0.2,0.5h-0.1c-0.1-0.1-0.2-0.3-0.3-0.4
					c-0.1-0.2-0.2-0.3-0.3-0.4c-0.1-0.1-0.2-0.1-0.3,0c-0.1,0-0.2,0.1-0.2,0.2c0,0.2,0.2,0.5,0.3,0.8c0.2,0.3,0.4,0.5,0.6,0.8
					c0.8,1,2,1.7,3.2,2.2l-0.2,0.3l0,0l0.4-0.1v1l-0.1-0.2l0,0c0.1,0,0.1,0.2,0.1,0.3c0,0.1-0.2,0.1-0.3,0.1c-0.3-0.1-0.7-0.3-1-0.5
					s-0.6-0.4-0.8-0.7v-0.1v-0.1c0-0.3,0-0.6,0-0.8L383.4,311.6z"/>
			</g>
			<g>
				<path d="M382.2,310c0-1.1-0.2-2.2-0.3-3.3c-0.1-1.1-0.3-2.2-0.4-3.2c0-0.1,0-0.1,0.1-0.2l0,0l0.1,0.4l-0.9-0.4
					c-0.1,0-0.4-0.2-0.5-0.3c-0.1-0.1-0.2-0.3-0.3-0.5c0-0.1,0-0.2,0-0.3c0-0.1,0.1-0.3,0.2-0.4c0.2-0.1,0.4-0.1,0.6-0.1
					c0.4,0.1,0.6,0.2,0.9,0.3l-0.3,0.3l0,0c0,0,0,0,0-0.1v-1.1l0.2,0.2h-0.1l0,0l-0.8-0.3c-0.3-0.1-0.6-0.3-0.8-0.6
					c-0.1-0.2-0.1-0.4-0.1-0.6c0-0.1,0.2-0.3,0.3-0.3c0.1-0.1,0.2-0.1,0.3-0.1c0.2,0,0.3,0,0.5,0.1c0.1,0,0.2,0,0.3,0.1
					c0,0,0.1,0,0.2,0c1.1,0.3,2.3,0.5,3.4,0.7c2.3,0.4,4.6,0.4,6.9,0.5s4.6,0.1,6.9-0.1c1.2-0.1,2.3-0.3,3.4-0.5
					c0.3-0.1,0.5-0.1,0.9-0.2c0.5,0,0.8,0.5,0.8,0.9c0,0.2-0.1,0.4-0.3,0.5c-0.1,0.1-0.2,0.1-0.3,0.1h-0.2l-0.9,0.2v-0.5l0,0
					c0.1,0,0.2,0.1,0.2,0.2v1.1v0.1l0,0l-0.3-0.4l1-0.2c0.1,0,0.5-0.1,0.7,0s0.4,0.4,0.4,0.6c0,0.3-0.1,0.5-0.3,0.7
					c-0.3,0.2-0.4,0.1-0.6,0.2c-0.3,0.1-0.7,0.2-1,0.2l0.2-0.2c0,1.9,0,3.7,0.1,5.6h-0.1c-0.1-1.9-0.2-3.7-0.4-5.6
					c0-0.1,0.1-0.2,0.2-0.2l0,0c0.3-0.1,0.7-0.2,1-0.3c0.2,0,0.4-0.1,0.4-0.1c0.1,0,0.1-0.1,0.1-0.2s-0.1-0.2-0.1-0.2
					c-0.1,0-0.1,0-0.3,0l-1,0.2c-0.1,0-0.3-0.1-0.3-0.2s0-0.1,0-0.2l0,0l0,0v0.1v-1.1l0.2,0.2l0,0c-0.1,0-0.2-0.1-0.2-0.3
					c0-0.1,0.1-0.2,0.2-0.2l0,0l0.8-0.2c0.1,0,0.3-0.1,0.3-0.1c0.1,0,0.1-0.1,0.1-0.2c0-0.2-0.1-0.3-0.2-0.3l-0.8,0.2
					c-1.1,0.3-2.3,0.4-3.5,0.5c-2.3,0.2-4.7,0.2-7,0.1s-4.7,0-7-0.5c-1.2-0.2-2.3-0.4-3.4-0.7c-0.1,0-0.1,0-0.2-0.1
					c0,0-0.1,0-0.2-0.1c-0.1,0-0.3,0-0.4,0s-0.1,0-0.1,0l0,0c0,0.1,0,0.2,0,0.3c0.2,0.3,0.9,0.5,1.4,0.7l0,0h0.1
					c0.1,0,0.2,0.1,0.2,0.2v1.1v-0.1l0,0c0,0.1,0,0.3-0.2,0.3c-0.1,0-0.1,0-0.2,0l0,0c-0.3-0.1-0.6-0.3-0.8-0.3c-0.1,0-0.2,0-0.3,0
					c0,0,0,0,0,0.1s0.1,0.2,0.2,0.3c0.1,0.1,0.1,0.1,0.3,0.2l0.8,0.4c0.1,0.1,0.2,0.2,0.1,0.3v0.1l0,0l0.1-0.2
					c0.1,1.1,0.1,2.2,0.1,3.3c0.1,1.1,0.1,2.2,0.2,3.3L382.2,310z"/>
			</g>
			<g>
				<path d="M380.7,310.2c0.1,0.9,0.5,1.7,0.8,2.5c0.2,0.4,0.2,0.9,0.4,1.3c0.1,0.4,0.3,0.8,0.5,1.2c0.4,0.8,0.7,1.6,1.2,2.4
					c0.4,0.8,1,1.5,1.7,2l0,0v0.1l-0.2,0.1c-0.1-0.9-0.1-1.7-0.1-2.6s0-1.7,0-2.6l0.1,0.2l0,0l0.1,0.1c-1-0.4-2-1-2.8-1.7v-0.3
					c0-0.3-0.1-0.6-0.1-0.9v-1h0.3l0.1,1.1c0,0.4,0,0.8,0,1.1v-0.3c0.8,0.7,1.7,1.2,2.6,1.6l0,0c0,0,0.1,0,0.1,0.1l0,0l0,0
					c0,0,0.1,0.1,0,0.1c-0.1,1.7-0.2,3.5,0,5.2c0,0.1,0,0.1-0.1,0.1h-0.1v-0.1l0,0c-0.8-0.5-1.4-1.2-1.9-2s-0.9-1.6-1.3-2.4
					c-0.2-0.4-0.4-0.8-0.5-1.3s-0.2-0.9-0.3-1.3C380.9,312.1,380.6,311.2,380.7,310.2L380.7,310.2z"/>
			</g>
			<g>
				<path d="M401,302.7c0-0.3-0.1-0.7-0.1-1l0.2,0.1c-1.5,0.3-3.1,0.3-4.6,0.4s-3.1,0.1-4.6,0l-4.6-0.1c-1.5,0-3.1,0.1-4.6-0.4
					l0.2-0.1v1.1c0,0.1,0,0.1-0.1,0.1l0,0v-0.2c1.4,0.5,3,0.5,4.5,0.5l4.6,0.1c1.5,0,3.1,0,4.6,0c0.8,0,1.5-0.1,2.3-0.1l1.1-0.1
					l0.6-0.1h0.3L401,302.7L401,302.7z M401.2,302.9c-0.1,0.1-0.2,0-0.2,0.1h-0.1h-0.3l-0.6,0.1l-1.1,0.1c-0.8,0.1-1.5,0.1-2.3,0.2
					c-1.5,0.1-3.1,0.1-4.6,0.1l-4.6-0.1c-1.5-0.1-3.1,0-4.6-0.5c-0.1,0-0.1-0.1-0.1-0.1l0.1-0.1l0,0l-0.1,0.1v-1.1
					c0-0.1,0-0.1,0.1-0.1l0,0c1.4,0.5,3,0.4,4.5,0.4h4.6c3.1,0,6.1,0,9.1-0.4l0,0c0.1,0,0.1,0,0.1,0.1l0,0
					C401.2,302.1,401.2,302.5,401.2,302.9L401.2,302.9z"/>
			</g>
		</g>
		<g>
			<path d="M390.2,305.4c0,0.7,0,1.4,0.1,2.1c0,0.4,0,0.7-0.1,1.1s-0.1,0.7-0.4,1.1l0,0c-0.1,0.3-0.3,0.7-0.2,0.9
				c0,0.1,0.1,0.2,0.3,0.2c0.1,0,0.3,0,0.5,0.1c0.4,0,0.8,0,1.1,0c0.4,0,0.8-0.1,1.2-0.1c-0.8,0.2-1.5,0.4-2.3,0.5
				c-0.2,0-0.4,0-0.6,0s-0.5-0.2-0.6-0.5c-0.2-0.5,0-0.9,0.2-1.3l0,0l0,0c0.2-0.2,0.3-0.6,0.4-0.9s0.2-0.7,0.2-1
				C390,306.8,390.1,306.1,390.2,305.4z"/>
		</g>
		<line class="offense-4" x1="393.6" y1="307.4" x2="397.2" y2="307.3"/>
		<line class="offense-4" x1="388.8" y1="307.3" x2="385.5" y2="307.4"/>
		<path class="offense-3" d="M397.7,316.5c-0.4,1-2.8,3.8-3.3,4.1"/>
		<path class="offense-3" d="M386.1,318.1c0.7,1.4,0.9,2.1,1.6,2.5"/>
		<path class="offense-3" d="M415.2,363.8c1.3,0,4.4,0.4,5.6,3.1c0.9,2,0.5,4.4,0.1,5.3"/>
		<g>
			<path d="M407.1,372.6c1.4-0.3,2.7-0.8,4-1.3c1.3-0.6,2.5-1.3,3.8-2l0.1,0.1l-1.8,1.2c-0.6,0.4-1.2,0.8-1.9,1.1
				c-1.3,0.7-2.7,1.2-4.1,1.6L407.1,372.6z"/>
		</g>
		<g>
			<path d="M408.6,375.1c1.2-0.3,2.5-0.8,3.7-1.2c0.6-0.2,1.2-0.5,1.8-0.8c0.6-0.3,1.2-0.5,1.7-0.9l0.1,0.1
				c-0.5,0.5-1.1,0.8-1.7,1.1c-0.6,0.3-1.2,0.6-1.8,0.9c-1.2,0.6-2.4,1.1-3.7,1.6L408.6,375.1z"/>
		</g>
		<g>
			<path d="M410.5,377.3c0.7-0.1,1.4-0.4,2-0.6c0.7-0.2,1.4-0.5,2-0.8c0.7-0.3,1.3-0.6,1.9-0.9s1.2-0.7,1.7-1.2l0.1,0.1
				c-0.5,0.6-1.1,1-1.7,1.4s-1.3,0.7-1.9,1.1c-0.7,0.3-1.3,0.6-2,0.9s-1.3,0.6-2.1,0.8V377.3z"/>
		</g>
		<g>
			<path d="M410.4,340.2c0.5,0.2,1.3,0.3,2,0.4s1.4,0.2,2.1,0.2c0.7,0.1,1.4,0.1,2.1,0.1s1.4,0,2.1-0.1l0.1,0.2
				c-0.7,0.3-1.4,0.3-2.2,0.4c-0.7,0-1.4,0.1-2.2,0.1c-0.7,0-1.4,0-2.2-0.1c-0.7-0.1-1.4-0.1-2.2-0.3L410.4,340.2z"/>
		</g>
		<g>
			<path d="M418.3,361.3c1-0.4,1.9-0.2,2.8,0.1c0.8,0.4,1.6,0.8,2.4,1.3c0.4,0.2,0.7,0.5,1.1,0.8s0.7,0.6,1,1
				c0.6,0.8,0.7,1.9,0.4,2.8l-0.6-0.1c0-0.8-0.2-1.5-0.6-2.2c-0.2-0.4-0.4-0.7-0.6-1c-0.1-0.2-0.3-0.3-0.5-0.4s-0.3-0.3-0.5-0.4
				c-0.7-0.4-1.5-0.7-2.4-0.8c-0.8-0.2-1.6-0.4-2.4-0.5L418.3,361.3z"/>
		</g>
		<g>
			<path d="M356.3,348.6c-0.1-0.5-0.1-0.9-0.2-1.3s-0.1-0.8-0.2-1.2c-0.2-0.8-0.5-1.7-1.1-2.1l0.1-0.2c0.4,0.2,0.7,0.6,1,0.9
				c0.3,0.4,0.4,0.8,0.6,1.2c0.2,0.4,0.3,0.8,0.4,1.3c0.1,0.4,0.2,0.9,0.4,1.2L356.3,348.6z"/>
		</g>
		<g>
			<path d="M365.1,367.2c-0.5,0.2-1.1,0.4-1.2,0.8c-0.2,0.4,0,1,0.1,1.6s0.2,1.1,0.2,1.7c0.1,0.6,0.1,1.3-0.2,1.8
				c-0.6,1.1-1.6,1.7-2.5,2.5c-0.1,0.1-0.2,0.2-0.3,0.3c-0.1,0.1-0.2,0.2-0.3,0.3c-0.3,0.2-0.6,0.3-0.9,0.4c-0.6,0.1-1.3,0-1.8-0.3
				l0.1-0.2c0.5,0.2,1.1,0.2,1.6,0.1c0.3-0.1,0.5-0.2,0.7-0.3c0.1-0.1,0.4-0.4,0.7-0.6c1-0.6,2-1.2,2.5-2.2c0.3-0.5,0.3-1,0.2-1.6
				l-0.4-1.7c-0.1-0.6-0.3-1.2,0-1.8c0.1-0.3,0.4-0.6,0.7-0.7c0.3-0.1,0.6-0.2,0.9-0.3L365.1,367.2z"/>
		</g>
		<g>
			<path d="M420.4,373c0.1-1,0.1-2-0.2-3c-0.3-0.9-0.8-1.9-1.7-2.4c-0.8-0.6-1.8-1-2.8-1.2c-0.1,0-0.3,0-0.5-0.2
				c-0.1-0.1-0.1-0.2-0.1-0.4c0-0.1,0-0.2,0.1-0.3c0.1-0.3,0.3-0.5,0.5-0.7s0.3-0.4,0.4-0.6s0.1-0.2-0.1-0.3l0.1-0.3
				c0.1,0,0.3,0,0.5,0.3c0.1,0.2,0,0.4,0,0.5c-0.1,0.3-0.3,0.5-0.5,0.7s-0.3,0.4-0.4,0.6c0,0.1,0,0.1,0,0.1s0.1,0,0.3,0.1
				c1,0.3,2,0.8,2.9,1.4s1.6,1.5,2,2.5c0.3,1,0.4,2.2,0.1,3.2L420.4,373z"/>
		</g>
		<g>
			<path d="M361.1,329.4c0.1,1,0.2,2,0.5,2.9c0.1,0.5,0.3,0.9,0.5,1.4c0.2,0.4,0.5,0.8,1,1.1l-0.1,0.1c-0.5-0.2-0.8-0.7-1.1-1.1
				c-0.3-0.4-0.5-0.9-0.7-1.4c-0.3-1-0.6-2-0.7-3H361.1z"/>
		</g>
		<g>
			<path d="M373.7,384c-1.2-0.7-2.4-1.5-3.5-2.4s-2.1-1.9-2.8-3.1l0.1-0.1c0.7,1.2,1.8,2.1,2.9,2.9s2.3,1.6,3.5,2.2L373.7,384z"/>
		</g>
		<g>
			<path d="M371.6,385.5c-1.1-0.6-2.2-1.4-3.2-2.2c-1-0.8-1.9-1.7-2.6-2.8l0.1-0.1c0.7,1.1,1.7,1.9,2.7,2.7c1,0.7,2.1,1.4,3.2,2
				L371.6,385.5z"/>
		</g>
		<g>
			<path d="M368.2,386.3c-1-0.7-1.8-1.5-2.6-2.4c-0.8-0.9-1.5-1.8-2-2.9l0.1-0.1c0.6,1,1.3,1.9,2.1,2.7c0.8,0.8,1.7,1.5,2.7,2.2
				L368.2,386.3z"/>
		</g>
		<g>
			<path d="M419.2,354.9c0.6,0,1.3-0.3,2-0.5c0.7-0.3,1.4-0.5,2.1-0.9c0.7-0.3,1.4-0.6,2-1c0.7-0.4,1.3-0.7,1.9-1.2l0.2,0.2
				c-0.6,0.6-1.2,1-1.9,1.4c-0.6,0.4-1.3,0.8-2,1.2c-0.7,0.4-1.4,0.7-2.1,1s-1.4,0.7-2.3,0.8L419.2,354.9L419.2,354.9z"/>
		</g>
		<g>
			<path class="offense-5" d="M354.5,368.3c0.1-0.6,0.3-1.5,0.8-2.1s1.1-1.1,1.7-1.5c0.3-0.2,0.6-0.4,0.9-0.6s0.6-0.4,1-0.6
				c0.7-0.3,1.4-0.5,2.2-0.5l0.1,0.4c-0.3,0.2-0.7,0.3-1,0.4s-0.7,0.2-1,0.3c-0.7,0.2-1.3,0.5-1.9,0.9s-1,1-1.3,1.6
				c-0.4,0.6-0.6,1.2-1,1.9L354.5,368.3z"/>
		</g>
		<g>
			<path d="M363,366.5c-0.7,0.4-1.3,1-1.9,1.6s-1.2,1.2-1.6,2s-0.6,1.6-0.8,2.5c-0.2,0.8-0.4,1.7-0.4,2.5H358
				c-0.2-0.9,0-1.8,0.3-2.7c0.3-0.8,0.7-1.6,1-2.4c0.4-0.8,0.9-1.6,1.5-2.2s1.3-1.3,2.2-1.5L363,366.5z"/>
		</g>
		<g>
			<path d="M391.1,322.5c0,0.8,0.1,1.6,0.1,2.5c0,0.8,0,1.7-0.1,2.5s-0.2,1.7-0.4,2.5c-0.1,0.4-0.3,0.8-0.5,1.2l-0.5,0.5
				c-0.2,0.1-0.4,0.3-0.6,0.4c0.1-0.2,0.2-0.4,0.2-0.6l0.1-0.6c0.2-0.3,0.3-0.7,0.4-1.1c0.2-0.8,0.3-1.5,0.4-2.3s0.1-1.6,0.1-2.4
				s-0.1-1.6-0.1-2.5h0.9V322.5z"/>
		</g>
		<path class="offense-6" d="M402.2,315.9c1.2,1.2,2.2,3.8,1.9,4.7s-3.4,8.8-4.1,8.8s-8.2-5-9.3-6"/>
		<g>
			<path d="M404.6,319.9c1.1,1.1,2.1,2.1,3.2,3.1c0.5,0.5,1.1,1,1.7,1.5c0.3,0.2,0.6,0.5,0.9,0.7c0.2,0.3,0.4,0.6,0.7,0.9
				c-0.4,0-0.8-0.2-1.2-0.3c-0.3-0.2-0.6-0.5-0.9-0.7c-0.6-0.5-1.1-1-1.7-1.5c-1.1-1-2.2-2.1-3.2-3.2L404.6,319.9z"/>
		</g>
		<path class="offense-3" d="M400.4,330.6c0.2-0.2,0.3-0.2,0.5,0c0.3,0.3,0.6,0.3,1.3,0.3v3.4l-1.5,0.9l-1.6-0.8l0.1-3.5
			C399.5,330.9,400.2,330.8,400.4,330.6z"/>
		<line class="offense-3" x1="399" y1="331.5" x2="390.8" y2="326.2"/>
		<line class="offense-3" x1="406.3" y1="322.2" x2="401.5" y2="330.9"/>
		<line class="offense-3" x1="399" y1="333.4" x2="390.7" y2="328"/>
		<line class="offense-3" x1="408" y1="323.8" x2="402.2" y2="332.6"/>
		<path class="offense-3" d="M405.1,320.6c1.4-0.4,3.8-2.1,6.3-2.8c2.4-0.7,4.9-1.4,6.5,0.1"/>
		<path class="offense-3" d="M409,324.7c1.3-0.3,5-2.1,6.1-2.5s1.8,0.4,2.1,0.7s1.6,0.3,1.6,0.3"/>
		<path class="offense-3" d="M390.7,323.8c0,0-8.5-0.5-10.2,0s-7.2,2.7-8.8,3.2s-2.8,0-4.2,0.9c-0.8,0.5-2.1,1.8-2.4,3.6"/>
		<path class="offense-3" d="M390.7,327.6c-0.6,0.6-1.2,0.9-2.7,0.9s-4.8,0.1-7,0.8s-5,1.7-7.4,2.2s-3.1,0.7-3.7,1.3"/>
		<path class="offense-3" d="M363.1,330.6c0.4,0.1,0.5-2.4,0.5-3s-0.2-2.6-0.7-3.8c-0.5-1.2-1-2.8-0.5-4.2"/>
		<path class="offense-3" d="M364.1,318.4c2.2-0.4,5.6,0.6,7.5,1.8s4,3.4,3.6,3.6c-0.6,0.3-1.1,1-3,1.5s-3,0.2-4.6,0.6s-2.1,1.7-2.4,2.1
			c-0.3,0.5-0.2-1.3-0.6-3s-1-5.7-1-6.2"/>
		<g>
			<path class="offense-7" d="M374.8,312.9l1.6,0.8l-1.4,1.2l-1.5,1.2l-0.5,0.5l-1.2,1.2l-1.7-1l1.3-0.8l1.8-1.4c-0.4,0-0.7-0.1-1-0.1
				c-0.3-0.1-0.3-0.1-0.7-0.3l1.1-0.7"/>
			<path class="offense-7" d="M376.2,321.8l-2.9-3.3c0.5-0.3,0.9-0.5,1.5-0.6s0.6-0.1,1.7,0.1c0.7,0.1,1.2,0.1,1.5,0.1s0.5-0.1,0.7-0.2
				s0.3-0.3,0.4-0.5c0-0.2,0-0.4-0.1-0.5c-0.1-0.2-0.3-0.2-0.6-0.2c-0.2,0-0.5,0.1-0.9,0.3l-0.9-1.2c0.5-0.3,1-0.5,1.4-0.6
				s0.8-0.1,1.2,0.1c0.4,0.1,0.8,0.4,1.2,0.8c0.6,0.5,0.9,1.2,1,1.3c0.1,0.3,0,0.7-0.2,1s-0.5,0.6-0.9,0.9c-0.5,0.2-1.4,0.3-1.6,0.3
				c-0.5,0.1-1.1,0-1.9-0.1c-0.4-0.1-0.4,0-0.6-0.2l1.6,1.9L376.2,321.8z"/>
		</g>
		<path class="offense-7" d="M415.1,313.3l-5.1-0.2c0.4,0.3,0.6,0.5,0.8,0.7c0.2,0.2,0.2,0.3,0.4,0.6l-2.3-0.1c-0.3-0.5-0.5-0.7-0.9-1
			c-0.5-0.3-1.1-0.5-1.8-0.7v-1.3l2,0.1l3.9,0.2"/>
		<g>
			<path class="offense-8" d="M394,342.7l0.1,3.8l0.2,7.6l-0.3,0.7l0.4,1.5l0.2,7.8l-4.8,1l0.5-6.7l-0.1-2.6l-0.5-1.1l0.4-1.3l-0.2-3.2
				c-0.7,0.7-1.3,1.2-1.9,1.7c-0.6,0.4-1.4,0.2-2.3,0.6l-0.3-3.9c1.4-0.6,2.4-1.4,3.2-2.3c0.4-0.5,0.3-1.1,0.6-1.7
				c0.3-0.5,1-1.1,1.2-1.7L394,342.7z"/>
			<path class="offense-8" d="M402.1,362.2l-3.5,0.6c0-1.5,0.1-3.5,0.7-4.9c0.2-0.5,0.1-1.3,0.4-1.9c0.2-0.3,0.7-0.3,0.9-0.6
				c0.5-0.8,1.2-1.7,2-2.6c0.5-0.6,1.2-1.4,1.5-1.8 M405.2,347.9c0-0.7-0.2-1.2-0.6-1.7s-0.8-0.7-1.3-0.6c-0.5,0-0.9,0.3-1.2,0.8
				c-0.3,0.5-0.5,1.4-0.5,2.6l-3.9-0.2c0-1.6-0.1-3.2,0.3-4.2c0.3-1,1.2-1.5,1.9-2.1c0.7-0.6,1.8-1,3.2-1.1c0.9-0.1,2-0.3,2.9-0.3
				c0.6,0.1,0.9,0.4,1.3,0.6c0.6,0.3,1.1,0.8,1.5,1.3"/>
		</g>
		<g>
			<path d="M367,344.5c0.5,1,1.2,1.8,1.9,2.6c0.4,0.4,0.7,0.8,1.2,1.2c0.4,0.4,0.9,0.7,1.3,1s0.9,0.7,1.3,1.1
				c0.2,0.2,0.4,0.5,0.5,0.5s0.3,0,0.4,0.1c0.2,0.1,0.3,0.2,0.4,0.3c0.2,0.2,0.3,0.5,0.5,0.6s0.5,0.2,0.7,0.4c0.5,0.4,0.8,0.8,1.3,1
				c2,1,4,2,6,3s4,2,6.2,2.5v0.1c-2.2-0.5-4.2-1.5-6.2-2.4c-2-1-4-2-6-3c-0.6-0.2-1-0.7-1.4-1c-0.2-0.2-0.4-0.2-0.7-0.4
				c-0.3-0.2-0.4-0.5-0.6-0.6c-0.2-0.2-0.3-0.2-0.6-0.3c-0.2-0.1-0.3-0.2-0.4-0.3l-0.3-0.3c-0.4-0.4-0.8-0.7-1.2-1.1
				c-0.4-0.3-0.9-0.7-1.3-1c-0.4-0.4-0.8-0.8-1.2-1.2c-0.8-0.8-1.5-1.7-2.1-2.7L367,344.5z"/>
		</g>
		<g>
			<path d="M366.9,352.8c0.5,0.6,0.9,1.2,1.4,1.8c0.5,0.6,1,1.1,1.7,1.4c0.1,0.1,0.4,0.1,0.5,0.2c0.2,0.1,0.3,0.2,0.5,0.4l0.8,0.8
				c0.6,0.5,1.2,1,1.8,1.4c1.2,0.9,2.4,1.9,3.7,2.5c1.4,0.6,2.7,1.4,4,2.1l-0.1,0.1c-1.4-0.6-2.7-1.4-4.1-2s-2.6-1.6-3.8-2.4
				c-0.6-0.4-1.2-0.9-1.8-1.4c-0.6-0.5-1-1.1-1.8-1.2c-0.8-0.3-1.3-0.9-1.8-1.4c-0.5-0.6-1-1.2-1.4-1.8L366.9,352.8z"/>
		</g>
		<g>
			<path d="M373.3,367.9c1.4,0.9,2.9,1.6,4.4,2.2c0.4,0.2,0.8,0.3,1.1,0.5c0.4,0.1,0.8,0.2,1.2,0.4c0.2,0.1,0.4,0.2,0.6,0.3
				c0.2,0.1,0.3,0.3,0.5,0.4c0.3,0.1,0.8,0.1,1.2,0.2l0.1,0.2c-0.1-0.1,0.3,0.1,0.5,0.1l0.8,0.2c0.5,0.1,1,0.3,1.5,0.4
				c0.5,0.2,1,0.3,1.5,0.4c0.3,0.1,0.6,0.1,0.8,0.4c0.1,0.2,0.3,0.3,0.5,0.2l0.2,0.2c0-0.1,0-0.1,0-0.1s0.1,0,0.2,0
				c0.2,0,0.4,0,0.5,0c0.4,0,0.7,0.1,1.1,0.1c0.7,0.1,1.4,0.3,2.1,0.4c1.4,0.3,2.8,0.6,4.1,0.7v0.5c-1.4-0.1-2.8-0.4-4.2-0.7
				c-0.7-0.2-1.4-0.3-2.1-0.4c-0.3-0.1-0.7-0.1-1-0.1c-0.2,0-0.3,0-0.5,0c-0.1,0-0.2,0-0.3,0c-0.1,0-0.1,0-0.2-0.1
				c-0.1,0-0.1-0.2-0.1-0.3l0.2,0.2c-0.4,0.1-0.7-0.1-0.9-0.4c-0.1-0.1-0.4-0.2-0.6-0.3c-0.5-0.1-1-0.3-1.5-0.4
				c-0.5-0.2-1-0.3-1.5-0.4l-0.8-0.2l-0.4-0.1c-0.1,0-0.1,0-0.2-0.1s-0.2-0.2-0.1-0.4l0.1,0.2c-0.4-0.1-0.8-0.1-1.3-0.3
				c-0.2-0.1-0.3-0.3-0.5-0.4s-0.3-0.2-0.5-0.3c-0.4-0.1-0.8-0.2-1.2-0.4c-0.4-0.2-0.8-0.3-1.2-0.5
				C376.2,369.6,374.7,368.9,373.3,367.9L373.3,367.9z"/>
		</g>
		<g>
			<path d="M402.1,370.6c0,0.5-0.1,1-0.4,1.4s-0.7,0.7-1.1,0.8c-0.9,0.3-1.8,0.3-2.7,0.2l-1.3-0.1c-0.4,0-0.9-0.2-1.3-0.3
				c-0.4-0.2-0.8-0.3-1.2-0.4c-0.4,0-0.9,0.1-1.3-0.1c-0.8-0.3-1.7-0.4-2.5-0.4c-0.9-0.1-1.7-0.3-2.6-0.5c-1.7-0.4-3.4-0.8-5-1.4
				v-0.1c1.6,0.6,3.3,0.9,5,1.3c0.8,0.2,1.7,0.4,2.5,0.5c0.8,0,1.8,0.1,2.6,0.4c0.4,0.1,0.8,0,1.3,0s0.9,0.2,1.3,0.4
				c0.8,0.4,1.6,0.3,2.5,0.4s1.7,0,2.5-0.2c0.8-0.3,1.3-1,1.2-1.8L402.1,370.6L402.1,370.6z"/>
		</g>
		<g>
			<path class="offense-5" d="M429.7,403.9c-0.2,0.2-0.4,0.3-0.6,0.3c-0.2,0.1-0.4,0.1-0.5,0.1c-0.4,0-0.7,0.1-1.1,0.1l-2.1,0.2
				c-1.4,0.1-2.7,0.3-4,0.7c-0.6,0.3-1.3,0.5-1.9,0.8s-1.3,0.6-1.9,0.9s-1.3,0.5-2,0.7c-0.3,0.1-0.7,0.2-1.1,0.2c-0.2,0-0.4,0-0.6,0
				c-0.1,0-0.2,0-0.3-0.1c-0.1,0-0.3-0.1-0.4-0.4l0.6-0.2c-0.1-0.1,0,0,0.2-0.1c0.1,0,0.3-0.1,0.5-0.1c0.3-0.1,0.6-0.2,1-0.3l2-0.6
				c0.7-0.2,1.3-0.4,2-0.6s1.3-0.5,2-0.7c0.7-0.3,1.3-0.5,2-0.7s1.4-0.4,2.1-0.5s1.4-0.1,2.1-0.2c0.3,0,0.7,0,1,0s0.7,0,0.8,0
				L429.7,403.9z"/>
		</g>
		<path class="offense-7" d="M373.8,385.6c1.5,2.1,5.4,5.9,10.2,7.9c4,1.6,14.4,4.6,17.2,5.7s9.8,3.7,11.1,4.3c1.2,0.6,4.1,3.1,4.1,3.5"/>
		<path class="offense-7" d="M421,405.1c0-0.5-3.1-3.3-4.3-4.1c-2.4-1.6-7.5-3.5-10.3-4.7s-3.3-1.5-17.8-6.6c-4.9-1.7-9.6-5.1-11.3-7.8
			c0,0-1.4-2.5-1.4-4.1"/>
		<path class="offense-8" d="M413.5,384.9c-0.8,0.4-4.5,1.2-7.8,1s-10.5-5.3-11.1-6.5c-0.5-1.1,2-3.6,2.6-3.6"/>
		<path class="offense-8" d="M418.5,388.4c1.3,0.9,0.5,5.5,0.5,6.5c0,1.4,3.2,2.7,4.8,3.8c1.3,0.8,4.5,3.4,6.4,3.4"/>
		<g>
			<path class="offense-5" d="M368.2,405.1c0.2,0.5,0.6,0.9,1.1,1.4c0.4,0.5,0.9,0.9,1.3,1.4c0.9,1,1.7,2.1,2.4,3.2
				c0.7,1.1,1.5,2.1,2.5,2.9c0.9,0.9,1.8,1.8,2.9,2.2l-0.1,0.6c-0.8,0-1.4-0.4-2-0.8s-1-0.9-1.5-1.4c-0.4-0.5-0.8-1.1-1.1-1.6
				l-1.1-1.6c-0.4-0.5-0.8-1-1.2-1.5c-0.4-0.5-0.9-0.9-1.4-1.3s-0.9-0.9-1.3-1.5c-0.4-0.5-0.9-1.1-0.9-1.9L368.2,405.1z"/>
		</g>
		<g>
			<path d="M397.5,381.8c0.3-0.3,0.6-0.7,0.9-1.2c0.3-0.4,0.6-0.8,0.9-1.2c0.3-0.4,0.7-0.8,1.1-1.1c0.4-0.3,0.9-0.5,1.5-0.5v0.1
				c-0.5,0-0.9,0.2-1.3,0.5s-0.7,0.7-1,1.1s-0.5,0.8-0.8,1.3c-0.3,0.4-0.5,0.9-0.8,1.3L397.5,381.8z"/>
		</g>
		<g>
			<path d="M400.8,383.8c0.3-0.3,0.5-0.7,0.8-1c0.2-0.4,0.5-0.8,0.8-1.1c0.3-0.4,0.6-0.7,0.9-1c0.4-0.3,0.8-0.5,1.3-0.5v0.1
				c-0.4,0-0.8,0.2-1.2,0.5c-0.3,0.3-0.6,0.7-0.8,1c-0.2,0.4-0.4,0.8-0.7,1.2c-0.2,0.4-0.4,0.8-0.8,1.2L400.8,383.8z"/>
		</g>
		<g>
			<path d="M404.6,385.5c0.5-0.5,0.9-1.3,1.4-2c0.2-0.3,0.5-0.7,0.8-1s0.7-0.5,1.2-0.5v0.1c-0.4,0-0.8,0.2-1,0.5
				c-0.3,0.3-0.5,0.6-0.7,1c-0.2,0.3-0.4,0.7-0.6,1.1s-0.4,0.7-0.7,1.1L404.6,385.5z"/>
		</g>
		<g>
			<path class="offense-9" d="M414.3,403.9c0,0,1.5,1.6,1.7,1.6s1.1-0.2,1.7-0.8s1-1.1,0.6-1.5s-1.9-1.4-1.9-1.4s-0.2,1-0.2,1.3
				s0.8,1.1,0.7,1.2c-0.1,0.1-1.2-0.5-1.2-0.5S414.7,403.9,414.3,403.9z"/>
			<path class="offense-9" d="M411.2,402.1c0,0,1.8,1.2,1.9,1.2c0.2,0,1-0.4,1.4-1.1s0.7-1.3,0.3-1.6c-0.5-0.3-2.1-1-2.1-1s0,1,0.1,1.3
				s1,0.9,0.9,1s-1.2-0.2-1.2-0.2S411.6,402,411.2,402.1z"/>
			<path class="offense-9" d="M407.7,400.7c0,0,1.9,1.1,2,1c0.2,0,0.9-0.5,1.3-1.2s0.6-1.4,0.1-1.6c-0.5-0.3-2.1-0.8-2.1-0.8
				s0.1,1,0.2,1.3s1.1,0.8,1,0.9s-1.2-0.1-1.2-0.1S408,400.6,407.7,400.7z"/>
			<path class="offense-9" d="M403.7,399.1c0,0,1.9,1.1,2,1c0.2,0,0.9-0.5,1.3-1.2s0.6-1.4,0.1-1.6c-0.5-0.3-2.1-0.8-2.1-0.8
				s0.1,1,0.2,1.3s1.1,0.8,1,0.9s-1.2-0.1-1.2-0.1S404,399,403.7,399.1z"/>
			<path class="offense-9" d="M399.4,397.5c0,0,1.9,1,2,1s0.9-0.5,1.3-1.2s0.6-1.4,0.1-1.6c-0.5-0.3-2.1-0.8-2.1-0.8s0.1,1,0.2,1.3
				s1.1,0.8,1,0.9s-1.2-0.1-1.2-0.1S399.7,397.4,399.4,397.5z"/>
			<path class="offense-9" d="M395.2,396c0,0,1.9,1,2.1,0.9s0.9-0.6,1.2-1.3c0.3-0.7,0.5-1.4,0-1.6s-2.2-0.7-2.2-0.7s0.2,1,0.3,1.3
				c0.1,0.3,1.1,0.7,1,0.8s-1.2-0.1-1.2-0.1S395.5,395.8,395.2,396z"/>
			<path class="offense-9" d="M390.8,394.6c0,0,1.9,1,2.1,0.9s0.9-0.6,1.2-1.3c0.3-0.7,0.5-1.4,0-1.6s-2.2-0.7-2.2-0.7s0.2,1,0.3,1.3
				c0.1,0.3,1.1,0.7,1,0.8s-1.2-0.1-1.2-0.1S391.1,394.4,390.8,394.6z"/>
			<path class="offense-9" d="M386.3,393.1c0,0,1.9,1,2.1,0.9s0.9-0.6,1.2-1.3c0.3-0.7,0.5-1.4,0-1.6s-2.2-0.7-2.2-0.7s0.2,1,0.3,1.3
				s1.1,0.7,1,0.8c-0.1,0.1-1.2-0.1-1.2-0.1S386.7,392.9,386.3,393.1z"/>
			<path class="offense-9" d="M381.9,391.2c0,0,1.8,1.1,2,1.1s1-0.5,1.3-1.2c0.4-0.7,0.7-1.4,0.2-1.6c-0.5-0.3-2.1-0.9-2.1-0.9
				s0.1,1,0.2,1.3s1,0.8,1,0.9c-0.1,0.1-1.2-0.2-1.2-0.2S382.3,391,381.9,391.2z"/>
			<path class="offense-9" d="M378,388.5c0,0,1.7,1.3,1.8,1.3c0.2,0,1-0.4,1.5-1s0.8-1.3,0.4-1.6c-0.5-0.3-2-1.1-2-1.1s0,1,0,1.3
				s0.9,0.9,0.9,1c-0.1,0.1-1.2-0.3-1.2-0.3S378.3,388.4,378,388.5z"/>
			<path class="offense-9" d="M374.3,384.9c0,0,1.3,1.7,1.5,1.7s1.1-0.1,1.7-0.7s1.1-1.1,0.7-1.5s-1.7-1.5-1.7-1.5s-0.3,1-0.3,1.3
				s0.7,1.1,0.6,1.2s-1.1-0.6-1.1-0.6S374.7,384.8,374.3,384.9z"/>
			<path class="offense-9" d="M374.6,382c0.7-0.3,1.4-0.6,1.2-1.2c-0.2-0.5-1.1-2-1.1-2s-0.6,0.9-0.7,1.1c-0.1,0.3,0.3,1.3,0.2,1.3"/>
		</g>
		<g>
			<path d="M393.4,376c-1.8,1.2-3.5,2.5-5.1,3.9c-0.8,0.7-1.6,1.5-2.2,2.3c-0.7,0.8-1.3,1.7-1.6,2.8h-0.1c0.3-1,0.9-2,1.6-2.8
				c0.7-0.9,1.4-1.6,2.2-2.4c1.6-1.5,3.3-2.8,5.1-4.1L393.4,376z"/>
		</g>
		<g>
			<path d="M453.3,447.4c-0.5,0.4-1,1.1-1.3,1.7c-0.2,0.3-0.3,0.7-0.3,1s0.2,0.6,0.4,0.9c0.2,0.3,0.5,0.6,0.7,0.9
				c0.1,0.2,0.2,0.5,0.1,0.7c-0.1,0.3-0.3,0.4-0.4,0.6c-0.4,0.3-0.6,0.4-0.9,0.7l-0.9,0.7c-1.2,1-2.7,1.7-4.3,1.9
				c-0.8,0.1-1.6,0.1-2.3,0c-0.8-0.1-1.5-0.1-2.3-0.2c-0.2,0-0.4-0.1-0.6-0.1c-0.2-0.1-0.4-0.2-0.5-0.4c0-0.1-0.1-0.2-0.1-0.3
				c0-0.1,0-0.2,0-0.2c0-0.1-0.2-0.2-0.3-0.3c-0.7-0.3-1.5-0.4-2.2-0.4c-0.8,0-1.5,0-2.3,0s-1.5,0.3-2.2,0.5c-1.5,0.4-3,0.6-4.6,0.5
				c-0.4,0-0.8-0.1-1.2-0.2c-0.4-0.1-0.8-0.4-1-0.7c-0.3-0.2-0.6-0.5-0.9-0.6c-0.2-0.1-0.3-0.1-0.4-0.1s-0.1,0.2-0.1,0.4h-0.3
				c0-0.2-0.1-0.4,0.2-0.7c0.3-0.2,0.5-0.1,0.7,0c0.4,0.2,0.7,0.4,1,0.7c0.5,0.6,1.2,0.7,2,0.8c1.5,0.1,3-0.2,4.5-0.5l1.1-0.3
				c0.4-0.1,0.8-0.1,1.2-0.2c0.8,0,1.6,0,2.3,0c0.8,0.1,1.5,0.1,2.3,0.5c0.2,0.1,0.4,0.2,0.5,0.5c0,0.1,0,0.1,0,0.2v0.1
				c0,0.1,0,0.2,0,0.2c0.1,0.3,0.5,0.3,0.9,0.4c0.7,0.1,1.5,0.1,2.3,0.2c0.8,0,1.5,0.1,2.3-0.1c1.5-0.3,2.8-1,4-1.9l0.9-0.7
				c0.3-0.2,0.7-0.5,0.9-0.7c0.3-0.2,0.4-0.4,0.2-0.7c-0.2-0.3-0.4-0.6-0.7-0.9c-0.1-0.2-0.2-0.3-0.3-0.5c-0.1-0.2-0.1-0.4-0.1-0.7
				c0-0.4,0.2-0.8,0.3-1.2c0.4-0.7,0.9-1.3,1.6-1.8L453.3,447.4z"/>
		</g>
		<path class="offense-3" d="M435.4,442.1c-0.5,1.1-2,4.8-5.6,5.6c-3.6,0.9-4.7,0.5-4.9-0.2"/>
		<g>
			<path class="offense-5" d="M434.2,440.3c0.1,0.6-0.1,1.1-0.3,1.6c-0.2,0.5-0.5,0.9-0.8,1.3c-0.7,0.8-1.6,1.3-2.5,1.7
				c-0.9,0.4-1.8,0.9-2.7,1.3c-0.5,0.2-1,0.2-1.5,0.2s-1.1-0.1-1.6-0.6l0.4-0.4c0.7,0.3,1.6,0.1,2.5,0c0.5-0.1,0.9-0.1,1.4-0.3
				c0.4-0.2,0.9-0.3,1.3-0.6c0.4-0.2,0.8-0.5,1.2-0.8c0.3-0.3,0.6-0.7,0.9-1.1c0.5-0.7,1-1.6,1.3-2.3L434.2,440.3z"/>
		</g>
		<g>
			<path class="offense-5" d="M345.3,438.5c0.4,0.1,0.5,0.4,0.7,0.6c0.1,0.2,0.2,0.4,0.3,0.6c0.2,0.4,0.3,0.7,0.6,0.9
				c0.2,0.3,0.5,0.6,0.8,0.9s0.7,0.5,1,0.7c0.7,0.5,1.5,0.8,2.4,0.9c0.8,0.2,1.6,0.5,2.2,0.3l0.4,0.5c-0.5,0.4-1,0.4-1.5,0.4
				s-0.9-0.2-1.3-0.4l-2.3-1.3c-0.4-0.2-0.8-0.4-1.2-0.6c-0.4-0.2-0.8-0.4-1.2-0.8c-0.4-0.4-0.6-0.9-0.7-1.3s-0.2-0.9-0.3-1
				L345.3,438.5z"/>
		</g>
		<path class="offense-3" d="M344.4,439.8c0.1,1.1,1.3,2.9,2.3,3.8c0.9,0.9,2.7,2.7,6.6,2.1"/>
		<g>
			<path d="M337.5,444.4c1,0.9,1.7,2,2.2,3.1c0.6,1.1,1.2,2.2,1.9,3.3c1.2,2.3,3.8,3,5.9,4.5c0.5,0.4,1,0.8,1.4,1.3s0.8,1,1.2,1.5
				c0.8,1,1.6,1.9,2.5,2.9c0.8,1,1.8,1.7,2.9,2.3c1.1,0.5,2.3,1,3.5,0.6l0.1,0.3c-1.3,0.5-2.7,0.1-3.8-0.5c-1.2-0.5-2.3-1.3-3.1-2.4
				c-0.8-1-1.6-2-2.4-3c-0.4-0.5-0.8-1-1.2-1.5c-0.3-0.5-0.8-0.9-1.3-1.3c-1-0.7-2.1-1.3-3.3-1.9c-0.5-0.3-1.1-0.6-1.6-1.1
				s-0.9-1-1.2-1.5c-0.7-1-1.3-2.2-1.9-3.3c-0.5-1.1-1.2-2.2-2-3.1L337.5,444.4z"/>
		</g>
		<g>
			<path d="M350.7,447.6c-1,0.2-2,0.6-2.7,1.3c-0.3,0.3-0.3,0.3,0.3,0.4c0.5,0.1,1.1,0.1,1.6,0s1-0.2,1.5-0.4c0.5-0.2,1-0.5,1.3-0.8
				c0.1-0.1,0.1-0.2,0.1-0.2l0,0c0-0.1-0.3-0.1-0.5-0.2C351.7,447.6,351.2,447.6,350.7,447.6L350.7,447.6z M350.6,447.2
				c0.5-0.1,1.1-0.2,1.7-0.1c0.3,0,0.6,0,1,0.3c0.2,0.1,0.3,0.5,0.2,0.7c-0.1,0.2-0.2,0.4-0.3,0.5c-0.5,0.4-1,0.5-1.6,0.8
				c-0.5,0.2-1.1,0.3-1.6,0.4c-0.6,0.1-1.1,0.1-1.7,0.1c-0.1,0-0.3,0-0.4,0s-0.1,0-0.3,0c-0.1,0-0.2-0.1-0.3-0.2
				c-0.2-0.2-0.2-0.5-0.1-0.7s0.2-0.4,0.3-0.5C348.3,447.6,349.5,447.1,350.6,447.2L350.6,447.2z"/>
		</g>
		<g>
			<path d="M350.4,450.8c0.1-0.1,0.2-0.2,0.3-0.4l0.4-0.1c0.3-0.1,0.5-0.2,0.8-0.2c0.5-0.1,1-0.3,1.6-0.3v0.5c-0.5,0-1,0.1-1.5,0.3
				c-0.2,0.1-0.5,0.1-0.7,0.2l-0.4,0.1C350.7,450.9,350.6,450.8,350.4,450.8z"/>
		</g>
		<g>
			<path d="M351.7,452.3c0.1-0.1,0.2-0.2,0.3-0.3l0.3-0.1l0.7-0.2c0.5-0.1,0.9-0.3,1.4-0.4l0.1,0.5c-0.4,0.1-0.9,0.2-1.4,0.3
				l-0.7,0.2l-0.3,0.1C352,452.4,351.8,452.3,351.7,452.3z"/>
		</g>
		<g>
			<path d="M352.6,453.5c0-0.1,0.1-0.3,0.1-0.4c0.1-0.1,0.2-0.1,0.3-0.2c0.2-0.1,0.4-0.2,0.6-0.2c0.4-0.1,0.8-0.2,1.1-0.3l0.1,0.5
				c-0.4,0.1-0.8,0.2-1.1,0.3c-0.2,0.1-0.3,0.1-0.5,0.2c-0.1,0-0.2,0.1-0.2,0.1H352.6z"/>
		</g>
		<g>
			<path d="M353.7,454.5c0-0.1,0.1-0.2,0.1-0.3h0.2c0.1,0,0.2-0.1,0.3-0.1c0.2-0.1,0.4-0.2,0.7-0.2l0.1,0.5
				c-0.2,0.1-0.4,0.1-0.6,0.2c-0.1,0-0.2,0.1-0.3,0.1H354C353.9,454.6,353.8,454.6,353.7,454.5z"/>
		</g>
		<g>
			<path d="M435.7,447.1c-0.3,1.1-0.6,2.1-0.5,3.1c0,0.2,0.1,0.4,0.2,0.5s0.2,0.1,0.3,0.1c0.3-0.1,0.7-0.4,0.9-0.7
				c0.5-0.8,0.6-1.9,0.3-2.8c-0.1-0.2-0.2-0.5-0.3-0.7c-0.1-0.2-0.3-0.5-0.4-0.8c-0.1-0.4,0-0.8,0.2-1c0.2-0.3,0.4-0.5,0.6-0.7
				c0.7-0.8,1.7-1.6,2.9-1.9c0.3-0.1,0.6-0.1,0.9,0c0.3,0,0.7,0.2,0.9,0.5c0.3,0.2,0.4,0.8,0.2,1.2c-0.2,0.4-0.5,0.5-0.8,0.7
				c-1,0.6-2.1,1-3.2,1.2l-0.4,0.1c-0.2,0-0.3,0-0.4,0.1c-0.3,0-0.5,0.1-0.6,0.1C436.2,446.1,435.9,446.6,435.7,447.1L435.7,447.1z
				 M435.2,446.9c0.2-0.5,0.3-1.1,0.9-1.6c0.3-0.3,0.7-0.3,1-0.3c0.1,0,0.3,0,0.4-0.1l0.4-0.1c1-0.3,2-0.7,3-1.1
				c0.2-0.1,0.4-0.2,0.5-0.3c0.1-0.1,0.1-0.2,0-0.3c-0.2-0.3-0.7-0.4-1.2-0.3c-1,0.1-1.8,0.9-2.6,1.6c-0.4,0.4-0.7,0.8-0.6,1.1
				c0.1,0.2,0.2,0.4,0.3,0.7c0.1,0.3,0.3,0.5,0.4,0.8c0.4,1.1,0.6,2.4-0.1,3.5c-0.2,0.3-0.4,0.5-0.6,0.8c-0.3,0.2-0.6,0.4-1,0.5
				s-0.9-0.1-1.2-0.4c-0.3-0.3-0.3-0.7-0.4-1C434.3,448.9,434.7,447.9,435.2,446.9L435.2,446.9z"/>
		</g>
		<g>
			<path d="M440.7,445.8c-0.1,0.2-0.2,0.4-0.3,0.6c-0.1,0.2-0.2,0.4-0.3,0.6c-0.2,0.4-0.4,0.8-0.5,1.2c-0.1,0.4-0.2,0.9-0.2,1.3
				c0,0.2,0,0.4,0,0.7c-0.1,0.2-0.1,0.5-0.1,0.7h-0.1c0-0.2-0.2-0.5-0.3-0.7c0-0.2,0-0.5,0-0.7c0-0.5,0.1-1,0.2-1.4
				c0.1-0.5,0.3-0.9,0.5-1.3c0.1-0.2,0.2-0.4,0.4-0.6C440.2,446,440.4,445.9,440.7,445.8L440.7,445.8z"/>
		</g>
		<g>
			<path d="M442.6,446.5c-0.1,0.1-0.2,0.3-0.3,0.5c-0.1,0.1-0.2,0.3-0.3,0.4c-0.2,0.3-0.4,0.6-0.5,1c-0.1,0.3-0.2,0.7-0.2,1.1
				c0,0.2,0,0.4,0,0.6c-0.1,0.2-0.1,0.4-0.1,0.6h-0.1c0-0.2-0.2-0.4-0.2-0.6s0-0.4,0-0.6c0-0.4,0.1-0.8,0.3-1.2
				c0.1-0.4,0.3-0.8,0.6-1.1c0.1-0.2,0.2-0.3,0.4-0.5c0.2-0.1,0.4-0.2,0.5-0.3L442.6,446.5z"/>
		</g>
		<g>
			<path d="M444.2,446.6c-0.1,0.1-0.2,0.3-0.2,0.5c-0.1,0.1-0.2,0.3-0.3,0.4c-0.2,0.3-0.3,0.6-0.4,0.9s-0.2,0.7-0.2,1
				c0,0.2,0,0.3,0,0.5c-0.1,0.2-0.1,0.4-0.1,0.5h-0.1c0-0.2-0.2-0.3-0.3-0.5c0-0.2,0-0.4,0-0.6c0-0.4,0.1-0.8,0.2-1.1
				c0.1-0.4,0.3-0.7,0.5-1c0.1-0.2,0.2-0.3,0.3-0.5c0.2-0.1,0.4-0.2,0.5-0.3L444.2,446.6z"/>
		</g>
		<g>
			<path d="M445.9,446.9c-0.1,0.1-0.2,0.3-0.2,0.5c-0.1,0.1-0.2,0.3-0.3,0.4c-0.2,0.3-0.3,0.6-0.4,0.8c-0.1,0.3-0.1,0.6-0.1,0.9
				c0,0.1,0,0.3,0.1,0.4c-0.1,0.2-0.1,0.3,0,0.5h-0.1c-0.1-0.2-0.2-0.3-0.3-0.4c0-0.2-0.1-0.3-0.1-0.5c0-0.4,0-0.7,0.1-1
				s0.2-0.7,0.4-1c0.1-0.1,0.2-0.3,0.3-0.4c0.2-0.1,0.3-0.2,0.5-0.3L445.9,446.9z"/>
		</g>
	</g>
</g>
</svg>
