<?xml version="1.0" encoding="utf-8"?>
<!-- Generator: Adobe Illustrator 21.0.0, SVG Export Plug-In . SVG Version: 6.00 Build 0)  -->
<svg version="1.1" id="player" xmlns="http://www.w3.org/2000/svg" xmlns:xlink="http://www.w3.org/1999/xlink" x="0px" y="0px"
	 viewBox="20 20 42 85" xml:space="preserve">
<style type="text/css">
	.st0{fill:#FFFFFF;}
	.st1{fill:#94C941;}
</style>
<path id="bodyFill" class="st0" d="M37.2,33.2c0.3,0.5-0.1-0.4-1.2-0.3c-1.2,0.1-2.6,0.5-3.3,0.9c-0.9,0.6-1.7,1.6-2,2.4
	c-0.3,0.7-0.4,0.8-0.4,1.3c-0.1,0.9,0.7,2,0.7,2.1s-0.3,5.5-0.3,5.7c-0.1,0.6-1.3,3-1.4,3.7s-0.7,5.3-0.7,5.7S28.3,55.5,28,56
	c-0.2,0.3-0.7,2-0.7,2.4s0,1.5,0.1,2.5c0.1,0.7,0.8,2.1,1.7,2.6c1,0.6,3.6,0.4,3.2-0.3c-0.4-0.6-0.9-0.3-1.4-0.5
	c-0.4-0.2-0.7-0.5-0.7-0.6c-0.9-1.1-0.7-1.4-0.1-1.3c0.2,0.1,0.4,0.4,0.6,0.7c0.5,0.9,0.9,0.7,0.9,0.2c0-1.2-0.8-3.3-1.3-3.7
	c-0.7-0.6,1.2-3.5,1.4-3.8c0.2-0.3,2.1-3.2,2.6-5.4c0.1-0.6,0.4-1.5,0.4-2c0-0.3,0.3-2.9,0.1-0.5c-0.1,1-0.1,2.3-0.1,2.8
	s0.4,3.4,0.4,4c0.1,0.7,0.4,1.2,0.4,1.6c0,0.4-0.1,1.4-0.3,2.2c-0.1,0.4-0.7,2.2-1,3s-1.2,3-1.4,3.6s-0.4,4.6-0.3,5.5
	c0.1,0.8-0.4,4.1-0.5,4.3c-0.2,0.2-0.3,1.9-0.3,2.7c0.1,0.8-0.6,2.4-0.6,2.8s0.1,3,0.2,4.1s0.3,3.9,0.4,4.3c0,0.3,0.2,2.8,0,3
	s-0.9,1.9-1.9,2.5c-0.9,0.6-2.2,1.3-2.9,1.6c-0.7,0.3-1.8,1-1.3,1.8c0.2,0.4,2,0.7,2.8,0.7s6.5-0.5,6.9-0.5s0.8-1.3,0.8-1.5
	s0-1.9-0.6-2.4c-0.5-0.5-0.2-1.6-0.2-1.9s0.2-2.4,0.2-3.4c0-0.5,0.4-4,0.6-4.6c0.2-0.6,1-1.7,0.9-3.1s-0.3-3.1,0-3.9s2-3.5,3.2-5.6
	c1-1.7,2.5-4.8,2.6-5s0.2,0.5,0.2,1s0.7,3.2,0.7,3.9c0.1,0.7,1.6,4.5,1.9,5c0.2,0.5,0.2,2.1,0.2,2.5s0.5,2.2,0.6,2.8
	c0,0.6,0.6,8.1,0.4,8.7c-0.2,0.6-0.4,1.2-0.7,2c-0.3,0.9-0.1,2.7-0.1,3s-0.4,1.8,0,2.3c0.3,0.3,1.7,0.8,2.7,0.8
	c0.9,0,1.8-0.5,2.1-1.3c0.2-0.4-0.2-1.2-0.3-1.5c-0.1-0.5-0.1-1.6-0.6-2.7c-0.1-0.3-0.1-1.4-0.1-1.9s1.2-8.6,1.1-9.6
	c-0.1-1,0.1-2.2-0.3-3.7S50,72,50.1,71.3s0.9-4.8,1.1-6.5c0.2-1.7,0.4-6.5-0.6-9.5c-0.5-1.5-1.3-4.9-1-6.2s0.3-5,0.5-4.7
	c0.2,0.2,0.4,1.3,1,2.2c0.3,0.6,1.2,1.7,1.2,2.1c0,0.3,0.8,3.1,1,3.5c0.3,0.8,1.4,3,1.6,3.5c0.3,0.6,0.6,2.1,0.4,2.6
	c-0.1,0.2-1,1.6-1.2,2.1c-0.2,0.6-0.5,2-0.2,2.2c0.3,0.3,0.7,0.2,0.8-0.4c0.2-0.9,0.3-1,0.5-1.2c0,0,0.3,0.2,0.3,0.7s0,0.8-0.8,2.1
	c-0.3,0.5-1.1,1.4-0.2,1.3s1.4-0.4,1.9-0.8c0.7-0.5,1.4-1.2,1.6-1.8c0.2-0.9,0.3-2.1,0.2-2.7c0-0.6,0-1.8-0.4-2.7
	c-0.3-0.7-0.3-1.8-0.4-2.8c-0.1-0.9-0.3-6.1-1.1-7.2c-0.7-0.9-0.7-1.7-0.9-2.2c-0.1-0.5-1.7-5.4-2-5.6c-0.3-0.2,0-1.1,0-1.7
	c0.1-0.8,0.2-2.6-1.2-3.2c-1.2-0.6-2.4-1.2-4.5-1.2c-1,0-1.8-0.1-2.1-0.1s0.2-0.5,0.5-1c1-1.7,1-2.4,1.1-3.5
	c0.1-1.2,0.1-3.5-2.1-4.6c-2.1-1.1-3.6-1-5.2-0.5c-1.5,0.5-2.6,1.5-3.1,3.3C36.6,28.5,36.6,32.2,37.2,33.2z"/>
<g id="injury">
	<path id="knee" class="st1" d="M32,73.5c0.1-0.1,0.2-0.1,0.3-0.1c0.3,0,0.6,0.1,0.9,0.1c1.3,0.3,2.6,0.6,3.9,0.9
		c0.1,0,0.2,0,0.2,0.1s0,0.1,0,0.2c-0.1,0.3-0.3,0.6-0.4,0.9c-0.1,0.3-0.1,0.7-0.2,1c-0.1,0.8,0.1,1.7,0.2,2.5c0,0.2,0.1,0.5,0,0.7
		c-0.1,0.1-0.2,0.1-0.4,0.1c-1.5,0.1-3.3,0.2-4.7-0.4c-0.2-0.1-0.5-0.2-0.6-0.4c-0.2-0.4,0-0.9,0.1-1.4c0.2-0.7,0.2-1.4,0.2-2
		c0-0.3,0-0.7,0-1s0.2-0.6,0.4-0.9l0,0C31.9,73.6,31.9,73.5,32,73.5z M47.6,72.9c-0.7,0.2-1.5,0.4-2.2,0.5c-0.1,0-0.2,0-0.3,0.1
		c-0.3,0.3,0.3,1.2,0.4,1.5c0.1,0.5,0.1,1,0.1,1.4s0,0.9,0.1,1.3c0,0.2,0.1,0.4,0.2,0.6c0,0.2,0.1,0.5,0.1,0.7c0,0,0,0.1,0.1,0.1
		c0.1,0.1,0.2,0.1,0.3,0.1c1.1,0.1,2.1,0.1,3.2-0.1c0.4-0.1,0.8-0.1,1.2-0.3c0.1,0,0.1,0,0.1-0.1c0.1-0.2-0.1-0.4,0-0.6
		c0-0.3,0-0.5,0-0.8c0-0.5-0.2-1-0.3-1.5c-0.2-0.7-0.3-1.4-0.4-2.2c0-0.2,0-1-0.3-1.1c-0.1,0-0.1,0-0.2,0
		C49,72.6,48.3,72.7,47.6,72.9z"/>
	<path id="hand" class="st1" d="M54.7,53.7c0.9-0.4,1.7-0.6,2.7-0.7c0,0.4,0.1,0.9,0.1,1.3c0.1,1,0.1,2.1,0.4,2.8
		c0.4,0.9,0.4,2.1,0.4,2.7c0,0.6,0,1.8-0.2,2.7c-0.2,0.6-0.9,1.3-1.6,1.8c-0.6,0.4-1.1,0.8-1.9,0.8s-0.1-0.8,0.2-1.3
		c0.8-1.3,0.8-1.5,0.8-2.1S55.3,61,55.3,61c-0.1,0.2-0.2,0.3-0.5,1.2c-0.1,0.6-0.5,0.7-0.8,0.4s0-1.6,0.2-2.2
		c0.2-0.6,1.1-1.9,1.2-2.1c0.2-0.5-0.1-2-0.4-2.6c-0.1-0.1-0.9-1.7-0.9-1.7C54.3,53.9,54.5,53.8,54.7,53.7z M30.4,54.2
		c-0.5-0.2-1-0.3-1.6-0.3h-0.1c-0.2,0.1-0.2,0.5-0.2,0.7c0,0.3-0.3,0.9-0.6,1.4c-0.2,0.3-0.7,2-0.7,2.4s0,1.5,0.1,2.5
		c0.1,0.7,0.8,2.1,1.7,2.6c1,0.6,3.6,0.4,3.2-0.3c-0.4-0.6-0.9-0.3-1.4-0.5c-0.4-0.2-0.7-0.5-0.7-0.6c-0.9-1.1-0.7-1.4-0.1-1.3
		c0.2,0.1,0.4,0.4,0.6,0.7c0.5,0.9,0.9,0.7,0.9,0.2c0-1.2-0.8-3.3-1.3-3.7c-0.4-0.3,0-1.2,0.1-1.5c0.2-0.4,1.1-1.6,0.8-1.9
		c-0.1-0.1-0.3-0.2-0.4-0.3C30.6,54.3,30.5,54.2,30.4,54.2z"/>
	<path id="hamstring" class="st1" d="M51.4,59.5c-0.1-0.9-0.2-1.9-0.3-2.8c-0.1-0.5-0.2-1.1-0.4-1.6c-0.2-0.6-0.5-0.8-1.1-0.5
		c-1.5,0.6-3.1,1-4.7,1.1c-1.6,0-3.2,0.1-4.9,0c-1.5-0.1-2.9-0.4-4.3-0.8h-0.1c-0.1,0.1-0.2,0.9-0.2,1c-0.1,0.5-0.2,0.9-0.3,1.4
		c-0.2,0.9-0.5,1.8-0.8,2.7c-0.3,0.8-1.2,3-1.4,3.6c-0.2,0.6-0.4,4.6-0.3,5.5c0.1,1-0.6,2.9-0.6,4.4c0.1-0.1,0.2-0.1,0.3-0.1
		c0.3,0,0.6,0.1,0.9,0.1c1.3,0.3,2.6,0.6,3.9,0.9c0,0,0,0,0.1,0c0.2-0.2,0.3-0.4,0.4-0.6c0.8-1.3,1.6-2.7,2.4-4c1-1.7,2.5-4.8,2.6-5
		s0.2,0.5,0.2,1s0.7,3.2,0.7,3.9c0.1,0.8,0.8,3.2,1.6,4.4c-0.1-0.2-0.1-0.5,0-0.6s0.2-0.1,0.3-0.1c0.7-0.1,1.5-0.3,2.2-0.5
		s1.4-0.3,2.1-0.4c0.1,0,0.1,0,0.2,0c0.3,0.1,0.3,0.8,0.3,1c0.1-0.7-0.2-1.7-0.1-2.1c0.1-0.7,0.9-4.8,1.1-6.5
		C51.4,63.1,51.5,61.3,51.4,59.5z"/>
	<path id="shoulder" class="st1" d="M37.2,33.1c-0.4-0.2-0.7-0.3-1.3-0.3c-1.2,0.1-2.6,0.5-3.3,0.9c-0.9,0.6-1.7,1.6-2,2.4
		c-0.3,0.7-0.4,0.8-0.4,1.3c-0.1,1.1,0.8,2.2,1.7,2.8c0.6,0.4,1.1,0.7,1.8,0.9c0.6,0.2,1.2,0.2,1.8,0.2c3.8,0,7.7-0.3,11.5,0.1
		c0.7,0.1,1.4,0.2,2.1,0.1c0.7,0,1.4-0.2,1.9-0.7c0.4-0.3,0.6-0.7,1-1.1c0.2-0.2,0.4-0.4,0.7-0.5c0.2-0.1,0.6-0.1,0.7-0.3
		c0.2-0.2,0.2-1.1,0.2-1.4c0.1-0.8,0.2-2.6-1.2-3.2c-1.2-0.6-2.4-1.2-4.5-1.2c-0.5,0-1.1-0.1-1.6-0.1s-1.1,0.3-1.6,0.5
		c-1.8,0.8-3.8,0.9-5.7,0.5c-0.4-0.1-0.8-0.2-1.1-0.4C37.7,33.4,37.5,33.3,37.2,33.1z"/>
	<path id="foot" class="st1" d="M46.6,87.9c0-0.1,0-0.2,0-0.3c0-0.5,0-1,0-1.5s0-1.1,0-1.6c0-0.7-0.2-1.3-0.3-2
		c1.4,0.2,2.8,0.3,4.2,0.3c0,0.3,0,0.7-0.1,1c-0.1,0.4-0.2,0.8-0.2,1.2c-0.1,0.5-0.1,1-0.2,1.5c-0.1,0.9-0.4,1.9-0.3,2.8
		c0,0.5,0,1.6,0.1,1.9c0.5,1.1,0.5,2.3,0.6,2.7c0.1,0.3,0.5,1.1,0.3,1.5c-0.4,0.8-1.2,1.3-2.1,1.3c-1,0-2.4-0.5-2.7-0.8
		c-0.4-0.4,0-1.9,0-2.3s-0.3-2.2,0.1-3c0.3-0.7,0.5-1.4,0.7-2C46.7,88.5,46.6,88.2,46.6,87.9z M31.7,89.8c0,0.3-0.1,0.7-0.3,1
		c-0.3,0.6-0.8,1.2-1.3,1.6c-0.9,0.7-2,1.2-3.1,1.7c-0.5,0.3-1.1,0.5-1.5,1c-0.2,0.2-0.3,0.5-0.2,0.8c0.1,0.1,0.2,0.2,0.3,0.3
		c0.4,0.3,0.9,0.4,1.3,0.5s0.9,0,1.3,0c1.4-0.1,2.8-0.2,4.2-0.2c0.8,0,1.7-0.1,2.5-0.2c0.2,0,0.3-0.1,0.5-0.2s0.2-0.4,0.2-0.6
		c0.2-1.1,0.1-2.1-0.2-3.2c-0.1-0.5-0.3-0.9-0.4-1.4c-0.1-1.1,0.2-2.2,0.3-3.2c0-0.3,0.1-0.6,0.1-1s0-0.9,0.1-1.3
		c0-0.3,0.1-0.6,0.2-0.9c0.1-0.6,0-1.3,0.2-1.9c-1.6,0.1-3.2,0.2-4.7-0.1c0,0,0,0-0.1,0c0,0,0,0,0,0.1c0,0.2,0.1,0.5,0.2,0.7
		c0.1,0.3,0.1,0.6,0.1,0.9c0.1,0.7,0.2,1.4,0.2,2.1C31.8,87.3,31.8,88.5,31.7,89.8z"/>
	<path id="head" class="st1" d="M37.2,33.1c0.1,0.1,0.3,0.3,0.5,0.4c0.8,0.5,1.7,0.8,2.6,0.9c0.6,0,1.2,0,1.8-0.1
		c0.9-0.1,1.8-0.3,2.6-0.6c0.3-0.1,0.7-0.3,0.9-0.6c0.3-0.3,0.5-0.7,0.7-1.1c1-1.7,1-2.4,1.1-3.5c0.1-1.2,0.1-3.5-2.1-4.6
		c-2.1-1.1-3.6-1-5.2-0.5c-1.5,0.5-2.6,1.5-3.1,3.3c-0.4,1.5-0.5,3.3-0.4,4.9c0,0.3,0.1,0.7,0.2,1C37,32.8,37.1,33,37.2,33.1z"/>
</g>
<g id="details">
	<path d="M37.1,32.7c0.6,0.6,1.2,1,2,1.2c0.7,0.2,1.5,0.2,2.3,0.2c0.8-0.1,1.6-0.1,2.4-0.3c0.4-0.1,0.8-0.2,1.1-0.4
		c0.4-0.2,0.6-0.4,1.1-0.6c0.1-0.1,0.2,0,0.3,0.1c0,0.1,0,0.2,0,0.2l0,0c-0.2,0.2-0.6,0.6-1,0.8s-0.8,0.4-1.2,0.6
		c-0.8,0.3-1.7,0.5-2.5,0.5c-0.9,0-1.8-0.1-2.6-0.4c-0.8-0.3-1.6-0.8-2.2-1.5l0,0c-0.1-0.1-0.1-0.3,0-0.4
		C36.8,32.5,37,32.6,37.1,32.7z"/>
	<path d="M45.5,28.8c0.1,0,0.2,0.1,0.2,0.2s0,0.1,0,0.1c0,0.1,0,0.2,0,0.2c0,0.1-0.1,0.3-0.1,0.4c-0.1,0.3-0.2,0.5-0.3,0.8
		S45.1,31,45,31.3c-0.1,0.2-0.2,0.5-0.4,0.8c-0.4,0.5-1,0.8-1.6,0.9c-0.6,0.1-1.1,0-1.7,0.1c-0.6,0-1.1,0-1.7-0.1
		c-0.3-0.1-0.6-0.1-0.8-0.3c-0.3-0.2-0.5-0.5-0.5-0.8l-0.4-3.3c0-0.1,0-0.1,0.1-0.2l0,0l0,0l3.8,0.1l1.9,0.1
		C44.2,28.7,44.9,28.8,45.5,28.8L45.5,28.8z M45.5,29.1c-1.3,0.1-2.5,0-3.8,0c-1.3-0.1-2.5-0.2-3.8-0.3l0.1-0.2
		c0.1,1.1,0.3,2.2,0.4,3.3c0.1,0.5,0.6,0.8,1.1,0.8c0.5,0.1,1.1,0,1.6,0c0.5-0.1,1.1-0.1,1.6-0.1c0.5-0.1,1-0.3,1.3-0.7
		c0.3-0.3,0.5-0.9,0.7-1.4c0.1-0.2,0.2-0.5,0.3-0.8c0.1-0.1,0.1-0.3,0.1-0.4C45.4,29.2,45.4,29.1,45.5,29.1
		C45.4,29,45.3,29,45.5,29.1L45.5,29.1z"/>
	<path d="M38.3,34c0,0.5,0.2,1,0.4,1.4c0.1,0.2,0.2,0.4,0.4,0.5l0.6,0.5c0.4,0.3,0.8,0.6,1.1,0.8c0.2,0.1,0.4,0.1,0.5,0.1
		c0.2,0,0.4-0.1,0.6-0.2c0.4-0.2,0.9-0.4,1.3-0.7c0.4-0.2,0.8-0.6,1.2-0.9c0.4-0.3,0.8-0.6,1.2-1c0.2-0.2,0.4-0.3,0.5-0.5
		s0.3-0.4,0.2-0.7c0.2,0.2,0.1,0.5,0.1,0.8c-0.1,0.3-0.2,0.5-0.4,0.7c-0.3,0.4-0.6,0.9-1,1.2c-0.4,0.4-0.7,0.7-1.2,1.1
		c-0.4,0.3-0.9,0.6-1.4,0.8c-0.3,0.1-0.5,0.2-0.9,0.2s-0.7,0-1-0.2c-0.6-0.3-1-0.7-1.3-1.1c-0.2-0.2-0.3-0.4-0.5-0.6
		c-0.2-0.3-0.3-0.5-0.3-0.8C38.1,35,38.1,34.5,38.3,34z"/>
	<path d="M53.7,39c-0.7,0.2-1.3,0.6-1.8,1.1s-0.8,1.1-1.3,1.7c-0.1,0.2-0.2,0.3-0.4,0.5c-0.1,0.1-0.1,0.2-0.4,0.3c0,0-0.1,0-0.2,0
		c-0.1,0-0.2,0-0.3-0.1c0,0-0.1,0-0.1-0.1l0,0l0,0c0.1,0.1,0.2,0.1,0.4,0.1s0.3-0.2,0.3-0.2v-0.1v-0.1V42c0,0,0,0,0,0.1
		c0.1,0.3,0.1,0.7,0.1,1c0.1,0.7,0.1,1.4,0.1,2.2c0,0,0,0.1-0.1,0l0,0c-0.4-0.6-0.7-1.3-0.9-2c-0.1-0.4-0.2-0.7-0.3-1.1
		c0-0.1,0-0.1,0-0.2l0,0c0,0,0,0,0-0.1c0,0,0-0.1,0.1-0.1v-0.1c0,0,0.1-0.2,0.3-0.2s0.4,0,0.4,0.1c0.1,0,0,0,0,0l0,0c0,0,0,0-0.1,0
		c-0.1-0.1-0.2-0.1-0.2-0.1h-0.1c-0.1,0.1,0,0,0,0c0.1-0.1,0.2-0.2,0.4-0.3c0.5-0.5,0.9-1.1,1.6-1.5C52.2,39.2,52.9,39,53.7,39
		C53.7,38.9,53.7,38.9,53.7,39C53.7,38.9,53.7,39,53.7,39z"/>
	<path d="M31,39.5c0.6,0.4,1.2,0.7,1.8,1c0.3,0.1,0.6,0.3,1,0.4L34,41h0.1l0,0c0,0,0.3,0,0.3,0.1c0,0,0.1,0.1,0.1,0.2
		c0.1,0.3,0.1,0.4,0.2,0.6c0.2,0.7,0.4,1.4,0.4,2.1c0,0.7,0,1.4-0.2,2.2c0,0,0,0-0.1,0l0,0c-0.3-0.7-0.5-1.4-0.7-2
		c-0.2-0.7-0.2-1.4-0.3-2.1c0-0.2-0.1-0.4-0.1-0.4l0,0c0,0.1,0.3,0.1,0.2,0.1h-0.1c-0.1,0-0.1,0-0.2-0.1l-0.3-0.1
		c-0.3-0.2-0.6-0.4-0.9-0.6C32,40.5,31.4,40.1,31,39.5C30.9,39.5,30.9,39.5,31,39.5L31,39.5z"/>
	<path d="M35.5,54.8c2.5,0.7,4.9,0.9,7.4,0.7c1.2-0.1,2.5-0.3,3.7-0.5l1.9-0.3c0.6-0.1,1.3-0.2,1.8-0.4c-1.1,0.8-2.3,1.1-3.5,1.5
		c-1.2,0.3-2.5,0.6-3.8,0.7C40.4,56.7,37.7,56.3,35.5,54.8z"/>
	<path d="M31.7,88.8c0.6,0.1,1.2,0.2,1.8,0.3c0.3,0,0.6,0.1,0.9,0c0.3,0,0.6-0.1,0.8-0.2l0,0c-0.1,0.4-0.5,0.5-0.8,0.6
		s-0.6,0.1-1,0.1c-0.3-0.1-0.6-0.1-0.9-0.2C32.3,89.2,32,89.1,31.7,88.8L31.7,88.8z"/>
	<path d="M46.6,87.7c0.5,0.1,1.1,0.1,1.6,0.1c0.3,0,0.5,0,0.8,0s0.6,0,0.8-0.2l0,0c-0.2,0.3-0.5,0.4-0.8,0.5s-0.6,0.1-0.9,0.1
		c-0.3,0-0.6-0.1-0.8-0.2C47.2,88.1,46.9,87.9,46.6,87.7L46.6,87.7z"/>
</g>
<g id="outline_60_">
	<path d="M37.6,32.9L37.6,32.9c-0.2,0.4,0.9-0.5-0.6,0.9c-0.1-0.1-0.1-0.1-0.1-0.1c-0.1,0-0.1-0.1-0.2-0.1c-0.1-0.1-0.2-0.1-0.4-0.1
		c-0.1,0-0.3,0-0.4,0c-0.1,0-0.3,0-0.5,0c-0.7,0.1-1.4,0.2-2,0.5c-1.2,0.4-2.1,1.5-2.6,2.7c-0.2,0.3-0.2,0.5-0.2,0.9
		c0,0.2,0.1,0.5,0.2,0.8s0.3,0.6,0.5,0.9c0.1,0.3,0,0.4,0.1,0.5v0.3v0.5c-0.1,1.4-0.2,2.9-0.3,4.3v0.3v0.2v0.2
		C31,45.8,31,46,30.9,46.1l-0.4,1c-0.3,0.6-0.6,1.3-0.8,1.9c-0.2,1.4-0.4,2.8-0.6,4.2L29,54.3v0.3c0,0.1,0,0.1,0,0.3
		c0,0.3-0.1,0.4-0.2,0.6c-0.1,0.3-0.4,0.7-0.5,1s-0.2,0.6-0.3,1c-0.1,0.3-0.2,0.7-0.2,1c0,0.1,0,0.1,0,0.2V59v0.5c0,0.7,0,1.4,0.2,2
		s0.6,1.2,1.1,1.7s1.2,0.6,1.9,0.6c0.3,0,0.7,0,1-0.1c0.2,0,0.3-0.1,0.4-0.2l0,0c0,0-0.1-0.1-0.1-0.2C31.9,63,31.6,63,31.2,63
		s-0.8-0.3-1.1-0.6c-0.3-0.3-0.5-0.6-0.7-0.9c0-0.1-0.1-0.2-0.1-0.3s-0.1-0.3,0.1-0.4c0.2-0.1,0.3-0.1,0.4-0.1s0.2,0,0.3,0.1
		c0.4,0.3,0.5,0.6,0.7,0.9c0.1,0.1,0.2,0.3,0.3,0.4c0,0,0.1,0,0,0l0,0c0.1-0.6-0.1-1.3-0.3-2c-0.2-0.6-0.5-1.4-0.9-1.7
		c-0.2-0.2-0.3-0.5-0.3-0.7s0-0.4,0.1-0.6c0.1-0.4,0.3-0.7,0.4-1c0.3-0.7,0.7-1.3,1.1-1.9c0.7-1.2,1.4-2.5,1.9-3.7
		c0.3-0.7,0.5-1.3,0.6-2c0.1-0.3,0.2-0.7,0.2-1c0.1-0.3,0.1-0.7,0.1-1l0.1-0.5v-0.3v-0.1c-0.1,0.5-0.1-1,1,0c0,0.1,0,0.1,0,0.2
		L35,46.9c0,0.7-0.1,1.4-0.1,2.1c0.1,1.3,0.3,2.8,0.4,4.2c0,0.4,0.1,0.6,0.2,0.9l0.2,0.5c0,0.1,0.1,0.3,0.1,0.4c0,0.1,0,0.2,0,0.3
		c0,0.8-0.1,1.5-0.3,2.2c-0.5,1.4-0.9,2.7-1.4,4.1l-0.8,2c-0.3,0.5-0.2,1.3-0.3,1.9c-0.1,1.4-0.1,2.8-0.1,4.3c0,0.7-0.1,1.5-0.2,2.2
		c-0.1,0.4-0.1,0.7-0.2,1.1l-0.1,0.3v0.2v0.1c0,0.1-0.1,0.1-0.1,0.2c0,0-0.1,0.2-0.1,0.3c-0.1,0.6-0.2,1.4-0.1,2
		c0,0.9-0.3,1.6-0.4,2.2c0,0.2-0.1,0.3-0.1,0.5V79c0,0,0,0,0,0.1v0.3v1.1l0.1,2.1c0.1,1.4,0.2,2.8,0.4,4.3c0.1,0.7,0.1,1.4,0.1,2.2
		c0,0.4,0,0.7,0,1.1c0,0.1,0,0.2,0,0.4c0,0-0.1,0.1-0.1,0.2c-0.1,0.1,0,0,0,0.1L32,90.5L31.7,91c-0.4,0.6-0.8,1.3-1.4,1.8
		c-0.7,0.5-1.3,0.8-1.9,1.2c-0.3,0.2-0.6,0.3-1,0.5s-0.6,0.3-0.9,0.4c-0.3,0.2-0.5,0.4-0.6,0.6c0,0.1,0,0.1,0,0.2c0,0,0,0.1,0,0
		c0,0,0,0,0.1,0.1c0.5,0.2,1.2,0.4,1.9,0.4c0.2,0,0.3,0,0.5,0h0.5L30,96l4.3-0.3h0.5h0.3c0,0,0.1,0,0,0s-0.1,0-0.1,0
		c0.1-0.1,0.3-0.4,0.4-0.7l0.1-0.2c0-0.1,0-0.2,0-0.1v-0.5c0-0.3-0.1-0.7-0.1-1c0-0.2-0.1-0.3-0.1-0.4s-0.1-0.1-0.1-0.1l0,0
		c-0.1-0.1-0.1-0.1-0.2-0.2c-0.3-0.5-0.3-1-0.3-1.4c0-0.2,0-0.4,0.1-0.6c0-0.1,0-0.1,0-0.2c0-0.2,0-0.2,0-0.3l0.1-1.1
		c0-0.7,0.1-1.4,0.1-2.1c0-0.8,0.1-1.5,0.2-2.2c0.1-0.7,0.2-1.4,0.3-2.2c0.1-0.5,0.3-0.8,0.4-1.1c0.1-0.3,0.3-0.6,0.3-0.9
		c0.2-0.6,0.1-1.2,0-1.9c-0.1-0.7-0.1-1.4-0.1-2.2c0-0.4,0.1-0.8,0.2-1.2c0.2-0.4,0.3-0.7,0.5-1l1.1-1.9c0.7-1.2,1.5-2.5,2.1-3.7
		l2-3.8l0.1-0.1l0.1-0.1c0.1,0,0.1-0.2,0.5-0.2s0.5,0.3,0.5,0.3c0,0.1,0.1,0.1,0.1,0.2s0,0.1,0,0.2c0,0.2,0.1,0.4,0.1,0.6v0.3v0.2
		l0.1,0.5l0.4,2.1c0.1,0.4,0.1,0.7,0.2,1.1c0,0.2,0.2,0.6,0.3,0.9c0.2,0.7,0.5,1.3,0.8,2l0.8,2c0.2,0.5,0.2,0.8,0.2,1.2
		c0,0.4,0,0.7,0,1.1v0.3c0,0.1,0,0.1,0,0.2l0.1,0.5l0.2,1c0.1,0.4,0.2,0.7,0.2,1.1l0.1,1.1l0.3,4.3c0,0.7,0.1,1.4,0.1,2.2
		c0,0.4,0,0.7,0,1.1C47.1,88.9,47,89,47,89.2l-0.2,0.5c-0.1,0.3-0.2,0.7-0.4,1c-0.1,0.3-0.1,0.6-0.2,0.9c0,0.3,0,0.7,0,1l0.1,1.1
		c0,0.5-0.1,0.8-0.2,1.1c0,0.3,0,0.7,0,0.7s0.1,0.1,0.2,0.1c0.1,0.1,0.3,0.1,0.4,0.2c0.3,0.1,0.6,0.2,1,0.3c0.6,0.1,1.2,0.1,1.7-0.2
		c0.2-0.1,0.4-0.3,0.6-0.6c0-0.1,0.1-0.1,0.1-0.2c0,0,0,0,0-0.1s0-0.2-0.1-0.4v-0.3c-0.1-0.2-0.1-0.4-0.1-0.6c0-0.4-0.1-0.7-0.2-1
		c-0.1-0.3-0.1-0.7-0.2-1c0-0.2-0.1-0.2-0.2-0.6c0-0.2,0-0.4-0.1-0.6v-1.1c0-0.4,0.1-0.8,0.1-1.2l0.3-2.1l0.6-4.2
		c0.1-0.7,0.2-1.4,0.2-2.1v-1.1c0-0.4,0-0.7,0-1.1c0-0.7-0.1-1.3-0.3-2s-0.3-1.4-0.3-2.2c-0.1-0.7-0.1-1.4-0.1-2.3
		c-0.1-0.8,0.1-1.4,0.3-2.1c0.3-1.4,0.6-2.8,0.8-4.2C51,63.4,51,62,51,60.6s-0.2-2.8-0.4-4.2c-0.1-0.3-0.2-0.7-0.3-1l-0.3-1
		c-0.2-0.7-0.4-1.4-0.5-2.1c-0.1-0.7-0.2-1.4-0.3-2.2c0-0.4,0-0.8,0.1-1.2c0.1-0.3,0.1-0.7,0.1-1c0.1-0.7,0.1-1.4,0.2-2.1
		c0-0.4,0-0.7,0.1-1.1c0-0.1,0-0.2,0.1-0.3c0,0,0-0.1,0.1-0.2c0,0,0.3-0.3,0.5-0.2c0.3,0.2,0.2,0.1,0.3,0.2l0.1,0.1
		c0.1,0.2,0.2,0.4,0.2,0.6c0.2,0.7,0.5,1.3,0.8,1.9l0.6,0.9c0.1,0.2,0.2,0.3,0.3,0.5c0,0.1,0.1,0.2,0.1,0.3s0,0.1,0.1,0.2v0.1
		c0.1,0.7,0.3,1.4,0.5,2c0.2,0.7,0.4,1.4,0.7,2s0.6,1.3,0.9,1.9c0.2,0.3,0.3,0.6,0.5,1c0.1,0.4,0.2,0.7,0.3,1.1
		c0.1,0.4,0.1,0.7,0.1,1.1c0,0.2-0.1,0.5-0.2,0.6L55.4,59c-0.4,0.6-0.8,1.2-0.9,1.8c-0.1,0.3-0.2,0.7-0.2,1c0,0.2,0,0.3,0,0.5
		c0,0.1,0,0.1,0,0.1l0.1,0.1c0.1,0.1,0.3-0.1,0.3-0.5c0-0.2,0.1-0.4,0.2-0.5c0.1-0.2,0.1-0.4,0.3-0.5l0,0h0.2
		c0.3,0.2,0.2,0.4,0.3,0.6c0.1,0.2,0.2,0.4,0.1,0.6c0,0.4-0.2,0.8-0.4,1.2c-0.2,0.3-0.4,0.7-0.6,1c-0.1,0.2-0.2,0.3-0.3,0.5
		c0,0.1-0.1,0.1-0.1,0.2s0,0,0,0s0.2,0,0.4,0s0.3-0.1,0.5-0.1c0.3-0.1,0.6-0.3,0.9-0.5c0.6-0.4,1.2-0.9,1.5-1.5s0.3-1.4,0.3-2.1
		c0-0.4,0-0.7,0-1.1c0-0.4,0-0.7-0.1-1.1c0-0.4-0.1-0.7-0.2-1c-0.2-0.3-0.3-0.8-0.4-1.2c-0.1-0.8-0.1-1.5-0.2-2.3
		c-0.1-1.5-0.2-3-0.4-4.5c-0.1-0.7-0.3-1.5-0.6-2c-0.2-0.3-0.5-0.7-0.6-1.1c-0.2-0.4-0.2-0.8-0.3-1.2c-0.4-1.4-0.9-2.9-1.4-4.3
		c-0.1-0.4-0.3-0.7-0.4-1l-0.1-0.2v-0.1l0,0l-0.1-0.1l-0.1-0.1C53,39.1,53,38.9,53,38.7c0-0.4,0.1-0.8,0.1-1.1c0-0.4,0-0.7,0-1
		c-0.1-0.7-0.3-1.3-0.8-1.6c-0.6-0.3-1.3-0.6-1.9-0.8c-0.7-0.2-1.4-0.3-2.1-0.3c-0.7,0-1.6,0-2.3-0.1h-0.3c0,0-0.1,0-0.2-0.1
		c-0.1,0-0.2-0.1-0.3-0.3s-0.1-0.4-0.1-0.5c0-0.2,0.1-0.2,0.1-0.3c0.1-0.2,0.2-0.4,0.4-0.5c0.2-0.3,0.4-0.6,0.5-0.9
		c0.3-0.6,0.5-1.2,0.6-1.9c0.1-0.8,0.2-1.4,0.1-2.1c-0.1-0.7-0.3-1.3-0.7-1.8s-0.9-0.8-1.6-1.1c-0.6-0.3-1.3-0.5-2-0.6
		s-1.4,0-2.1,0.2c-0.7,0.2-1.3,0.5-1.8,0.9c-1.1,1-1.4,2.5-1.5,4c0,0.7,0,1.5,0.1,2.2c0,0.4,0.1,0.7,0.2,1.1
		C37.4,32.3,37.5,32.7,37.6,32.9z M36.8,33.4c-0.3-0.5-0.3-0.9-0.4-1.3c-0.1-0.4-0.1-0.8-0.1-1.2c0-0.8,0.1-1.6,0.2-2.3
		c0.2-1.5,0.5-3.2,1.7-4.4c0.6-0.6,1.3-1,2-1.3s1.6-0.5,2.4-0.4c0.8,0,1.7,0.2,2.4,0.5s1.5,0.8,2.1,1.5c1.2,1.4,1.1,3.3,0.9,4.8
		c-0.1,0.8-0.4,1.7-0.7,2.4c-0.2,0.3-0.4,0.7-0.6,1c-0.1,0.2-0.2,0.3-0.3,0.4c0,0,0,0.1,0,0c0,0,0-0.1-0.1-0.3
		c-0.1-0.1-0.2-0.2-0.2-0.2c-0.1,0-0.2-0.1-0.2-0.1c-0.2,0,0,0,0.1,0h0.2c0.8,0.1,1.5,0.1,2.3,0.1s1.6,0.2,2.4,0.4
		c0.4,0.1,0.8,0.3,1.1,0.4c0.4,0.2,0.7,0.3,1.1,0.6c0.8,0.5,1.2,1.5,1.2,2.4c0,0.4,0,0.8,0,1.2s-0.1,0.8-0.2,1.1c0,0.2,0,0.3,0,0.3
		l0,0l0,0l0.1,0.1c0.1,0.1,0.1,0.1,0.1,0.2l0.1,0.3c0.2,0.4,0.3,0.7,0.4,1.1c0.5,1.5,1,2.9,1.4,4.4c0.1,0.8,0.3,1.3,0.8,1.9
		c0.3,0.4,0.3,0.8,0.4,1.2c0.1,0.4,0.2,0.8,0.2,1.2c0.2,1.5,0.3,3,0.4,4.6c0.1,0.7,0.1,1.5,0.2,2.2c0.1,0.4,0.1,0.6,0.3,1
		s0.2,0.8,0.3,1.2c0.1,1.6,0.3,3.1-0.4,4.7c-0.4,0.7-1.1,1.2-1.7,1.7c-0.3,0.2-0.7,0.4-1.1,0.6c-0.2,0.1-0.4,0.1-0.6,0.1
		c-0.2,0-0.4,0.1-0.7-0.1c-0.2-0.1-0.2-0.4-0.2-0.5s0.1-0.2,0.1-0.3c0.1-0.2,0.2-0.3,0.3-0.5c0.2-0.3,0.4-0.6,0.6-0.9
		c0.2-0.3,0.3-0.6,0.4-1c0-0.2,0.1-0.4,0.1-0.5c0.1-0.2-0.2-0.3-0.2-0.4h0.2l0,0c-0.1,0.3-0.2,0.6-0.3,0.9c0,0.2-0.1,0.4-0.2,0.6
		c-0.1,0.2-0.4,0.4-0.7,0.3c-0.1,0-0.2-0.1-0.3-0.2c-0.1-0.1-0.2-0.3-0.2-0.4c0-0.2,0-0.4,0-0.6c0-0.4,0.1-0.7,0.2-1.1
		c0.2-0.8,0.6-1.4,1-2l0.3-0.5c0.1-0.2,0.1-0.2,0.1-0.4c0-0.3-0.1-0.7-0.1-1c-0.1-0.3-0.2-0.7-0.3-1s-0.3-0.6-0.5-0.9
		c-0.3-0.6-0.6-1.3-0.9-1.9c-0.1-0.3-0.3-0.7-0.4-1l-0.3-1c-0.2-0.7-0.4-1.4-0.6-2.1c0-0.3-0.2-0.5-0.4-0.8l-1-1
		c-0.4-0.6-0.7-1.4-0.9-2C50,45,50,44.9,49.9,44.8l0,0c0.1,0-0.1,0,0.2,0.1c0.2,0.1,0.5-0.2,0.4-0.2l0,0c0,0,0,0.1,0,0.2
		c0,0.3-0.1,0.7-0.1,1c0,0.7-0.1,1.4-0.1,2.2c0,0.4-0.1,0.7-0.1,1.1c-0.1,0.3-0.1,0.6-0.1,1c0,0.7,0.1,1.4,0.3,2
		c0.1,0.7,0.3,1.4,0.5,2.1l0.3,1c0.1,0.4,0.2,0.7,0.3,1.1c0.3,1.4,0.4,2.9,0.5,4.3c0,1.5,0,2.9-0.2,4.4c-0.2,1.4-0.4,2.9-0.6,4.3
		c-0.1,0.7-0.2,1.4-0.5,2.1c-0.1,0.6,0,1.3,0.1,2s0.2,1.4,0.3,2.1c0.2,0.7,0.3,1.5,0.3,2.2l0.1,2.2c0,0.8-0.1,1.5-0.2,2.2l-0.6,4.3
		l-0.3,2.1c0,0.4-0.1,0.7-0.1,1v1.1c0,0.2,0,0.3,0,0.5c0,0,0.1,0.3,0.2,0.4c0.1,0.4,0.2,0.7,0.3,1.1s0.1,0.7,0.2,1.1
		c0,0.2,0,0.3,0.1,0.4l0.2,0.5c0.1,0.2,0.1,0.4,0.1,0.7c0,0.1,0,0.3-0.1,0.5c-0.1,0.1-0.1,0.2-0.2,0.3c-0.2,0.4-0.6,0.7-0.9,0.9
		c-0.7,0.5-1.7,0.5-2.4,0.3c-0.4-0.1-0.7-0.2-1.1-0.3c-0.2-0.1-0.4-0.1-0.5-0.2c-0.2-0.1-0.4-0.2-0.6-0.5c-0.3-0.6-0.2-1-0.2-1.4
		s0.1-0.8,0.1-1l-0.1-1c0-0.4,0-0.7,0-1.1s0.1-0.8,0.2-1.2c0.1-0.3,0.2-0.6,0.3-1l0.2-0.5c0-0.2,0.1-0.4,0.1-0.4c0-0.3,0-0.7,0-1
		c0-0.7,0-1.4-0.1-2.1L45.8,81l-0.1-1c0-0.3-0.1-0.6-0.2-1l-0.2-1l-0.1-0.5c0-0.1,0-0.2,0-0.3v-0.3c0-0.4,0-0.7,0-1.1
		c0-0.3-0.1-0.7-0.1-0.9l-0.8-2c-0.3-0.7-0.5-1.3-0.8-2c-0.1-0.4-0.2-0.7-0.3-1.2c0-0.3-0.1-0.7-0.2-1l-0.4-2.1l-0.1-0.5v-0.3v-0.3
		c0-0.2,0-0.3-0.1-0.5v-0.1l0,0c0,0,0.1,0.2,0.4,0.2C43,65.2,43,65,43,65l0,0v0.1l-2,3.8c-0.7,1.3-1.4,2.5-2.2,3.7l-1.1,1.8
		c-0.2,0.3-0.3,0.6-0.5,0.9c-0.1,0.2-0.1,0.5-0.2,0.9c0,0.7,0,1.4,0.1,2.1c0,0.4,0.1,0.7,0.1,1.1s-0.1,0.8-0.2,1.2
		c-0.1,0.4-0.2,0.7-0.4,1.1c-0.2,0.3-0.3,0.7-0.4,0.9c-0.1,0.6-0.2,1.4-0.3,2.1s-0.2,1.4-0.2,2.1s-0.1,1.5-0.1,2.2l0.1,1v0.2
		c0,0.1,0,0.3,0,0.3c0,0.2,0,0.3,0,0.5c0,0.3,0,0.6,0.1,0.7l0.2,0.2c0.1,0.1,0.2,0.2,0.2,0.3c0.1,0.2,0.2,0.4,0.2,0.6
		c0.1,0.4,0.1,0.8,0.2,1.1v0.6c0,0.2,0,0.3-0.1,0.4l-0.1,0.3c-0.2,0.4-0.2,0.7-0.7,1.1c-0.1,0.1-0.1,0.1-0.3,0.2s-0.2,0-0.2,0h-0.3
		h-0.5L30.1,97L29,97.1h-0.5c-0.2,0-0.4,0-0.6,0c-0.8-0.1-1.5-0.2-2.3-0.5c-0.1-0.1-0.2-0.1-0.3-0.3c-0.2-0.2-0.2-0.3-0.2-0.4
		c-0.1-0.3,0-0.6,0.1-0.9c0.2-0.5,0.6-0.7,0.9-0.9c0.3-0.2,0.7-0.4,1-0.5s0.6-0.3,0.9-0.5c0.6-0.3,1.3-0.7,1.8-1.1s0.8-1,1.2-1.6
		l0.3-0.5l0.1-0.1c0,0,0.1-0.1,0-0.1v0.1c0,0,0-0.1,0-0.2c0-0.3,0-0.7,0-1c0-0.7-0.1-1.4-0.1-2.1c-0.1-1.4-0.3-2.8-0.4-4.3l-0.1-2.1
		V79v-0.3c0,0,0-0.1,0-0.2v-0.2c0-0.2,0.1-0.4,0.1-0.6c0.2-0.7,0.4-1.4,0.4-1.9c0-0.8,0-1.5,0.1-2.2c0.1-0.2,0-0.4,0.2-0.7
		c0,0,0,0,0,0.1l0,0v-0.1l0.1-0.2c0.1-0.3,0.1-0.7,0.2-1c0.1-0.7,0.2-1.4,0.2-2.1c0-0.2,0-0.3,0-0.5s0-0.4,0-0.6v-1.1
		c0-0.7,0-1.4,0.1-2.2c0-0.4,0.1-0.7,0.1-1.1c0-0.2,0-0.4,0.1-0.6c0.1-0.3,0.1-0.4,0.2-0.6l0.8-2c0.5-1.3,1-2.7,1.4-4
		c0.2-0.6,0.3-1.3,0.3-2v-0.2c0-0.1,0-0.1,0-0.2L34.9,54c-0.1-0.4-0.2-0.8-0.2-1.2l-0.2-2.1l-0.1-1.1l-0.1-0.5c0-0.2,0-0.4,0-0.6
		c0-0.7,0.1-1.4,0.1-2.2l0.1-1.1v-0.1c1.1,0.9,1-0.4,0.9,0.1l0,0v0.3L35.3,46c0,0.3-0.1,0.7-0.2,1.1c-0.1,0.4-0.2,0.7-0.2,1.1
		c-0.2,0.7-0.4,1.4-0.7,2.1c-0.6,1.3-1.3,2.6-2.1,3.8c-0.4,0.6-0.8,1.2-1.1,1.8c-0.2,0.3-0.3,0.6-0.4,0.9c-0.1,0.3-0.1,0.7,0,0.7
		c0.3,0.3,0.5,0.7,0.6,1c0.2,0.3,0.3,0.7,0.4,1s0.2,0.7,0.3,1.1c0.1,0.4,0.1,0.7,0,1.2c0,0.1-0.1,0.3-0.3,0.4
		c-0.2,0-0.4-0.1-0.4-0.1c-0.2-0.1-0.3-0.3-0.4-0.5c-0.2-0.3-0.4-0.7-0.6-0.8c-0.3-0.1-0.3-0.2-0.2,0.2c0.1,0.3,0.4,0.6,0.6,0.8
		s0.5,0.4,0.8,0.4c0.2,0,0.3,0,0.5,0s0.4,0.1,0.6,0.3c0.1,0.1,0.1,0.1,0.2,0.3c0.1,0.2,0,0.4-0.1,0.5c-0.2,0.2-0.4,0.2-0.6,0.3
		C31.5,64,31.1,64,30.8,64c-0.7,0-1.5-0.1-2.1-0.7c-0.6-0.5-1-1.2-1.3-1.9c-0.3-0.8-0.2-1.5-0.3-2.2v-0.5v-0.3c0-0.1,0-0.2,0-0.3
		c0.1-0.4,0.1-0.7,0.2-1.1c0.1-0.4,0.2-0.7,0.3-1.1c0.2-0.4,0.3-0.6,0.5-0.9c0.1-0.1,0.1-0.3,0.1-0.4c0,0,0-0.2,0-0.3V54l0.1-1.1
		c0.2-1.4,0.3-2.8,0.5-4.3c0.2-0.8,0.5-1.4,0.8-2.1l0.4-1c0.1-0.2,0.1-0.3,0.2-0.5v-0.1v-0.1v-0.3l0.2-4.3v-0.5v-0.3
		c0-0.1,0-0.2,0,0c-0.1-0.3-0.4-0.6-0.5-1s-0.3-0.8-0.2-1.3c0-0.4,0.1-0.9,0.3-1.2c0.3-0.7,0.7-1.4,1.2-1.9c0.3-0.3,0.5-0.6,0.9-0.8
		c0.3-0.2,0.7-0.4,1.1-0.6c0.7-0.3,1.4-0.4,2.2-0.5c0.2,0,0.4,0,0.6-0.1c0.2,0,0.5,0,0.7,0.1s0.4,0.1,0.6,0.3
		c0.1,0.1,0.2,0.1,0.3,0.2c0,0,0.1,0.1,0,0C36.1,33.9,37.2,33,36.8,33.4L36.8,33.4z"/>
</g>
</svg>
