<?xml version="1.0" encoding="utf-8"?>
<!-- Generator: Adobe Illustrator 21.0.0, SVG Export Plug-In . SVG Version: 6.00 Build 0)  -->
<svg version="1.1" id="Layer_6" xmlns="http://www.w3.org/2000/svg" xmlns:xlink="http://www.w3.org/1999/xlink" x="0px" y="0px"
	 viewBox="89 67 127 144" style="enable-background:new 0 0 700 544.6;" xml:space="preserve">
<style type="text/css">
	.special2-0{fill:none;stroke:#000000;stroke-width:0.5;stroke-linejoin:round;stroke-miterlimit:10;}
	.special2-1{stroke:#000000;stroke-width:0.25;stroke-miterlimit:10;}
	.special2-2{fill:none;stroke:#000000;stroke-miterlimit:10;}
	.special2-3{fill:none;stroke:#000000;stroke-width:0.75;stroke-miterlimit:10;}
	.special2-4{fill:none;stroke:#000000;stroke-width:0.5;stroke-miterlimit:10;}
	.special2-5{fill:none;stroke:#000000;stroke-width:0.5;}
	.special2-6{fill:none;stroke:#000000;stroke-width:0.35;}
</style>
<g id="Layer_7">
	<g>
		<path d="M202.9,95.9c0.8-1.5,1.5-3.1,2.2-4.7c0.6-1.6,1.3-3.3,1.5-4.9c0.2-1.7,0.1-3.4-0.2-5.1s-0.8-3.3-1.6-4.8s-1.8-2.9-3.1-4
			s-2.8-2-4.3-2.7c-3.1-1.4-6.7-2.1-10.1-1.6c-0.9,0.1-1.7,0.4-2.5,0.7c-0.8,0.3-1.5,0.7-2.2,1.3c-1.4,1-2.6,2.2-3.7,3.6
			c-1.1,1.4-1.9,2.9-2.6,4.5c-0.7,1.6-1.3,3.2-1.6,4.9c-0.3,1.7-0.5,3.4-0.5,5.1c0,0.9,0,1.7,0,2.6s0,1.7,0.1,2.5
			c0.2,1.6,0.7,3.4,1.9,4.4c0.3,0.2,0.6,0.5,1,0.7s0.7,0.4,1.1,0.6c0.7,0.4,1.7,0.7,1.7,0.2l0.7,0.2c-0.1,0.3-0.3,0.6-0.6,0.8
			c-0.3,0.1-0.6,0.1-0.9,0.1c-0.5-0.1-1-0.2-1.4-0.4c-0.4-0.2-0.8-0.4-1.2-0.6s-0.8-0.4-1.2-0.8c-0.8-0.6-1.3-1.5-1.7-2.3
			c-0.4-0.9-0.6-1.8-0.7-2.7c-0.1-0.9-0.2-1.8-0.2-2.7c0-0.9,0-1.8,0-2.6c0-1.8,0.2-3.6,0.6-5.3c0.4-1.8,1-3.5,1.9-5.1
			c0.8-1.6,1.8-3.1,2.9-4.5c1.1-1.4,2.4-2.6,3.9-3.7c0.7-0.5,1.5-1,2.4-1.4c0.9-0.3,1.7-0.6,2.6-0.7c3.6-0.6,7.2,0.1,10.5,1.5
			c1.7,0.7,3.2,1.6,4.7,2.7c1.4,1.2,2.6,2.6,3.5,4.2c1.7,3.2,2.4,6.9,2,10.6c-0.1,0.9-0.4,1.8-0.7,2.7c-0.3,0.8-0.6,1.7-1,2.5
			c-0.7,1.6-1.5,3.2-2.5,4.7L202.9,95.9z"/>
	</g>
	<g>
		<path d="M183.8,89.5c1.5,0.9,3,1.8,4.4,2.7c0.7,0.5,1.4,1,2.2,1.5c0.8,0.4,1.5,0.8,2.3,1.2c0.8,0.3,1.6,0.6,2.5,0.9
			c0.8,0.2,1.7,0.4,2.5,0.6c1.7,0.4,3.3,0.7,5,0.6l0.1,0.7c-1.8,0.5-3.7,0.2-5.4-0.3c-0.9-0.3-1.7-0.6-2.5-0.9s-1.7-0.6-2.5-1
			c-0.8-0.3-1.6-0.7-2.4-1.1c-0.8-0.4-1.6-0.7-2.4-1.1c-1.5-0.9-3-2-4-3.5L183.8,89.5z"/>
	</g>
	<g>
		<path d="M180.3,89.5c-0.2-0.3-0.1-0.6,0.1-0.9c0.1-0.1,0.3-0.2,0.4-0.3c0.1-0.1,0.3-0.2,0.4-0.3c0.3-0.2,0.8-0.2,1.2-0.2
			c0.4,0.1,0.5,0.4,0.6,0.7l-0.5,0.5c-0.4-0.1-0.5-0.2-0.6-0.3c0-0.1-0.1-0.2-0.1-0.2c-0.1,0-0.1,0-0.2,0c0,0.1-0.1,0.1-0.1,0.2
			s0,0.2,0,0.3c0,0.2-0.2,0.4-0.5,0.6L180.3,89.5z"/>
	</g>
	<g>
		<path d="M180.1,97.7c-0.4-0.5-0.5-1.1-0.6-1.7s0.1-1.2,0.1-1.7c0.1-0.6,0.2-1.1,0.3-1.7l0.1-0.9c0-0.1,0.1-0.3,0.1-0.4
			s0.1-0.3,0.2-0.4h0.1c0.1,0.2,0.1,0.3,0.1,0.4s0,0.3,0,0.4c0,0.3,0,0.6,0,0.8c0,0.6,0.1,1.1,0.1,1.7s0.2,1.1,0.1,1.7
			c-0.1,0.6-0.2,1.1-0.5,1.7L180.1,97.7z"/>
	</g>
	<path class="special2-0" d="M193.9,108.4c-1,1.5-2.1,2.7-3.1,3.5c1.1-0.2,2.2-0.6,3.1-1.3c0.9-0.7,1.7-1.5,2.4-2.4l0,0
		c-0.4,0.1-0.9,0.1-1.3,0.1C194.7,108.4,194.3,108.4,193.9,108.4L193.9,108.4z"/>
	<path class="special2-0" d="M194.6,107.4c1,0.1,2-0.1,2.7-0.5l0,0c0.8-1.3,1.3-2.7,1.6-4.1l0,0l-3.8,3.8C195,106.6,194.8,107,194.6,107.4z
		"/>
	<path class="special2-0" d="M196.8,99.6c0,1.5-0.3,3.2-0.8,4.6l3-2.9l0,0c0.2-2.5-0.1-4.1-0.1-4.1"/>
	<path class="special2-0" d="M198.9,97.1c-1.6-0.2-3.2-0.7-4.9-1.4c-3.1-1.3-6-3-8-4.4"/>
	<path class="special2-0" d="M187.9,106.1c-0.3-0.1-0.5-0.3-0.7-0.4c-1.4-0.8-4-3.3-6.1-5.5l0,0c-1.2,2.3-2.4,4.3-2.9,5.3
		c1.4,2,3.3,4.2,6,5.5l0,0L187.9,106.1L187.9,106.1z"/>
	<path class="special2-0" d="M188.8,106.6l-3.6,4.8l0,0c0.5,0.2,1.1,0.4,1.6,0.5c0,0,0.7,0.1,1.8,0.2c0,0,0.2,0,0.2-0.1
		c0.9-0.3,2.6-1.8,4.1-3.9C191.5,107.8,190.1,107.2,188.8,106.6L188.8,106.6z"/>
	<path class="special2-0" d="M186,91.5c-0.9,1.5-2.6,4.7-4.3,7.7v0.1c2,2.1,4.7,4.7,6,5.5c2.1,1.3,4.1,2.1,5.8,2.4l0,0
		c1-1.7,1.9-3.7,2.2-5.9"/>
	<path class="special2-0" d="M185.2,90.8c-0.5-0.4-1-0.7-1.3-1c-0.1,0-0.2,0-0.3,0c-1,0.1-3.4,1-3.8,1.3c-0.3,0.4-1.1,4.2-0.8,5
		c0.1,0.3,0.9,1.2,1.9,2.4v0.1c1.7-3.1,3.4-6.3,4.3-7.7"/>
	<path class="special2-0" d="M175.2,97.7c0.3,2,0.8,4,2.5,6.8l0,0c0.6-1.2,2.8-5.1,2.8-5.1c-1.2-1.3-2.2-2.5-2.3-3c-0.4-1.1,0.4-5.5,1-6.1
		c0.4-0.4,4.5-2.2,5.5-1.3c1.5,1.2,5.5,4,9.8,5.8c3.6,1.5,7,1.8,9.7,1.1c0.9-0.2,1.4-0.6,1.5-1c0.1-0.3-0.1-0.6-0.2-0.8
		c-0.2,0.1-1,0.4-1.3,0.6"/>
	<path class="special2-0" d="M204.9,93.2c0.4-0.2,0.8-0.2,1.1,0.1c0.2,0.2,0.7,1,0.5,1.9c-0.2,0.7-0.7,1.2-1.6,1.5l0.1-0.1l-5.1,5
		c0,0.2,0,0.4-0.1,0.7c-0.4,3.4-2.4,6.8-5.4,9.1c-1.7,1.3-4,1.6-5.6,1.6c-1.2,0-2.2-0.2-2.2-0.2c-3.8-0.8-7.2-3.4-9.8-7.7
		c-2.2-3.6-2.6-6.3-2.8-8.7"/>
	<path class="special2-0" d="M199.9,97c0,0.1,0.2,1.2,0.2,3.2l0,0l3.2-3.1l0,0c-1,0.2-2.2,0.2-3.4,0.1"/>
	<g>
		<polygon points="179.4,101.2 178.8,99.9 179.8,99.7 179.7,101.1 		"/>
	</g>
	<g>
		<path d="M185.8,109c-0.8-0.1-1.6-0.3-2.3-0.7c-0.7-0.3-1.4-0.8-2-1.4s-1.1-1.2-1.4-2c-0.3-0.8-0.4-1.6-0.3-2.4h0.1
			c0.5,0.6,0.9,1.3,1.3,1.9c0.4,0.6,0.6,1.3,1,1.9s0.9,1.1,1.5,1.5s1.3,0.6,2,0.7L185.8,109z"/>
	</g>
	<g>
		<path d="M198.1,97c-0.4,1.4-1,2.7-1.7,3.9c-0.8,1.2-1.6,2.3-2.5,3.5c-0.4,0.6-0.8,1.1-1.3,1.7c-0.4,0.6-0.9,1.1-1.4,1.6
			c-0.3,0.2-0.5,0.5-0.9,0.7l-0.5,0.3l-0.5,0.2c-0.3,0.2-0.8,0.2-1.1,0.3c-0.4,0-0.7,0-1.1,0v-0.6c0.3-0.1,0.7-0.1,1-0.2
			s0.6-0.1,0.9-0.3l0.4-0.2l0.4-0.3c0.3-0.2,0.5-0.4,0.8-0.6c1.1-0.8,2-1.8,2.8-3c0.8-1.1,1.5-2.4,2.1-3.6c0.7-1.2,1.4-2.4,2.1-3.6
			L198.1,97z"/>
	</g>
	<g>
		<path d="M193.1,98.4c-0.2,0.4,0.1,1,0.2,1.8c0,0.4,0,0.8-0.1,1.1c-0.1,0.4-0.2,0.7-0.3,1c-0.2,0.3-0.3,0.7-0.8,0.9
			c-0.3,0.1-0.5,0-0.7-0.2l-0.4-0.3c-0.3-0.2-0.5-0.3-0.8-0.5s-0.6-0.4-0.9-0.7l0.3-0.3c0.3,0.2,0.5,0.3,0.8,0.5
			c0.3,0.1,0.7,0.3,1,0.6c0.1,0.1,0.3,0.3,0.4,0.4c0.1,0.1,0.2,0.1,0.2,0.1c0.2,0,0.4-0.3,0.5-0.6c0.2-0.6,0.3-1.3,0.1-1.9
			c-0.1-0.3-0.1-0.6-0.2-1c0-0.3,0-0.9,0.4-1.2L193.1,98.4z"/>
	</g>
	<g>
		<path d="M173.3,87.7c-4.3-0.9-8.9-0.8-13.2,0.2c-2.2,0.5-4.2,1.2-6.2,2.2c-1.9,1-3.8,2.2-5.6,3.5s-3.5,2.7-4.7,4.5
			c-0.7,0.9-1.2,1.8-1.8,2.8c-0.7,1-1.5,1.9-2.4,2.6c-1.9,1.5-4.1,2.3-6.2,3.1c-2.1,0.8-4.3,1.4-6.4,2.2c-1.1,0.4-2.1,0.8-3.1,1.3
			s-2,1.1-2.5,1.9c-0.2,0.4-0.3,0.9-0.3,1.5c0,0.5,0,1.1,0,1.6c0.1,1.1,0.2,2.2,0.5,3.3c0.3,1.1,0.6,2.1,1.2,3
			c0.3,0.4,0.6,0.9,1,1.1c0.3,0.2,0.9,0.3,1.4,0.4c1.1,0.2,2.2,0.3,3.4,0.6c1.1,0.3,2.3,0.8,3.3,1.4c2,1.3,3.5,3.2,4.7,5.2
			c0.6,1,1.1,2.1,1.4,3.3c0.3,1.2,0,2.6,0.4,3.1c0.4,0.7,1.5,1.2,2.4,1.7c1,0.5,2,0.9,3,1.3c2.1,0.8,4.2,1.5,6.4,2.2l-0.2,0.9
			c-2.2-0.5-4.4-1.1-6.6-1.9c-1.1-0.4-2.1-0.8-3.2-1.3c-0.5-0.2-1-0.5-1.6-0.8c-0.5-0.3-1.1-0.7-1.5-1.3c-0.4-0.7-0.4-1.4-0.5-2
			c0-0.6-0.1-1.1-0.2-1.6c-0.2-1-0.7-2-1.2-2.9c-1.1-1.8-2.5-3.6-4.3-4.8c-0.9-0.6-1.8-1-2.9-1.3c-1-0.3-2.1-0.4-3.3-0.7
			c-0.6-0.1-1.1-0.2-1.8-0.6c-0.6-0.4-0.9-0.9-1.2-1.5c-0.6-1.1-0.9-2.2-1.2-3.3c-0.3-1.1-0.4-2.3-0.5-3.4c0-0.6,0-1.2,0-1.7
			c0.1-0.6,0.1-1.2,0.4-1.8c0.3-0.6,0.8-1,1.3-1.3s1-0.6,1.5-0.9c1-0.5,2.1-0.9,3.2-1.3c2.1-0.8,4.3-1.5,6.4-2.3
			c2.1-0.8,4.2-1.6,5.8-3.1c0.8-0.7,1.5-1.5,2.1-2.4c0.5-0.9,1.1-2,1.8-2.9c1.3-1.9,3.1-3.6,4.9-4.9c1.9-1.3,3.7-2.6,5.8-3.7
			c2.1-1,4.3-1.7,6.6-2.2c4.5-0.9,9.2-0.9,13.7,0.4L173.3,87.7z"/>
	</g>
	<g>
		<path class="special2-1" d="M202.8,98.8c0.6,0.5,1.1,1.4,1.5,2c0.3,0.6,0.6,1.2,0.9,1.9c0.5,1.3,0.9,2.6,0.9,4.1c0,0.4-0.1,0.7-0.1,1.1
			l-0.1,1c-0.1,0.7-0.2,1.4-0.3,2c-0.3,1.4-0.7,2.8-1.8,4c-0.6,0.6-1.1,0.8-1.5,1.3c-0.4,0.4-0.8,0.9-1.1,1.5
			c-0.2,0.3-0.3,0.6-0.6,0.9c-0.1,0.2-0.3,0.3-0.5,0.4l-0.4,0.3c-0.6,0.4-1.1,0.7-1.7,1.1c-2.3,1.4-4.6,2.8-7.1,3.9
			c-1.3,0.6-2.7,0.8-4,0.9c-0.3,0-0.7,0-0.9,0.1c-0.1,0-0.3,0.1-0.3,0.1l-0.3,0.3l-1.6,1.3c-1,0.8-2.1,1.7-3.1,2.6
			c-0.9,1-2.1,1.8-3.2,2.6c-0.6,0.4-1.2,0.7-1.9,1c-0.2,0.1-0.4,0.1-0.6,0.2c-0.2,0-0.5,0.1-0.6,0.1c-0.4,0-0.7,0-1,0
			c-1.3-0.1-2.7-0.1-3.9,0c-0.6,0.1-1.3,0.1-1.5,0.4l-1.5,1.4c-1,0.9-2.4,2.1-3.4,3l-0.2-0.9c0.9-1,1.8-2,2.8-2.9l1.4-1.4
			c0.1-0.1,0.1-0.1,0.2-0.2c0.1-0.1,0.3-0.2,0.4-0.3c0.2-0.1,0.4-0.2,0.6-0.2c0.4-0.1,0.7-0.1,1.1-0.1c1.4-0.1,2.7-0.1,4.1,0h1
			c0.2,0,0.2,0,0.4,0c0.1,0,0.3-0.1,0.4-0.1c0.6-0.2,1.1-0.5,1.7-0.8c1.1-0.7,2.2-1.3,3.2-2.3c1.1-0.9,2.2-1.6,3.2-2.4
			c0.5-0.4,1.1-0.8,1.6-1.2l0.2-0.1l0.1-0.1l0.2-0.1c0.2-0.1,0.4-0.2,0.6-0.2c0.4-0.1,0.7-0.1,1-0.1c1.3-0.1,2.6-0.2,3.8-0.8
			c2.4-1.2,4.7-2.6,6.9-4.1c0.5-0.4,1.1-0.8,1.6-1.1l0.4-0.3c0.1-0.1,0.2-0.2,0.2-0.3c0.1-0.2,0.3-0.5,0.4-0.8
			c0.3-0.6,0.7-1.3,1.2-1.8c0.5-0.6,1.2-1,1.5-1.4c0.8-0.8,1.1-2,1.4-3.3c0.1-0.6,0.2-1.3,0.3-1.9l0.1-1c0-0.3,0.1-0.7,0.1-0.9
			c0-1.2-0.3-2.5-0.6-3.7c-0.4-1.2-1.3-3-2-3.9L202.8,98.8z"/>
	</g>
	<g>
		<path d="M186.3,125c0,2.4,0,4.9,0.6,7.2c0.6,2.4,1.1,4.8,1.5,7.2c0.3,1.2,0.6,2.3,1,3.5s0.7,2.3,1.2,3.5c0.4,1.2,0.6,2.4,0.7,3.7
			c0,0.5,0.2,1.1,0.3,1.7c0.1,0.6,0.3,1.2,0.4,1.8c0.3,2.5,0.8,4.8,1.2,7.2c0.3,1.1,0.8,2.3,1.2,3.4c0.5,1.1,0.9,2.3,1.4,3.4
			c0.5,1.1,0.9,2.3,1.6,3.3c0.6,1,1.3,2.1,1.9,3.1l0.5,0.8c0.2,0.3,0.3,0.5,0.5,0.9c0,0,0,0.1,0,0.2c0,0.1-0.1,0.2-0.2,0.3H200h-0.1
			l-0.2,0.1c-0.1,0.1-0.3,0.1-0.4,0.2c-0.2,0.1-0.5,0.3-0.7,0.5c-0.1,0.1-0.2,0.2-0.3,0.3s-0.2,0.2-0.2,0.3
			c-0.1,0.2-0.2,0.5-0.2,0.7c0,0.1,0,0.1,0,0.1l0,0h0.2c0.1,0,0.4,0,0.3,0c-0.1,0,0.1-0.1,0.2-0.2l0.6,0.6c-0.1,0.1-0.1,0.2-0.5,0.4
			c-0.2,0.1-0.3,0.1-0.4,0.1h-0.2h-0.2c-0.1,0-0.3,0-0.4-0.1c-0.3-0.2-0.3-0.6-0.3-0.8c0-0.4,0.2-0.7,0.4-1c0.1-0.1,0.2-0.3,0.3-0.4
			c0.1-0.1,0.2-0.2,0.4-0.3c0.2-0.2,0.5-0.4,0.8-0.6c0.1-0.1,0.3-0.2,0.4-0.2l0.2-0.1l0.1-0.1l0,0c-0.1,0-0.2,0.2-0.2,0.2v0.1
			c0-0.1-0.2-0.5-0.4-0.7l-0.5-0.8c-0.6-1-1.3-2.1-2-3.1c-0.7-1.1-1.1-2.2-1.6-3.4c-0.5-1.1-1-2.3-1.4-3.4c-0.5-1.2-0.9-2.2-1.3-3.5
			c-0.5-2.4-1-4.8-1.3-7.2c-0.1-0.6-0.3-1.2-0.4-1.8c-0.1-0.6-0.3-1.2-0.4-1.9c-0.1-1.1-0.4-2.4-0.7-3.5c-0.4-1.1-0.9-2.3-1.2-3.5
			c-0.4-1.2-0.7-2.3-1-3.6c-0.5-2.4-0.9-4.8-1.5-7.2s-0.6-4.7-0.6-7.1C185.3,125.3,186.3,125,186.3,125z"/>
	</g>
	<path class="special2-2" d="M178.3,131.1c0.3,0.8,0,1.2,1.2,1.8s2.1,0.9,2.5,1.4s4.9,2.4,5.6,3.1"/>
	<g>
		<path d="M167.7,154.4c2.1,0,4.2,0.3,6.3,0.7c1,0.2,2,0.5,3.1,0.8c1,0.3,2.1,0.5,3,0.9c1,0.3,2,0.5,3,0.6c0.3,0,0.5,0.1,0.8,0.1
			c0.1,0,0.2,0,0.3,0h0.4c0.3,0,0.6,0,0.9,0.1c0.2,0.1,0.3,0.1,0.5,0.3c0.1,0.1,0.1,0,0.1,0l0,0c0.3,0,0.9-0.1,1.4-0.1
			c0.6-0.1,1.1,0,1.6,0s1,0.1,1.5,0.1s1,0,1.3-0.2l0.5,0.5c-0.3,0.3-0.6,0.4-0.9,0.5c-0.3,0.1-0.6,0.1-0.8,0.1
			c-0.6,0-1.1,0.1-1.6,0.1s-1,0-1.5,0l-0.8,0.1c-0.3,0-0.6,0.1-1,0c-0.1,0-0.2-0.1-0.3-0.1c-0.1-0.1-0.3-0.2-0.2-0.2
			c0,0-0.1-0.1-0.2-0.1c-0.1-0.1-0.4-0.1-0.6-0.1h-0.4c-0.2,0-0.3,0-0.4-0.1c-0.3,0-0.5-0.1-0.8-0.1c-1-0.2-2.1-0.4-3.1-0.7
			s-2-0.5-3-0.7s-2.1-0.3-3.1-0.4c-2.1-0.3-4.1-0.7-6.1-1.2L167.7,154.4z"/>
	</g>
	<path class="special2-2" d="M183.6,157.8c-0.3,1.6-1.1,5.6-1.1,7.4s-0.4,3.6-0.4,4.2s1.2,2.9,1.5,3.9s0,2.4,0,2.4"/>
	<path class="special2-2" d="M197.7,172c-0.5,1.7-2.3,7.3-2.3,7.3"/>
	<path class="special2-2" d="M182.1,185.3c0.4,1.2,0.8,1.6,0.8,2.7s0.1,1.5-0.4,2.1c-0.5,0.5-0.9,1.1-0.9,2.2s-1.1,5.4-1.1,6.2
		s0.4,1.8,1.2,2.6s0.5,1.1,2,1.4c1.6,0.3,9.1,0.3,9.1,0.3"/>
	<path class="special2-2" d="M212.6,193c-0.3,2.5-3.3,11.7-12.2,15.5c-1.7,0.7-2.9,0.6-2.9,0.6s-9.8-6.9-5.9-20.8"/>
	<path class="special2-2" d="M192.2,186.7c0,0,1.8-4.1,3.3-5"/>
	<path class="special2-2" d="M196.9,179.9c1.1-0.8,5.7-4.2,7.9-3.8s4.3,3.9,4.5,4.1"/>
	<path class="special2-2" d="M210.8,182.6c0.3,0.8,1,3,1.2,3.6"/>
	<path class="special2-2" d="M120.4,113.8c-1.6,1.6-3.3,2.4-4.6,3.1c-1.6,0.8-4.3,3.1-6,5.5c-2.1,3.1-2.6,8.8-1.9,13.6s2.9,10.7,6.6,14.4"
		/>
	<g>
		<path d="M131.3,135.5c1,0.5,1.8,1.1,2.6,1.7c0.8,0.7,1.6,1.4,2.2,2.3c0.3,0.5,0.5,1,0.7,1.5s0.3,1,0.4,1.5c0.2,1,0.3,2.1,0.1,3.2
			c-0.1,0.5-0.3,1.1-0.6,1.5c-0.3,0.5-0.7,0.9-1,1.2c-0.7,0.8-1.4,1.5-2,2.3s-1.3,1.6-2,2.4c-0.7,0.7-1.3,1.5-1.9,2.3
			c-0.3,0.4-0.6,0.8-0.8,1.2s-0.5,0.9-0.8,1.3l-1.6,2.7c-1.1,1.8-2.1,3.5-3.2,5.3c-1,1.8-2,3.6-3.2,5.3c-0.6,0.9-1.2,1.7-1.8,2.5
			c-0.3,0.4-0.6,0.8-1,1.2c-0.3,0.4-0.8,0.8-1,1.1c-1.2,1.5-2.2,3.4-3.2,5.2c-0.5,0.9-1,1.8-1.6,2.7c-0.3,0.5-0.6,0.8-0.8,1.3
			c-0.2,0.4-0.5,0.9-0.7,1.3c-0.4,0.9-0.8,1.8-1.2,2.8c-0.2,0.5-0.4,1-0.5,1.4c0,0.1-0.1,0.2-0.1,0.3c0,0,0,0.1,0,0.2l0.1,0.7
			l0.2,1.5c0.1,0.5,0.1,1.1,0.1,1.7c0,0.2,0,0.3-0.1,0.5c0,0.1-0.1,0.2-0.1,0.3s-0.1,0.1-0.1,0.2l-0.1,0.1c0.1-0.1,0.1-0.3,0.1-0.3
			s0,0,0,0.1c0.1,0.1,0.1,0.3,0.1,0.6c0,0.4-0.1,0.5-0.2,0.6l-0.2,0.4c-0.1,0.1-0.1,0.2-0.2,0.3v0.1l0,0v-0.1c0,0,0-0.2-0.1-0.2
			c0.7,0.7,1.3,1.5,2.1,2.2c0.2,0.2,0.4,0.3,0.5,0.5c0.1,0.1,0.2,0.1,0.2,0.2l0.3,0.2l1.4,0.7c1.8,0.9,3.7,1.8,5.6,2.6l1.4,0.6
			l0.3,0.1c0.1,0.1,0.3,0.1,0.4,0.2c0.3,0.2,0.5,0.4,0.7,0.6c0.4,0.5,0.7,1,0.8,1.7c0,0.3,0,0.8-0.3,1.2c-0.1,0.1-0.1,0.2-0.2,0.3
			s-0.2,0.1-0.2,0.2l-0.4,0.2c-2,1-4.1,1.4-6.2,1.7s-4.2,0.4-6.3,0.3c-2.1-0.1-4.2-0.5-6.2-0.8s-4-0.3-6.1-0.2c-1,0-2.1,0-3.1-0.1
			c-0.5-0.1-1.1-0.1-1.6-0.3c-0.3-0.1-0.6-0.2-0.9-0.5c-0.2-0.2-0.4-0.4-0.6-0.7c-0.7-1-1-2.1-0.9-3.3c0-0.6,0.2-1.2,0.4-1.7
			c0.1-0.3,0.2-0.5,0.3-0.8l0.3-0.7c0.9-1.8,1.6-3.7,2.4-5.7c0.1-0.2,0.2-0.5,0.4-0.8c0.2-0.4,0.6-0.6,0.9-0.7
			c0.3-0.1,0.6-0.2,0.9-0.2h0.2c0,0,0.1-0.1-0.1,0c-0.2,0.2-0.1,0.2-0.1,0.1l0.1-0.1c0.1-0.4,0.3-1,0.3-1.4v-0.2
			c0-0.1,0-0.2,0.1-0.2c0-0.1,0.1-0.1,0.1-0.2c0.1-0.2,0.2-0.3,0.3-0.4l0.5-0.6c0.1-0.1,0.1-0.2,0.2-0.2c0,0,0-0.1,0,0
			c0,0.3,0-0.2,0-0.2c0.1-0.3,0.2-0.5,0.3-0.8l0.7-1.4l0.7-1.4c0.1-0.2,0.2-0.4,0.3-0.7l0.2-0.7c1.3-3.9,2.4-7.9,3.7-11.8l1-2.9
			l0.5-1.5l0.4-1.5c0.6-2,1.2-4,1.9-5.9c0.8-1.9,1.5-3.9,2.7-5.7s2.6-3.3,4-4.8s2.9-3,4.3-4.4c0.7-0.7,1.3-1.5,1.9-2.4
			c0.3-0.4,0.5-0.8,0.8-1.3c0.2-0.2,0.3-0.4,0.5-0.6c0.1-0.1,0.2-0.2,0.2-0.3v-0.1v0.1l0.4-0.4c0.1,0.1,0.2,0.3,0.1,0.5
			c0,0.1-0.1,0.2-0.1,0.3c-0.1,0.1-0.2,0.2-0.3,0.3c-0.2,0.2-0.4,0.4-0.5,0.6c-0.3,0.4-0.6,0.9-0.9,1.3c-0.6,0.9-1.2,1.7-2,2.4
			c-1.4,1.5-2.9,2.9-4.2,4.5c-1.3,1.6-2.7,3.2-3.7,4.8c-1,1.7-1.7,3.7-2.3,5.6c-0.7,1.9-1.3,3.9-1.9,5.9l-0.5,1.5l-0.5,1.5l-1,2.9
			c-1.3,3.9-2.4,7.9-3.7,11.8l-0.3,0.7c-0.1,0.3-0.2,0.5-0.3,0.8l-0.7,1.4l-0.7,1.4c-0.1,0.2-0.2,0.5-0.3,0.6c0,0.1,0-0.2,0,0.2
			c-0.1,0.2-0.1,0.3-0.2,0.3c-0.1,0.2-0.2,0.3-0.3,0.4c-0.3,0.4-0.8,0.8-0.7,0.9c-0.1,0.6-0.2,1.1-0.4,1.6l-0.1,0.2
			c0,0.1,0,0.2-0.3,0.4s-0.3,0.1-0.4,0.2h-0.2c-0.3,0-0.5,0.1-0.7,0.1c-0.2,0.1-0.3,0.1-0.3,0.2c-0.1,0.2-0.2,0.4-0.3,0.6
			c-0.8,1.9-1.5,3.8-2.5,5.7l-0.4,0.7c-0.1,0.2-0.2,0.4-0.3,0.6c-0.2,0.4-0.3,0.9-0.3,1.3c0,0.9,0.2,1.8,0.7,2.5
			c0.1,0.2,0.3,0.4,0.4,0.5c0,0,0.2,0.1,0.4,0.2c0.4,0.1,0.9,0.2,1.4,0.2c1,0.1,2,0.1,3,0.1s2.1-0.1,3.1,0c1.1,0,2.1,0.1,3.1,0.3
			c2.1,0.3,4.1,0.7,6.1,0.8s4,0,6.1-0.3c2-0.3,4-0.7,5.7-1.5l0.3-0.2c0.1,0,0.1,0,0.1,0l0,0c0,0,0.1-0.2,0-0.3c0-0.3-0.2-0.7-0.5-1
			c-0.1-0.1-0.3-0.3-0.5-0.4c-0.1-0.1-0.2-0.1-0.3-0.1l-0.4-0.2l-1.4-0.6c-1.9-0.9-3.8-1.7-5.6-2.7l-1.4-0.7l-0.3-0.2
			c-0.1-0.1-0.3-0.2-0.4-0.3c-0.2-0.2-0.4-0.4-0.6-0.5c-0.8-0.7-1.5-1.5-2.2-2.3c-0.1-0.1-0.1-0.2-0.1-0.3s0-0.1,0-0.2
			c0-0.1,0-0.2,0-0.2c0-0.1,0.1-0.2,0.1-0.3c0.1-0.2,0.1-0.3,0.2-0.4l0.2-0.3c0-0.1,0.1-0.2,0.1-0.1c0,0,0,0,0-0.1s-0.1-0.1-0.1-0.3
			c-0.1-0.1,0-0.5,0.2-0.7l0.1-0.1c0,0,0,0,0-0.1s0-0.1,0-0.2c0.1-0.8-0.2-1.9-0.3-2.9l-0.1-0.8c0-0.1-0.1-0.2,0-0.5
			c0-0.2,0.1-0.3,0.1-0.5c0.2-0.5,0.3-1,0.5-1.5c0.4-1,0.8-1.9,1.3-2.9c0.2-0.5,0.5-0.9,0.8-1.4s0.6-0.9,0.9-1.3
			c0.5-0.8,1.1-1.7,1.6-2.6c1-1.8,2-3.6,3.3-5.3c0.4-0.5,0.7-0.8,1-1.2s0.6-0.8,0.9-1.2c0.6-0.8,1.2-1.6,1.8-2.5
			c1.2-1.7,2.1-3.4,3.2-5.3c1-1.8,2.1-3.6,3.2-5.3l1.6-2.7l0.8-1.3c0.3-0.5,0.6-0.9,0.9-1.3c0.7-0.8,1.4-1.6,2.1-2.4
			c0.7-0.7,1.4-1.5,2.1-2.3c0.7-0.8,1.4-1.5,2.1-2.3c0.4-0.4,0.7-0.7,1-1.1c0.3-0.4,0.4-0.8,0.5-1.3c0.2-0.9,0.2-1.9,0-2.9
			c-0.1-0.5-0.2-1-0.4-1.5s-0.3-1-0.6-1.4c-1.1-1.6-2.8-3-4.6-3.9L131.3,135.5z"/>
	</g>
	<g>
		<path d="M134.9,148.4c0.9-0.1,1.7,0,2.6,0.1c0.8,0.2,1.6,0.4,2.4,0.6c0.8,0.2,1.6,0.5,2.3,0.7c0.8,0.2,1.6,0.4,2.4,0.6
			c0.8,0.2,1.6,0.4,2.4,0.5c0.8,0.2,1.6,0.2,2.4,0.4c1.6,0.3,3.2,0.7,4.7,1.3l-0.2,0.7c-1.6-0.2-3.2-0.5-4.8-0.9
			c-0.8-0.2-1.6-0.5-2.3-0.7c-0.8-0.2-1.6-0.4-2.4-0.6c-0.8-0.2-1.6-0.3-2.4-0.5c-0.8-0.1-1.6-0.2-2.4-0.4c-1.6-0.3-3.1-0.9-4.6-1.2
			L134.9,148.4L134.9,148.4z"/>
	</g>
	<g>
		<path d="M142.7,102.8c0.5,2.2,0.9,4.3,1.1,6.5c0.1,0.5,0.1,1.1,0.1,1.7s0,1.1,0,1.7l-0.1,3.3c0,1.1,0,2.2,0,3.3
			c0,0.5,0,1.1,0.1,1.6s0.2,1,0.3,1.6l0.5,3.2c0.1,0.5,0.2,1.1,0.3,1.6s0.3,1,0.5,1.5l2.1,6.2c0.7,2.1,1.5,4.1,2.2,6.2
			c0.3,1,0.7,2.1,1,3.1c0.1,0.3,0.1,0.5,0.2,0.8c0,0.1,0.1,0.3,0.1,0.5v0.4c0,0.5,0,1.1,0.1,1.6s0.2,1,0.4,1.3
			c0.1,0.1,0.1,0.1,0.2,0.2c0.1,0.1,0.2,0.2,0.3,0.4c0.2,0.2,0.3,0.5,0.5,0.7c0.6,0.9,1.1,1.9,1.6,2.9s0.9,2,1.3,3
			c0.4,1,0.9,2,1.3,3c0.9,2,1.9,3.9,3.1,5.7c1.2,1.8,2.7,3.4,4.1,5.1c1.4,1.6,2.9,3.3,4.3,4.9l4.5,4.8c0.4,0.5,0.6,0.9,1,1.2
			s0.8,0.7,1.2,1c0.9,0.6,1.8,1.2,2.7,1.7s1.9,0.7,2.9,0.6c0.3,0,0.6,0,1,0.1c0.4,0.2,0.6,0.4,0.8,0.7c0.4,0.5,0.7,0.9,1,1.4
			l1.8,2.7c0.3,0.5,0.6,0.7,0.9,0.7c0.3,0,0.4-0.2,0.3-0.5v0.1c-0.4-0.9-0.9-1.9-1.5-2.8c-0.3-0.4-0.5-0.9-0.9-1.3
			c-0.3-0.4-0.7-0.8-1-1.3c-0.1-0.1-0.2-0.2-0.3-0.4c0-0.1,0-0.1-0.1-0.2c0-0.1-0.1-0.2,0.1-0.5c0.1-0.1,0.2-0.2,0.3-0.2
			s0.1,0,0.2,0c0.1,0,0.1,0,0.2,0c0.2,0,0.3,0.1,0.5,0.1c0.2,0.1,0.3,0.1,0.4,0.2c0.5,0.3,1,0.5,1.4,0.8l1.3,0.9
			c0.4,0.3,0.9,0.6,1.4,0.9c0.9,0.7,1.7,1.3,2.5,2.1c0.3,0.3,0.7,0.6,1,0.6c0.1,0,0.3,0,0.4-0.1c0.1-0.1,0.2-0.2,0.2-0.3v-0.1
			c0.1,0.1-0.1-0.1-0.2-0.2l-0.6-0.6l-1.1-1.1l-2.3-2.3c-0.4-0.4-0.7-0.7-1.1-0.9c-0.2-0.1-0.4-0.2-0.6-0.3c-0.1,0-0.3-0.1-0.4-0.2
			c-0.1-0.1-0.2-0.1-0.3-0.2c-0.1-0.1-0.2-0.2-0.2-0.4c0-0.1,0-0.3,0.1-0.3c0.1-0.1,0.1-0.1,0.2-0.2c0.3-0.2,0.4-0.1,0.6-0.2
			c0.2,0,0.3,0,0.4,0c0.3,0,0.6,0,0.8,0l1.6,0.1l3.2,0.2c1,0.1,2.2,0.2,3.1,0.1c0.2,0,0.4-0.1,0.6-0.2c0.2-0.1,0.3-0.3,0.4-0.5
			c0.1-0.2,0.1-0.3-0.1-0.4c-0.1-0.1-0.3-0.2-0.5-0.3c-0.9-0.3-2-0.4-3.1-0.6l-6.3-1v-0.3l6.4,0.8c1,0.2,2.1,0.1,3.2,0.5
			c0.3,0.1,0.6,0.2,0.8,0.5c0.3,0.3,0.3,0.8,0.2,1.1s-0.3,0.6-0.6,0.8s-0.6,0.3-0.9,0.3c-1.2,0.1-2.2,0-3.3,0l-3.2-0.1l-1.6-0.1
			c-0.3,0-0.5,0-0.8,0c-0.1,0-0.2,0-0.4,0c-0.1,0-0.3,0.1-0.2,0c0,0,0.2-0.1,0.2-0.3s-0.1-0.2-0.1-0.2l0,0c0.1,0.1,0.1,0.1,0.3,0.1
			c0.3,0.1,0.5,0.2,0.8,0.4c0.5,0.3,1,0.7,1.3,1.1l2.2,2.3l1.1,1.1l0.6,0.6l0.1,0.1c0,0,0.2,0.2,0.2,0.3c0.1,0.2,0.1,0.5,0.1,0.7
			c-0.1,0.4-0.3,0.8-0.6,1s-0.7,0.4-1.1,0.3c-0.8-0.1-1.3-0.5-1.7-0.9c-0.7-0.7-1.6-1.3-2.4-2c-0.4-0.3-0.8-0.6-1.3-0.9l-1.3-0.9
			c-0.4-0.3-0.9-0.6-1.3-0.8c-0.1-0.1-0.2-0.1-0.3-0.1s-0.2-0.1-0.3-0.1l0,0c0,0,0,0,0.1,0s0.1-0.1,0.2-0.2c0.1-0.1,0.1-0.2,0.1-0.2
			V183l0,0c0,0.1,0.1,0.2,0.2,0.3c0.3,0.4,0.6,0.8,1,1.2c0.3,0.4,0.6,0.9,0.9,1.4c0.6,0.9,1,1.9,1.5,2.9l0,0v0.1
			c0.1,0.3,0.1,0.8-0.2,1.2c-0.2,0.4-0.7,0.6-1.1,0.6c-0.8,0-1.4-0.7-1.7-1.1l-1.8-2.7c-0.3-0.4-0.6-0.9-0.9-1.3
			c-0.3-0.4-0.4-0.4-1-0.4c-1.1,0.1-2.4-0.2-3.4-0.7s-2-1.1-2.9-1.8c-0.4-0.3-0.9-0.7-1.3-1c-0.5-0.4-0.8-0.9-1.1-1.3
			c-0.7-0.8-1.5-1.6-2.2-2.4l-2.2-2.4c-1.5-1.6-2.9-3.3-4.4-4.9c-1.4-1.7-2.9-3.3-4.1-5.2c-2.4-3.7-4-7.9-5.8-11.8
			c-0.5-1-1-1.9-1.6-2.8c-0.1-0.2-0.3-0.4-0.4-0.6c-0.1-0.1-0.2-0.2-0.2-0.3c-0.1-0.1-0.2-0.3-0.3-0.4c-0.4-0.6-0.5-1.2-0.5-1.8
			c-0.1-0.6-0.1-1.1-0.1-1.7v-0.4c0-0.1,0-0.2,0-0.3c0-0.2-0.1-0.5-0.2-0.8c-0.3-1-0.6-2.1-1-3.1c-0.7-2.1-1.5-4.1-2.2-6.2l-2.1-6.2
			c-0.2-0.5-0.4-1-0.5-1.6c-0.2-0.6-0.3-1.1-0.4-1.6l-0.5-3.2c-0.1-0.5-0.2-1-0.3-1.6s-0.1-1.1-0.1-1.7c0-1.1,0-2.2,0.1-3.3l0.2-3.3
			c0-0.5,0.1-1.1,0.1-1.6s0-1.1-0.1-1.6c-0.2-2.2-0.1-3.8-0.6-5.9L142.7,102.8z"/>
	</g>
	<g>
		<path d="M193.7,178.9c-1.5-0.5-3-0.9-4.5-1.4c-1.5-0.4-3-0.8-4.5-1.1c-1.5-0.1-3.1-0.3-4.6-0.7c-0.8-0.2-1.6-0.6-2.3-1.1
			s-1.3-1-1.8-1.6s-1-1.3-1.4-2s-0.8-1.3-1.2-2c-0.8-1.3-1.6-2.6-2.4-4c-0.7-1.4-1.4-2.8-2-4.3l-1.5-4.4c-0.3-0.7-0.5-1.5-0.8-2.2
			l-0.9-2.1c-0.6-1.4-1.2-2.9-1.8-4.3c-0.3-0.7-0.6-1.4-1-2.1c-0.2-0.3-0.4-0.7-0.5-0.9c-0.2-0.3-0.5-0.6-0.7-1.2c0-0.2,0-0.4,0-0.6
			c0.1-0.2,0.1-0.3,0.2-0.3c0.1-0.1,0.1-0.2,0.1-0.4c0-0.1,0-0.3,0-0.4c0-0.1,0-0.1-0.1-0.2c0-0.1-0.1-0.4,0-0.4l0.1-2.3
			c0-0.8,0-1.6,0-2.3l-0.3-2.3c-0.2-1.5-0.3-3.1-0.7-4.6c-0.3-1.5-0.5-3.1-0.6-4.7c0-0.8,0-1.6,0-2.3v-1.2c0-0.4-0.1-0.8,0.1-1.2
			l0.4,0.2c-0.1,0.6-0.1,1.5-0.1,2.2l0.1,1.2c0,0.4,0,0.8,0.1,1.1c0.2,1.5,0.7,3,1.1,4.5c0.4,1.5,0.5,3.1,0.7,4.7l0.3,2.3
			c0,0.8,0,1.6,0,2.4l-0.1,2.3c0,0.1,0,0,0,0.1s0.1,0.2,0.1,0.3c0.1,0.2,0.1,0.5,0,0.8c0,0.2-0.1,0.5-0.3,0.7
			c-0.1,0.1-0.1,0.2-0.1,0.2l0,0c0,0.2,0.3,0.5,0.5,0.8c0.3,0.4,0.4,0.7,0.6,1.1c0.4,0.7,0.7,1.4,1,2.1c0.6,1.4,1.2,2.9,1.8,4.3
			l0.9,2.2c0.3,0.7,0.5,1.5,0.8,2.2l1.5,4.4c0.6,1.4,1.3,2.8,2,4.2c0.7,1.3,1.6,2.7,2.4,4c0.4,0.7,0.8,1.3,1.2,2
			c0.3,0.7,0.8,1.2,1.3,1.8c0.5,0.5,1.1,1.1,1.6,1.5c0.6,0.5,1.2,0.7,1.9,0.9c1.5,0.4,3,0.4,4.6,0.8c3,0.9,6.8,2.3,9.8,3.3H193.7z"
			/>
	</g>
	<g>
		<path class="special2-1" d="M141.5,105.2c0.2-0.8,0.5-1.6,0.8-2.3c0.3-0.7,0.7-1.5,1.2-2.2s1.2-1.2,1.8-1.7c0.3-0.2,0.7-0.5,1.1-0.7
			c0.2-0.1,0.4-0.2,0.7-0.3c0.1,0,0.4-0.1,0.6,0.2c0.1,0.1,0.1,0.3,0.1,0.4v0.1c0,0.8,0.1,1.6,0.2,2.4c0.1,0.4,0.1,0.8,0.3,1.1
			c0.1,0.2,0.1,0.3,0.2,0.4l0.2,0.2c0.1,0.1,0.1,0.2,0.2,0.3c0.5,0.9,0.5,1.7,0.7,2.4c0,0.2,0.1,0.3,0.1,0.3l0.4,0.4l0.8,0.9
			c1.1,1.2,2.2,2.4,3.3,3.5c0.6,0.6,1.1,1.1,1.7,1.6l2,1.3c0.7,0.5,1.3,0.9,2,1.4l0.5,0.4c0.1,0.1,0.2,0.1,0.3,0.2s0.2,0.3,0.2,0.4
			c0.2,0.4,0.3,0.8,0.3,1.2c0.1,0.8,0.2,1.6,0.4,2.4c0,0.3,0.3,0.8,0.1,1.3c-0.2,0.4-0.4,0.8-0.7,1.1l-0.2-0.2
			c0.2-0.3,0.4-0.7,0.5-1s-0.1-0.6-0.2-1.1c-0.2-0.8-0.3-1.6-0.5-2.4c-0.1-0.4-0.2-0.8-0.3-1.1c0-0.2-0.5-0.4-0.8-0.6
			c-0.7-0.4-1.4-0.9-2-1.3c-0.7-0.4-1.4-0.8-2.1-1.3c-0.7-0.5-1.3-1.1-1.9-1.7c-1.1-1.2-2.3-2.3-3.4-3.5l-0.8-0.9l-0.4-0.4
			c-0.2-0.3-0.3-0.5-0.4-0.7c-0.2-0.9-0.2-1.7-0.5-2.3c0-0.1-0.1-0.1-0.1-0.2l-0.2-0.3c-0.2-0.2-0.2-0.4-0.3-0.7
			c-0.1-0.4-0.2-0.8-0.3-1.3c-0.1-0.8-0.1-1.7-0.1-2.5v-0.2c0,0,0,0,0,0.1c0.1,0.1,0.1,0,0.1,0.1c-0.1,0-0.3,0.1-0.5,0.2
			c-0.3,0.2-0.7,0.4-1,0.6c-0.6,0.4-1.3,0.9-1.8,1.5C142.8,102.2,142.1,103.7,141.5,105.2z"/>
	</g>
	<path class="special2-2" d="M175.7,103.6c0,1.5,0.2,7.9,0.5,9.1s0.6,3.1,0.9,4.1s-0.1,2.4,0.4,1.9s2.2-0.9,3.1-1.7
		c0.8-0.8,4.6-4.1,4.6-4.5"/>
	<g>
		<path d="M209.4,178.6c0.2,0.3,0.2,0.5,0.2,0.7s0.1,0.5,0.1,0.7c-0.1,0.4-0.2,0.8-0.3,1.3c-0.3,0.7,0,1.5,0.5,1.4
			c0.6-0.2,1.2-0.7,1.2-1.4c0-0.3,0.1-0.5,0.2-0.7c0-0.2,0.1-0.4,0.2-0.6c0.2-0.3,0.3-0.7,0.3-1.1h0.2c0.1,0.4,0.1,0.9,0.1,1.3
			c0,0.2,0,0.4-0.1,0.6c-0.1,0.2-0.1,0.4-0.1,0.5c0,0,0,0.2,0,0.3s-0.1,0.3-0.1,0.4c-0.1,0.2-0.2,0.5-0.4,0.6
			c-0.4,0.4-0.8,0.6-1.3,0.7c-0.3,0.1-0.6,0-0.9-0.2c-0.3-0.2-0.4-0.4-0.5-0.7c-0.2-0.5-0.1-1,0-1.4s0.2-0.8,0.2-1.2
			c0-0.2,0.2-0.4,0.2-0.6c0-0.2,0.1-0.4,0-0.5L209.4,178.6z"/>
	</g>
	<g>
		<path d="M212.4,183.4c0,0.6,0,1.1,0.1,1.7c0,0.5,0,1.1-0.1,1.6v0.4c0,0.2-0.1,0.3-0.1,0.5l-0.3,0.8c-0.2,0.5-0.3,1-0.3,1.5
			c0,0.2,0.1,0.5,0.1,0.5s0,0,0.1,0h0.2c0.1,0,0.2,0,0.3-0.1c0.3-0.1,0.5-0.7,0.8-1.2c0.2-0.5,0.5-1,0.5-1.5c0.2-0.6,0.5-1,0.5-1.6
			h0.1c0,0.6-0.1,1.1-0.1,1.6c0,0.6-0.4,1.1-0.6,1.6l-0.4,0.7c-0.1,0.3-0.3,0.6-0.7,0.7c-0.2,0.1-0.3,0.1-0.5,0.1h-0.2
			c-0.1,0-0.2,0-0.3-0.1c-0.4-0.3-0.3-0.7-0.4-1c0-0.6,0.1-1.2,0.3-1.7l0.3-0.8c0-0.1,0.1-1.8,0.2-2.3s0.2-1.1,0.2-1.6h0.3V183.4z"
			/>
	</g>
	<g>
		<path d="M212.9,190.3c-0.1,0.4-0.3,1.1-0.4,1.5c-0.1,0.4,0,0.6,0.2,0.9c0.2,0.3,0.4,0.3,0.8,0.3h0.1l0,0c0,0,0.1,0,0.1-0.1
			c0.1-0.1,0.1-0.3,0.2-0.4c0.3-1.4,0.2-3,0.2-4.5v-2.3v-0.6v-0.3c0-0.1,0-0.1,0-0.2c-0.1-0.3-0.3-0.7-0.4-1
			c-0.2-0.3-0.4-0.7-0.6-0.9c-0.1-0.1-0.1-0.1-0.2-0.2c-0.1-0.1-0.2-0.2-0.2-0.3c-0.1-0.2-0.1-0.5-0.1-0.7s0-0.4-0.1-0.5l0,0
			l-0.1-0.1l-0.2-0.2c-0.1-0.2-0.2-0.3-0.4-0.5c-0.1-0.1-0.1-0.2-0.1-0.3c0-0.2,0-0.2-0.1-0.3c-0.1-0.3-0.3-0.6-0.5-0.9
			c-0.2-0.3-0.5-0.6-0.7-0.7c0,0-0.3,0-0.5-0.1c-0.2,0-0.4-0.1-0.6-0.2c-0.4-0.1-0.7-0.3-1.1-0.4c-0.4-0.2-0.7-0.3-1.1-0.5
			c-0.2-0.1-0.4-0.2-0.5-0.4c-0.2-0.2-0.2-0.4-0.3-0.6c-0.2-0.8-0.2-1.6-0.2-2.4c0-0.8,0.1-1.6,0-2.3c-0.1-0.8-0.2-1.5-0.3-2.3
			c-0.2-1.5-0.5-3-0.8-4.5l0,0l0,0c0.1-1.1,0.3-2,0.4-3c0.1-0.5,0.1-1,0.2-1.4c0-0.4,0-1-0.1-1.4c-0.1-1-0.2-2-0.3-2.9
			c0-0.2-0.1-0.5-0.1-0.7s-0.1-0.4-0.2-0.7c-0.1-0.5-0.2-1-0.3-1.5s-0.1-1-0.2-1.5c0-0.3,0-0.5-0.1-0.8c0-0.2,0-0.4-0.1-0.7
			c-0.2-0.9-0.5-1.9-0.8-2.8c-0.3-0.9-0.7-1.8-1.2-2.6c-0.5-1-0.6-2-0.8-3c-0.3-2-0.4-4-0.4-6v-1.5c0-0.4-0.1-0.9-0.1-1.4l-0.3-2.9
			c-0.1-1-0.1-2-0.1-3l0.1-3c0-2,0.1-4-0.1-5.8l1-0.4c0.2,2,0.1,4.3,0.1,6.3l-0.1,3c0,1,0,1.9,0.1,2.9l0.3,2.9c0,0.5,0.1,1,0.1,1.5
			v1.5c0,2,0.1,3.9,0.3,5.8c0.1,1,0.3,1.9,0.7,2.7c0.5,0.8,0.9,1.8,1.2,2.7s0.6,1.9,0.8,2.9c0,0.2,0.1,0.5,0.1,0.8
			c0,0.2,0,0.5,0,0.7c0,0.5,0.1,1,0.2,1.4c0.1,0.5,0.2,1,0.3,1.4c0.1,0.2,0.2,0.5,0.2,0.7c0.1,0.3,0.1,0.5,0.1,0.8
			c0.1,1,0.2,2,0.3,3c0,0.5,0.1,1,0.1,1.5s-0.1,1-0.2,1.5c-0.1,1-0.3,2-0.4,2.9v-0.1c0.3,1.5,0.5,3,0.8,4.6c0.1,0.8,0.2,1.5,0.3,2.3
			s0,1.6,0,2.3c0,0.8,0,1.5,0.2,2.2c0.1,0.4,0.2,0.5,0.5,0.7s0.6,0.4,1,0.5c0.3,0.1,0.7,0.3,1.1,0.4c0.2,0.1,0.4,0.1,0.5,0.1
			c0.2,0.1,0.2,0,0.6,0.1c0.5,0.3,0.7,0.6,0.9,0.9c0.2,0.3,0.4,0.7,0.6,1.1c0.1,0.3,0,0.3,0.1,0.5c0.1,0.1,0.2,0.3,0.3,0.4l0.2,0.2
			l0.1,0.1c0,0,0.1,0.1,0.1,0.2c0.1,0.3,0.1,0.5,0.1,0.7s0,0.3,0.1,0.5c0,0.1,0.1,0.1,0.1,0.2c0.1,0.1,0.1,0.2,0.2,0.2
			c0.2,0.3,0.4,0.7,0.6,1c0.2,0.4,0.3,0.7,0.5,1.1c0,0.1,0.1,0.2,0,0.4v0.3v0.6v2.3c0,1.5,0.1,3.1-0.2,4.7c-0.1,0.2-0.1,0.4-0.3,0.6
			c-0.1,0.1-0.2,0.2-0.3,0.3c-0.1,0-0.2,0-0.2,0h-0.2c-0.2,0-0.4,0-0.6-0.1c-0.2-0.1-0.4-0.3-0.6-0.5c-0.1-0.2-0.2-0.3-0.3-0.6
			c-0.1-0.2,0-0.5,0-0.7c0.1-0.4,0.3-0.8,0.4-1.1L212.9,190.3z"/>
	</g>
	<g>
		<path d="M123.7,129c1.6-0.5,3.3-0.5,4.9-0.2c0.8,0.2,1.6,0.4,2.4,0.8c0.8,0.4,1.3,1.1,1.8,1.8c1,1.4,1.7,2.8,2.4,4.3
			c0.3,0.8,0.7,1.5,0.9,2.4c0,0.4,0.2,0.7,0.3,1.1c0.1,0.4,0.2,0.8,0.3,1.3l-0.7,0.1c0-0.4-0.1-0.8-0.2-1.1
			c-0.1-0.4-0.3-0.8-0.3-1.2c-0.1-0.7-0.5-1.5-0.8-2.2c-0.7-1.5-1.4-2.9-2.3-4.3c-0.5-0.7-0.9-1.3-1.6-1.7c-0.7-0.4-1.5-0.7-2.2-0.9
			c-1.6-0.3-3.2-0.4-4.8,0L123.7,129z"/>
	</g>
	<g>
		<path d="M123,123.2c-1.7-0.3-3.4-0.4-5.2-0.3c-0.9,0-1.7,0.1-2.6,0.2s-1.7,0.3-2.5,0.6l-0.1-0.2c0.8-0.4,1.7-0.7,2.5-0.9
			c0.9-0.2,1.8-0.3,2.6-0.4c1.8-0.1,3.5-0.2,5.4,0L123,123.2z"/>
	</g>
	<g>
		<path d="M121.8,122.6c-0.6-0.3-1-0.7-1.5-1.1s-0.9-0.7-1.4-1.1c-1-0.7-2-1.2-3.2-1.2v-0.1c1.2,0,2.4,0.5,3.4,1.1
			c0.5,0.3,1,0.7,1.5,1s1,0.7,1.4,0.9L121.8,122.6z"/>
	</g>
	<g>
		<path d="M112.6,121.9c-0.2,1-0.2,2.1-0.2,3.1c0,0.5,0,1,0.1,1.5c0,0.2,0.1,0.5,0.2,0.6c0,0.1,0.1,0.2,0.2,0.2l0.3,0.3
			c0.8,0.7,1.4,1.7,1.9,2.6c0.5,1,0.9,1.9,1.3,2.9s0.8,1.9,1.3,2.8c0.2,0.4,0.5,0.9,0.8,1.2c0.4,0.4,0.7,0.8,1.1,1.2
			c0.7,0.8,1.4,1.6,2,2.6c0.3,0.5,0.5,1.1,0.6,1.6s0.2,1,0.2,1.6h-0.7c0-0.5-0.1-1-0.2-1.5s-0.2-0.9-0.5-1.4
			c-0.5-0.9-1.2-1.7-1.9-2.4c-0.3-0.4-0.7-0.8-1.1-1.1c-0.4-0.4-0.7-0.9-1-1.4c-0.5-0.9-0.9-1.9-1.3-2.9s-0.8-1.9-1.3-2.9
			c-0.5-0.9-1-1.7-1.7-2.4l-0.3-0.3c-0.1-0.1-0.2-0.3-0.3-0.4c-0.2-0.3-0.2-0.6-0.3-0.9c-0.1-0.6-0.1-1.1-0.1-1.7
			C111.9,123.9,112.1,122.9,112.6,121.9z"/>
	</g>
	<path class="special2-3" d="M118.1,146.7c-1-1-2.3-4-4.8-6.6s-4.3-6.8-4.3-8s-1.3-2.8-1-4.3"/>
	<g>
		<path d="M172.3,166.2c-0.7,0.3-1.5,0.6-2.3,0.8s-1.6,0.4-2.3,0.6c-0.8,0.3-1.5,0.6-2.1,1.1c-0.3,0.2-0.7,0.4-1,0.6
			c-0.3,0.2-0.6,0.5-0.7,0.7h-0.4c0-0.3,0.2-0.5,0.3-0.7s0.3-0.3,0.5-0.5c0.3-0.3,0.7-0.5,1-0.7c0.8-0.3,1.5-0.6,2.3-0.9
			c0.8-0.3,1.5-0.6,2.2-0.9c0.8-0.3,1.5-0.5,2.4-0.6L172.3,166.2z"/>
	</g>
	<g>
		<path d="M196.5,170.3c0.2-0.9,0.6-1.9,1.3-2.6c0.7-0.7,1.7-1.1,2.6-1.3c0.9-0.3,1.8-0.5,2.8-0.6c1,0,2,0.2,2.8,0.8l-0.2,0.4
			c-0.8-0.3-1.7-0.5-2.6-0.5c-0.9-0.1-1.8,0-2.7,0.3c-0.4,0.2-0.9,0.3-1.2,0.6c-0.4,0.2-0.7,0.6-1,0.9c-0.6,0.6-1,1.4-1.5,2.2
			L196.5,170.3z"/>
	</g>
	<path class="special2-2" d="M96.1,191.5c2.3-0.9,8.6-2.4,11.2-0.5"/>
	<g>
		<path d="M100.5,180.8c1,0,1.9,0,2.8,0.2c0.5,0.1,0.9,0.2,1.4,0.3s0.9,0.2,1.4,0.3s0.9,0.3,1.4,0.4c0.5,0.1,0.9,0.3,1.4,0.4
			c0.5,0.2,0.9,0.4,1.3,0.8c0.2,0.2,0.4,0.4,0.6,0.6c0.2,0.2,0.3,0.7,0,1l-0.5-0.3c0-0.1-0.3-0.4-0.6-0.6c-0.4-0.2-0.7-0.4-1.1-0.7
			c-0.8-0.5-1.6-1-2.5-1.1c-0.9-0.2-1.8-0.2-2.8-0.1c-0.9-0.1-2.2-0.3-3.1-0.7L100.5,180.8z"/>
	</g>
	<g>
		<path d="M190.7,188.4c-0.3,0.2-0.7,0.3-1,0.3c-0.4-0.1-1.9,0.1-2.1,0.2c-0.4,0.1-0.8,0.1-1.2-0.2l-0.1-0.4
			c0.3-0.1,1.6-0.2,1.7-0.2c0.2,0,0.4,0,0.5,0c0.3-0.1,0.7-0.2,1-0.3s0.7-0.1,1.1,0.1L190.7,188.4z"/>
	</g>
	<path class="special2-4" d="M204.8,176.1c0,2.2-1.8,27.5-7.3,33"/>
	<g>
		<path d="M101.5,198.5c0.1-0.2,0.4-0.4,0.6-0.6c0.2-0.1,0.5-0.2,0.7-0.2c0.5-0.1,1-0.2,1.5-0.3c1-0.1,2.1-0.1,3.1,0.2l-0.2,0.5
			c-0.9-0.3-1.9-0.3-2.8-0.2c-0.5,0.1-1,0.1-1.4,0.3c-0.2,0.1-0.5,0.1-0.7,0.2C102,198.4,101.8,198.5,101.5,198.5z"/>
	</g>
	<g>
		<path d="M103.5,200.7c0.1-0.2,0.3-0.4,0.5-0.6c0.2-0.1,0.4-0.2,0.7-0.3c0.4-0.2,0.9-0.3,1.4-0.4c0.9-0.2,1.9-0.2,2.8,0l-0.1,0.5
			c-0.8-0.2-1.7-0.2-2.6,0c-0.4,0.1-0.9,0.2-1.3,0.4c-0.2,0.1-0.4,0.2-0.6,0.3C104,200.6,103.8,200.7,103.5,200.7z"/>
	</g>
	<g>
		<path d="M105.5,202.5c0.1-0.2,0.3-0.4,0.4-0.6c0.2-0.1,0.4-0.2,0.7-0.3c0.4-0.2,0.9-0.3,1.4-0.4c0.9-0.2,1.9-0.3,2.8-0.1l-0.1,0.5
			c-0.8-0.2-1.7-0.1-2.6,0.1c-0.4,0.1-0.9,0.2-1.3,0.4c-0.2,0.1-0.4,0.2-0.6,0.3C106,202.4,105.8,202.4,105.5,202.5z"/>
	</g>
	<g>
		<path d="M108.2,203.7c0.1-0.2,0.3-0.4,0.4-0.6c0.2-0.1,0.4-0.2,0.6-0.3c0.4-0.2,0.9-0.3,1.3-0.4c0.9-0.2,1.8-0.3,2.8-0.1l-0.1,0.5
			c-0.8-0.2-1.7-0.1-2.5,0.1c-0.4,0.1-0.8,0.2-1.2,0.4c-0.2,0.1-0.4,0.2-0.6,0.3C108.7,203.5,108.4,203.6,108.2,203.7z"/>
	</g>
	<g>
		<path d="M120.8,206.6c-1.3,0.5-2.6,0.8-3.9,1.1s-2.6,0.6-4,0.8c-2.7,0.4-5.4,0.5-8.1,0.2c-1.3-0.2-2.7-0.5-4-0.8L97,207
			c-1.3-0.3-2.6-0.6-3.9-1c-0.6-0.2-1.3-0.4-1.9-0.6c-0.3-0.1-0.6-0.2-1-0.4c-0.2-0.1-0.3-0.2-0.5-0.3c-0.1-0.1-0.3-0.2-0.4-0.5h0.3
			c0,0.1,0.4,0.3,0.7,0.5c0.3,0.1,0.6,0.2,0.9,0.3c0.6,0.2,1.3,0.4,1.9,0.5c1.3,0.3,2.6,0.6,3.9,1c2.6,0.6,5.2,1.6,7.8,1.9
			c2.7,0.3,5.3,0.1,8-0.4c1.3-0.2,2.6-0.5,3.9-0.7c1.3-0.3,2.6-0.6,3.9-1L120.8,206.6z"/>
	</g>
	<path class="special2-2" d="M94.1,195.5c0.2,0.7-0.7,2.7,1.7,1.7s11.9-3.2,12.4-1.5"/>
</g>
<g id="Layer_8">
	<g>
		<path d="M175.2,102.2c0,1.5-0.6,6.2-1.2,7.3c-0.2,0.5-0.8,1.5-1.2,2.2s-0.8,1.4-1.3,2s-0.9,1.2-1.5,1.8c-0.3,0.3-0.6,0.6-0.9,0.8
			l-0.4,0.5c-0.1,0.2-0.3,0.3-0.5,0.4c0.2,0,0.4-0.1,0.6-0.1l0.6-0.2c0.4-0.3,0.7-0.5,1-0.8c0.6-0.6,1.1-1.3,1.6-2s0.9-1.4,1.3-2.1
			c0.5-0.8,1.1-2.1,1.1-2.1c0.6-1.1,1.5-6,0.8-7.3"/>
	</g>
	<g>
		<path d="M185.8,112.7c0.2,1.4,0.6,3.4,0.9,4.8c0.1,0.6,0.3,1.3,0.5,2c0.1,0.3,0.2,0.7,0.3,1c0,0.3,0,0.7,0.1,1.1
			c-0.3-0.2-0.5-0.5-0.7-0.8c-0.1-0.3-0.2-0.7-0.3-1c-0.2-0.7-0.3-1.3-0.5-2c-0.3-1.3-0.7-3.5-0.9-4.9L185.8,112.7z"/>
	</g>
	<path class="special2-4" d="M177.5,120.8c0.2-0.1,0.3,0,0.4,0.2c0.1,0.4,0.3,0.5,0.8,0.8l-1.7,2.9l-1.6,0.1l-0.8-1.4l1.9-3
		C176.6,120.7,177.2,120.9,177.5,120.8z"/>
	<line class="special2-4" x1="176" y1="121" x2="172.6" y2="112.8"/>
	<line class="special2-4" x1="186.1" y1="116.1" x2="178.1" y2="121.5"/>
	<line class="special2-4" x1="175" y1="122.6" x2="171.7" y2="114.3"/>
	<line class="special2-4" x1="186.5" y1="118.2" x2="177.8" y2="123.3"/>
	<path class="special2-4" d="M186,114.2c1.2,0.3,3.9-0.2,6,0.3c2.1,0.4,4.3,0.9,4.7,2.9c0,0,0.7,3.1,0.5,3.2"/>
	<path class="special2-4" d="M186.8,119.4c1.1,0.3,4.7,0.4,5.8,0.5c1,0.1,1.1,1.1,1.2,1.5c0.1,0.4,0.7,0.8,0.7,0.8"/>
	<path class="special2-4" d="M173.8,110.7c0,0-6-4.1-7.5-4.4s-6.7-0.8-8.1-1.1c-1.4-0.3-2.1-1.2-3.5-1c-0.8,0.1-3.2,1.4-4.3,2.8"/>
	<path class="special2-4" d="M171.9,114c-0.7,0.3-1.3,0.3-2.4-0.4c-1.1-0.6-3.6-2-5.5-2.3c-2-0.4-4.5-0.7-6.6-1.3c-2-0.6-2.8-0.6-4.1,0"/>
	<path class="special2-4" d="M148.9,105.1c0.2,0,0.7-0.1,1.1-0.3c0.4-0.2,1.6-2,1.9-2.5c0.3-0.5,1.2-2.3,1.4-3.6c0.2-1.3,1-2.6,1.8-3.8
		c0.8-1.3,4.6-7.4,2.9-7.4"/>
	<path class="special2-4" d="M156.4,94.7c-0.3,0.4-1.8,4.1-2.4,5.8s-1.6,3.1-1.1,2.8c0.4-0.2,1.5-1.1,2.8-0.8s2,1.1,3.7,1.5
		c1.6,0.4,2.4,0,3,0c0.4,0,0-2.8-0.8-4.7c-0.8-1.9-2.7-4.3-4.6-4.8C156.6,94.5,156.6,94.3,156.4,94.7z"/>
	<g>
		<path class="special2-5" d="M167.7,91.9l1,1.2l-2.5,1.3l-1.6,0.7l-0.6,0.3l-1.4,0.7l-1-1.5l1.3-0.3l2.9-1.4c-0.3-0.1-0.5-0.3-0.8-0.4
			c-0.2-0.2-0.2-0.2-0.4-0.5l1.1-0.3L167.7,91.9z"/>
		<path class="special2-5" d="M164.6,101.3l-1.1-4c0.5-0.1,0.9-0.2,1.4-0.1s0.5,0.1,1.3,0.6c0.5,0.3,0.9,0.5,1.2,0.6s0.4,0.1,0.6,0
			c0.2,0,0.3-0.2,0.5-0.3c0.1-0.2,0.1-0.4,0.1-0.5c0-0.2-0.2-0.3-0.4-0.4s-0.4-0.1-0.8,0l-0.3-1.4c0.5-0.1,1-0.2,1.3-0.1
			c0.4,0,0.7,0.2,0.9,0.5c0.3,0.2,0.5,0.6,0.7,1.1c0.3,0.7,0.3,1.4,0.3,1.5c0,0.3-0.3,0.7-0.5,0.9c-0.3,0.2-0.6,0.4-1,0.6
			c-0.5,0-1.2-0.2-1.4-0.2c-0.4-0.1-0.9-0.3-1.5-0.7c-0.3-0.2-0.3-0.1-0.4-0.4l0.6,2.3H164.6z"/>
	</g>
	<path class="special2-5" d="M199.5,104h0.6l4.8-0.2"/>
	<path class="special2-5" d="M205.7,105.5l-4,0.1c0.3,0.3,0.5,0.5,0.7,0.7s0.2,0.3,0.4,0.6H201c-0.3-0.5-0.4-0.7-0.8-0.9
		c-0.3-0.2-0.7-0.3-1-0.5"/>
	<g>
		<path d="M118.5,145.6c0.7-0.5,1.4-1,2.1-1.4c0.8-0.4,1.7-0.7,2.5-0.7c1.6-0.2,3.6-0.2,5,0.8c0.7,0.4,1.4,1,2,1.6
			c0.3,0.3,0.6,0.7,0.8,1s0.5,0.7,0.7,1.1c0.4,0.8,0.7,1.6,0.8,2.5c0,0.5,0,0.9-0.2,1.4s-0.5,0.8-0.8,1.2l-0.4-0.4
			c1-1.2,0.5-2.8-0.2-4.2c-0.2-0.4-0.3-0.7-0.5-1.1c-0.2-0.4-0.4-0.7-0.6-1c-0.5-0.6-1.2-1.1-1.8-1.6c-0.7-0.4-1.4-0.6-2.2-0.7
			c-0.8,0-1.6,0.2-2.4,0.3s-1.5,0.3-2.3,0.6c-0.7,0.3-1.5,0.7-2.2,1L118.5,145.6z"/>
	</g>
	<g>
		<path class="special2-6" d="M116.7,142.3c0,0,1.2,1.8,1.4,1.9c0.2,0,1.1,0,1.8-0.5c0.7-0.5,1.2-0.9,0.9-1.4c-0.3-0.5-1.6-1.7-1.6-1.7
			s-0.4,0.9-0.4,1.2s0.6,1.2,0.5,1.3s-1.1-0.7-1.1-0.7S117.1,142.3,116.7,142.3z"/>
		<path class="special2-6" d="M114.4,139.3c0,0,1.3,1.7,1.4,1.8c0.2,0.1,1.1,0,1.7-0.6c0.6-0.5,1.1-1,0.8-1.4c-0.4-0.5-1.6-1.7-1.6-1.7
			s-0.3,0.9-0.3,1.3c0,0.3,0.6,1.2,0.5,1.2c-0.1,0.1-1.1-0.6-1.1-0.6S114.8,139.3,114.4,139.3z"/>
		<path class="special2-6" d="M111.9,135.9c0,0,1.1,1.9,1.2,1.9c0.2,0.1,1,0,1.7-0.4s1.2-0.9,0.9-1.3c-0.3-0.5-1.4-1.8-1.4-1.8
			s-0.4,0.9-0.5,1.2s0.5,1.2,0.4,1.3c-0.1,0-1-0.7-1-0.7S112.2,136,111.9,135.9z"/>
		<path class="special2-6" d="M110.1,132.2c0,0,0.7,2.1,0.8,2.1c0.1,0.1,1,0.2,1.8,0s1.4-0.7,1.1-1.1c-0.2-0.6-1-2-1-2s-0.6,0.8-0.7,1.1
			s0.3,1.3,0.2,1.3c-0.1,0-0.8-0.9-0.8-0.9S110.4,132.3,110.1,132.2z"/>
		<path class="special2-6" d="M109,128.4c0,0,0.4,2.1,0.5,2.2c0.1,0.1,1,0.4,1.8,0.3c0.8-0.1,1.5-0.4,1.3-0.9c-0.1-0.6-0.7-2.1-0.7-2.1
			s-0.7,0.7-0.9,1s0.1,1.4-0.1,1.3c-0.1,0-0.7-1-0.7-1S109.2,128.6,109,128.4z"/>
		<path class="special2-6" d="M108.2,126.5c0,0,0.1,0.1,0.2,0.1c0.3,0.2,0.9,0.5,1.5,0.5c0.8,0,1.5-0.1,1.5-0.6s-0.2-2.3-0.2-2.3
			s-0.9,0.6-1.1,0.8c-0.2,0.2-0.2,1.3-0.4,1.2c-0.1-0.1-0.4-1.1-0.4-1.1s-0.2-0.2-0.5-0.4"/>
		<path class="special2-6" d="M109.5,123.2c0.2,0.1,0.3,0.2,0.5,0.2c0.6,0.1,1.2,0.2,1.2-0.4c0-0.5-0.1-2.3-0.1-2.3s-0.7,0.4-0.9,0.6
			c-0.2,0.2-0.2,1.2-0.3,1.1"/>
	</g>
</g>
</svg>
