<?xml version="1.0" encoding="utf-8"?>
<!-- Generator: Adobe Illustrator 21.0.0, SVG Export Plug-In . SVG Version: 6.00 Build 0)  -->
<svg version="1.1" id="special" xmlns="http://www.w3.org/2000/svg" xmlns:xlink="http://www.w3.org/1999/xlink" x="0px" y="0px"
	 viewBox="467 270 169 190" style="enable-background:new 0 0 700 544.6;" xml:space="preserve">
<style type="text/css">
	.special-0{fill:none;stroke:#000000;stroke-miterlimit:10;}
	.special-1{fill:none;stroke:#000000;stroke-width:1.25;stroke-miterlimit:10;}
	.special-2{stroke:#000000;stroke-width:0.25;stroke-miterlimit:10;}
	.special-3{fill:none;stroke:#000000;stroke-width:0.5;stroke-miterlimit:10;}
	.special-4{fill:none;stroke:#000000;stroke-width:0.5;stroke-linejoin:round;stroke-miterlimit:10;}
	.special-5{fill:none;stroke:#000000;stroke-width:0.75;stroke-linejoin:round;stroke-miterlimit:10;}
	.special-6{fill:none;stroke:#000000;stroke-linejoin:round;stroke-miterlimit:10;}
	.special-7{fill:none;stroke:#000000;stroke-width:0.35;}
</style>
<g id="outline">
	<path class="special-0" d="M547.3,295.3c0.2-0.7,0.2-1.4,0-2.2c-0.8-3.2,0.7-6.2,2.5-5.8c1.8,0.4,7.2,2.2,7.2,2.2c2.1,0.8,6.5,2,6.9,1.7
		c0.3-0.3,1-7.3-1.8-11.8s-7.2-8.6-13.6-8.8c-6.2-0.2-9.2,0.5-13.3,4.6s-3.8,9.6-3.8,12.2c0,1.3,5.4,10.2,6.8,10.8
		c1.4,0.6,3,1.3,5.2,0.8c1.3-0.4,2.8-1.2,3.5-2.6"/>
	<path class="special-0" d="M534.3,292.9c0,0-0.5,3.6-0.5,4.3"/>
	<path class="special-1" d="M537.8,297.8c-2.1-0.6-6.2-1.5-8.6-0.6c-2.3,0.9-5.5,3.4-7.1,6.6s-2.2,5.8-2.8,9.5s-1.3,11.8-0.6,12.6"/>
	<g>
		<path d="M528.6,336.3c1,1.1,1.8,2.3,2.6,3.5s1.6,2.4,2.3,3.6s1.5,2.5,2.2,3.7c0.4,0.6,0.8,1.1,1.2,1.6c0.4,0.6,1,1,1.4,1.9
			c0.1,0.2,0.1,0.6,0.1,0.8c0,0.2-0.1,0.4-0.1,0.6c-0.1,0.4-0.2,0.7-0.4,1.1c-0.1,0.3-0.3,0.7-0.3,0.9v0.1v0.1c0,0.2,0,0.2-0.1,0.3
			l-0.1,0.5c-0.4,1.4-0.8,2.7-1.1,4.1c-0.1,0.3-0.1,0.7-0.2,1c0,0.2,0,0.8,0,0.6c-0.1-0.1-0.1,0,0.1,0c0.1,0,0.3,0,0.4,0
			c0.3,0,0.7,0,1,0c1.4,0,2.8,0,4.2-0.1l8.5-0.6c1.4-0.1,2.9-0.2,4.3-0.2c1.4,0,2.8-0.1,4.2-0.2l4.3-0.3c1.4-0.1,2.8-0.2,4.3-0.1
			c0.1,0,0.2,0,0.3,0s0.1,0,0.2,0.1c0.1,0.1,0.1,0.1,0.1,0.1l0,0c0.1,0.1,0.2,0.2,0.4,0.2c0.3,0.1,0.5,0.2,0.8,0.1
			c0.2-0.1,0.5-0.3,0.7-0.5s0.2-0.5,0.3-0.8c0.1-0.6-0.1-1.3-0.2-2l-0.2-1c-0.1-0.4-0.1-0.7-0.2-1.1c-0.4-2.9-0.6-5.7-0.7-8.6
			l-0.2-8.5c0-0.7,0-1.4-0.2-2.1c-0.1-0.7-0.3-1.4-0.4-2.1c-0.3-1.4-0.7-2.7-1.1-4.1c-0.8-2.7-1.9-5.3-3.2-7.8
			c-1.3-2.4-3.1-4.7-4.7-7c-1.7-2.3-3.5-4.5-5.4-6.6c-0.2-0.3-0.5-0.5-0.7-0.8c-0.2-0.2-0.5-0.4-0.8-0.6c-0.6-0.4-1.1-0.8-1.7-1.2
			c-1.2-0.8-2.3-1.6-3.5-2.3c-1.2-0.7-2.4-1.5-3.7-2.1c-1.2-0.7-2.5-1.3-3.8-1.7l0.2-0.7c1.5,0.4,2.8,1,4,1.6
			c1.3,0.7,2.5,1.3,3.8,2.1c1.2,0.7,2.4,1.5,3.6,2.3c0.6,0.4,1.2,0.8,1.8,1.2c0.3,0.2,0.6,0.4,0.9,0.7c0.3,0.3,0.5,0.5,0.8,0.8
			c1.9,2.1,3.7,4.3,5.5,6.6c0.9,1.1,1.7,2.3,2.5,3.5s1.6,2.4,2.3,3.7c1.3,2.6,2.3,5.3,3.1,8c0.4,1.4,0.8,2.8,1.1,4.2
			c0.1,0.7,0.3,1.4,0.4,2.1c0.1,0.7,0.2,1.5,0.1,2.2l0.1,8.5c0.1,2.8,0.3,5.7,0.7,8.5c0.2,1.3,0.8,2.7,0.7,4.3
			c0,0.4-0.1,0.8-0.4,1.2c-0.3,0.4-0.6,0.6-1,0.8c-0.4,0.2-0.9,0.1-1.3-0.1c-0.2-0.1-0.4-0.2-0.5-0.4c-0.1-0.1,0,0-0.1,0
			s-0.1,0-0.2,0c-2.7,0-5.6,0.3-8.5,0.5c-1.4,0.1-2.8,0.3-4.3,0.3c-1.4,0-2.8,0.1-4.2,0.3c-2.8,0.2-5.7,0.6-8.5,0.7
			c-1.4,0.1-2.9,0.1-4.3,0.1c-0.4,0-0.7,0-1.1,0c-0.2,0-0.4,0-0.6-0.1c-0.2,0-0.6-0.1-0.9-0.5c-0.2-0.4-0.2-0.7-0.2-0.8
			c0-0.2,0-0.4,0-0.6c0-0.4,0.1-0.8,0.2-1.1c0.3-1.4,0.8-2.8,1.1-4.1l0.1-0.5v-0.2v-0.1c0-0.1,0-0.1,0-0.2c0.1-0.4,0.2-0.8,0.4-1.1
			c0.1-0.3,0.2-0.6,0.3-1c0-0.2,0.1-0.3,0.1-0.4c0-0.2,0-0.1,0-0.3c-0.2-0.4-0.7-1-1.2-1.6s-0.9-1.2-1.3-1.8
			c-0.7-1.3-1.4-2.5-2.1-3.7c-0.7-1.2-1.4-2.5-2.2-3.7c-0.7-1.2-1.5-2.4-2.4-3.5L528.6,336.3z"/>
	</g>
	<g>
		<path class="special-2" d="M544.1,313.8c-1.1,2.1-2.3,4.2-3.5,6.3c-0.6,1.1-1.2,2.1-1.7,3.2c-0.2,0.5-0.5,1.1-0.8,1.7
			c-0.3,0.5-0.6,1.1-0.9,1.6c-1.2,2.1-2.6,4.1-3.9,6.1c-0.3,0.5-0.7,1-1.1,1.5c-0.4,0.5-0.7,1-1.3,1.5c-0.5,0.4-1.1,0.7-1.6,1
			s-1,0.6-1.1,0.9c0,0.1-0.1,0.1-0.1,0.2s0,0.3,0,0.4v0.9l0.1,1.8l0.2,3.6c0.1,1.2,0.1,2.4,0.2,3.6c0,0.4,0.2,1.1,0.4,1.6l0.5,1.7
			l2.1,6.9c0.3,1.1,0.8,2.2,1,3.4c0.3,1.1,0.7,2.2,1.1,3.3c0.4,1.2,0.8,2.6,1,3.8c0.1,0.6,0.6,4.2,2,6.6c0.4,0.5,1.8,2.4,2.2,2.7
			c0.2,0.2,0.5,0.4,0.7,0.6c0.2,0.3,0.4,0.6,0.5,0.9c0,0.2,0,0.4-0.1,0.6s-0.3,0.4-0.5,0.4c-0.4,0.1-0.7,0-1-0.1
			c-1.3-0.4-3-3.2-3-3.2c-0.1-0.8,0.8,0.8,0.8,0.8c0.2,0.6,0.4,1.2,0.5,1.8c0,0.2,0,0.3,0,0.5c-0.1,0.2-0.2,0.4-0.4,0.5
			c-0.4,0.2-0.8,0.1-1.1-0.1s-0.5-0.5-0.7-0.7c-0.2-0.3-0.4-0.5-0.5-0.8c-0.3-0.5-0.6-1.1-0.8-1.6c-0.2-0.6-0.4-1.2-0.6-1.7
			c0-0.1-0.1-0.1-0.1-0.2l0,0c0,0,0,0,0.1,0s0.1,0,0.1,0s0,0.2,0,0.3c0,0.3,0,0.6,0,0.9c0,0.6,0.1,1.2-0.1,1.9
			c-0.1,0.2-0.1,0.3-0.2,0.5c-0.1,0.2-0.3,0.3-0.4,0.4c-0.3,0.2-0.7,0.2-1,0.2s-0.7-0.2-1-0.5c-0.1-0.1-0.2-0.3-0.3-0.5
			c0-0.2,0-0.3,0-0.5c0.1-1.2,0.2-2.4,0.2-3.6c0-0.3,0-0.6,0-0.9c0-0.1,0-0.3,0-0.4s0-0.1,0-0.1s0,0,0.1,0.1h0.1l0,0
			c0,0-0.1,0.2-0.2,0.3l-0.3,0.4c-0.2,0.2-0.4,0.5-0.6,0.7c-0.4,0.4-0.9,0.9-1.4,1.3c-0.2,0.2-0.5,0.4-0.8,0.5s-0.6,0.3-1,0.3
			c-0.3,0-0.5-0.3-0.5-0.5c-0.1-0.2-0.1-0.4-0.1-0.6c0-0.3,0.1-0.7,0.2-1c0.2-0.6,0.5-1.2,0.8-1.7l1-1.5l0.5-0.7
			c0.1-0.1,0.2-0.3,0.3-0.4l0.1-0.1c0,0,0,0,0,0.1l0.4,0.1c-0.4,0.5-1.1,1-1.7,1.3c-0.7,0.3-1.4,0.5-2.1,0.6l-1.1,0.1
			c-0.4,0-0.8,0-1.2-0.1c-0.2-0.1-0.4-0.2-0.6-0.4c-0.2-0.3-0.1-0.7,0.1-0.9c0.3-0.4,0.6-0.5,1-0.7c0.6-0.3,1.3-0.6,1.9-0.9
			c0.3-0.2,0.4-0.3,0.5-0.6c0.1-0.3,0.1-0.6,0.1-0.9c0-0.4-0.1-0.6-0.1-1.1l0.1-1.1c0-0.2,0-0.3,0-0.5c0-0.1,0-0.1,0-0.1l-0.1-0.2
			c-0.2-0.3-0.3-0.6-0.5-0.9c-0.3-0.5-0.9-1-1.4-1.5c-0.6-0.6-0.9-1.2-1.2-1.8c-0.7-1.2-1.4-2.5-2-3.7c-1.3-2.5-2.5-5.1-3.7-7.7
			c-0.6-1.3-1.1-2.6-1.6-3.9c-0.5-1.4-1-2.7-1.2-4.2c0-0.2,0-0.4,0-0.7c0-0.3,0.1-0.4,0.1-0.6l0.2-1c0.2-0.7,0.3-1.4,0.5-2.1
			c0.4-1.4,0.8-2.7,1.3-4.1c0.5-1.3,1.1-2.7,1.7-3.9c0.6-1.3,1-2.6,1.5-3.9l1.5-4c0.3-0.7,0.5-1.3,0.8-2s0.5-1.3,1.1-1.9l0.3,0.3
			c-0.4,0.5-0.7,1.2-1,1.8c-0.3,0.6-0.5,1.3-0.7,2l-1.3,4c-0.5,1.3-0.9,2.7-1.4,4c-0.6,1.3-1.1,2.6-1.5,3.9s-0.8,2.7-1.1,4l-0.4,2.1
			c-0.1,0.7-0.3,1.4-0.3,1.9c0.1,1.2,0.6,2.6,1,3.9c0.5,1.3,1,2.6,1.5,3.9c1.1,2.6,2.2,5.2,3.5,7.7c0.6,1.3,1.3,2.5,1.9,3.7
			c0.3,0.6,0.7,1.3,1.1,1.7c0.5,0.5,1,1,1.5,1.6c0.2,0.3,0.4,0.6,0.5,0.9l0.1,0.2c0.1,0.2,0.1,0.3,0.1,0.4c0,0.2,0,0.4,0,0.6l-0.1,1
			c0,0.3,0.1,0.7,0.1,1c0,0.4,0,0.8-0.1,1.2c-0.1,0.4-0.5,0.8-0.8,1c-0.7,0.4-1.3,0.6-2,0.9c-0.3,0.1-0.6,0.3-0.7,0.5
			c-0.1,0.1-0.1,0.1,0,0.1c0,0,0.1,0.1,0.3,0.2c0.5,0.2,1.2,0,1.9,0c1.4-0.2,2.7-0.6,3.6-1.8c0.1-0.1,0.2-0.1,0.3,0l0,0l0,0
			c0.2,0.2-0.4,1-0.5,1.2l-0.5,0.7l-1,1.5c-0.3,0.5-0.6,1-0.8,1.5c-0.1,0.3-0.1,0.5-0.1,0.8s0.1,0.5,0.1,0.4c0.1,0,0.4-0.1,0.7-0.2
			c0.2-0.1,0.5-0.3,0.7-0.5c0.5-0.4,0.9-0.8,1.3-1.2c0.2-0.2,1.5-1.5,1.6-1.5c0.2,0,0.3,1.6,0.3,1.9c0,1.2-0.2,2.4-0.2,3.6
			c-0.4,1.1,1.8,1.4,1.9,0.3c0.2-0.5,0.1-1.1,0.1-1.7c0-0.3,0-0.6,0-0.9c0-0.1,0.2-0.6,0.3-0.6c0.1,0,0.2,0,0.2,0.1
			c0.1,0.1,0.6,1.5,0.9,2c0.2,0.5,0.5,1.1,0.8,1.6s0.7,1.1,1,1.3c0.2,0.1,0.5,0.1,0.6,0.1c0.2-0.1,0.2-0.3,0.2-0.5
			c0-0.5-0.2-1.1-0.4-1.7l-0.3-0.8l0,0l0,0c-0.2,0.2,2.2,2.4,3.2,2.8c0.3,0.1,0.5,0.1,0.7,0.1s0.2-0.2,0.2-0.4
			c0-0.2-0.2-0.5-0.3-0.7c-0.2-0.2-0.4-0.4-0.6-0.6c-0.5-0.4-0.9-0.8-1.3-1.3c-0.4-0.5-0.7-1-1-1.5c-0.7-1-1.2-2.1-1.6-3.3
			c-0.2-0.6-0.7-3.1-0.8-3.6c-0.3-1.2-0.7-2.2-1-3.4L532,362c-0.2-1.2-0.6-2.3-1-3.5l-2.2-6.9l-0.5-1.7c-0.2-0.6-0.4-1.1-0.4-1.9
			c-0.1-1.2-0.2-2.4-0.3-3.6l-0.3-3.6l-0.1-1.8l-0.1-0.9c0-0.2,0-0.3,0-0.5s0.1-0.5,0.2-0.7c0.4-0.8,1-1.1,1.5-1.5
			c0.5-0.3,1-0.6,1.4-0.9s0.7-0.8,1.1-1.2l1.1-1.4c1.5-1.9,2.9-3.8,4.2-5.8c0.3-0.5,0.7-1,1-1.5s0.6-1,0.8-1.6
			c0.6-1.1,1.2-2.1,1.8-3.2c1.2-2.1,2.5-4.1,3.7-6.2L544.1,313.8z"/>
	</g>
	<path class="special-0" d="M535.5,360.3c-0.7,0.7-1.6,4.3-1.9,5.4"/>
	<g>
		<path class="special-2" d="M534,378.5c-0.2,0.3-0.2,0.8-0.3,1.4c0,0.5,0,1.1,0,1.7c0,1.2,0.1,2.3,0,3.5c-0.1,0.6-0.1,1.2-0.4,1.8
			c-0.3,0.7-0.5,1.1-0.8,1.6c-0.5,1-0.9,2.1-1.3,3.2c-0.8,2.1-1.4,4.4-1.7,6.6c-0.2,1.1-0.2,2.2-0.2,3.4c0,0.6,0,1.2-0.1,1.9
			c-0.1,0.3-0.3,0.8-0.8,1.1c-0.4,0.2-0.8,0.2-1.2,0.2c-0.8-0.1-1.3-0.4-1.9-0.7c-0.5-0.3-1-0.6-1.5-1c-1-0.7-1.9-1.3-2.8-1.8
			c-1-0.5-2-0.8-3.1-0.9s-2.2,0-3.3,0.2c-1.1,0.1-2.3,0.3-3.5,0.4s-2.3,0.1-3.5,0c-2.3-0.1-4.7-0.2-7-0.7c-0.6-0.1-1.2-0.3-1.8-0.5
			c-0.6-0.2-1.1-0.5-1.7-1c-0.5-0.5-0.8-1.2-0.9-1.8c-0.1-0.6-0.3-1.1-0.5-1.5c-0.5-0.9-1.2-1.7-2.2-2.1c-0.9-0.3-2-0.3-3,0.1
			s-2.1,0.9-3,1.5s-1.8,1.4-2.8,2c-1.1,0.6-2.2,1-3.4,1.3l-3.4,0.8c-2.2,0.5-4.5,1-6.2,2.4c-0.8,0.7-1.6,1.6-2.1,2.5
			c-0.6,0.9-1,2-0.7,2.9c0.1,0.5,0.4,0.8,0.8,1.2c0.4,0.3,0.8,0.6,1.3,0.7c1,0.2,2.1,0,3.3-0.2c2.3-0.2,4.6-0.5,6.9-0.6
			c1.1,0,2.3-0.4,3.6-0.1c0.6,0.2,1.2,0.5,1.7,1c0.4,0.4,0.8,0.6,1.3,0.7c0.2,0,0.5,0.1,0.7,0c0.1,0,0.2,0,0.3-0.1
			c0.1,0,0.2-0.1,0.1,0v0.2c0.1,0.1,0,0-0.1-0.1l-0.1-0.1c0,0,0-0.1-0.1-0.1s-0.1-0.5,0.2-0.6c0.2-0.1,0.2-0.1,0.3-0.1h0.1h0.1
			l0.9,0.1c1.1,0,2.3,0,3.5,0.1c2.3,0.2,4.7,0.6,6.9,1.4c1.1,0.4,2.2,1,3.2,1.5l3.1,1.5c2.1,1,4.2,2,6.3,2.8c0.6,0.2,1,0.3,1.6,0.4
			s1.1,0.3,1.7,0.4c1.1,0.3,2.2,0.7,3.3,1.1s2.2,1,3.1,1.7c0.9,0.6,2,0.9,3.1,1.2c2.2,0.5,4.5,0.6,6.8,0.6c1.1,0,2.3-0.1,3.4-0.4
			c1.1-0.2,2.2-0.6,3-1.3c1.6-1.5,2.7-3.6,3.7-5.6c2.1-4.1,4-8.2,5.9-12.4c0.5-1,1-2.1,1.4-3.1c0.4-1.1,0.8-2.2,1.2-3.2
			c0.9-2.1,2-4.5,3.1-6.6c1.2-2,2.5-3.9,4-5.7c0.8-0.9,1.6-1.8,2.5-2.5s2.1-1.2,3.3-1.4l0.1,0.6c-1.1,0.2-2,0.8-2.9,1.5
			s-1.7,1.6-2.4,2.4c-1.4,1.8-2.8,3.7-3.9,5.6c-1,2-1.9,4.2-2.8,6.3c-0.4,1.1-0.8,2.1-1.2,3.2s-0.9,2.1-1.4,3.2
			c-2,4.2-4.2,8.3-6.2,12.4c-1.1,2.1-2.1,4.2-3.9,5.9c-1,0.8-2.1,1.2-3.3,1.5s-2.3,0.4-3.5,0.4c-2.3,0.1-4.7-0.1-7-0.6
			c-1.1-0.3-2.3-0.6-3.4-1.3c-0.9-0.7-1.9-1.2-3-1.6s-2.1-0.8-3.2-1.1c-0.6-0.1-1.1-0.3-1.7-0.4c-0.5-0.1-1.2-0.3-1.7-0.5
			c-2.2-0.8-4.3-1.8-6.4-2.8l-3.1-1.5c-1.1-0.5-2.1-1-3.1-1.4c-2.1-0.7-4.4-1.1-6.7-1.3c-1.1-0.1-2.3-0.1-3.4-0.1h-0.9h-0.1l0,0
			c0,0,0,0,0.2-0.1s0.2-0.6,0.1-0.5l0,0v0.1c0.1,0.1,0.1,0,0.2,0.2s0.1,0.5,0,0.6c-0.2,0.3-0.4,0.4-0.6,0.5s-0.4,0.1-0.5,0.1
			c-0.3,0.1-0.7,0-1,0c-0.7-0.1-1.3-0.5-1.7-1c-0.4-0.4-0.8-0.6-1.3-0.7c-1-0.2-2.1,0.1-3.3,0.1c-2.3,0.1-4.6,0.4-6.9,0.6
			c-1.1,0.1-2.3,0.4-3.6,0.1c-0.7-0.1-1.3-0.5-1.7-0.9c-0.5-0.4-0.9-1-1.1-1.7c-0.3-1.4,0.2-2.6,0.8-3.7c0.6-1,1.4-1.9,2.3-2.8
			c0.9-0.8,2.1-1.3,3.2-1.7c1.1-0.4,2.3-0.7,3.4-0.9l3.4-0.8c1.1-0.3,2.2-0.6,3.1-1.2c0.9-0.5,1.8-1.4,2.8-2s2-1.2,3.2-1.6
			c1.1-0.4,2.5-0.5,3.8-0.1c1.2,0.5,2.2,1.5,2.8,2.6c0.6,1.2,0.6,2.5,1.2,3c0.3,0.3,0.8,0.6,1.3,0.8c0.5,0.2,1,0.3,1.6,0.5
			c2.2,0.4,4.5,0.6,6.8,0.6c1.1,0,2.3,0,3.4-0.1c1.1-0.1,2.3-0.2,3.4-0.4c1.2-0.1,2.3-0.3,3.6-0.2c1.2,0.1,2.4,0.5,3.5,1
			c1.1,0.6,2,1.3,3,1.9c0.9,0.6,1.9,1.3,2.8,1.4c0.2,0,0.5,0,0.5-0.1c0.1,0,0.1-0.1,0.2-0.3c0.1-0.4,0.1-1,0.1-1.6
			c0-1.2,0.1-2.4,0.2-3.5c0.3-2.3,0.9-4.6,1.7-6.8c0.4-1.1,0.8-2.2,1.3-3.3c0.2-0.5,0.6-1.1,0.7-1.5c0.2-0.5,0.2-1,0.3-1.5
			c0.1-1.1,0-2.2,0-3.4c0-0.6,0-1.2,0-1.8c0-0.6,0-1.2,0.4-2L534,378.5z"/>
	</g>
	<g>
		<path class="special-2" d="M569,360.2c0,0.7,0,1.3,0.1,1.8c0.2,0.5,0.5,1,1,1.4l2.9,2.6l5.7,5.3c0.9,0.9,1.9,1.7,2.8,2.7
			c0.9,1,1.7,2,2.5,3c1.6,2.1,3.1,4.2,4.4,6.5c1.3,2.3,2.5,4.5,3.9,6.8c0.7,1.1,1.3,2.2,2.1,3.2c0.2,0.3,0.4,0.5,0.6,0.7
			c0.2,0.2,0.4,0.4,0.6,0.7c0.5,0.5,0.9,0.9,1.4,1.5l1.3,1.5c0.4,0.6,0.8,1.2,1,1.8c0.5,1.3,0.9,2.5,1.1,3.9c0.1,0.7,0,1.3,0.1,2
			c0,0.6,0.1,1.3,0.1,1.9c0.1,1.3,0.3,2.5,0.6,3.8s0.6,2.4,1.1,3.6s1.1,2.4,1.6,3.5c0.5,1.2,1.1,2.4,1.6,3.6
			c0.5,1.3,0.7,2.6,0.9,3.9c0.4,2.5,0.7,5.2,1.5,7.6c0.9,2.4,2,4.8,3.3,7c0.7,1.1,1.4,2.1,2.3,3c0.9,0.9,2,1.4,3.2,2
			c2.3,1.1,4.7,2.1,7.2,2.9c1.2,0.4,2.5,0.8,3.7,0.9c1.2,0.2,2.5,0.1,3.8,0c0.7,0,1.3,0,2,0c0.7,0.1,1.4,0.2,2,0.7
			c0.1,0.2,0.3,0.3,0.3,0.5l0.1,0.3l0.1,0.2c0.1,0.3,0.1,0.7,0.2,1c0.1,0.7,0,1.4-0.3,2.1s-0.8,1.2-1.3,1.6c-0.6,0.4-1.2,0.7-1.8,1
			c-1.3,0.5-2.6,0.7-3.9,0.9c-2.6,0.4-5.2,0.5-7.8,0.6c-1.3,0-2.6,0-3.9,0c-1.3,0-2.6-0.1-3.9,0c-2.6,0.1-5.2,0.3-7.8,0.2
			c-0.7,0-1.3,0-2-0.1s-1.3-0.1-2-0.4c-0.2-0.1-0.4-0.2-0.6-0.5c-0.1-0.2-0.1-0.4-0.2-0.6c-0.1-0.4-0.1-0.7-0.1-1
			c0-0.7,0.1-1.3,0.1-2c0.1-0.7,0.1-1.2,0-1.9l-0.3-1.9c-0.1-0.7-0.2-1.3-0.2-2c0-0.6-0.1-1.2-0.2-1.9c-0.2-1.2-0.6-2.4-1.3-3.4
			c-0.2-0.3-0.4-0.5-0.6-0.7c-0.2-0.3-0.4-0.6-0.6-0.9c-0.4-0.6-0.7-1.1-1-1.7c-1.2-2.3-2.4-4.6-3.8-6.8c-0.7-1.1-1.4-2.1-2.3-3
			c-0.2-0.2-0.4-0.4-0.7-0.6l-0.8-0.6c-0.3-0.2-0.5-0.5-0.8-0.8c-0.2-0.3-0.4-0.6-0.6-0.9c-1.3-2.4-1.8-5.1-2.1-7.7
			c-0.2-1.3-0.3-2.6-0.3-3.9s0-2.6-0.3-3.8c-0.2-1.2-0.6-2.4-1.3-3.4s-1.5-2-2.5-2.7c-2-1.6-4.1-3-6.4-4.3l-3.4-1.9
			c-1.1-0.6-2.3-1.3-3.3-2.1c-4.2-3.2-7.7-7.1-11.1-11l0.5-0.5c3.6,3.8,7.1,7.6,11.2,10.7c1,0.8,2.1,1.4,3.2,2l3.4,1.9
			c2.3,1.3,4.4,2.8,6.5,4.3c1.1,0.8,2,1.8,2.8,3c0.7,1.2,1.2,2.5,1.5,3.8s0.3,2.7,0.3,4s0.1,2.5,0.3,3.8s0.4,2.5,0.7,3.8
			c0.3,1.2,0.7,2.4,1.3,3.5c0.1,0.3,0.3,0.5,0.5,0.7s0.4,0.4,0.6,0.6l0.8,0.5c0.3,0.2,0.6,0.5,0.8,0.7c1,1,1.7,2.1,2.4,3.2
			c1.4,2.2,2.5,4.6,3.7,6.9c0.3,0.6,0.6,1.1,0.9,1.7c0.2,0.3,0.3,0.5,0.5,0.7c0.2,0.3,0.4,0.5,0.6,0.8c0.8,1.2,1.2,2.5,1.4,3.8
			c0.1,0.7,0.2,1.3,0.2,2c0,0.6,0.1,1.2,0.2,1.9l0.2,1.9c0.1,0.6,0.1,1.4,0,2s-0.1,1.3-0.1,1.9c0,0.3,0,0.6,0,0.9
			c0,0.1,0.1,0.3,0.1,0.3s0,0.1,0.2,0.1c0.5,0.2,1.2,0.3,1.8,0.3c0.6,0.1,1.3,0.1,1.9,0.1c2.6,0,5.2-0.1,7.8-0.2
			c1.3-0.1,2.6,0,3.9,0c1.3,0,2.6,0,3.9,0c2.6-0.1,5.2-0.2,7.7-0.6c1.3-0.2,2.5-0.4,3.7-0.9c1.2-0.4,2.3-1.1,2.7-2.2
			c0.2-0.5,0.3-1.1,0.2-1.7s-0.2-1.3-0.5-1.6c-0.3-0.3-1-0.5-1.6-0.5c-0.6-0.1-1.3,0-1.9,0c-1.3,0-2.6,0.1-3.9,0
			c-1.3-0.2-2.6-0.6-3.8-1c-2.5-0.8-4.9-1.8-7.3-2.9c-0.6-0.3-1.2-0.6-1.7-0.9c-0.6-0.3-1.2-0.8-1.6-1.2c-1-1-1.7-2-2.4-3.2
			c-1.4-2.3-2.5-4.6-3.4-7.1c-0.8-2.6-1.1-5.1-1.6-7.7c-0.2-1.3-0.4-2.5-0.9-3.7s-1-2.4-1.6-3.5c-0.5-1.2-1.1-2.3-1.6-3.5
			c-0.6-1.2-1-2.5-1.2-3.8c-0.3-1.3-0.5-2.6-0.6-3.9c-0.1-0.7-0.1-1.3-0.2-2c0-0.7,0-1.4-0.1-1.9c-0.2-1.2-0.5-2.4-1-3.5
			c-0.3-0.6-0.5-1.1-0.9-1.6l-1.2-1.5c-0.4-0.5-0.8-0.9-1.3-1.4c-0.2-0.2-0.5-0.5-0.7-0.7c-0.2-0.3-0.4-0.5-0.6-0.8
			c-0.8-1.1-1.4-2.2-2.1-3.3c-1.3-2.2-2.5-4.6-3.8-6.8c-1.3-2.2-2.8-4.4-4.3-6.4c-0.8-1-1.6-2-2.4-3c-0.9-0.9-1.9-1.8-2.8-2.7
			l-5.6-5.4l-2.8-2.7c-0.5-0.5-0.9-1.1-1.1-1.8c-0.2-0.7-0.1-1.4-0.1-2h0.6V360.2z"/>
	</g>
	<g>
		<path d="M553.1,301c0.2,0.5,0.3,1,0.4,1.5c0,0.1,0,0.1,0,0.2s0,0.2-0.1,0.3l-0.1,0.1c-0.1,0.2-0.3,0.3-0.4,0.3
			c-0.2,0.2-0.5,0.3-0.7,0.4c-0.5,0.2-1,0.3-1.6,0.3c-0.5,0-1.2-0.1-1.5-0.5c0.5,0,1-0.1,1.4-0.3c0.4-0.1,0.9-0.3,1.3-0.5
			c0.4-0.1,0.9-0.4,0.9-0.4C552.8,302,552.9,301.5,553.1,301z"/>
	</g>
	<g>
		<path d="M557,292.4c-0.1,0.5-0.4,0.9-0.5,1.3c0,0.2-0.1,0.3,0,0.4l0.1,0.3c0,0.1,0.1,0.3,0.1,0.4c0.1,0.5,0,1,0,1.4v1.4l0.1,1.4
			v0.4c0,0.1,0,0.1,0,0.2s0,0.1-0.1,0.3c0,0.1-0.3,0.3-0.4,0.3c-0.1,0-0.2,0-0.3,0s-0.3,0-0.4,0c-0.5,0-1-0.1-1.4-0.3l-0.7-0.2h-0.1
			l0,0h0.1c0.1,0,0.1,0,0.1-0.1l0,0c0,0-0.1,0.1-0.1,0.2l-0.6-0.1c0-0.1,0-0.3,0.1-0.4c0,0,0-0.1,0.1-0.2c0,0,0.1-0.1,0.2-0.1h0.1
			l0,0c0.1,0,0.2,0,0.2,0c0.3,0,0.5,0.1,0.7,0.1c0.5,0.1,0.9,0.2,1.3,0.3c0.1,0,0.2,0,0.3,0.1h0.1l0,0c0,0,0,0-0.1,0.1
			c0,0.1,0,0,0,0v-0.1c0-0.1,0-0.2,0-0.3c0-0.4,0-0.9,0-1.4c-0.1-0.9-0.2-1.8-0.5-2.7l-0.1-0.3c0-0.1-0.1-0.3-0.1-0.4
			c-0.1-0.3,0-0.7,0.1-0.9c0.3-0.5,0.6-0.8,0.8-1.2L557,292.4z"/>
	</g>
</g>
<g id="details">
	<line class="special-3" x1="556.6" y1="297" x2="558.8" y2="292.8"/>
	<path class="special-4" d="M547.2,302.1c-0.2-1.4,0.1-3.2,0.7-5.1l0,0c-2.2-1.8-4.2-3.6-4.4-3.7c-0.2-0.2-0.2-0.5,0-0.7s0.5-0.2,0.7,0
		c0,0,2,1.7,4,3.4l0,0c0.7-2.2,1.6-4.4,2.3-6l0,0c-1.6-0.6-2.8-1-2.8-1l0.3-0.9c0,0,1.2,0.4,2.9,1l0,0c0.3-0.8,0.6-1.2,0.6-1.3
		l0.9,0.4c-0.2,0.3-0.4,0.8-0.6,1.2l0,0c2.8,1,6.3,2.2,8.1,2.7c1.7,0.5,2,0.3,2.1,0.2c0.1-0.1,0-0.4,0-0.5s0-0.2,0-0.4h1
		c0,0.1,0,0.2,0,0.3c0,0.4,0.1,1-0.4,1.4c-0.2,0.2-0.6,0.3-1,0.3c-0.5,0-1.1-0.1-2-0.4c-1.8-0.5-5.4-1.8-8.2-2.7l0,0
		c-0.8,1.8-1.8,4.2-2.4,6.4c0,0,2.7,2.2,3.6,2.7c2.3,1.4,4,2.3,6.6,2.6c0.4,0,0.5,0,0.5,0c0.1-0.4-1-2-2.6-3.7l0,0l-0.6,1.1"/>
	<path class="special-4" d="M553.1,306l2.8-3.8l0,0c-1.3-0.5-2.5-1.1-3.8-2c-0.8-0.5-2-1.5-3.3-2.5l0,0c-0.5,2.1-0.8,4-0.4,5"/>
	<g>
		<path d="M554.3,306.2c0-0.1,0.2,0,0.3-0.1h0.4c0.3,0,0.5,0,0.8,0c0.2,0,0.5-0.1,0.7-0.1c0.1-0.1,0.3-0.3,0.5-0.5
			c0.7-0.8,1.3-1.7,1.9-2.6l0,0l0,0l0,0l0,0c0,0,0,0,0,0.1s0.1,0.1,0.1,0.1h-0.1h-0.1l-0.3-0.1l-0.5-0.1c-0.4-0.1-0.7-0.1-1.1-0.2
			c-0.1,0-0.1-0.1-0.1-0.2s0.1-0.1,0.2-0.1l0,0l0,0l0,0c0.1,0,0.1,0.1,0.1,0.2c0,0,0,0,0,0.1l0,0c-0.4,0.7-0.8,1.3-1.3,1.9l-0.7,0.9
			l-0.4,0.5l-0.2,0.2L554.3,306.2L554.3,306.2c0,0.1,0,0.1,0,0.1C554.3,306.3,554.3,306.3,554.3,306.2L554.3,306.2z M554,306.3v-0.1
			v-0.1V306l0.1-0.1l0.2-0.2l0.3-0.5l0.7-1c0.4-0.6,0.9-1.2,1.4-1.9l0.1,0.2l0,0l0.1-0.3c0.3,0.1,0.7,0.2,1,0.2l0.5,0.1l0.3,0.1h0.1
			h0.1c0,0,0.1,0,0.1,0.1s0,0.1,0,0.1s0,0,0,0.1l0,0c-0.6,0.9-1.1,1.9-1.7,2.8c-0.2,0.2-0.3,0.4-0.6,0.6c-0.4,0.2-0.6,0.1-0.9,0.2
			c-0.3,0-0.6,0-0.8-0.1c-0.1,0-0.3,0-0.4-0.1C554.4,306.5,554.3,306.5,554,306.3L554,306.3z"/>
	</g>
	<path class="special-4" d="M559.8,293.1l-2.3,4.2l0,0c1.3,1.3,3.6,3.9,3,5.1c-0.1,0.1-0.2,0.3-0.3,0.4l-0.1,0.2c-0.7,1.3-2.3,3.9-3.2,4.3
		c-0.4,0.1-0.9,0.2-1.3,0.2c-0.8,0-1.7-0.1-1.8-0.2"/>
	<g>
		<path d="M545,315.8c0.3-0.6,0.6-1.1,0.7-1.7c0-0.3,0-0.6-0.1-0.8c-0.1-0.2-0.4-0.3-0.6-0.4c-1.1-0.4-2.3-0.3-3.5-0.3
			c-2.4,0.1-4.9,0.4-7.3,0.7c-2.4,0.3-4.8,0.8-7.2,1.4c-1.2,0.3-2.3,0.7-3.4,1.3c-1.1,0.5-2.1,1.2-2.7,2.4c0.3-1.2,1.4-2.1,2.4-2.8
			c1.1-0.7,2.2-1.2,3.4-1.6c2.4-0.8,4.8-1.3,7.3-1.7c2.5-0.3,4.9-0.5,7.4-0.5c1.2,0.1,2.5,0,3.8,0.6c0.3,0.2,0.6,0.4,0.8,0.7
			c0.2,0.3,0.2,0.7,0.1,1C545.7,314.7,545.3,315.2,545,315.8z"/>
	</g>
	<g>
		<path d="M523,362.3c0.4-0.7,1-1.3,1.8-1.7c0.8-0.3,1.6-0.5,2.4-0.5c0.4,0,0.8-0.1,1.2-0.1c0.4-0.1,0.8-0.1,1.2-0.2
			c0.8,0,1.6,0,2.4,0.4l-0.2,0.6c-0.7-0.1-1.5,0-2.2-0.1c-0.4,0-0.8-0.1-1.2-0.1s-0.8,0-1.2,0.1s-0.7,0.1-1.1,0.3
			c-0.3,0.1-0.6,0.4-0.9,0.6c-0.6,0.4-1.2,0.8-1.8,1.3L523,362.3z"/>
	</g>
	<g>
		<path d="M525.5,369.6c0.4-0.1,0.8-0.4,1.2-0.7c0.4-0.3,0.8-0.5,1.1-0.8l0.1,0.1c-0.3,0.4-0.7,0.7-1,1c-0.4,0.3-0.7,0.6-1.2,0.9
			L525.5,369.6z"/>
	</g>
	<g>
		<path d="M529.7,373.2l0.7-1l0.3-0.5c0.1-0.2,0.2-0.3,0.3-0.5h0.2c0,0.3-0.1,0.4-0.2,0.6l-0.2,0.6l-0.4,1.1L529.7,373.2z"/>
	</g>
	<g>
		<path d="M532.3,375.9l0.2-1.4l0.1-0.7c0-0.2,0-0.5,0-0.7l0.2-0.1c0.1,0.3,0.1,0.5,0.1,0.7l0.1,0.7l0.1,1.4L532.3,375.9z"/>
	</g>
	<g>
		<path d="M535.7,377.8l-0.7-1.5l-0.4-0.8c-0.1-0.3-0.2-0.5-0.3-0.8h0.1c0.1,0.2,0.2,0.5,0.4,0.7l0.4,0.7l0.9,1.4L535.7,377.8z"/>
	</g>
	<g>
		<path d="M528,370.4l0.9-0.8l0.4-0.4c0.1-0.1,0.3-0.3,0.4-0.4h0.2c-0.1,0.2-0.2,0.4-0.3,0.6l-0.3,0.5l-0.7,1L528,370.4z"/>
	</g>
	<g>
		<path d="M538.4,272.4c1.7,0.4,3.4,1,5,1.6c0.8,0.4,1.6,0.7,2.4,1.2c0.2,0.1,0.4,0.2,0.6,0.4c0.1,0.1,0.2,0.2,0.3,0.3
			c0.1,0.1,0.1,0.3,0.1,0.3v0.1c0,0.3,0.3,0.6,0.5,0.9c1.1,1.1,2.8,2.1,3.4,3.9c0.1,0.5,0.1,0.9,0,1.4c-0.1,0.4-0.2,0.9-0.4,1.3
			c-0.5,0.8-1.3,1.3-2.1,1.7c-0.8,0.4-1.6,0.7-2.5,0.9c-0.4,0.1-0.8,0.2-1.3,0.3c-0.2,0-0.4,0.1-0.7,0c-0.1,0-0.2,0-0.3-0.1
			c-0.1-0.2-0.1-0.3,0-0.4s0.2-0.2,0.3-0.3c0.3-0.3,0.8-0.5,1-0.7c0.2,0-0.2-0.4-0.6-0.5c-0.7-0.5-1.5-0.9-2.2-1.3l-4.4-2.6
			c-0.7-0.4-1.5-0.9-2.2-1.3c-0.4-0.2-0.8-0.4-1.1-0.6c-0.2-0.1-0.4-0.2-0.6-0.3c-0.2-0.1-0.5-0.1-0.4-0.1l-0.2-0.4
			c0.2-0.1,0.4,0,0.5,0s0.2,0.1,0.3,0.1c0.2,0.1,0.4,0.2,0.6,0.2c0.4,0.2,0.8,0.3,1.2,0.5c0.8,0.4,1.5,0.8,2.3,1.2
			c1.5,0.8,3,1.7,4.5,2.6c0.7,0.5,1.4,0.9,2.2,1.4c0.2,0.1,0.4,0.3,0.5,0.4s0.2,0.2,0.2,0.4c0.1,0.2,0,0.4-0.1,0.5
			c-0.4,0.4-0.8,0.5-1.1,0.7c-0.1,0.1-0.1,0.1-0.2,0.2c0,0,0,0,0-0.1c-0.1,0,0,0,0,0c0.1,0,0.4,0,0.6,0c0.4-0.1,0.8-0.1,1.2-0.3
			c0.8-0.2,1.6-0.5,2.4-0.8c0.8-0.4,1.5-0.9,1.8-1.6c0.2-0.3,0.3-0.7,0.4-1.1c0-0.4,0.1-0.8,0-1.2c-0.3-0.7-0.9-1.4-1.5-1.9
			c-0.3-0.3-0.6-0.5-1-0.8l-0.5-0.4c-0.2-0.2-0.3-0.3-0.5-0.5c-0.3-0.3-0.6-0.7-0.7-1.3c0-0.1,0-0.1,0-0.2l0,0c0,0-0.1-0.1-0.2-0.1
			c-0.1-0.1-0.3-0.2-0.5-0.3c-0.7-0.4-1.5-0.8-2.2-1.2c-1.6-0.7-3.1-1.4-4.8-1.9V272.4z"/>
	</g>
	<g>
		<path d="M535.5,279.1c0.5-0.1,0.9-0.4,1.3-0.7c0.4-0.3,0.7-0.7,0.7-1.1c0-0.2-0.1-0.5-0.1-0.8s0-0.7,0.3-0.9
			c0.3-0.2,0.6-0.2,0.8-0.3c0.3-0.1,0.5-0.1,0.8-0.2c0.5-0.1,1.1-0.1,1.6,0c0.3,0,0.6,0.2,0.8,0.4l0.5,0.6c0.7,0.7,1.5,1.5,2.2,2.2
			c0.2,0.1,0.4,0.2,0.6,0.1c0.2-0.1,0.1-0.3,0-0.5c-0.3-0.4-0.7-0.8-1-1.1c-0.7-0.7-1.4-1.5-2.3-1.9c-0.4-0.2-0.9-0.3-1.4-0.3
			s-1,0-1.5,0c-1,0-2.1,0.1-3,0.3l-0.1-0.3c1-0.4,2.1-0.4,3.1-0.5c0.5,0,1,0,1.6,0c0.5,0,1.1,0.2,1.6,0.4c0.9,0.5,1.7,1.3,2.3,2.1
			c0.3,0.4,0.7,0.8,1,1.2c0.1,0.1,0.2,0.2,0.2,0.4c0,0.2-0.1,0.4-0.2,0.5c-0.3,0.2-0.6,0-0.9-0.1l-2.2-2.2l-0.6-0.5
			c-0.2-0.2-0.3-0.2-0.6-0.3c-0.5-0.1-1,0-1.5,0.1c-0.2,0-0.5,0.1-0.7,0.2s-0.5,0.1-0.7,0.2c-0.1,0.1-0.2,0.2-0.1,0.5
			c0,0.2,0.1,0.5,0.1,0.8s-0.1,0.6-0.3,0.9c-0.2,0.2-0.4,0.4-0.6,0.6c-0.4,0.3-0.9,0.6-1.5,0.6L535.5,279.1z"/>
	</g>
	<g>
		<path d="M537.8,280.2c0.5-0.4,1.2-0.7,1.8-0.7c0.7,0,1.3,0.2,1.9,0.5c1.2,0.6,2.2,1.4,3.2,2.2c0.5,0.4,1,0.8,1.4,1.3
			c0.1,0.1,0.2,0.2,0.3,0.5c0,0.3-0.1,0.4-0.1,0.6c-0.1,0.2-0.2,0.3-0.3,0.4l-0.1,0.2c0,0-0.1,0.2-0.1,0c-0.1-0.1-0.1,0-0.1-0.1h0.1
			c0.1,0,0.1,0,0.2-0.1c0.1-0.1,0.3-0.1,0.4-0.2c0.3-0.1,0.6-0.3,0.9-0.4c0.5-0.3,1-0.7,1.3-1.2c0.2-0.6,0.1-1.2-0.1-1.8
			c-0.2-0.6-0.6-1.1-1.1-1.5c-0.4-0.4-0.9-0.9-1.5-0.9c-0.3,0-0.5,0.1-0.8,0.2c-0.3,0.2-0.6,0.3-0.9,0.4c-0.6,0.2-1.3,0.4-2,0.1
			c-0.7-0.4-1.1-0.7-1.7-0.9c-0.6-0.2-1.2-0.1-1.7,0.1c-0.6,0.2-1.1,0.5-1.6,0.9l-0.2-0.2c0.5-0.4,1-0.8,1.7-1.1
			c0.6-0.3,1.3-0.4,2-0.1c0.6,0.2,1.2,0.6,1.7,0.9c0.5,0.2,1.1,0.1,1.7-0.1c0.3-0.1,0.6-0.2,0.8-0.4c0.3-0.2,0.7-0.3,1-0.2
			c0.7,0.1,1.3,0.6,1.7,1c0.5,0.5,0.9,1,1.1,1.6c0.3,0.6,0.4,1.3,0.1,2c-0.3,0.7-0.8,1.1-1.4,1.4c-0.3,0.2-0.6,0.3-0.9,0.4l-0.4,0.2
			c-0.1,0-0.2,0.1-0.2,0.1h-0.1c0,0-0.1,0.1-0.3-0.1c-0.1-0.2,0-0.2,0-0.3c0,0,0-0.1,0.1-0.1l0.1-0.2c0.1-0.1,0.2-0.3,0.2-0.4
			c0.1-0.1,0.1-0.3,0.1-0.3s-0.1-0.2-0.2-0.3c-0.4-0.4-0.9-0.9-1.4-1.3c-1-0.8-2-1.6-3.1-2.2c-0.5-0.3-1.1-0.5-1.7-0.5
			c-0.6,0-1.2,0.2-1.7,0.6H537.8z"/>
	</g>
	<g>
		<path d="M541.8,276.4c-0.3,0.2-0.7,0.5-0.9,0.9c-0.1,0.2-0.2,0.2,0,0.4c0.2,0.2,0.3,0.3,0.5,0.5c0.4,0.3,0.9,0.6,1.2,0.5
			c0.4-0.1,0.9-0.2,1.3-0.4l0.2,0.2c-0.4,0.4-0.9,0.6-1.4,0.7c-0.3,0-0.6-0.2-0.8-0.3c-0.2-0.1-0.4-0.3-0.6-0.4
			c-0.2-0.1-0.4-0.3-0.6-0.5c-0.1-0.1-0.2-0.2-0.3-0.4c0-0.2,0-0.4,0.1-0.5c0.1-0.3,0.3-0.5,0.6-0.6c0.2-0.1,0.4-0.3,0.8-0.3
			L541.8,276.4L541.8,276.4z"/>
	</g>
	<path class="special-5" d="M549.2,303.6c-0.8-0.4-8.2,3-10.3,5.2c-1.2,1.2-1.2,2.2-2.2,2.2s-3.3,0.5-3.3-0.4s-0.2-4.1,0.5-5.3
		c0.7-1.2,4-2.5,5.7-3.1s4-1.6,5.9-0.8"/>
	<path class="special-5" d="M521.6,304.9c2.1,0,6.1,0.5,6.5,0.7c1.2,0.5,3.4,5,2.7,5.7c-0.6,0.6-3.6,1.3-4.1,1.3s-0.8-1.4-1.8-1.4
		s-5,0-5,0"/>
	<path class="special-5" d="M536.8,297.6c1.4,1,2.7,2.5,1.1,3.3s-4.9,1.6-5.5,3.5s-0.9,2.6-0.9,2.9s-0.3-1.3-1.5-2.5s-1.8-1.4-4.1-1.4
		s-3.4-0.2-3.4-0.2"/>
	<path class="special-5" d="M555.9,309.6v8.8l2.5,2.5l1.6-3.2l3.8,7.4c0,0,1.5,2.8,1.6,3.2c0.2,0.9-1.2,1.9-1.2,1.9s0.8,2.9,1.2,3.3
		s2.7-1.4,2.7-1.9"/>
	<g>
		<path d="M537.1,349.7c1.7-1.1,3.5-2.2,5.2-3.3c1.7-1.1,3.5-2.2,5.3-3.3c1.8-1.1,3.5-2.1,5.4-3.1c0.5-0.2,0.9-0.5,1.4-0.7
			s1-0.2,1.6-0.3c0.5,0,1-0.1,1.6,0c0.5,0,1,0.2,1.5,0.2v0.2c-2.1-0.3-4.2-0.3-5.9,0.9c-1.8,1-3.5,2.1-5.3,3.2
			c-1.7,1.1-3.5,2.3-5.2,3.4s-3.4,2.3-5.2,3.4L537.1,349.7z"/>
	</g>
	<g>
		<path d="M566.1,360c-4.4-0.4-8.8-0.6-13.2-1.4c-2.2-0.4-4.3-1.1-6.4-2c-1-0.4-2.1-0.8-3.1-1.1c-1.1-0.3-2.2-0.5-3.2-0.3V355
			c1.1-0.2,2.3-0.1,3.3,0.2c1.1,0.3,2.1,0.7,3.2,1c2.1,0.8,4.2,1.5,6.3,1.8c4.4,0.7,8.8,0.8,13.2,1.1L566.1,360z"/>
	</g>
	<g>
		<path d="M537.7,351c1.3-0.3,2.5-1.1,3.7-1.7c1.3-0.7,2.5-1.3,3.8-1.9s2.6-1.2,3.8-1.8c0.6-0.3,1.3-0.6,1.9-0.9
			c0.7-0.3,1.3-0.6,2.1-0.7v0.2c-0.6,0.1-1.3,0.5-1.9,0.8c-0.6,0.3-1.3,0.6-1.9,0.9c-1.3,0.6-2.5,1.3-3.8,2c-1.2,0.7-2.5,1.3-3.7,2
			s-2.4,1.5-3.9,2L537.7,351z"/>
	</g>
	<g>
		<path d="M567.3,328.8c-0.6,0-1.3-0.2-1.9-0.4c-0.6-0.2-1.1-0.2-1.7-0.1c-0.6,0.1-1.2,0.3-1.7,0.5l-1.8,0.6
			c-2.4,0.7-4.7,1.4-7.1,2.1v-0.1c2.3-0.8,4.7-1.5,7-2.3l1.7-0.6c0.6-0.2,1.2-0.4,1.8-0.6c0.6-0.1,1.3-0.1,1.9,0
			c0.6,0.2,1.2,0.3,1.8,0.3V328.8z"/>
	</g>
	<g>
		<path d="M569.4,336c-0.2,0.8-0.3,1.7-0.5,2.6s-0.6,1.7-1,2.4c-0.9,1.5-2.3,2.7-3.7,3.7s-3,1.7-4.5,2.5l-2.3,1.2l-1.2,0.6l-0.6,0.3
			l-0.3,0.1l-0.1,0.1h-0.1l0,0l0,0l-0.1-0.1l0,0l0,0l0.1,0.1l0,0l0,0c0,0,0-0.1-0.1-0.1l0,0l0,0h0.1l0.1-0.1l0.3-0.1l0.6-0.3
			l1.1-0.6l2.3-1.2c1.5-0.8,3-1.6,4.4-2.6s2.6-2.2,3.5-3.6c0.4-0.7,0.7-1.5,0.9-2.3s0.3-1.6,0.4-2.5L569.4,336z"/>
	</g>
	<g>
		<path d="M527.2,337.1c0.1-0.6,0.1-1.3,0.1-2c0-0.3-0.1-0.6-0.2-0.9c-0.1-0.3-0.3-0.6-0.6-0.7l0.1-0.2c0.4,0.1,0.6,0.4,0.8,0.7
			c0.2,0.3,0.3,0.7,0.4,1c0.2,0.7,0.2,1.4,0.2,2.1H527.2z"/>
	</g>
	<g>
		<path d="M528.5,404.6c0.1,0.9,0.2,1.7,0.3,2.4c0.2,0.8,0.4,1.5,0.7,2.2c0.5,1.4,1.6,2.9,2.4,4.4c0.5,0.7,0.9,1.4,1.4,2.1
			s1.1,1.3,1.6,1.9s1.1,1.3,1.6,1.8c0.5,0.6,1.2,1.1,1.6,1.1l0.3,0.8c-0.6,0.3-1.2,0-1.7-0.2c-0.4-0.2-0.8-0.5-1.1-0.8
			c-0.7-0.6-1.2-1.3-1.7-2s-0.9-1.5-1.3-2.2c-0.4-0.7-0.9-1.4-1.4-2.1s-1-1.4-1.5-2.1c-0.5-0.6-1.1-1.3-1.6-2.1
			c-0.4-0.8-0.7-1.7-0.8-2.6s0.1-1.8,0.2-2.6L528.5,404.6L528.5,404.6z"/>
	</g>
	<g>
		<path d="M582.9,406.6c0.7-1.2,1.6-2.5,2.6-3.5c0.5-0.5,1.2-1,1.8-1.5c0.3-0.2,0.6-0.5,1-0.7s0.7-0.3,1.1-0.4
			c0.7-0.3,1.4-0.6,2.1-0.9c0.7-0.3,1.3-0.7,2-1s1.4-0.5,2.1-0.7c0.8-0.2,1.4-0.3,2.3-0.3v0.9c-0.6,0.2-1.3,0.5-2,0.7
			s-1.4,0.5-2.1,0.7c-0.7,0.2-1.4,0.3-2.1,0.5c-0.7,0.2-1.4,0.5-2.1,0.8c-0.3,0.2-0.7,0.3-1,0.5s-0.5,0.4-0.8,0.6
			c-0.5,0.5-0.9,1.1-1.3,1.7c-0.9,1.1-1.8,2.2-3.1,3.2L582.9,406.6z"/>
	</g>
	<path class="special-6" d="M521.6,401c-2,0.6-3.3,0.1-5.1,2.8s-3.2,8.3-2.7,11.2c0.4,2,0.5,1.5,1,2"/>
	<path class="special-6" d="M587.1,424.8c1.6-1.6,5.4-3.3,8-3.8c2.7-0.4,8.4-1.1,8.9-0.7"/>
	<path class="special-6" d="M613.9,444.6c-1.1,0.3-3.9,1.2-6,3.9c-0.9,1.2-1.8,0.1-2.7-0.4c-1.2-0.6-4.9-2.8-4.8-1.3"/>
	<g>
		<path d="M625.5,451.6c-1.2,1.3-2.8,2.5-4.7,2.7c-1.9,0.3-3.7-0.3-5.4-0.9c-3.4-1.3-6.7-2.7-10-4.4l0.5-0.9
			c3.1,1.8,6.4,3.3,9.7,4.7c0.8,0.3,1.7,0.7,2.5,0.9c0.8,0.2,1.7,0.3,2.6,0.2c1.8-0.2,3.3-1.2,4.6-2.5L625.5,451.6z"/>
	</g>
	<g>
		<path d="M498,399.1c-1.9,0.1-3.8,0.1-5.6,0.2c-0.9,0.1-1.9,0.2-2.6,0.6c-0.8,0.5-1.5,1.1-2.1,1.8c-0.6,0.7-1.2,1.4-1.6,2.3
			l-0.5,1.3c-0.2,0.4-0.3,0.9-0.3,1.2c0,0.1,0,0.1,0.4,0.3c0.2,0.1,0.4,0.3,0.6,0.4l1.1,0.9c0.4,0.3,0.7,0.6,1.1,0.8
			c0.4,0.2,0.8,0.4,1.2,0.4l0.1,0.4c-0.6,0.1-1.1-0.1-1.5-0.4c-0.4-0.2-0.8-0.5-1.2-0.8l-1.1-0.9c-0.2-0.1-0.4-0.3-0.5-0.4l-0.3-0.2
			c-0.1-0.1-0.3-0.3-0.3-0.5c-0.1-0.4,0-0.6,0.1-0.9c0.1-0.2,0.2-0.5,0.3-0.7c0.2-0.4,0.4-0.8,0.6-1.3c0.5-0.9,1-1.6,1.7-2.3
			c0.6-0.7,1.4-1.4,2.2-1.9c0.9-0.5,1.9-0.8,2.8-0.9c1.9-0.2,3.8,0,5.7,0.1v0.5H498z"/>
	</g>
	<g>
		<path d="M496.3,395.4c-1.4,0.1-2.7,0.2-4,0.5s-2.6,0.8-3.7,1.7l-0.1-0.1c1-1,2.3-1.6,3.7-2c1.3-0.4,2.7-0.6,4.1-0.8V395.4z"/>
	</g>
	<path class="special-4" d="M545.6,361c0,0-3.5,13.8-4.2,15.8c-0.9,2.9-1.4,5.2-2.4,8.4c-0.6,1.8-4.2,13.9-5,16.7
		c-0.8,2.9-3.2,9.2-2.8,11.2"/>
	<path class="special-4" d="M540.8,361.4c-0.5,2.6-3.4,14-3.8,14.9"/>
	<path class="special-4" d="M535.5,381c0,0-5.8,22.7-7.4,24.4"/>
	<path class="special-7" d="M530.9,400.3c0,0-0.6,2-0.6,2.1c0,0.2,0.6,0.8,1.2,1.2c0.5,0.3,1,0.4,1.2,0c0.1-0.5,0.6-2.2,0.6-2.2
		s-0.8,0.2-1.1,0.3c-0.2,0.2-0.5,1.1-0.6,1.1c-0.1-0.1-0.1-1.2-0.1-1.2S531.1,400.6,530.9,400.3z"/>
	<path class="special-7" d="M532.1,396.3c0,0-0.7,1.9-0.7,2c0,0.2,0.5,0.9,1.1,1.3c0.6,0.3,1.1,0.5,1.3,0.1c0.2-0.5,0.7-2.4,0.7-2.4
		s-1,0.3-1.2,0.4s-0.6,1.1-0.7,1c-0.1-0.1,0-1.2,0-1.2S532.2,396.7,532.1,396.3z"/>
	<path class="special-7" d="M533.2,392c0,0-0.5,2-0.5,2.1c-0.1,0.5,0.6,0.9,1.2,1.2s1.2,0.4,1.3,0c0.1-0.5,0.4-2.3,0.4-2.3s-1,0.2-1.2,0.4
		c-0.2,0.2-0.5,1.2-0.6,1.1s-0.1-1.2-0.1-1.2S533.4,392.4,533.2,392z"/>
	<path class="special-7" d="M534.4,387.9c0,0-0.5,2-0.5,2.1c-0.1,0.6,0.5,0.9,1.2,1.2c0.6,0.3,1.2,0.5,1.3,0s0.5-2.2,0.5-2.2
		s-0.9,0.2-1.1,0.3s-0.5,1.1-0.6,1.1c-0.1-0.1-0.1-1.2-0.1-1.2S534.6,388.3,534.4,387.9z"/>
	<path class="special-7" d="M535.5,383.7c0,0-0.5,2-0.5,2.1c-0.1,0.4,0.5,0.9,1.2,1.2c0.6,0.3,1.4,0.4,1.5,0c0.1-0.5,0.6-2.2,0.6-2.2
		s-1.2,0.2-1.4,0.4c-0.2,0.2-0.5,1.1-0.6,1.1s-0.1-1.2-0.1-1.2S535.7,384.1,535.5,383.7z"/>
	<path class="special-7" d="M536.9,379.5c0,0,0,0.1-0.1,0.3c-0.2,0.6-0.5,2.2-0.5,2.3c0,0.3,0.4,0.4,1,0.6c0.6,0.3,1.4,0.5,1.6,0
		c0.1-0.3,0.2-1.2,0.3-1.7c0-0.3,0.1-0.5,0.1-0.5s-0.8,0.2-1,0.3c-0.2,0.2-0.5,1.1-0.6,1.1c-0.1-0.1-0.1-1.2-0.1-1.2
		S537,379.9,536.9,379.5z"/>
	<path class="special-7" d="M538.3,375.1c0,0-0.6,2-0.5,2.1c0,0.2,0.1,0.8,0.7,1c0.6,0.3,1.5,0.5,1.7,0.1c0.1-0.5,0.6-2.1,0.6-2.1
		s-0.9,0.2-1.2,0.3c-0.2,0.2-0.5,1.1-0.6,1.1s-0.1-1.2-0.1-1.2S538.5,375.4,538.3,375.1z"/>
	<path class="special-7" d="M539.4,371.6c0,0-0.6,1.9-0.6,2c0,0.6,0.6,1,1.3,1.3c0.6,0.3,1.1,0.3,1.2-0.1c0.1-0.5,0.6-2.2,0.6-2.2
		s-0.9,0.3-1.1,0.4s-0.5,1.1-0.6,1.1s-0.1-1.2-0.1-1.2S539.5,371.9,539.4,371.6z"/>
	<path class="special-7" d="M540.2,367.8c-0.5,1.9-0.5,1.9-0.5,2.1c-0.2,0.5,0.7,0.9,1.3,1.2c0.6,0.3,1.2,0.5,1.3,0s0.5-2.2,0.5-2.2
		s-0.9,0.2-1.1,0.3s-0.5,1.1-0.6,1.1s-0.1-1.2-0.1-1.2S540.4,368.1,540.2,367.8z"/>
	<path class="special-7" d="M541,364.1c0,0-0.4,2-0.4,2.1c0.1,0.2,0.6,0.9,1.2,1.1c0.7,0.2,1.2,0.4,1.3-0.1c0.1-0.6,0.4-2.3,0.4-2.3
		s-1,0.2-1.2,0.4c-0.2,0.2-0.4,1.2-0.5,1.1s-0.2-1.2-0.2-1.2S541.2,364.4,541,364.1z"/>
	<path class="special-7" d="M541.6,361c-0.2,0.6-0.3,1.3-0.3,1.4c0,0.6,0.7,0.7,1.4,1c0.7,0.2,1.2,0.4,1.3-0.1c0.1-0.6,0.4-2.3,0.4-2.3
		s-1,0.2-1.2,0.4c-0.2,0.2-0.4,1.2-0.5,1.1s-0.2-1.2-0.2-1.2s-0.1-0.1-0.2-0.3"/>
	<path class="special-7" d="M529.7,404.2c0,0-0.8,1.9-0.8,2c0,0.2,0.5,0.9,1.1,1.3c0.6,0.3,1.2,0.5,1.4,0.1c0.2-0.5,0.6-2.2,0.6-2.2
		s-0.8,0.1-1.1,0.3c-0.2,0.1-0.6,1.1-0.7,1c-0.1-0.1,0-1.2,0-1.2S529.8,404.6,529.7,404.2z"/>
</g>
</svg>
